<?xml version="1.0" encoding="UTF-8" standalone="no"?>
<!DOCTYPE svg PUBLIC "-//W3C//DTD SVG 1.1//EN"
 "http://www.w3.org/Graphics/SVG/1.1/DTD/svg11.dtd">
<!-- Generated by graphviz version 14.1.5 (20260411.2331)
 -->
<!-- Title: C:/Users/lucca/Documents/Lucca/Projects/C/yuime/include/yuime/_dynamic_array.h Pages: 1 -->
<svg width="143pt" height="176pt"
 viewBox="0.00 0.00 143.00 176.00" xmlns="http://www.w3.org/2000/svg" xmlns:xlink="http://www.w3.org/1999/xlink">
<g id="graph0" class="graph" transform="scale(1 1) rotate(0) translate(4 172)">
<title>C:/Users/lucca/Documents/Lucca/Projects/C/yuime/include/yuime/_dynamic_array.h</title>
<!-- Node1 -->
<g id="Node000001" class="node">
<title>Node1</title>
<g id="a_Node000001"><a xlink:title=" ">
<polygon fill="#999999" stroke="#666666" points="135.25,-168 0,-168 0,-112 135.25,-112 135.25,-168"/>
<text xml:space="preserve" text-anchor="start" x="8" y="-154.5" font-family="Helvetica,sans-Serif" font-size="10.00">C:/Users/lucca/Documents</text>
<text xml:space="preserve" text-anchor="start" x="8" y="-142.5" font-family="Helvetica,sans-Serif" font-size="10.00">/Lucca/Projects/C/yuime</text>
<text xml:space="preserve" text-anchor="start" x="8" y="-130.5" font-family="Helvetica,sans-Serif" font-size="10.00">/include/yuime/_dynamic</text>
<text xml:space="preserve" text-anchor="middle" x="67.62" y="-118.5" font-family="Helvetica,sans-Serif" font-size="10.00">_array.h</text>
</a>
</g>
</g>
<!-- Node2 -->
<g id="Node000002" class="node">
<title>Node2</title>
<g id="a_Node000002"><a xlink:title=" ">
<polygon fill="#e0e0e0" stroke="#999999" points="66.75,-20 18.5,-20 18.5,0 66.75,0 66.75,-20"/>
<text xml:space="preserve" text-anchor="middle" x="42.62" y="-6.5" font-family="Helvetica,sans-Serif" font-size="10.00">stdint.h</text>
</a>
</g>
</g>
<!-- Node1&#45;&gt;Node2 -->
<g id="edge1_Node000001_Node000002" class="edge">
<title>Node1&#45;&gt;Node2</title>
<g id="a_edge1_Node000001_Node000002"><a xlink:title=" ">
<path fill="none" stroke="#63b8ff" d="M62.26,-111.54C57.56,-87.47 50.83,-53.03 46.6,-31.35"/>
<polygon fill="#63b8ff" stroke="#63b8ff" points="50.07,-30.86 44.72,-21.72 43.2,-32.21 50.07,-30.86"/>
</a>
</g>
</g>
<!-- Node3 -->
<g id="Node000003" class="node">
<title>Node3</title>
<g id="a_Node000003"><a xlink:href="alloc_8h.html" target="_top" xlink:title=" ">
<polygon fill="white" stroke="#666666" points="114.88,-76 70.38,-76 70.38,-56 114.88,-56 114.88,-76"/>
<text xml:space="preserve" text-anchor="middle" x="92.62" y="-62.5" font-family="Helvetica,sans-Serif" font-size="10.00">alloc.h</text>
</a>
</g>
</g>
<!-- Node1&#45;&gt;Node3 -->
<g id="edge2_Node000001_Node000003" class="edge">
<title>Node1&#45;&gt;Node3</title>
<g id="a_edge2_Node000001_Node000003"><a xlink:title=" ">
<path fill="none" stroke="#63b8ff" d="M77.08,-111.78C79.91,-103.63 82.96,-94.83 85.61,-87.21"/>
<polygon fill="#63b8ff" stroke="#63b8ff" points="88.87,-88.5 88.84,-77.9 82.25,-86.2 88.87,-88.5"/>
</a>
</g>
</g>
<!-- Node3&#45;&gt;Node2 -->
<g id="edge3_Node000003_Node000002" class="edge">
<title>Node3&#45;&gt;Node2</title>
<g id="a_edge3_Node000003_Node000002"><a xlink:title=" ">
<path fill="none" stroke="#63b8ff" d="M83.92,-55.59C77.03,-48.16 67.23,-37.58 58.91,-28.58"/>
<polygon fill="#63b8ff" stroke="#63b8ff" points="61.63,-26.37 52.26,-21.41 56.49,-31.12 61.63,-26.37"/>
</a>
</g>
</g>
<!-- Node4 -->
<g id="Node000004" class="node">
<title>Node4</title>
<g id="a_Node000004"><a xlink:href="_a_p_i_8h.html" target="_top" xlink:title=" ">
<polygon fill="white" stroke="#666666" points="126,-20 85.25,-20 85.25,0 126,0 126,-20"/>
<text xml:space="preserve" text-anchor="middle" x="105.62" y="-6.5" font-family="Helvetica,sans-Serif" font-size="10.00">API.h</text>
</a>
</g>
</g>
<!-- Node3&#45;&gt;Node4 -->
<g id="edge4_Node000003_Node000004" class="edge">
<title>Node3&#45;&gt;Node4</title>
<g id="a_edge4_Node000003_Node000004"><a xlink:title=" ">
<path fill="none" stroke="#63b8ff" d="M94.89,-55.59C96.49,-48.93 98.7,-39.75 100.7,-31.44"/>
<polygon fill="#63b8ff" stroke="#63b8ff" points="104.09,-32.31 103.03,-21.77 97.29,-30.67 104.09,-32.31"/>
</a>
</g>
</g>
</g>
</svg>
