<?xml version="1.0" encoding="UTF-8" standalone="no"?>
<!DOCTYPE svg PUBLIC "-//W3C//DTD SVG 1.1//EN"
 "http://www.w3.org/Graphics/SVG/1.1/DTD/svg11.dtd">
<!-- Generated by graphviz version 14.1.5 (20260411.2331)
 -->
<!-- Title: C:/Users/lucca/Documents/Lucca/Projects/C/yuime/include/yuime/API.h Pages: 1 -->
<svg width="988pt" height="544pt"
 viewBox="0.00 0.00 988.00 544.00" xmlns="http://www.w3.org/2000/svg" xmlns:xlink="http://www.w3.org/1999/xlink">
<g id="graph0" class="graph" transform="scale(1 1) rotate(0) translate(4 540)">
<title>C:/Users/lucca/Documents/Lucca/Projects/C/yuime/include/yuime/API.h</title>
<!-- Node1 -->
<g id="Node000001" class="node">
<title>Node1</title>
<g id="a_Node000001"><a xlink:title=" ">
<polygon fill="#999999" stroke="#666666" points="507.62,-536 372.38,-536 372.38,-492 507.62,-492 507.62,-536"/>
<text xml:space="preserve" text-anchor="start" x="380.38" y="-522.5" font-family="Helvetica,sans-Serif" font-size="10.00">C:/Users/lucca/Documents</text>
<text xml:space="preserve" text-anchor="start" x="380.38" y="-510.5" font-family="Helvetica,sans-Serif" font-size="10.00">/Lucca/Projects/C/yuime</text>
<text xml:space="preserve" text-anchor="middle" x="440" y="-498.5" font-family="Helvetica,sans-Serif" font-size="10.00">/include/yuime/API.h</text>
</a>
</g>
</g>
<!-- Node2 -->
<g id="Node000002" class="node">
<title>Node2</title>
<g id="a_Node000002"><a xlink:href="alloc_8h.html" target="_top" xlink:title=" ">
<polygon fill="white" stroke="#666666" points="507.62,-456 372.38,-456 372.38,-412 507.62,-412 507.62,-456"/>
<text xml:space="preserve" text-anchor="start" x="380.38" y="-442.5" font-family="Helvetica,sans-Serif" font-size="10.00">C:/Users/lucca/Documents</text>
<text xml:space="preserve" text-anchor="start" x="380.38" y="-430.5" font-family="Helvetica,sans-Serif" font-size="10.00">/Lucca/Projects/C/yuime</text>
<text xml:space="preserve" text-anchor="middle" x="440" y="-418.5" font-family="Helvetica,sans-Serif" font-size="10.00">/include/yuime/alloc.h</text>
</a>
</g>
</g>
<!-- Node1&#45;&gt;Node2 -->
<g id="edge1_Node000001_Node000002" class="edge">
<title>Node1&#45;&gt;Node2</title>
<g id="a_edge1_Node000001_Node000002"><a xlink:title=" ">
<path fill="none" stroke="#63b8ff" d="M440,-480.25C440,-472.15 440,-463.68 440,-456.29"/>
<polygon fill="#63b8ff" stroke="#63b8ff" points="436.5,-480.17 440,-490.17 443.5,-480.17 436.5,-480.17"/>
</a>
</g>
</g>
<!-- Node5 -->
<g id="Node000005" class="node">
<title>Node5</title>
<g id="a_Node000005"><a xlink:href="events_8h.html" target="_top" xlink:title=" ">
<polygon fill="white" stroke="#666666" points="497.62,-124 362.38,-124 362.38,-80 497.62,-80 497.62,-124"/>
<text xml:space="preserve" text-anchor="start" x="370.38" y="-110.5" font-family="Helvetica,sans-Serif" font-size="10.00">C:/Users/lucca/Documents</text>
<text xml:space="preserve" text-anchor="start" x="370.38" y="-98.5" font-family="Helvetica,sans-Serif" font-size="10.00">/Lucca/Projects/C/yuime</text>
<text xml:space="preserve" text-anchor="middle" x="430" y="-86.5" font-family="Helvetica,sans-Serif" font-size="10.00">/include/yuime/events.h</text>
</a>
</g>
</g>
<!-- Node1&#45;&gt;Node5 -->
<g id="edge26_Node000001_Node000005" class="edge">
<title>Node1&#45;&gt;Node5</title>
<g id="a_edge26_Node000001_Node000005"><a xlink:title=" ">
<path fill="none" stroke="#63b8ff" d="M376.09,-486.71C323.65,-460.39 258,-414.39 258,-349 258,-349 258,-349 258,-261 258,-195.11 327.3,-149.21 377.93,-124.47"/>
<polygon fill="#63b8ff" stroke="#63b8ff" points="374.49,-489.82 385.02,-491.05 377.55,-483.53 374.49,-489.82"/>
</a>
</g>
</g>
<!-- Node6 -->
<g id="Node000006" class="node">
<title>Node6</title>
<g id="a_Node000006"><a xlink:href="yuime_8h.html" target="_top" xlink:title=" ">
<polygon fill="white" stroke="#666666" points="449.62,-44 314.38,-44 314.38,0 449.62,0 449.62,-44"/>
<text xml:space="preserve" text-anchor="start" x="322.38" y="-30.5" font-family="Helvetica,sans-Serif" font-size="10.00">C:/Users/lucca/Documents</text>
<text xml:space="preserve" text-anchor="start" x="322.38" y="-18.5" font-family="Helvetica,sans-Serif" font-size="10.00">/Lucca/Projects/C/yuime</text>
<text xml:space="preserve" text-anchor="middle" x="382" y="-6.5" font-family="Helvetica,sans-Serif" font-size="10.00">/include/yuime/yuime.h</text>
</a>
</g>
</g>
<!-- Node1&#45;&gt;Node6 -->
<g id="edge36_Node000001_Node000006" class="edge">
<title>Node1&#45;&gt;Node6</title>
<g id="a_edge36_Node000001_Node000006"><a xlink:title=" ">
<path fill="none" stroke="#63b8ff" d="M360.98,-504.84C301.93,-496.97 220.01,-482.26 152,-456 74.93,-426.24 0,-431.62 0,-349 0,-349 0,-349 0,-181 0,-113.81 204.37,-60.38 314.15,-36.53"/>
<polygon fill="#63b8ff" stroke="#63b8ff" points="360.24,-508.27 370.6,-506.08 361.13,-501.33 360.24,-508.27"/>
</a>
</g>
</g>
<!-- Node7 -->
<g id="Node000007" class="node">
<title>Node7</title>
<g id="a_Node000007"><a xlink:href="widget_2events_8h.html" target="_top" xlink:title=" ">
<polygon fill="white" stroke="#666666" points="872.5,-124 721.5,-124 721.5,-80 872.5,-80 872.5,-124"/>
<text xml:space="preserve" text-anchor="start" x="729.5" y="-110.5" font-family="Helvetica,sans-Serif" font-size="10.00">C:/Users/lucca/Documents</text>
<text xml:space="preserve" text-anchor="start" x="729.5" y="-98.5" font-family="Helvetica,sans-Serif" font-size="10.00">/Lucca/Projects/C/yuime</text>
<text xml:space="preserve" text-anchor="middle" x="797" y="-86.5" font-family="Helvetica,sans-Serif" font-size="10.00">/include/yuime/widget/events.h</text>
</a>
</g>
</g>
<!-- Node1&#45;&gt;Node7 -->
<g id="edge34_Node000001_Node000007" class="edge">
<title>Node1&#45;&gt;Node7</title>
<g id="a_edge34_Node000001_Node000007"><a xlink:title=" ">
<path fill="none" stroke="#63b8ff" d="M519.39,-507.72C624.23,-499.83 802.52,-482.92 862,-456 926.5,-426.81 980,-419.8 980,-349 980,-349 980,-349 980,-261 980,-193.63 908.07,-148.63 854.4,-124.43"/>
<polygon fill="#63b8ff" stroke="#63b8ff" points="519.14,-504.23 509.43,-508.46 519.66,-511.21 519.14,-504.23"/>
</a>
</g>
</g>
<!-- Node8 -->
<g id="Node000008" class="node">
<title>Node8</title>
<g id="a_Node000008"><a xlink:href="panel_8h.html" target="_top" xlink:title=" ">
<polygon fill="white" stroke="#666666" points="703.5,-124 558.5,-124 558.5,-80 703.5,-80 703.5,-124"/>
<text xml:space="preserve" text-anchor="start" x="566.5" y="-110.5" font-family="Helvetica,sans-Serif" font-size="10.00">C:/Users/lucca/Documents</text>
<text xml:space="preserve" text-anchor="start" x="566.5" y="-98.5" font-family="Helvetica,sans-Serif" font-size="10.00">/Lucca/Projects/C/yuime</text>
<text xml:space="preserve" text-anchor="middle" x="631" y="-86.5" font-family="Helvetica,sans-Serif" font-size="10.00">/include/yuime/widget/panel.h</text>
</a>
</g>
</g>
<!-- Node1&#45;&gt;Node8 -->
<g id="edge35_Node000001_Node000008" class="edge">
<title>Node1&#45;&gt;Node8</title>
<g id="a_edge35_Node000001_Node000008"><a xlink:title=" ">
<path fill="none" stroke="#63b8ff" d="M519.15,-507.95C590.2,-501.54 696.48,-487.28 784,-456 863.86,-427.46 942,-433.81 942,-349 942,-349 942,-349 942,-261 942,-207.86 795.84,-153.32 703.92,-124.28"/>
<polygon fill="#63b8ff" stroke="#63b8ff" points="519.22,-504.43 509.56,-508.78 519.83,-511.4 519.22,-504.43"/>
</a>
</g>
</g>
<!-- Node9 -->
<g id="Node000009" class="node">
<title>Node9</title>
<g id="a_Node000009"><a xlink:href="command_8h.html" target="_top" xlink:title=" ">
<polygon fill="white" stroke="#666666" points="191.5,-370 28.5,-370 28.5,-326 191.5,-326 191.5,-370"/>
<text xml:space="preserve" text-anchor="start" x="36.5" y="-356.5" font-family="Helvetica,sans-Serif" font-size="10.00">C:/Users/lucca/Documents</text>
<text xml:space="preserve" text-anchor="start" x="36.5" y="-344.5" font-family="Helvetica,sans-Serif" font-size="10.00">/Lucca/Projects/C/yuime</text>
<text xml:space="preserve" text-anchor="middle" x="110" y="-332.5" font-family="Helvetica,sans-Serif" font-size="10.00">/include/yuime/render/command.h</text>
</a>
</g>
</g>
<!-- Node1&#45;&gt;Node9 -->
<g id="edge32_Node000001_Node000009" class="edge">
<title>Node1&#45;&gt;Node9</title>
<g id="a_edge32_Node000001_Node000009"><a xlink:title=" ">
<path fill="none" stroke="#63b8ff" d="M360.73,-505.62C313.17,-498.39 253,-484.13 206,-456 169.81,-434.34 139.56,-394.65 123.19,-370.17"/>
<polygon fill="#63b8ff" stroke="#63b8ff" points="360.02,-509.05 370.41,-507.01 361.01,-502.12 360.02,-509.05"/>
</a>
</g>
</g>
<!-- Node10 -->
<g id="Node000010" class="node">
<title>Node10</title>
<g id="a_Node000010"><a xlink:href="render_8h.html" target="_top" xlink:title=" ">
<polygon fill="white" stroke="#666666" points="229.62,-284 82.38,-284 82.38,-240 229.62,-240 229.62,-284"/>
<text xml:space="preserve" text-anchor="start" x="90.38" y="-270.5" font-family="Helvetica,sans-Serif" font-size="10.00">C:/Users/lucca/Documents</text>
<text xml:space="preserve" text-anchor="start" x="90.38" y="-258.5" font-family="Helvetica,sans-Serif" font-size="10.00">/Lucca/Projects/C/yuime</text>
<text xml:space="preserve" text-anchor="middle" x="156" y="-246.5" font-family="Helvetica,sans-Serif" font-size="10.00">/include/yuime/render/render.h</text>
</a>
</g>
</g>
<!-- Node1&#45;&gt;Node10 -->
<g id="edge33_Node000001_Node000010" class="edge">
<title>Node1&#45;&gt;Node10</title>
<g id="a_edge33_Node000001_Node000010"><a xlink:title=" ">
<path fill="none" stroke="#63b8ff" d="M360.75,-507.37C321.06,-500.63 274.98,-486.27 244,-456 198.66,-411.7 230.68,-376.02 201,-320 194.27,-307.3 184.61,-294.61 175.97,-284.43"/>
<polygon fill="#63b8ff" stroke="#63b8ff" points="360.11,-510.81 370.53,-508.88 361.18,-503.89 360.11,-510.81"/>
</a>
</g>
</g>
<!-- Node12 -->
<g id="Node000012" class="node">
<title>Node12</title>
<g id="a_Node000012"><a xlink:href="node_8h.html" target="_top" xlink:title=" ">
<polygon fill="white" stroke="#666666" points="804.62,-284 669.38,-284 669.38,-240 804.62,-240 804.62,-284"/>
<text xml:space="preserve" text-anchor="start" x="677.38" y="-270.5" font-family="Helvetica,sans-Serif" font-size="10.00">C:/Users/lucca/Documents</text>
<text xml:space="preserve" text-anchor="start" x="677.38" y="-258.5" font-family="Helvetica,sans-Serif" font-size="10.00">/Lucca/Projects/C/yuime</text>
<text xml:space="preserve" text-anchor="middle" x="737" y="-246.5" font-family="Helvetica,sans-Serif" font-size="10.00">/include/yuime/node.h</text>
</a>
</g>
</g>
<!-- Node1&#45;&gt;Node12 -->
<g id="edge31_Node000001_Node000012" class="edge">
<title>Node1&#45;&gt;Node12</title>
<g id="a_edge31_Node000001_Node000012"><a xlink:title=" ">
<path fill="none" stroke="#63b8ff" d="M518.67,-492.14C579.11,-472.1 660.12,-435.86 708,-376 729.26,-349.43 735.1,-309.07 736.61,-284.46"/>
<polygon fill="#63b8ff" stroke="#63b8ff" points="517.9,-488.71 509.45,-495.11 520.04,-495.37 517.9,-488.71"/>
</a>
</g>
</g>
<!-- Node13 -->
<g id="Node000013" class="node">
<title>Node13</title>
<g id="a_Node000013"><a xlink:href="geometry_8h.html" target="_top" xlink:title=" ">
<polygon fill="white" stroke="#666666" points="914.38,-370 759.62,-370 759.62,-326 914.38,-326 914.38,-370"/>
<text xml:space="preserve" text-anchor="start" x="767.62" y="-356.5" font-family="Helvetica,sans-Serif" font-size="10.00">C:/Users/lucca/Documents</text>
<text xml:space="preserve" text-anchor="start" x="767.62" y="-344.5" font-family="Helvetica,sans-Serif" font-size="10.00">/Lucca/Projects/C/yuime</text>
<text xml:space="preserve" text-anchor="middle" x="837" y="-332.5" font-family="Helvetica,sans-Serif" font-size="10.00">/include/yuime/math/geometry.h</text>
</a>
</g>
</g>
<!-- Node1&#45;&gt;Node13 -->
<g id="edge27_Node000001_Node000013" class="edge">
<title>Node1&#45;&gt;Node13</title>
<g id="a_edge27_Node000001_Node000013"><a xlink:title=" ">
<path fill="none" stroke="#63b8ff" d="M519.41,-512.59C584.33,-509.02 676.42,-496.31 746,-456 781.87,-435.22 810.23,-394.85 825.24,-370.08"/>
<polygon fill="#63b8ff" stroke="#63b8ff" points="519.36,-509.09 509.54,-513.07 519.69,-516.08 519.36,-509.09"/>
</a>
</g>
</g>
<!-- Node3 -->
<g id="Node000003" class="node">
<title>Node3</title>
<g id="a_Node000003"><a xlink:href="__dynamic__array_8h.html" target="_top" xlink:title=" ">
<polygon fill="white" stroke="#666666" points="459.62,-376 324.38,-376 324.38,-320 459.62,-320 459.62,-376"/>
<text xml:space="preserve" text-anchor="start" x="332.38" y="-362.5" font-family="Helvetica,sans-Serif" font-size="10.00">C:/Users/lucca/Documents</text>
<text xml:space="preserve" text-anchor="start" x="332.38" y="-350.5" font-family="Helvetica,sans-Serif" font-size="10.00">/Lucca/Projects/C/yuime</text>
<text xml:space="preserve" text-anchor="start" x="332.38" y="-338.5" font-family="Helvetica,sans-Serif" font-size="10.00">/include/yuime/_dynamic</text>
<text xml:space="preserve" text-anchor="middle" x="392" y="-326.5" font-family="Helvetica,sans-Serif" font-size="10.00">_array.h</text>
</a>
</g>
</g>
<!-- Node2&#45;&gt;Node3 -->
<g id="edge2_Node000002_Node000003" class="edge">
<title>Node2&#45;&gt;Node3</title>
<g id="a_edge2_Node000002_Node000003"><a xlink:title=" ">
<path fill="none" stroke="#63b8ff" d="M422.25,-401.93C417.43,-393.5 412.25,-384.44 407.56,-376.24"/>
<polygon fill="#63b8ff" stroke="#63b8ff" points="419.14,-403.54 427.14,-410.49 425.21,-400.07 419.14,-403.54"/>
</a>
</g>
</g>
<!-- Node4 -->
<g id="Node000004" class="node">
<title>Node4</title>
<g id="a_Node000004"><a xlink:href="context_8h.html" target="_top" xlink:title=" ">
<polygon fill="white" stroke="#666666" points="574.62,-204 439.38,-204 439.38,-160 574.62,-160 574.62,-204"/>
<text xml:space="preserve" text-anchor="start" x="447.38" y="-190.5" font-family="Helvetica,sans-Serif" font-size="10.00">C:/Users/lucca/Documents</text>
<text xml:space="preserve" text-anchor="start" x="447.38" y="-178.5" font-family="Helvetica,sans-Serif" font-size="10.00">/Lucca/Projects/C/yuime</text>
<text xml:space="preserve" text-anchor="middle" x="507" y="-166.5" font-family="Helvetica,sans-Serif" font-size="10.00">/include/yuime/context.h</text>
</a>
</g>
</g>
<!-- Node2&#45;&gt;Node4 -->
<g id="edge3_Node000002_Node000004" class="edge">
<title>Node2&#45;&gt;Node4</title>
<g id="a_edge3_Node000002_Node000004"><a xlink:title=" ">
<path fill="none" stroke="#63b8ff" d="M457.96,-401.53C462.05,-393.41 466.05,-384.54 469,-376 489.85,-315.64 500.51,-240.48 504.75,-204.35"/>
<polygon fill="#63b8ff" stroke="#63b8ff" points="454.87,-399.88 453.32,-410.36 461.07,-403.13 454.87,-399.88"/>
</a>
</g>
</g>
<!-- Node2&#45;&gt;Node6 -->
<g id="edge25_Node000002_Node000006" class="edge">
<title>Node2&#45;&gt;Node6</title>
<g id="a_edge25_Node000002_Node000006"><a xlink:title=" ">
<path fill="none" stroke="#63b8ff" d="M361.72,-411.27C343.98,-402.91 326.9,-391.5 315,-376 283.99,-335.61 296,-313.93 296,-263 296,-263 296,-263 296,-181 296,-126.35 336.19,-72.58 361.62,-44.03"/>
<polygon fill="#63b8ff" stroke="#63b8ff" points="360.24,-414.45 370.81,-415.25 363.05,-408.04 360.24,-414.45"/>
</a>
</g>
</g>
<!-- Node2&#45;&gt;Node8 -->
<g id="edge16_Node000002_Node000008" class="edge">
<title>Node2&#45;&gt;Node8</title>
<g id="a_edge16_Node000002_Node000008"><a xlink:title=" ">
<path fill="none" stroke="#63b8ff" d="M519.02,-424.29C579.49,-415.81 655.7,-400.54 675,-376 690.39,-356.44 679.88,-344.41 675,-320 671.6,-303 664.74,-300.67 660,-284 643.95,-227.52 635.97,-158.44 632.77,-124.25"/>
<polygon fill="#63b8ff" stroke="#63b8ff" points="518.87,-420.78 509.43,-425.59 519.81,-427.72 518.87,-420.78"/>
</a>
</g>
</g>
<!-- Node2&#45;&gt;Node9 -->
<g id="edge11_Node000002_Node000009" class="edge">
<title>Node2&#45;&gt;Node9</title>
<g id="a_edge11_Node000002_Node000009"><a xlink:title=" ">
<path fill="none" stroke="#63b8ff" d="M361.04,-412.9C309.94,-399.89 243.56,-383 191.9,-369.85"/>
<polygon fill="#63b8ff" stroke="#63b8ff" points="360,-416.25 370.56,-415.32 361.73,-409.46 360,-416.25"/>
</a>
</g>
</g>
<!-- Node11 -->
<g id="Node000011" class="node">
<title>Node11</title>
<g id="a_Node000011"><a xlink:href="widget_8h.html" target="_top" xlink:title=" ">
<polygon fill="white" stroke="#666666" points="666.12,-370 515.88,-370 515.88,-326 666.12,-326 666.12,-370"/>
<text xml:space="preserve" text-anchor="start" x="523.88" y="-356.5" font-family="Helvetica,sans-Serif" font-size="10.00">C:/Users/lucca/Documents</text>
<text xml:space="preserve" text-anchor="start" x="523.88" y="-344.5" font-family="Helvetica,sans-Serif" font-size="10.00">/Lucca/Projects/C/yuime</text>
<text xml:space="preserve" text-anchor="middle" x="591" y="-332.5" font-family="Helvetica,sans-Serif" font-size="10.00">/include/yuime/widget/widget.h</text>
</a>
</g>
</g>
<!-- Node2&#45;&gt;Node11 -->
<g id="edge17_Node000002_Node000011" class="edge">
<title>Node2&#45;&gt;Node11</title>
<g id="a_edge17_Node000002_Node000011"><a xlink:title=" ">
<path fill="none" stroke="#63b8ff" d="M488.4,-406.08C509.15,-394.53 533.06,-381.23 552.58,-370.37"/>
<polygon fill="#63b8ff" stroke="#63b8ff" points="486.85,-402.93 479.82,-410.85 490.26,-409.05 486.85,-402.93"/>
</a>
</g>
</g>
<!-- Node4&#45;&gt;Node5 -->
<g id="edge4_Node000004_Node000005" class="edge">
<title>Node4&#45;&gt;Node5</title>
<g id="a_edge4_Node000004_Node000005"><a xlink:title=" ">
<path fill="none" stroke="#63b8ff" d="M477.99,-151.62C469.03,-142.53 459.33,-132.71 451.02,-124.29"/>
<polygon fill="#63b8ff" stroke="#63b8ff" points="475.38,-153.95 484.9,-158.61 480.36,-149.03 475.38,-153.95"/>
</a>
</g>
</g>
<!-- Node4&#45;&gt;Node6 -->
<g id="edge10_Node000004_Node000006" class="edge">
<title>Node4&#45;&gt;Node6</title>
<g id="a_edge10_Node000004_Node000006"><a xlink:title=" ">
<path fill="none" stroke="#63b8ff" d="M515.45,-148.77C519.08,-127.58 519.96,-100.16 507,-80 494.03,-59.84 471.98,-46.72 449.98,-38.23"/>
<polygon fill="#63b8ff" stroke="#63b8ff" points="512.07,-147.83 513.51,-158.33 518.93,-149.22 512.07,-147.83"/>
</a>
</g>
</g>
<!-- Node4&#45;&gt;Node7 -->
<g id="edge6_Node000004_Node000007" class="edge">
<title>Node4&#45;&gt;Node7</title>
<g id="a_edge6_Node000004_Node000007"><a xlink:title=" ">
<path fill="none" stroke="#63b8ff" d="M586.02,-159.75C628.04,-148.44 679.46,-134.62 721.01,-123.44"/>
<polygon fill="#63b8ff" stroke="#63b8ff" points="585.2,-156.34 576.45,-162.32 587.02,-163.1 585.2,-156.34"/>
</a>
</g>
</g>
<!-- Node4&#45;&gt;Node8 -->
<g id="edge8_Node000004_Node000008" class="edge">
<title>Node4&#45;&gt;Node8</title>
<g id="a_edge8_Node000004_Node000008"><a xlink:title=" ">
<path fill="none" stroke="#63b8ff" d="M550.2,-153.82C565.59,-144.15 582.67,-133.4 597.16,-124.29"/>
<polygon fill="#63b8ff" stroke="#63b8ff" points="548.77,-150.59 542.16,-158.88 552.49,-156.52 548.77,-150.59"/>
</a>
</g>
</g>
<!-- Node5&#45;&gt;Node6 -->
<g id="edge5_Node000005_Node000006" class="edge">
<title>Node5&#45;&gt;Node6</title>
<g id="a_edge5_Node000005_Node000006"><a xlink:title=" ">
<path fill="none" stroke="#63b8ff" d="M410.89,-69.94C405.59,-61.34 399.97,-52.2 395.1,-44.29"/>
<polygon fill="#63b8ff" stroke="#63b8ff" points="407.87,-71.71 416.09,-78.4 413.83,-68.05 407.87,-71.71"/>
</a>
</g>
</g>
<!-- Node7&#45;&gt;Node6 -->
<g id="edge7_Node000007_Node000006" class="edge">
<title>Node7&#45;&gt;Node6</title>
<g id="a_edge7_Node000007_Node000006"><a xlink:title=" ">
<path fill="none" stroke="#63b8ff" d="M710.06,-79.44C614.8,-59.66 514.74,-43.24 450.11,-33.21"/>
<polygon fill="#63b8ff" stroke="#63b8ff" points="709.07,-82.81 719.57,-81.43 710.5,-75.96 709.07,-82.81"/>
</a>
</g>
</g>
<!-- Node8&#45;&gt;Node6 -->
<g id="edge9_Node000008_Node000006" class="edge">
<title>Node8&#45;&gt;Node6</title>
<g id="a_edge9_Node000008_Node000006"><a xlink:title=" ">
<path fill="none" stroke="#63b8ff" d="M551.71,-76.16C518.91,-65.89 481.27,-54.1 449.79,-44.23"/>
<polygon fill="#63b8ff" stroke="#63b8ff" points="550.6,-79.48 561.19,-79.13 552.69,-72.8 550.6,-79.48"/>
</a>
</g>
</g>
<!-- Node9&#45;&gt;Node6 -->
<g id="edge15_Node000009_Node000006" class="edge">
<title>Node9&#45;&gt;Node6</title>
<g id="a_edge15_Node000009_Node000006"><a xlink:title=" ">
<path fill="none" stroke="#63b8ff" d="M87.15,-316.12C74.1,-294.51 62.28,-265.13 73,-240 117.2,-136.45 241.17,-74.17 317.99,-44.39"/>
<polygon fill="#63b8ff" stroke="#63b8ff" points="84.19,-317.97 92.54,-324.48 90.07,-314.18 84.19,-317.97"/>
</a>
</g>
</g>
<!-- Node9&#45;&gt;Node10 -->
<g id="edge12_Node000009_Node000010" class="edge">
<title>Node9&#45;&gt;Node10</title>
<g id="a_edge12_Node000009_Node000010"><a xlink:title=" ">
<path fill="none" stroke="#63b8ff" d="M127.09,-315.8C132.79,-305.37 139.03,-294 144.24,-284.48"/>
<polygon fill="#63b8ff" stroke="#63b8ff" points="124.07,-314.02 122.33,-324.48 130.21,-317.39 124.07,-314.02"/>
</a>
</g>
</g>
<!-- Node10&#45;&gt;Node4 -->
<g id="edge13_Node000010_Node000004" class="edge">
<title>Node10&#45;&gt;Node4</title>
<g id="a_edge13_Node000010_Node000004"><a xlink:title=" ">
<path fill="none" stroke="#63b8ff" d="M241.12,-242.09C301.89,-228.58 382.56,-210.65 439.04,-198.1"/>
<polygon fill="#63b8ff" stroke="#63b8ff" points="240.49,-238.64 231.49,-244.23 242.01,-245.47 240.49,-238.64"/>
</a>
</g>
</g>
<!-- Node10&#45;&gt;Node6 -->
<g id="edge14_Node000010_Node000006" class="edge">
<title>Node10&#45;&gt;Node6</title>
<g id="a_edge14_Node000010_Node000006"><a xlink:title=" ">
<path fill="none" stroke="#63b8ff" d="M171.88,-230.07C192.95,-191.31 233.22,-124.57 282,-80 297.42,-65.91 316.91,-53.83 334.58,-44.46"/>
<polygon fill="#63b8ff" stroke="#63b8ff" points="169.04,-227.95 167.41,-238.42 175.22,-231.25 169.04,-227.95"/>
</a>
</g>
</g>
<!-- Node11&#45;&gt;Node6 -->
<g id="edge24_Node000011_Node000006" class="edge">
<title>Node11&#45;&gt;Node6</title>
<g id="a_edge24_Node000011_Node000006"><a xlink:title=" ">
<path fill="none" stroke="#63b8ff" d="M539.82,-319.94C479.5,-284.48 383.62,-215.85 353,-124 346.82,-105.45 348.44,-99.02 353,-80 356,-67.48 362.24,-54.6 368.16,-44.26"/>
<polygon fill="#63b8ff" stroke="#63b8ff" points="537.82,-322.83 548.23,-324.8 541.32,-316.77 537.82,-322.83"/>
</a>
</g>
</g>
<!-- Node11&#45;&gt;Node8 -->
<g id="edge23_Node000011_Node000008" class="edge">
<title>Node11&#45;&gt;Node8</title>
<g id="a_edge23_Node000011_Node000008"><a xlink:title=" ">
<path fill="none" stroke="#63b8ff" d="M596.33,-314.51C604.64,-263.79 620.48,-167.18 627.5,-124.35"/>
<polygon fill="#63b8ff" stroke="#63b8ff" points="592.89,-313.85 594.72,-324.28 599.8,-314.98 592.89,-313.85"/>
</a>
</g>
</g>
<!-- Node11&#45;&gt;Node12 -->
<g id="edge18_Node000011_Node000012" class="edge">
<title>Node11&#45;&gt;Node12</title>
<g id="a_edge18_Node000011_Node000012"><a xlink:title=" ">
<path fill="none" stroke="#63b8ff" d="M638.07,-319.92C658.07,-308.41 681.07,-295.18 699.85,-284.37"/>
<polygon fill="#63b8ff" stroke="#63b8ff" points="636.45,-316.81 629.53,-324.83 639.94,-322.88 636.45,-316.81"/>
</a>
</g>
</g>
<!-- Node12&#45;&gt;Node4 -->
<g id="edge19_Node000012_Node000004" class="edge">
<title>Node12&#45;&gt;Node4</title>
<g id="a_edge19_Node000012_Node000004"><a xlink:title=" ">
<path fill="none" stroke="#63b8ff" d="M663.01,-235.91C633.03,-225.74 598.78,-214.12 570.01,-204.37"/>
<polygon fill="#63b8ff" stroke="#63b8ff" points="661.82,-239.2 672.41,-239.1 664.07,-232.57 661.82,-239.2"/>
</a>
</g>
</g>
<!-- Node12&#45;&gt;Node5 -->
<g id="edge20_Node000012_Node000005" class="edge">
<title>Node12&#45;&gt;Node5</title>
<g id="a_edge20_Node000012_Node000005"><a xlink:title=" ">
<path fill="none" stroke="#63b8ff" d="M657.97,-257.48C576.81,-252.01 458.47,-238.24 430,-204 411.62,-181.89 416.79,-146.66 422.88,-124.19"/>
<polygon fill="#63b8ff" stroke="#63b8ff" points="657.44,-260.95 667.65,-258.1 657.89,-253.97 657.44,-260.95"/>
</a>
</g>
</g>
<!-- Node12&#45;&gt;Node7 -->
<g id="edge21_Node000012_Node000007" class="edge">
<title>Node12&#45;&gt;Node7</title>
<g id="a_edge21_Node000012_Node000007"><a xlink:title=" ">
<path fill="none" stroke="#63b8ff" d="M749.16,-228.98C760.99,-197.84 778.62,-151.41 788.84,-124.48"/>
<polygon fill="#63b8ff" stroke="#63b8ff" points="745.91,-227.69 745.63,-238.28 752.45,-230.17 745.91,-227.69"/>
</a>
</g>
</g>
<!-- Node12&#45;&gt;Node8 -->
<g id="edge22_Node000012_Node000008" class="edge">
<title>Node12&#45;&gt;Node8</title>
<g id="a_edge22_Node000012_Node000008"><a xlink:title=" ">
<path fill="none" stroke="#63b8ff" d="M716.33,-230.2C695.45,-199.06 663.72,-151.77 645.41,-124.48"/>
<polygon fill="#63b8ff" stroke="#63b8ff" points="713.38,-232.08 721.86,-238.43 719.2,-228.18 713.38,-232.08"/>
</a>
</g>
</g>
<!-- Node13&#45;&gt;Node6 -->
<g id="edge30_Node000013_Node000006" class="edge">
<title>Node13&#45;&gt;Node6</title>
<g id="a_edge30_Node000013_Node000006"><a xlink:title=" ">
<path fill="none" stroke="#63b8ff" d="M856.4,-316C888.01,-261.16 941.4,-146.56 882,-80 853.73,-48.33 580.14,-31.89 450.06,-25.81"/>
<polygon fill="#63b8ff" stroke="#63b8ff" points="853.44,-314.13 851.37,-324.52 859.47,-317.69 853.44,-314.13"/>
</a>
</g>
</g>
<!-- Node13&#45;&gt;Node8 -->
<g id="edge29_Node000013_Node000008" class="edge">
<title>Node13&#45;&gt;Node8</title>
<g id="a_edge29_Node000013_Node000008"><a xlink:title=" ">
<path fill="none" stroke="#63b8ff" d="M835.91,-314.32C833.81,-291.88 828.25,-262.24 814,-240 780.06,-187.04 717.99,-147.14 675.64,-124.43"/>
<polygon fill="#63b8ff" stroke="#63b8ff" points="832.41,-314.41 836.63,-324.13 839.39,-313.9 832.41,-314.41"/>
</a>
</g>
</g>
<!-- Node13&#45;&gt;Node12 -->
<g id="edge28_Node000013_Node000012" class="edge">
<title>Node13&#45;&gt;Node12</title>
<g id="a_edge28_Node000013_Node000012"><a xlink:title=" ">
<path fill="none" stroke="#63b8ff" d="M803.06,-318.49C789.77,-307.33 774.78,-294.74 762.45,-284.37"/>
<polygon fill="#63b8ff" stroke="#63b8ff" points="800.44,-320.86 810.35,-324.61 804.94,-315.5 800.44,-320.86"/>
</a>
</g>
</g>
</g>
</svg>
