<?xml version="1.0" encoding="UTF-8" standalone="no"?>
<!DOCTYPE svg PUBLIC "-//W3C//DTD SVG 1.1//EN"
 "http://www.w3.org/Graphics/SVG/1.1/DTD/svg11.dtd">
<!-- Generated by graphviz version 14.1.5 (20260411.2331)
 -->
<!-- Title: C:/Users/lucca/Documents/Lucca/Projects/C/yuime/include/yuime/alloc.h Pages: 1 -->
<svg width="811pt" height="464pt"
 viewBox="0.00 0.00 811.00 464.00" xmlns="http://www.w3.org/2000/svg" xmlns:xlink="http://www.w3.org/1999/xlink">
<g id="graph0" class="graph" transform="scale(1 1) rotate(0) translate(4 460)">
<title>C:/Users/lucca/Documents/Lucca/Projects/C/yuime/include/yuime/alloc.h</title>
<!-- Node1 -->
<g id="Node000001" class="node">
<title>Node1</title>
<g id="a_Node000001"><a xlink:title=" ">
<polygon fill="#999999" stroke="#666666" points="418.25,-456 283,-456 283,-412 418.25,-412 418.25,-456"/>
<text xml:space="preserve" text-anchor="start" x="291" y="-442.5" font-family="Helvetica,sans-Serif" font-size="10.00">C:/Users/lucca/Documents</text>
<text xml:space="preserve" text-anchor="start" x="291" y="-430.5" font-family="Helvetica,sans-Serif" font-size="10.00">/Lucca/Projects/C/yuime</text>
<text xml:space="preserve" text-anchor="middle" x="350.62" y="-418.5" font-family="Helvetica,sans-Serif" font-size="10.00">/include/yuime/alloc.h</text>
</a>
</g>
</g>
<!-- Node2 -->
<g id="Node000002" class="node">
<title>Node2</title>
<g id="a_Node000002"><a xlink:href="__dynamic__array_8h.html" target="_top" xlink:title=" ">
<polygon fill="white" stroke="#666666" points="135.25,-376 0,-376 0,-320 135.25,-320 135.25,-376"/>
<text xml:space="preserve" text-anchor="start" x="8" y="-362.5" font-family="Helvetica,sans-Serif" font-size="10.00">C:/Users/lucca/Documents</text>
<text xml:space="preserve" text-anchor="start" x="8" y="-350.5" font-family="Helvetica,sans-Serif" font-size="10.00">/Lucca/Projects/C/yuime</text>
<text xml:space="preserve" text-anchor="start" x="8" y="-338.5" font-family="Helvetica,sans-Serif" font-size="10.00">/include/yuime/_dynamic</text>
<text xml:space="preserve" text-anchor="middle" x="67.62" y="-326.5" font-family="Helvetica,sans-Serif" font-size="10.00">_array.h</text>
</a>
</g>
</g>
<!-- Node1&#45;&gt;Node2 -->
<g id="edge1_Node000001_Node000002" class="edge">
<title>Node1&#45;&gt;Node2</title>
<g id="a_edge1_Node000001_Node000002"><a xlink:title=" ">
<path fill="none" stroke="#63b8ff" d="M272.17,-411.57C234.93,-401.19 189.87,-388.33 149.62,-376 145.04,-374.6 140.32,-373.12 135.57,-371.61"/>
<polygon fill="#63b8ff" stroke="#63b8ff" points="270.93,-414.86 281.5,-414.16 272.8,-408.11 270.93,-414.86"/>
</a>
</g>
</g>
<!-- Node3 -->
<g id="Node000003" class="node">
<title>Node3</title>
<g id="a_Node000003"><a xlink:href="context_8h.html" target="_top" xlink:title=" ">
<polygon fill="white" stroke="#666666" points="470.25,-204 335,-204 335,-160 470.25,-160 470.25,-204"/>
<text xml:space="preserve" text-anchor="start" x="343" y="-190.5" font-family="Helvetica,sans-Serif" font-size="10.00">C:/Users/lucca/Documents</text>
<text xml:space="preserve" text-anchor="start" x="343" y="-178.5" font-family="Helvetica,sans-Serif" font-size="10.00">/Lucca/Projects/C/yuime</text>
<text xml:space="preserve" text-anchor="middle" x="402.62" y="-166.5" font-family="Helvetica,sans-Serif" font-size="10.00">/include/yuime/context.h</text>
</a>
</g>
</g>
<!-- Node1&#45;&gt;Node3 -->
<g id="edge2_Node000001_Node000003" class="edge">
<title>Node1&#45;&gt;Node3</title>
<g id="a_edge2_Node000001_Node000003"><a xlink:title=" ">
<path fill="none" stroke="#63b8ff" d="M373.87,-402.13C378.9,-394.01 383.61,-385 386.62,-376 406.64,-316.22 405.92,-240.47 404.1,-204.22"/>
<polygon fill="#63b8ff" stroke="#63b8ff" points="371.08,-399.99 368.49,-410.26 376.92,-403.85 371.08,-399.99"/>
</a>
</g>
</g>
<!-- Node5 -->
<g id="Node000005" class="node">
<title>Node5</title>
<g id="a_Node000005"><a xlink:href="yuime_8h.html" target="_top" xlink:title=" ">
<polygon fill="white" stroke="#666666" points="393.25,-44 258,-44 258,0 393.25,0 393.25,-44"/>
<text xml:space="preserve" text-anchor="start" x="266" y="-30.5" font-family="Helvetica,sans-Serif" font-size="10.00">C:/Users/lucca/Documents</text>
<text xml:space="preserve" text-anchor="start" x="266" y="-18.5" font-family="Helvetica,sans-Serif" font-size="10.00">/Lucca/Projects/C/yuime</text>
<text xml:space="preserve" text-anchor="middle" x="325.62" y="-6.5" font-family="Helvetica,sans-Serif" font-size="10.00">/include/yuime/yuime.h</text>
</a>
</g>
</g>
<!-- Node1&#45;&gt;Node5 -->
<g id="edge24_Node000001_Node000005" class="edge">
<title>Node1&#45;&gt;Node5</title>
<g id="a_edge24_Node000001_Node000005"><a xlink:title=" ">
<path fill="none" stroke="#63b8ff" d="M272.07,-415.89C247.87,-407.33 222.84,-394.66 204.62,-376 167.31,-337.77 163.62,-316.43 163.62,-263 163.62,-263 163.62,-263 163.62,-181 163.62,-116.37 230.52,-69.56 278.33,-44.36"/>
<polygon fill="#63b8ff" stroke="#63b8ff" points="270.7,-419.13 281.29,-418.95 272.9,-412.48 270.7,-419.13"/>
</a>
</g>
</g>
<!-- Node7 -->
<g id="Node000007" class="node">
<title>Node7</title>
<g id="a_Node000007"><a xlink:href="panel_8h.html" target="_top" xlink:title=" ">
<polygon fill="white" stroke="#666666" points="773.12,-124 628.12,-124 628.12,-80 773.12,-80 773.12,-124"/>
<text xml:space="preserve" text-anchor="start" x="636.12" y="-110.5" font-family="Helvetica,sans-Serif" font-size="10.00">C:/Users/lucca/Documents</text>
<text xml:space="preserve" text-anchor="start" x="636.12" y="-98.5" font-family="Helvetica,sans-Serif" font-size="10.00">/Lucca/Projects/C/yuime</text>
<text xml:space="preserve" text-anchor="middle" x="700.62" y="-86.5" font-family="Helvetica,sans-Serif" font-size="10.00">/include/yuime/widget/panel.h</text>
</a>
</g>
</g>
<!-- Node1&#45;&gt;Node7 -->
<g id="edge15_Node000001_Node000007" class="edge">
<title>Node1&#45;&gt;Node7</title>
<g id="a_edge15_Node000001_Node000007"><a xlink:title=" ">
<path fill="none" stroke="#63b8ff" d="M429.86,-427.26C505.79,-420.09 613.07,-405.07 642.62,-376 712.75,-307.03 708.13,-175.78 703.21,-124.39"/>
<polygon fill="#63b8ff" stroke="#63b8ff" points="429.58,-423.77 419.94,-428.16 430.22,-430.74 429.58,-423.77"/>
</a>
</g>
</g>
<!-- Node8 -->
<g id="Node000008" class="node">
<title>Node8</title>
<g id="a_Node000008"><a xlink:href="command_8h.html" target="_top" xlink:title=" ">
<polygon fill="white" stroke="#666666" points="377.12,-370 214.12,-370 214.12,-326 377.12,-326 377.12,-370"/>
<text xml:space="preserve" text-anchor="start" x="222.12" y="-356.5" font-family="Helvetica,sans-Serif" font-size="10.00">C:/Users/lucca/Documents</text>
<text xml:space="preserve" text-anchor="start" x="222.12" y="-344.5" font-family="Helvetica,sans-Serif" font-size="10.00">/Lucca/Projects/C/yuime</text>
<text xml:space="preserve" text-anchor="middle" x="295.62" y="-332.5" font-family="Helvetica,sans-Serif" font-size="10.00">/include/yuime/render/command.h</text>
</a>
</g>
</g>
<!-- Node1&#45;&gt;Node8 -->
<g id="edge10_Node000001_Node000008" class="edge">
<title>Node1&#45;&gt;Node8</title>
<g id="a_edge10_Node000001_Node000008"><a xlink:title=" ">
<path fill="none" stroke="#63b8ff" d="M330.62,-402.45C323.68,-391.85 316.05,-380.2 309.69,-370.48"/>
<polygon fill="#63b8ff" stroke="#63b8ff" points="327.51,-404.09 335.92,-410.54 333.37,-400.25 327.51,-404.09"/>
</a>
</g>
</g>
<!-- Node10 -->
<g id="Node000010" class="node">
<title>Node10</title>
<g id="a_Node000010"><a xlink:href="widget_8h.html" target="_top" xlink:title=" ">
<polygon fill="white" stroke="#666666" points="633.75,-370 483.5,-370 483.5,-326 633.75,-326 633.75,-370"/>
<text xml:space="preserve" text-anchor="start" x="491.5" y="-356.5" font-family="Helvetica,sans-Serif" font-size="10.00">C:/Users/lucca/Documents</text>
<text xml:space="preserve" text-anchor="start" x="491.5" y="-344.5" font-family="Helvetica,sans-Serif" font-size="10.00">/Lucca/Projects/C/yuime</text>
<text xml:space="preserve" text-anchor="middle" x="558.62" y="-332.5" font-family="Helvetica,sans-Serif" font-size="10.00">/include/yuime/widget/widget.h</text>
</a>
</g>
</g>
<!-- Node1&#45;&gt;Node10 -->
<g id="edge16_Node000001_Node000010" class="edge">
<title>Node1&#45;&gt;Node10</title>
<g id="a_edge16_Node000001_Node000010"><a xlink:title=" ">
<path fill="none" stroke="#63b8ff" d="M414.19,-407.33C443.48,-395.5 477.84,-381.62 505.7,-370.37"/>
<polygon fill="#63b8ff" stroke="#63b8ff" points="413.02,-404.03 405.05,-411.02 415.64,-410.52 413.02,-404.03"/>
</a>
</g>
</g>
<!-- Node4 -->
<g id="Node000004" class="node">
<title>Node4</title>
<g id="a_Node000004"><a xlink:href="events_8h.html" target="_top" xlink:title=" ">
<polygon fill="white" stroke="#666666" points="441.25,-124 306,-124 306,-80 441.25,-80 441.25,-124"/>
<text xml:space="preserve" text-anchor="start" x="314" y="-110.5" font-family="Helvetica,sans-Serif" font-size="10.00">C:/Users/lucca/Documents</text>
<text xml:space="preserve" text-anchor="start" x="314" y="-98.5" font-family="Helvetica,sans-Serif" font-size="10.00">/Lucca/Projects/C/yuime</text>
<text xml:space="preserve" text-anchor="middle" x="373.62" y="-86.5" font-family="Helvetica,sans-Serif" font-size="10.00">/include/yuime/events.h</text>
</a>
</g>
</g>
<!-- Node3&#45;&gt;Node4 -->
<g id="edge3_Node000003_Node000004" class="edge">
<title>Node3&#45;&gt;Node4</title>
<g id="a_edge3_Node000003_Node000004"><a xlink:title=" ">
<path fill="none" stroke="#63b8ff" d="M390.76,-149.1C387.66,-140.74 384.38,-131.94 381.54,-124.29"/>
<polygon fill="#63b8ff" stroke="#63b8ff" points="387.41,-150.11 394.17,-158.27 393.97,-147.67 387.41,-150.11"/>
</a>
</g>
</g>
<!-- Node3&#45;&gt;Node5 -->
<g id="edge9_Node000003_Node000005" class="edge">
<title>Node3&#45;&gt;Node5</title>
<g id="a_edge9_Node000003_Node000005"><a xlink:title=" ">
<path fill="none" stroke="#63b8ff" d="M327.02,-153.75C314.89,-146.01 303.94,-136.24 296.62,-124 281.65,-98.94 296.72,-65.76 310.13,-44.39"/>
<polygon fill="#63b8ff" stroke="#63b8ff" points="325.24,-156.76 335.64,-158.77 328.76,-150.71 325.24,-156.76"/>
</a>
</g>
</g>
<!-- Node6 -->
<g id="Node000006" class="node">
<title>Node6</title>
<g id="a_Node000006"><a xlink:href="widget_2events_8h.html" target="_top" xlink:title=" ">
<polygon fill="white" stroke="#666666" points="610.12,-124 459.12,-124 459.12,-80 610.12,-80 610.12,-124"/>
<text xml:space="preserve" text-anchor="start" x="467.12" y="-110.5" font-family="Helvetica,sans-Serif" font-size="10.00">C:/Users/lucca/Documents</text>
<text xml:space="preserve" text-anchor="start" x="467.12" y="-98.5" font-family="Helvetica,sans-Serif" font-size="10.00">/Lucca/Projects/C/yuime</text>
<text xml:space="preserve" text-anchor="middle" x="534.62" y="-86.5" font-family="Helvetica,sans-Serif" font-size="10.00">/include/yuime/widget/events.h</text>
</a>
</g>
</g>
<!-- Node3&#45;&gt;Node6 -->
<g id="edge5_Node000003_Node000006" class="edge">
<title>Node3&#45;&gt;Node6</title>
<g id="a_edge5_Node000003_Node000006"><a xlink:title=" ">
<path fill="none" stroke="#63b8ff" d="M448.15,-154.1C464.65,-144.35 483.03,-133.49 498.6,-124.29"/>
<polygon fill="#63b8ff" stroke="#63b8ff" points="446.83,-150.82 440,-158.92 450.39,-156.84 446.83,-150.82"/>
</a>
</g>
</g>
<!-- Node3&#45;&gt;Node7 -->
<g id="edge7_Node000003_Node000007" class="edge">
<title>Node3&#45;&gt;Node7</title>
<g id="a_edge7_Node000003_Node000007"><a xlink:title=" ">
<path fill="none" stroke="#63b8ff" d="M481.59,-160.33C526.92,-148.47 583.44,-133.67 627.72,-122.08"/>
<polygon fill="#63b8ff" stroke="#63b8ff" points="480.87,-156.9 472.08,-162.82 482.64,-163.67 480.87,-156.9"/>
</a>
</g>
</g>
<!-- Node4&#45;&gt;Node5 -->
<g id="edge4_Node000004_Node000005" class="edge">
<title>Node4&#45;&gt;Node5</title>
<g id="a_edge4_Node000004_Node000005"><a xlink:title=" ">
<path fill="none" stroke="#63b8ff" d="M354.51,-69.94C349.22,-61.34 343.59,-52.2 338.73,-44.29"/>
<polygon fill="#63b8ff" stroke="#63b8ff" points="351.49,-71.71 359.72,-78.4 357.46,-68.05 351.49,-71.71"/>
</a>
</g>
</g>
<!-- Node6&#45;&gt;Node5 -->
<g id="edge6_Node000006_Node000005" class="edge">
<title>Node6&#45;&gt;Node5</title>
<g id="a_edge6_Node000006_Node000005"><a xlink:title=" ">
<path fill="none" stroke="#63b8ff" d="M466.68,-75.64C439.61,-65.54 408.79,-54.04 382.88,-44.37"/>
<polygon fill="#63b8ff" stroke="#63b8ff" points="465.23,-78.84 475.82,-79.05 467.68,-72.28 465.23,-78.84"/>
</a>
</g>
</g>
<!-- Node7&#45;&gt;Node5 -->
<g id="edge8_Node000007_Node000005" class="edge">
<title>Node7&#45;&gt;Node5</title>
<g id="a_edge8_Node000007_Node000005"><a xlink:title=" ">
<path fill="none" stroke="#63b8ff" d="M616.81,-79.42C534.94,-61.12 450.79,-45.27 393.6,-34.94"/>
<polygon fill="#63b8ff" stroke="#63b8ff" points="615.82,-82.78 626.34,-81.56 617.36,-75.95 615.82,-82.78"/>
</a>
</g>
</g>
<!-- Node8&#45;&gt;Node5 -->
<g id="edge14_Node000008_Node000005" class="edge">
<title>Node8&#45;&gt;Node5</title>
<g id="a_edge14_Node000008_Node000005"><a xlink:title=" ">
<path fill="none" stroke="#63b8ff" d="M249.46,-318.89C237.89,-309.37 226.98,-297.63 220.62,-284 212.37,-266.27 217.4,-259.29 220.62,-240 233.02,-165.83 237.9,-145.05 275.62,-80 283.09,-67.13 293.7,-54.52 303.24,-44.44"/>
<polygon fill="#63b8ff" stroke="#63b8ff" points="247.11,-321.49 257.17,-324.81 251.37,-315.94 247.11,-321.49"/>
</a>
</g>
</g>
<!-- Node9 -->
<g id="Node000009" class="node">
<title>Node9</title>
<g id="a_Node000009"><a xlink:href="render_8h.html" target="_top" xlink:title=" ">
<polygon fill="white" stroke="#666666" points="377.25,-284 230,-284 230,-240 377.25,-240 377.25,-284"/>
<text xml:space="preserve" text-anchor="start" x="238" y="-270.5" font-family="Helvetica,sans-Serif" font-size="10.00">C:/Users/lucca/Documents</text>
<text xml:space="preserve" text-anchor="start" x="238" y="-258.5" font-family="Helvetica,sans-Serif" font-size="10.00">/Lucca/Projects/C/yuime</text>
<text xml:space="preserve" text-anchor="middle" x="303.62" y="-246.5" font-family="Helvetica,sans-Serif" font-size="10.00">/include/yuime/render/render.h</text>
</a>
</g>
</g>
<!-- Node8&#45;&gt;Node9 -->
<g id="edge11_Node000008_Node000009" class="edge">
<title>Node8&#45;&gt;Node9</title>
<g id="a_edge11_Node000008_Node000009"><a xlink:title=" ">
<path fill="none" stroke="#63b8ff" d="M298.72,-314.49C299.68,-304.43 300.71,-293.6 301.58,-284.48"/>
<polygon fill="#63b8ff" stroke="#63b8ff" points="295.25,-314.01 297.79,-324.3 302.22,-314.67 295.25,-314.01"/>
</a>
</g>
</g>
<!-- Node9&#45;&gt;Node3 -->
<g id="edge12_Node000009_Node000003" class="edge">
<title>Node9&#45;&gt;Node3</title>
<g id="a_edge12_Node000009_Node000003"><a xlink:title=" ">
<path fill="none" stroke="#63b8ff" d="M339.51,-232.72C351.43,-223.34 364.48,-213.06 375.61,-204.29"/>
<polygon fill="#63b8ff" stroke="#63b8ff" points="337.55,-229.81 331.87,-238.75 341.89,-235.31 337.55,-229.81"/>
</a>
</g>
</g>
<!-- Node9&#45;&gt;Node5 -->
<g id="edge13_Node000009_Node000005" class="edge">
<title>Node9&#45;&gt;Node5</title>
<g id="a_edge13_Node000009_Node000005"><a xlink:title=" ">
<path fill="none" stroke="#63b8ff" d="M293.15,-228.5C282.95,-191.65 271.1,-130.2 286.62,-80 290.63,-67.06 298.7,-54.43 306.46,-44.37"/>
<polygon fill="#63b8ff" stroke="#63b8ff" points="289.78,-229.47 295.94,-238.09 296.51,-227.51 289.78,-229.47"/>
</a>
</g>
</g>
<!-- Node10&#45;&gt;Node5 -->
<g id="edge23_Node000010_Node000005" class="edge">
<title>Node10&#45;&gt;Node5</title>
<g id="a_edge23_Node000010_Node000005"><a xlink:title=" ">
<path fill="none" stroke="#63b8ff" d="M610.82,-320.08C698.51,-271.48 858.71,-166.16 782.62,-80 757.32,-51.34 514.77,-33.69 393.69,-26.6"/>
<polygon fill="#63b8ff" stroke="#63b8ff" points="609.18,-316.98 602.09,-324.85 612.54,-323.12 609.18,-316.98"/>
</a>
</g>
</g>
<!-- Node10&#45;&gt;Node7 -->
<g id="edge22_Node000010_Node000007" class="edge">
<title>Node10&#45;&gt;Node7</title>
<g id="a_edge22_Node000010_Node000007"><a xlink:title=" ">
<path fill="none" stroke="#63b8ff" d="M587.82,-317.12C596.75,-307.08 606.18,-295.5 613.62,-284 646.58,-233.08 643.82,-214.41 670.62,-160 676.51,-148.06 683.4,-134.91 689.1,-124.24"/>
<polygon fill="#63b8ff" stroke="#63b8ff" points="585.33,-314.65 581.17,-324.39 590.5,-319.38 585.33,-314.65"/>
</a>
</g>
</g>
<!-- Node11 -->
<g id="Node000011" class="node">
<title>Node11</title>
<g id="a_Node000011"><a xlink:href="node_8h.html" target="_top" xlink:title=" ">
<polygon fill="white" stroke="#666666" points="604.25,-284 469,-284 469,-240 604.25,-240 604.25,-284"/>
<text xml:space="preserve" text-anchor="start" x="477" y="-270.5" font-family="Helvetica,sans-Serif" font-size="10.00">C:/Users/lucca/Documents</text>
<text xml:space="preserve" text-anchor="start" x="477" y="-258.5" font-family="Helvetica,sans-Serif" font-size="10.00">/Lucca/Projects/C/yuime</text>
<text xml:space="preserve" text-anchor="middle" x="536.62" y="-246.5" font-family="Helvetica,sans-Serif" font-size="10.00">/include/yuime/node.h</text>
</a>
</g>
</g>
<!-- Node10&#45;&gt;Node11 -->
<g id="edge17_Node000010_Node000011" class="edge">
<title>Node10&#45;&gt;Node11</title>
<g id="a_edge17_Node000010_Node000011"><a xlink:title=" ">
<path fill="none" stroke="#63b8ff" d="M550.2,-314.82C547.54,-304.67 544.67,-293.7 542.25,-284.48"/>
<polygon fill="#63b8ff" stroke="#63b8ff" points="546.77,-315.55 552.69,-324.34 553.54,-313.78 546.77,-315.55"/>
</a>
</g>
</g>
<!-- Node11&#45;&gt;Node3 -->
<g id="edge18_Node000011_Node000003" class="edge">
<title>Node11&#45;&gt;Node3</title>
<g id="a_edge18_Node000011_Node000003"><a xlink:title=" ">
<path fill="none" stroke="#63b8ff" d="M490.41,-234.1C473.66,-224.35 455,-213.49 439.2,-204.29"/>
<polygon fill="#63b8ff" stroke="#63b8ff" points="488.3,-236.92 498.7,-238.92 491.82,-230.87 488.3,-236.92"/>
</a>
</g>
</g>
<!-- Node11&#45;&gt;Node4 -->
<g id="edge19_Node000011_Node000004" class="edge">
<title>Node11&#45;&gt;Node4</title>
<g id="a_edge19_Node000011_Node000004"><a xlink:title=" ">
<path fill="none" stroke="#63b8ff" d="M524.41,-229.47C514.8,-207.86 499.68,-179.65 479.62,-160 464.7,-145.38 445.26,-133.48 427.11,-124.41"/>
<polygon fill="#63b8ff" stroke="#63b8ff" points="521.07,-230.57 528.21,-238.4 527.51,-227.83 521.07,-230.57"/>
</a>
</g>
</g>
<!-- Node11&#45;&gt;Node6 -->
<g id="edge20_Node000011_Node000006" class="edge">
<title>Node11&#45;&gt;Node6</title>
<g id="a_edge20_Node000011_Node000006"><a xlink:title=" ">
<path fill="none" stroke="#63b8ff" d="M536.21,-228.57C535.82,-197.43 535.24,-151.3 534.9,-124.48"/>
<polygon fill="#63b8ff" stroke="#63b8ff" points="532.71,-228.22 536.34,-238.18 539.71,-228.13 532.71,-228.22"/>
</a>
</g>
</g>
<!-- Node11&#45;&gt;Node7 -->
<g id="edge21_Node000011_Node000007" class="edge">
<title>Node11&#45;&gt;Node7</title>
<g id="a_edge21_Node000011_Node000007"><a xlink:title=" ">
<path fill="none" stroke="#63b8ff" d="M559.99,-230.95C576.91,-210.04 600.88,-182.07 624.62,-160 638.4,-147.2 654.98,-134.5 669.13,-124.34"/>
<polygon fill="#63b8ff" stroke="#63b8ff" points="557.43,-228.55 553.92,-238.55 562.9,-232.93 557.43,-228.55"/>
</a>
</g>
</g>
</g>
</svg>
