<?xml version="1.0" encoding="UTF-8" standalone="no"?>
<!DOCTYPE svg PUBLIC "-//W3C//DTD SVG 1.1//EN"
 "http://www.w3.org/Graphics/SVG/1.1/DTD/svg11.dtd">
<!-- Generated by graphviz version 14.1.5 (20260411.2331)
 -->
<!-- Title: C:/Users/lucca/Documents/Lucca/Projects/C/yuime/include/yuime/style/color.h Pages: 1 -->
<svg width="389pt" height="292pt"
 viewBox="0.00 0.00 389.00 292.00" xmlns="http://www.w3.org/2000/svg" xmlns:xlink="http://www.w3.org/1999/xlink">
<g id="graph0" class="graph" transform="scale(1 1) rotate(0) translate(4 288)">
<title>C:/Users/lucca/Documents/Lucca/Projects/C/yuime/include/yuime/style/color.h</title>
<!-- Node1 -->
<g id="Node000001" class="node">
<title>Node1</title>
<g id="a_Node000001"><a xlink:title=" ">
<polygon fill="#999999" stroke="#666666" points="218.37,-284 83.12,-284 83.12,-240 218.37,-240 218.37,-284"/>
<text xml:space="preserve" text-anchor="start" x="91.12" y="-270.5" font-family="Helvetica,sans-Serif" font-size="10.00">C:/Users/lucca/Documents</text>
<text xml:space="preserve" text-anchor="start" x="91.12" y="-258.5" font-family="Helvetica,sans-Serif" font-size="10.00">/Lucca/Projects/C/yuime</text>
<text xml:space="preserve" text-anchor="middle" x="150.75" y="-246.5" font-family="Helvetica,sans-Serif" font-size="10.00">/include/yuime/style/color.h</text>
</a>
</g>
</g>
<!-- Node2 -->
<g id="Node000002" class="node">
<title>Node2</title>
<g id="a_Node000002"><a xlink:href="rectangle_8h.html" target="_top" xlink:title=" ">
<polygon fill="white" stroke="#666666" points="179.75,-124 19.75,-124 19.75,-80 179.75,-80 179.75,-124"/>
<text xml:space="preserve" text-anchor="start" x="27.75" y="-110.5" font-family="Helvetica,sans-Serif" font-size="10.00">C:/Users/lucca/Documents</text>
<text xml:space="preserve" text-anchor="start" x="27.75" y="-98.5" font-family="Helvetica,sans-Serif" font-size="10.00">/Lucca/Projects/C/yuime</text>
<text xml:space="preserve" text-anchor="middle" x="99.75" y="-86.5" font-family="Helvetica,sans-Serif" font-size="10.00">/include/yuime/render/rectangle.h</text>
</a>
</g>
</g>
<!-- Node1&#45;&gt;Node2 -->
<g id="edge1_Node000001_Node000002" class="edge">
<title>Node1&#45;&gt;Node2</title>
<g id="a_edge1_Node000001_Node000002"><a xlink:title=" ">
<path fill="none" stroke="#63b8ff" d="M135.11,-229.48C131.41,-221.31 127.68,-212.43 124.75,-204 115.35,-177.05 108.03,-144.89 103.8,-124.22"/>
<polygon fill="#63b8ff" stroke="#63b8ff" points="131.86,-230.79 139.27,-238.36 138.2,-227.82 131.86,-230.79"/>
</a>
</g>
</g>
<!-- Node3 -->
<g id="Node000003" class="node">
<title>Node3</title>
<g id="a_Node000003"><a xlink:href="yuime_8h.html" target="_top" xlink:title=" ">
<polygon fill="white" stroke="#666666" points="221.37,-44 86.12,-44 86.12,0 221.37,0 221.37,-44"/>
<text xml:space="preserve" text-anchor="start" x="94.12" y="-30.5" font-family="Helvetica,sans-Serif" font-size="10.00">C:/Users/lucca/Documents</text>
<text xml:space="preserve" text-anchor="start" x="94.12" y="-18.5" font-family="Helvetica,sans-Serif" font-size="10.00">/Lucca/Projects/C/yuime</text>
<text xml:space="preserve" text-anchor="middle" x="153.75" y="-6.5" font-family="Helvetica,sans-Serif" font-size="10.00">/include/yuime/yuime.h</text>
</a>
</g>
</g>
<!-- Node1&#45;&gt;Node3 -->
<g id="edge9_Node000001_Node000003" class="edge">
<title>Node1&#45;&gt;Node3</title>
<g id="a_edge9_Node000001_Node000003"><a xlink:title=" ">
<path fill="none" stroke="#63b8ff" d="M103.19,-233.69C48.93,-198.94 -27.63,-136.61 10.75,-80 27.77,-54.89 57.8,-40.84 85.97,-32.98"/>
<polygon fill="#63b8ff" stroke="#63b8ff" points="101.08,-236.5 111.41,-238.84 104.79,-230.57 101.08,-236.5"/>
</a>
</g>
</g>
<!-- Node4 -->
<g id="Node000004" class="node">
<title>Node4</title>
<g id="a_Node000004"><a xlink:href="border_8h.html" target="_top" xlink:title=" ">
<polygon fill="white" stroke="#666666" points="275.37,-204 134.12,-204 134.12,-160 275.37,-160 275.37,-204"/>
<text xml:space="preserve" text-anchor="start" x="142.12" y="-190.5" font-family="Helvetica,sans-Serif" font-size="10.00">C:/Users/lucca/Documents</text>
<text xml:space="preserve" text-anchor="start" x="142.12" y="-178.5" font-family="Helvetica,sans-Serif" font-size="10.00">/Lucca/Projects/C/yuime</text>
<text xml:space="preserve" text-anchor="middle" x="204.75" y="-166.5" font-family="Helvetica,sans-Serif" font-size="10.00">/include/yuime/style/border.h</text>
</a>
</g>
</g>
<!-- Node1&#45;&gt;Node4 -->
<g id="edge3_Node000001_Node000004" class="edge">
<title>Node1&#45;&gt;Node4</title>
<g id="a_edge3_Node000001_Node000004"><a xlink:title=" ">
<path fill="none" stroke="#63b8ff" d="M172.05,-230.22C178.07,-221.54 184.47,-212.28 190.01,-204.29"/>
<polygon fill="#63b8ff" stroke="#63b8ff" points="169.18,-228.23 166.36,-238.44 174.93,-232.21 169.18,-228.23"/>
</a>
</g>
</g>
<!-- Node5 -->
<g id="Node000005" class="node">
<title>Node5</title>
<g id="a_Node000005"><a xlink:href="panel_8h.html" target="_top" xlink:title=" ">
<polygon fill="white" stroke="#666666" points="381.25,-124 236.25,-124 236.25,-80 381.25,-80 381.25,-124"/>
<text xml:space="preserve" text-anchor="start" x="244.25" y="-110.5" font-family="Helvetica,sans-Serif" font-size="10.00">C:/Users/lucca/Documents</text>
<text xml:space="preserve" text-anchor="start" x="244.25" y="-98.5" font-family="Helvetica,sans-Serif" font-size="10.00">/Lucca/Projects/C/yuime</text>
<text xml:space="preserve" text-anchor="middle" x="308.75" y="-86.5" font-family="Helvetica,sans-Serif" font-size="10.00">/include/yuime/widget/panel.h</text>
</a>
</g>
</g>
<!-- Node1&#45;&gt;Node5 -->
<g id="edge8_Node000001_Node000005" class="edge">
<title>Node1&#45;&gt;Node5</title>
<g id="a_edge8_Node000001_Node000005"><a xlink:title=" ">
<path fill="none" stroke="#63b8ff" d="M229.5,-241.58C250.02,-233.09 270.37,-221.03 284.75,-204 303.69,-181.55 308.24,-146.74 309.05,-124.41"/>
<polygon fill="#63b8ff" stroke="#63b8ff" points="228.27,-238.3 220.19,-245.16 230.78,-244.84 228.27,-238.3"/>
</a>
</g>
</g>
<!-- Node2&#45;&gt;Node3 -->
<g id="edge2_Node000002_Node000003" class="edge">
<title>Node2&#45;&gt;Node3</title>
<g id="a_edge2_Node000002_Node000003"><a xlink:title=" ">
<path fill="none" stroke="#63b8ff" d="M121.05,-70.22C127.07,-61.54 133.47,-52.28 139.01,-44.29"/>
<polygon fill="#63b8ff" stroke="#63b8ff" points="118.18,-68.23 115.36,-78.44 123.93,-72.21 118.18,-68.23"/>
</a>
</g>
</g>
<!-- Node4&#45;&gt;Node2 -->
<g id="edge4_Node000004_Node000002" class="edge">
<title>Node4&#45;&gt;Node2</title>
<g id="a_edge4_Node000004_Node000002"><a xlink:title=" ">
<path fill="none" stroke="#63b8ff" d="M167.05,-153C154.32,-143.54 140.32,-133.14 128.4,-124.29"/>
<polygon fill="#63b8ff" stroke="#63b8ff" points="164.72,-155.63 174.84,-158.78 168.9,-150.01 164.72,-155.63"/>
</a>
</g>
</g>
<!-- Node4&#45;&gt;Node3 -->
<g id="edge7_Node000004_Node000003" class="edge">
<title>Node4&#45;&gt;Node3</title>
<g id="a_edge7_Node000004_Node000003"><a xlink:title=" ">
<path fill="none" stroke="#63b8ff" d="M202.85,-148.47C200.88,-128.26 196.88,-102.03 188.75,-80 184.12,-67.47 176.58,-54.7 169.69,-44.43"/>
<polygon fill="#63b8ff" stroke="#63b8ff" points="199.36,-148.71 203.68,-158.38 206.33,-148.13 199.36,-148.71"/>
</a>
</g>
</g>
<!-- Node4&#45;&gt;Node5 -->
<g id="edge5_Node000004_Node000005" class="edge">
<title>Node4&#45;&gt;Node5</title>
<g id="a_edge5_Node000004_Node000005"><a xlink:title=" ">
<path fill="none" stroke="#63b8ff" d="M242.08,-153C254.69,-143.54 268.56,-133.14 280.36,-124.29"/>
<polygon fill="#63b8ff" stroke="#63b8ff" points="240.27,-149.98 234.37,-158.78 244.47,-155.58 240.27,-149.98"/>
</a>
</g>
</g>
<!-- Node5&#45;&gt;Node3 -->
<g id="edge6_Node000005_Node000003" class="edge">
<title>Node5&#45;&gt;Node3</title>
<g id="a_edge6_Node000005_Node000003"><a xlink:title=" ">
<path fill="none" stroke="#63b8ff" d="M256.14,-74.53C236.65,-64.72 214.81,-53.73 196.32,-44.42"/>
<polygon fill="#63b8ff" stroke="#63b8ff" points="254.53,-77.64 265.04,-79.01 257.68,-71.38 254.53,-77.64"/>
</a>
</g>
</g>
</g>
</svg>
