<?xml version="1.0" encoding="UTF-8" standalone="no"?>
<!DOCTYPE svg PUBLIC "-//W3C//DTD SVG 1.1//EN"
 "http://www.w3.org/Graphics/SVG/1.1/DTD/svg11.dtd">
<!-- Generated by graphviz version 14.1.5 (20260411.2331)
 -->
<!-- Title: C:/Users/lucca/Documents/Lucca/Projects/C/yuime/include/yuime/render/command.h Pages: 1 -->
<svg width="611pt" height="372pt"
 viewBox="0.00 0.00 611.00 372.00" xmlns="http://www.w3.org/2000/svg" xmlns:xlink="http://www.w3.org/1999/xlink">
<g id="graph0" class="graph" transform="scale(1 1) rotate(0) translate(4 368)">
<title>C:/Users/lucca/Documents/Lucca/Projects/C/yuime/include/yuime/render/command.h</title>
<!-- Node1 -->
<g id="Node000001" class="node">
<title>Node1</title>
<g id="a_Node000001"><a xlink:title=" ">
<polygon fill="#999999" stroke="#666666" points="603.12,-364 440.12,-364 440.12,-320 603.12,-320 603.12,-364"/>
<text xml:space="preserve" text-anchor="start" x="448.12" y="-350.5" font-family="Helvetica,sans-Serif" font-size="10.00">C:/Users/lucca/Documents</text>
<text xml:space="preserve" text-anchor="start" x="448.12" y="-338.5" font-family="Helvetica,sans-Serif" font-size="10.00">/Lucca/Projects/C/yuime</text>
<text xml:space="preserve" text-anchor="middle" x="521.62" y="-326.5" font-family="Helvetica,sans-Serif" font-size="10.00">/include/yuime/render/command.h</text>
</a>
</g>
</g>
<!-- Node2 -->
<g id="Node000002" class="node">
<title>Node2</title>
<g id="a_Node000002"><a xlink:href="render_8h.html" target="_top" xlink:title=" ">
<polygon fill="white" stroke="#666666" points="544.25,-284 397,-284 397,-240 544.25,-240 544.25,-284"/>
<text xml:space="preserve" text-anchor="start" x="405" y="-270.5" font-family="Helvetica,sans-Serif" font-size="10.00">C:/Users/lucca/Documents</text>
<text xml:space="preserve" text-anchor="start" x="405" y="-258.5" font-family="Helvetica,sans-Serif" font-size="10.00">/Lucca/Projects/C/yuime</text>
<text xml:space="preserve" text-anchor="middle" x="470.62" y="-246.5" font-family="Helvetica,sans-Serif" font-size="10.00">/include/yuime/render/render.h</text>
</a>
</g>
</g>
<!-- Node1&#45;&gt;Node2 -->
<g id="edge1_Node000001_Node000002" class="edge">
<title>Node1&#45;&gt;Node2</title>
<g id="a_edge1_Node000001_Node000002"><a xlink:title=" ">
<path fill="none" stroke="#63b8ff" d="M501.5,-310.22C495.82,-301.54 489.77,-292.28 484.54,-284.29"/>
<polygon fill="#63b8ff" stroke="#63b8ff" points="498.46,-311.97 506.86,-318.42 504.32,-308.13 498.46,-311.97"/>
</a>
</g>
</g>
<!-- Node5 -->
<g id="Node000005" class="node">
<title>Node5</title>
<g id="a_Node000005"><a xlink:href="yuime_8h.html" target="_top" xlink:title=" ">
<polygon fill="white" stroke="#666666" points="418.25,-44 283,-44 283,0 418.25,0 418.25,-44"/>
<text xml:space="preserve" text-anchor="start" x="291" y="-30.5" font-family="Helvetica,sans-Serif" font-size="10.00">C:/Users/lucca/Documents</text>
<text xml:space="preserve" text-anchor="start" x="291" y="-18.5" font-family="Helvetica,sans-Serif" font-size="10.00">/Lucca/Projects/C/yuime</text>
<text xml:space="preserve" text-anchor="middle" x="350.62" y="-6.5" font-family="Helvetica,sans-Serif" font-size="10.00">/include/yuime/yuime.h</text>
</a>
</g>
</g>
<!-- Node1&#45;&gt;Node5 -->
<g id="edge11_Node000001_Node000005" class="edge">
<title>Node1&#45;&gt;Node5</title>
<g id="a_edge11_Node000001_Node000005"><a xlink:title=" ">
<path fill="none" stroke="#63b8ff" d="M542.8,-309.93C547.26,-301.83 551.3,-292.88 553.62,-284 568.46,-227.27 566.15,-115.79 536.62,-80 508.04,-45.35 458.96,-31.31 418.39,-25.83"/>
<polygon fill="#63b8ff" stroke="#63b8ff" points="539.9,-307.97 537.82,-318.36 545.92,-311.54 539.9,-307.97"/>
</a>
</g>
</g>
<!-- Node3 -->
<g id="Node000003" class="node">
<title>Node3</title>
<g id="a_Node000003"><a xlink:href="context_8h.html" target="_top" xlink:title=" ">
<polygon fill="white" stroke="#666666" points="335.25,-204 200,-204 200,-160 335.25,-160 335.25,-204"/>
<text xml:space="preserve" text-anchor="start" x="208" y="-190.5" font-family="Helvetica,sans-Serif" font-size="10.00">C:/Users/lucca/Documents</text>
<text xml:space="preserve" text-anchor="start" x="208" y="-178.5" font-family="Helvetica,sans-Serif" font-size="10.00">/Lucca/Projects/C/yuime</text>
<text xml:space="preserve" text-anchor="middle" x="267.62" y="-166.5" font-family="Helvetica,sans-Serif" font-size="10.00">/include/yuime/context.h</text>
</a>
</g>
</g>
<!-- Node2&#45;&gt;Node3 -->
<g id="edge2_Node000002_Node000003" class="edge">
<title>Node2&#45;&gt;Node3</title>
<g id="a_edge2_Node000002_Node000003"><a xlink:title=" ">
<path fill="none" stroke="#63b8ff" d="M404.28,-235.51C378.07,-225.44 348.29,-214 323.24,-204.37"/>
<polygon fill="#63b8ff" stroke="#63b8ff" points="402.88,-238.72 413.47,-239.04 405.39,-232.19 402.88,-238.72"/>
</a>
</g>
</g>
<!-- Node2&#45;&gt;Node5 -->
<g id="edge10_Node000002_Node000005" class="edge">
<title>Node2&#45;&gt;Node5</title>
<g id="a_edge10_Node000002_Node000005"><a xlink:title=" ">
<path fill="none" stroke="#63b8ff" d="M492.37,-230.06C516.48,-191.56 547.97,-125.39 515.62,-80 493.55,-49.02 453.47,-34.72 418.34,-28.19"/>
<polygon fill="#63b8ff" stroke="#63b8ff" points="489.46,-228.11 486.96,-238.41 495.33,-231.92 489.46,-228.11"/>
</a>
</g>
</g>
<!-- Node4 -->
<g id="Node000004" class="node">
<title>Node4</title>
<g id="a_Node000004"><a xlink:href="events_8h.html" target="_top" xlink:title=" ">
<polygon fill="white" stroke="#666666" points="135.25,-124 0,-124 0,-80 135.25,-80 135.25,-124"/>
<text xml:space="preserve" text-anchor="start" x="8" y="-110.5" font-family="Helvetica,sans-Serif" font-size="10.00">C:/Users/lucca/Documents</text>
<text xml:space="preserve" text-anchor="start" x="8" y="-98.5" font-family="Helvetica,sans-Serif" font-size="10.00">/Lucca/Projects/C/yuime</text>
<text xml:space="preserve" text-anchor="middle" x="67.62" y="-86.5" font-family="Helvetica,sans-Serif" font-size="10.00">/include/yuime/events.h</text>
</a>
</g>
</g>
<!-- Node3&#45;&gt;Node4 -->
<g id="edge3_Node000003_Node000004" class="edge">
<title>Node3&#45;&gt;Node4</title>
<g id="a_edge3_Node000003_Node000004"><a xlink:title=" ">
<path fill="none" stroke="#63b8ff" d="M202.26,-155.51C176.44,-145.44 147.1,-134 122.42,-124.37"/>
<polygon fill="#63b8ff" stroke="#63b8ff" points="200.71,-158.66 211.3,-159.03 203.25,-152.14 200.71,-158.66"/>
</a>
</g>
</g>
<!-- Node3&#45;&gt;Node5 -->
<g id="edge9_Node000003_Node000005" class="edge">
<title>Node3&#45;&gt;Node5</title>
<g id="a_edge9_Node000003_Node000005"><a xlink:title=" ">
<path fill="none" stroke="#63b8ff" d="M209.64,-153.44C198.79,-145.52 188.9,-135.76 182.62,-124 173.42,-106.75 171.23,-95.89 182.62,-80 205.32,-48.33 246.61,-34.04 282.57,-27.69"/>
<polygon fill="#63b8ff" stroke="#63b8ff" points="207.42,-156.16 217.67,-158.83 211.32,-150.35 207.42,-156.16"/>
</a>
</g>
</g>
<!-- Node6 -->
<g id="Node000006" class="node">
<title>Node6</title>
<g id="a_Node000006"><a xlink:href="widget_2events_8h.html" target="_top" xlink:title=" ">
<polygon fill="white" stroke="#666666" points="343.12,-124 192.12,-124 192.12,-80 343.12,-80 343.12,-124"/>
<text xml:space="preserve" text-anchor="start" x="200.12" y="-110.5" font-family="Helvetica,sans-Serif" font-size="10.00">C:/Users/lucca/Documents</text>
<text xml:space="preserve" text-anchor="start" x="200.12" y="-98.5" font-family="Helvetica,sans-Serif" font-size="10.00">/Lucca/Projects/C/yuime</text>
<text xml:space="preserve" text-anchor="middle" x="267.62" y="-86.5" font-family="Helvetica,sans-Serif" font-size="10.00">/include/yuime/widget/events.h</text>
</a>
</g>
</g>
<!-- Node3&#45;&gt;Node6 -->
<g id="edge5_Node000003_Node000006" class="edge">
<title>Node3&#45;&gt;Node6</title>
<g id="a_edge5_Node000003_Node000006"><a xlink:title=" ">
<path fill="none" stroke="#63b8ff" d="M267.62,-148.25C267.62,-140.15 267.62,-131.68 267.62,-124.29"/>
<polygon fill="#63b8ff" stroke="#63b8ff" points="264.13,-148.17 267.63,-158.17 271.13,-148.17 264.13,-148.17"/>
</a>
</g>
</g>
<!-- Node7 -->
<g id="Node000007" class="node">
<title>Node7</title>
<g id="a_Node000007"><a xlink:href="panel_8h.html" target="_top" xlink:title=" ">
<polygon fill="white" stroke="#666666" points="506.12,-124 361.12,-124 361.12,-80 506.12,-80 506.12,-124"/>
<text xml:space="preserve" text-anchor="start" x="369.12" y="-110.5" font-family="Helvetica,sans-Serif" font-size="10.00">C:/Users/lucca/Documents</text>
<text xml:space="preserve" text-anchor="start" x="369.12" y="-98.5" font-family="Helvetica,sans-Serif" font-size="10.00">/Lucca/Projects/C/yuime</text>
<text xml:space="preserve" text-anchor="middle" x="433.62" y="-86.5" font-family="Helvetica,sans-Serif" font-size="10.00">/include/yuime/widget/panel.h</text>
</a>
</g>
</g>
<!-- Node3&#45;&gt;Node7 -->
<g id="edge7_Node000003_Node000007" class="edge">
<title>Node3&#45;&gt;Node7</title>
<g id="a_edge7_Node000003_Node000007"><a xlink:title=" ">
<path fill="none" stroke="#63b8ff" d="M323.38,-154.8C344.41,-144.92 368.05,-133.81 388.03,-124.42"/>
<polygon fill="#63b8ff" stroke="#63b8ff" points="321.92,-151.62 314.36,-159.04 324.89,-157.96 321.92,-151.62"/>
</a>
</g>
</g>
<!-- Node4&#45;&gt;Node5 -->
<g id="edge4_Node000004_Node000005" class="edge">
<title>Node4&#45;&gt;Node5</title>
<g id="a_edge4_Node000004_Node000005"><a xlink:title=" ">
<path fill="none" stroke="#63b8ff" d="M146.38,-79.29C189.29,-67.47 241.85,-52.98 282.9,-41.67"/>
<polygon fill="#63b8ff" stroke="#63b8ff" points="145.58,-75.88 136.87,-81.91 147.44,-82.63 145.58,-75.88"/>
</a>
</g>
</g>
<!-- Node6&#45;&gt;Node5 -->
<g id="edge6_Node000006_Node000005" class="edge">
<title>Node6&#45;&gt;Node5</title>
<g id="a_edge6_Node000006_Node000005"><a xlink:title=" ">
<path fill="none" stroke="#63b8ff" d="M298.6,-71.89C308.34,-62.74 318.92,-52.8 327.97,-44.29"/>
<polygon fill="#63b8ff" stroke="#63b8ff" points="296.3,-69.25 291.41,-78.65 301.09,-74.35 296.3,-69.25"/>
</a>
</g>
</g>
<!-- Node7&#45;&gt;Node5 -->
<g id="edge8_Node000007_Node000005" class="edge">
<title>Node7&#45;&gt;Node5</title>
<g id="a_edge8_Node000007_Node000005"><a xlink:title=" ">
<path fill="none" stroke="#63b8ff" d="M402.65,-71.89C392.91,-62.74 382.33,-52.8 373.28,-44.29"/>
<polygon fill="#63b8ff" stroke="#63b8ff" points="400.16,-74.35 409.84,-78.65 404.95,-69.25 400.16,-74.35"/>
</a>
</g>
</g>
</g>
</svg>
