<?xml version="1.0" encoding="UTF-8" standalone="no"?>
<!DOCTYPE svg PUBLIC "-//W3C//DTD SVG 1.1//EN"
 "http://www.w3.org/Graphics/SVG/1.1/DTD/svg11.dtd">
<!-- Generated by graphviz version 14.1.5 (20260411.2331)
 -->
<!-- Title: C:/Users/lucca/Documents/Lucca/Projects/C/yuime/include/yuime/render/command.h Pages: 1 -->
<svg width="171pt" height="164pt"
 viewBox="0.00 0.00 171.00 164.00" xmlns="http://www.w3.org/2000/svg" xmlns:xlink="http://www.w3.org/1999/xlink">
<g id="graph0" class="graph" transform="scale(1 1) rotate(0) translate(4 160)">
<title>C:/Users/lucca/Documents/Lucca/Projects/C/yuime/include/yuime/render/command.h</title>
<!-- Node1 -->
<g id="Node000001" class="node">
<title>Node1</title>
<g id="a_Node000001"><a xlink:title=" ">
<polygon fill="#999999" stroke="#666666" points="163,-156 0,-156 0,-112 163,-112 163,-156"/>
<text xml:space="preserve" text-anchor="start" x="8" y="-142.5" font-family="Helvetica,sans-Serif" font-size="10.00">C:/Users/lucca/Documents</text>
<text xml:space="preserve" text-anchor="start" x="8" y="-130.5" font-family="Helvetica,sans-Serif" font-size="10.00">/Lucca/Projects/C/yuime</text>
<text xml:space="preserve" text-anchor="middle" x="81.5" y="-118.5" font-family="Helvetica,sans-Serif" font-size="10.00">/include/yuime/render/command.h</text>
</a>
</g>
</g>
<!-- Node2 -->
<g id="Node000002" class="node">
<title>Node2</title>
<g id="a_Node000002"><a xlink:title=" ">
<polygon fill="#e0e0e0" stroke="#999999" points="71.62,-20 23.38,-20 23.38,0 71.62,0 71.62,-20"/>
<text xml:space="preserve" text-anchor="middle" x="47.5" y="-6.5" font-family="Helvetica,sans-Serif" font-size="10.00">stdint.h</text>
</a>
</g>
</g>
<!-- Node1&#45;&gt;Node2 -->
<g id="edge1_Node000001_Node000002" class="edge">
<title>Node1&#45;&gt;Node2</title>
<g id="a_edge1_Node000001_Node000002"><a xlink:title=" ">
<path fill="none" stroke="#63b8ff" d="M63.98,-111.67C56.75,-101.52 49.21,-88.82 45.5,-76 41.31,-61.54 42.03,-44.5 43.68,-31.5"/>
<polygon fill="#63b8ff" stroke="#63b8ff" points="47.08,-32.4 45.18,-21.98 40.17,-31.31 47.08,-32.4"/>
</a>
</g>
</g>
<!-- Node3 -->
<g id="Node000003" class="node">
<title>Node3</title>
<g id="a_Node000003"><a xlink:href="_a_p_i_8h.html" target="_top" xlink:title=" ">
<polygon fill="white" stroke="#666666" points="150.38,-20 100.62,-20 100.62,0 150.38,0 150.38,-20"/>
<text xml:space="preserve" text-anchor="middle" x="125.5" y="-6.5" font-family="Helvetica,sans-Serif" font-size="10.00">../API.h</text>
</a>
</g>
</g>
<!-- Node1&#45;&gt;Node3 -->
<g id="edge2_Node000001_Node000003" class="edge">
<title>Node1&#45;&gt;Node3</title>
<g id="a_edge2_Node000001_Node000003"><a xlink:title=" ">
<path fill="none" stroke="#63b8ff" d="M98.11,-111.71C105.25,-101.47 112.97,-88.68 117.5,-76 122.6,-61.7 124.56,-44.64 125.26,-31.59"/>
<polygon fill="#63b8ff" stroke="#63b8ff" points="128.76,-31.73 125.57,-21.63 121.76,-31.52 128.76,-31.73"/>
</a>
</g>
</g>
<!-- Node4 -->
<g id="Node000004" class="node">
<title>Node4</title>
<g id="a_Node000004"><a xlink:href="alloc_8h.html" target="_top" xlink:title=" ">
<polygon fill="white" stroke="#666666" points="108.25,-76 54.75,-76 54.75,-56 108.25,-56 108.25,-76"/>
<text xml:space="preserve" text-anchor="middle" x="81.5" y="-62.5" font-family="Helvetica,sans-Serif" font-size="10.00">../alloc.h</text>
</a>
</g>
</g>
<!-- Node1&#45;&gt;Node4 -->
<g id="edge3_Node000001_Node000004" class="edge">
<title>Node1&#45;&gt;Node4</title>
<g id="a_edge3_Node000001_Node000004"><a xlink:title=" ">
<path fill="none" stroke="#63b8ff" d="M81.5,-111.75C81.5,-104.13 81.5,-95.53 81.5,-87.93"/>
<polygon fill="#63b8ff" stroke="#63b8ff" points="85,-87.93 81.5,-77.93 78,-87.93 85,-87.93"/>
</a>
</g>
</g>
<!-- Node4&#45;&gt;Node2 -->
<g id="edge4_Node000004_Node000002" class="edge">
<title>Node4&#45;&gt;Node2</title>
<g id="a_edge4_Node000004_Node000002"><a xlink:title=" ">
<path fill="none" stroke="#63b8ff" d="M75.58,-55.59C71.14,-48.55 64.92,-38.67 59.46,-30"/>
<polygon fill="#63b8ff" stroke="#63b8ff" points="62.45,-28.18 54.16,-21.58 56.53,-31.91 62.45,-28.18"/>
</a>
</g>
</g>
<!-- Node4&#45;&gt;Node3 -->
<g id="edge5_Node000004_Node000003" class="edge">
<title>Node4&#45;&gt;Node3</title>
<g id="a_edge5_Node000004_Node000003"><a xlink:title=" ">
<path fill="none" stroke="#63b8ff" d="M89.16,-55.59C95.09,-48.32 103.49,-38.02 110.71,-29.15"/>
<polygon fill="#63b8ff" stroke="#63b8ff" points="113.36,-31.43 116.97,-21.47 107.94,-27.01 113.36,-31.43"/>
</a>
</g>
</g>
</g>
</svg>
