<?xml version="1.0" encoding="UTF-8" standalone="no"?>
<!DOCTYPE svg PUBLIC "-//W3C//DTD SVG 1.1//EN"
 "http://www.w3.org/Graphics/SVG/1.1/DTD/svg11.dtd">
<!-- Generated by graphviz version 14.1.5 (20260411.2331)
 -->
<!-- Title: C:/Users/lucca/Documents/Lucca/Projects/C/yuime/include/yuime/context.h Pages: 1 -->
<svg width="514pt" height="212pt"
 viewBox="0.00 0.00 514.00 212.00" xmlns="http://www.w3.org/2000/svg" xmlns:xlink="http://www.w3.org/1999/xlink">
<g id="graph0" class="graph" transform="scale(1 1) rotate(0) translate(4 208)">
<title>C:/Users/lucca/Documents/Lucca/Projects/C/yuime/include/yuime/context.h</title>
<!-- Node1 -->
<g id="Node000001" class="node">
<title>Node1</title>
<g id="a_Node000001"><a xlink:title=" ">
<polygon fill="#999999" stroke="#666666" points="283.25,-204 148,-204 148,-160 283.25,-160 283.25,-204"/>
<text xml:space="preserve" text-anchor="start" x="156" y="-190.5" font-family="Helvetica,sans-Serif" font-size="10.00">C:/Users/lucca/Documents</text>
<text xml:space="preserve" text-anchor="start" x="156" y="-178.5" font-family="Helvetica,sans-Serif" font-size="10.00">/Lucca/Projects/C/yuime</text>
<text xml:space="preserve" text-anchor="middle" x="215.62" y="-166.5" font-family="Helvetica,sans-Serif" font-size="10.00">/include/yuime/context.h</text>
</a>
</g>
</g>
<!-- Node2 -->
<g id="Node000002" class="node">
<title>Node2</title>
<g id="a_Node000002"><a xlink:href="events_8h.html" target="_top" xlink:title=" ">
<polygon fill="white" stroke="#666666" points="135.25,-124 0,-124 0,-80 135.25,-80 135.25,-124"/>
<text xml:space="preserve" text-anchor="start" x="8" y="-110.5" font-family="Helvetica,sans-Serif" font-size="10.00">C:/Users/lucca/Documents</text>
<text xml:space="preserve" text-anchor="start" x="8" y="-98.5" font-family="Helvetica,sans-Serif" font-size="10.00">/Lucca/Projects/C/yuime</text>
<text xml:space="preserve" text-anchor="middle" x="67.62" y="-86.5" font-family="Helvetica,sans-Serif" font-size="10.00">/include/yuime/events.h</text>
</a>
</g>
</g>
<!-- Node1&#45;&gt;Node2 -->
<g id="edge1_Node000001_Node000002" class="edge">
<title>Node1&#45;&gt;Node2</title>
<g id="a_edge1_Node000001_Node000002"><a xlink:title=" ">
<path fill="none" stroke="#63b8ff" d="M165.14,-154.39C146.59,-144.62 125.85,-133.68 108.27,-124.42"/>
<polygon fill="#63b8ff" stroke="#63b8ff" points="163.37,-157.41 173.84,-158.98 166.63,-151.22 163.37,-157.41"/>
</a>
</g>
</g>
<!-- Node3 -->
<g id="Node000003" class="node">
<title>Node3</title>
<g id="a_Node000003"><a xlink:href="yuime_8h.html" target="_top" xlink:title=" ">
<polygon fill="white" stroke="#666666" points="283.25,-44 148,-44 148,0 283.25,0 283.25,-44"/>
<text xml:space="preserve" text-anchor="start" x="156" y="-30.5" font-family="Helvetica,sans-Serif" font-size="10.00">C:/Users/lucca/Documents</text>
<text xml:space="preserve" text-anchor="start" x="156" y="-18.5" font-family="Helvetica,sans-Serif" font-size="10.00">/Lucca/Projects/C/yuime</text>
<text xml:space="preserve" text-anchor="middle" x="215.62" y="-6.5" font-family="Helvetica,sans-Serif" font-size="10.00">/include/yuime/yuime.h</text>
</a>
</g>
</g>
<!-- Node1&#45;&gt;Node3 -->
<g id="edge7_Node000001_Node000003" class="edge">
<title>Node1&#45;&gt;Node3</title>
<g id="a_edge7_Node000001_Node000003"><a xlink:title=" ">
<path fill="none" stroke="#63b8ff" d="M193.79,-150.01C189.2,-141.9 185.02,-132.93 182.62,-124 177.55,-105.11 177.55,-98.89 182.62,-80 186.04,-67.3 193.04,-54.51 199.72,-44.27"/>
<polygon fill="#63b8ff" stroke="#63b8ff" points="190.74,-151.73 198.94,-158.44 196.71,-148.08 190.74,-151.73"/>
</a>
</g>
</g>
<!-- Node4 -->
<g id="Node000004" class="node">
<title>Node4</title>
<g id="a_Node000004"><a xlink:href="widget_2events_8h.html" target="_top" xlink:title=" ">
<polygon fill="white" stroke="#666666" points="343.12,-124 192.12,-124 192.12,-80 343.12,-80 343.12,-124"/>
<text xml:space="preserve" text-anchor="start" x="200.12" y="-110.5" font-family="Helvetica,sans-Serif" font-size="10.00">C:/Users/lucca/Documents</text>
<text xml:space="preserve" text-anchor="start" x="200.12" y="-98.5" font-family="Helvetica,sans-Serif" font-size="10.00">/Lucca/Projects/C/yuime</text>
<text xml:space="preserve" text-anchor="middle" x="267.62" y="-86.5" font-family="Helvetica,sans-Serif" font-size="10.00">/include/yuime/widget/events.h</text>
</a>
</g>
</g>
<!-- Node1&#45;&gt;Node4 -->
<g id="edge3_Node000001_Node000004" class="edge">
<title>Node1&#45;&gt;Node4</title>
<g id="a_edge3_Node000001_Node000004"><a xlink:title=" ">
<path fill="none" stroke="#63b8ff" d="M236.14,-150.22C241.93,-141.54 248.1,-132.28 253.43,-124.29"/>
<polygon fill="#63b8ff" stroke="#63b8ff" points="233.31,-148.16 230.67,-158.43 239.13,-152.05 233.31,-148.16"/>
</a>
</g>
</g>
<!-- Node5 -->
<g id="Node000005" class="node">
<title>Node5</title>
<g id="a_Node000005"><a xlink:href="panel_8h.html" target="_top" xlink:title=" ">
<polygon fill="white" stroke="#666666" points="506.12,-124 361.12,-124 361.12,-80 506.12,-80 506.12,-124"/>
<text xml:space="preserve" text-anchor="start" x="369.12" y="-110.5" font-family="Helvetica,sans-Serif" font-size="10.00">C:/Users/lucca/Documents</text>
<text xml:space="preserve" text-anchor="start" x="369.12" y="-98.5" font-family="Helvetica,sans-Serif" font-size="10.00">/Lucca/Projects/C/yuime</text>
<text xml:space="preserve" text-anchor="middle" x="433.62" y="-86.5" font-family="Helvetica,sans-Serif" font-size="10.00">/include/yuime/widget/panel.h</text>
</a>
</g>
</g>
<!-- Node1&#45;&gt;Node5 -->
<g id="edge5_Node000001_Node000005" class="edge">
<title>Node1&#45;&gt;Node5</title>
<g id="a_edge5_Node000001_Node000005"><a xlink:title=" ">
<path fill="none" stroke="#63b8ff" d="M286.13,-155.78C314.45,-145.64 346.76,-134.08 373.9,-124.37"/>
<polygon fill="#63b8ff" stroke="#63b8ff" points="285.14,-152.41 276.91,-159.07 287.5,-159 285.14,-152.41"/>
</a>
</g>
</g>
<!-- Node2&#45;&gt;Node3 -->
<g id="edge2_Node000002_Node000003" class="edge">
<title>Node2&#45;&gt;Node3</title>
<g id="a_edge2_Node000002_Node000003"><a xlink:title=" ">
<path fill="none" stroke="#63b8ff" d="M118.11,-74.39C136.66,-64.62 157.4,-53.68 174.98,-44.42"/>
<polygon fill="#63b8ff" stroke="#63b8ff" points="116.62,-71.22 109.41,-78.98 119.88,-77.41 116.62,-71.22"/>
</a>
</g>
</g>
<!-- Node4&#45;&gt;Node3 -->
<g id="edge4_Node000004_Node000003" class="edge">
<title>Node4&#45;&gt;Node3</title>
<g id="a_edge4_Node000004_Node000003"><a xlink:title=" ">
<path fill="none" stroke="#63b8ff" d="M247.11,-70.22C241.32,-61.54 235.15,-52.28 229.82,-44.29"/>
<polygon fill="#63b8ff" stroke="#63b8ff" points="244.12,-72.05 252.58,-78.43 249.94,-68.16 244.12,-72.05"/>
</a>
</g>
</g>
<!-- Node5&#45;&gt;Node3 -->
<g id="edge6_Node000005_Node000003" class="edge">
<title>Node5&#45;&gt;Node3</title>
<g id="a_edge6_Node000005_Node000003"><a xlink:title=" ">
<path fill="none" stroke="#63b8ff" d="M363.12,-75.78C334.8,-65.64 302.49,-54.08 275.35,-44.37"/>
<polygon fill="#63b8ff" stroke="#63b8ff" points="361.75,-79 372.34,-79.07 364.11,-72.41 361.75,-79"/>
</a>
</g>
</g>
</g>
</svg>
