<?xml version="1.0" encoding="UTF-8" standalone="no"?>
<!DOCTYPE svg PUBLIC "-//W3C//DTD SVG 1.1//EN"
 "http://www.w3.org/Graphics/SVG/1.1/DTD/svg11.dtd">
<!-- Generated by graphviz version 14.1.5 (20260411.2331)
 -->
<!-- Title: C:/Users/lucca/Documents/Lucca/Projects/C/yuime/include/yuime/context.h Pages: 1 -->
<svg width="759pt" height="276pt"
 viewBox="0.00 0.00 759.00 276.00" xmlns="http://www.w3.org/2000/svg" xmlns:xlink="http://www.w3.org/1999/xlink">
<g id="graph0" class="graph" transform="scale(1 1) rotate(0) translate(4 272)">
<title>C:/Users/lucca/Documents/Lucca/Projects/C/yuime/include/yuime/context.h</title>
<!-- Node1 -->
<g id="Node000001" class="node">
<title>Node1</title>
<g id="a_Node000001"><a xlink:title=" ">
<polygon fill="#999999" stroke="#666666" points="257.39,-268 122.14,-268 122.14,-224 257.39,-224 257.39,-268"/>
<text xml:space="preserve" text-anchor="start" x="130.14" y="-254.5" font-family="Helvetica,sans-Serif" font-size="10.00">C:/Users/lucca/Documents</text>
<text xml:space="preserve" text-anchor="start" x="130.14" y="-242.5" font-family="Helvetica,sans-Serif" font-size="10.00">/Lucca/Projects/C/yuime</text>
<text xml:space="preserve" text-anchor="middle" x="189.77" y="-230.5" font-family="Helvetica,sans-Serif" font-size="10.00">/include/yuime/context.h</text>
</a>
</g>
</g>
<!-- Node2 -->
<g id="Node000002" class="node">
<title>Node2</title>
<g id="a_Node000002"><a xlink:title=" ">
<polygon fill="#e0e0e0" stroke="#999999" points="163.89,-20 115.64,-20 115.64,0 163.89,0 163.89,-20"/>
<text xml:space="preserve" text-anchor="middle" x="139.77" y="-6.5" font-family="Helvetica,sans-Serif" font-size="10.00">stdint.h</text>
</a>
</g>
</g>
<!-- Node1&#45;&gt;Node2 -->
<g id="edge1_Node000001_Node000002" class="edge">
<title>Node1&#45;&gt;Node2</title>
<g id="a_edge1_Node000001_Node000002"><a xlink:title=" ">
<path fill="none" stroke="#63b8ff" d="M121.75,-240.5C85.48,-234.22 43.7,-219.94 20.77,-188 -7.09,-149.2 -20.79,-168.98 75.77,-56 85.83,-44.22 99.64,-34.01 111.84,-26.3"/>
<polygon fill="#63b8ff" stroke="#63b8ff" points="113.54,-29.36 120.31,-21.21 109.94,-23.36 113.54,-29.36"/>
</a>
</g>
</g>
<!-- Node3 -->
<g id="Node000003" class="node">
<title>Node3</title>
<g id="a_Node000003"><a xlink:href="alloc_8h.html" target="_top" xlink:title=" ">
<polygon fill="white" stroke="#666666" points="250.02,-76 205.52,-76 205.52,-56 250.02,-56 250.02,-76"/>
<text xml:space="preserve" text-anchor="middle" x="227.77" y="-62.5" font-family="Helvetica,sans-Serif" font-size="10.00">alloc.h</text>
</a>
</g>
</g>
<!-- Node1&#45;&gt;Node3 -->
<g id="edge2_Node000001_Node000003" class="edge">
<title>Node1&#45;&gt;Node3</title>
<g id="a_edge2_Node000001_Node000003"><a xlink:title=" ">
<path fill="none" stroke="#63b8ff" d="M181.16,-223.75C175.98,-208.29 171.05,-186.84 174.77,-168 180.94,-136.71 200.33,-104.82 213.85,-85.46"/>
<polygon fill="#63b8ff" stroke="#63b8ff" points="216.55,-87.7 219.58,-77.54 210.88,-83.59 216.55,-87.7"/>
</a>
</g>
</g>
<!-- Node5 -->
<g id="Node000005" class="node">
<title>Node5</title>
<g id="a_Node000005"><a xlink:href="vector2_8h.html" target="_top" xlink:title=" ">
<polygon fill="white" stroke="#666666" points="713.39,-20 632.14,-20 632.14,0 713.39,0 713.39,-20"/>
<text xml:space="preserve" text-anchor="middle" x="672.77" y="-6.5" font-family="Helvetica,sans-Serif" font-size="10.00">math/vector2.h</text>
</a>
</g>
</g>
<!-- Node1&#45;&gt;Node5 -->
<g id="edge5_Node000001_Node000005" class="edge">
<title>Node1&#45;&gt;Node5</title>
<g id="a_edge5_Node000001_Node000005"><a xlink:title=" ">
<path fill="none" stroke="#63b8ff" d="M257.6,-245.61C361.73,-243.34 563.23,-225.94 699.77,-132 732.11,-109.75 763.8,-90.33 744.77,-56 737.25,-42.44 723.76,-32.42 710.46,-25.33"/>
<polygon fill="#63b8ff" stroke="#63b8ff" points="712.33,-22.35 701.8,-21.13 709.27,-28.64 712.33,-22.35"/>
</a>
</g>
</g>
<!-- Node6 -->
<g id="Node000006" class="node">
<title>Node6</title>
<g id="a_Node000006"><a xlink:href="node_8h.html" target="_top" xlink:title=" ">
<polygon fill="white" stroke="#666666" points="516.39,-188 471.14,-188 471.14,-168 516.39,-168 516.39,-188"/>
<text xml:space="preserve" text-anchor="middle" x="493.77" y="-174.5" font-family="Helvetica,sans-Serif" font-size="10.00">node.h</text>
</a>
</g>
</g>
<!-- Node1&#45;&gt;Node6 -->
<g id="edge6_Node000001_Node000006" class="edge">
<title>Node1&#45;&gt;Node6</title>
<g id="a_edge6_Node000001_Node000006"><a xlink:title=" ">
<path fill="none" stroke="#63b8ff" d="M257.61,-230.27C320.34,-216.65 410.98,-196.97 459.71,-186.39"/>
<polygon fill="#63b8ff" stroke="#63b8ff" points="460.36,-189.83 469.39,-184.29 458.88,-182.99 460.36,-189.83"/>
</a>
</g>
</g>
<!-- Node12 -->
<g id="Node000012" class="node">
<title>Node12</title>
<g id="a_Node000012"><a xlink:href="resize__region_8h.html" target="_top" xlink:title=" ">
<polygon fill="white" stroke="#666666" points="111.77,-188 29.77,-188 29.77,-168 111.77,-168 111.77,-188"/>
<text xml:space="preserve" text-anchor="middle" x="70.77" y="-174.5" font-family="Helvetica,sans-Serif" font-size="10.00">resize_region.h</text>
</a>
</g>
</g>
<!-- Node1&#45;&gt;Node12 -->
<g id="edge22_Node000001_Node000012" class="edge">
<title>Node1&#45;&gt;Node12</title>
<g id="a_edge22_Node000001_Node000012"><a xlink:title=" ">
<path fill="none" stroke="#63b8ff" d="M151.13,-223.57C133.54,-213.81 113.16,-202.51 97.33,-193.73"/>
<polygon fill="#63b8ff" stroke="#63b8ff" points="99.42,-190.89 88.98,-189.1 96.02,-197.01 99.42,-190.89"/>
</a>
</g>
</g>
<!-- Node13 -->
<g id="Node000013" class="node">
<title>Node13</title>
<g id="a_Node000013"><a xlink:href="render_8h.html" target="_top" xlink:title=" ">
<polygon fill="white" stroke="#666666" points="265.39,-188 184.14,-188 184.14,-168 265.39,-168 265.39,-188"/>
<text xml:space="preserve" text-anchor="middle" x="224.77" y="-174.5" font-family="Helvetica,sans-Serif" font-size="10.00">render/render.h</text>
</a>
</g>
</g>
<!-- Node1&#45;&gt;Node13 -->
<g id="edge24_Node000001_Node000013" class="edge">
<title>Node1&#45;&gt;Node13</title>
<g id="a_edge24_Node000001_Node000013"><a xlink:title=" ">
<path fill="none" stroke="#63b8ff" d="M201.03,-223.75C205.33,-215.66 210.19,-206.48 214.4,-198.55"/>
<polygon fill="#63b8ff" stroke="#63b8ff" points="217.47,-200.23 219.06,-189.76 211.29,-196.95 217.47,-200.23"/>
</a>
</g>
</g>
<!-- Node3&#45;&gt;Node2 -->
<g id="edge3_Node000003_Node000002" class="edge">
<title>Node3&#45;&gt;Node2</title>
<g id="a_edge3_Node000003_Node000002"><a xlink:title=" ">
<path fill="none" stroke="#63b8ff" d="M212.44,-55.59C199.27,-47.51 180.03,-35.71 164.66,-26.27"/>
<polygon fill="#63b8ff" stroke="#63b8ff" points="166.86,-23.52 156.51,-21.27 163.2,-29.48 166.86,-23.52"/>
</a>
</g>
</g>
<!-- Node4 -->
<g id="Node000004" class="node">
<title>Node4</title>
<g id="a_Node000004"><a xlink:href="_a_p_i_8h.html" target="_top" xlink:title=" ">
<polygon fill="white" stroke="#666666" points="440.14,-20 399.39,-20 399.39,0 440.14,0 440.14,-20"/>
<text xml:space="preserve" text-anchor="middle" x="419.77" y="-6.5" font-family="Helvetica,sans-Serif" font-size="10.00">API.h</text>
</a>
</g>
</g>
<!-- Node3&#45;&gt;Node4 -->
<g id="edge4_Node000003_Node000004" class="edge">
<title>Node3&#45;&gt;Node4</title>
<g id="a_edge4_Node000003_Node000004"><a xlink:title=" ">
<path fill="none" stroke="#63b8ff" d="M250.17,-58.7C284.29,-49.1 349.42,-30.79 388.28,-19.85"/>
<polygon fill="#63b8ff" stroke="#63b8ff" points="388.83,-23.34 397.51,-17.26 386.94,-16.6 388.83,-23.34"/>
</a>
</g>
</g>
<!-- Node6&#45;&gt;Node2 -->
<g id="edge7_Node000006_Node000002" class="edge">
<title>Node6&#45;&gt;Node2</title>
<g id="a_edge7_Node000006_Node000002"><a xlink:title=" ">
<path fill="none" stroke="#63b8ff" d="M471.03,-176.24C409.47,-173.77 241.21,-164.17 197.77,-132 164.65,-107.48 149.6,-59.06 143.47,-31.49"/>
<polygon fill="#63b8ff" stroke="#63b8ff" points="146.95,-31.04 141.55,-21.93 140.09,-32.43 146.95,-31.04"/>
</a>
</g>
</g>
<!-- Node6&#45;&gt;Node4 -->
<g id="edge8_Node000006_Node000004" class="edge">
<title>Node6&#45;&gt;Node4</title>
<g id="a_edge8_Node000006_Node000004"><a xlink:title=" ">
<path fill="none" stroke="#63b8ff" d="M489.58,-167.6C477.82,-141.23 444.37,-66.19 428.42,-30.42"/>
<polygon fill="#63b8ff" stroke="#63b8ff" points="431.8,-29.39 424.53,-21.68 425.4,-32.24 431.8,-29.39"/>
</a>
</g>
</g>
<!-- Node6&#45;&gt;Node5 -->
<g id="edge10_Node000006_Node000005" class="edge">
<title>Node6&#45;&gt;Node5</title>
<g id="a_edge10_Node000006_Node000005"><a xlink:title=" ">
<path fill="none" stroke="#63b8ff" d="M516.56,-175.61C566.42,-171.16 684.3,-152.62 728.77,-76 739.65,-57.24 720.04,-38.79 701.1,-26.37"/>
<polygon fill="#63b8ff" stroke="#63b8ff" points="703.07,-23.47 692.71,-21.24 699.42,-29.44 703.07,-23.47"/>
</a>
</g>
</g>
<!-- Node7 -->
<g id="Node000007" class="node">
<title>Node7</title>
<g id="a_Node000007"><a xlink:href="rect_8h.html" target="_top" xlink:title=" ">
<polygon fill="white" stroke="#666666" points="719.52,-76 654.02,-76 654.02,-56 719.52,-56 719.52,-76"/>
<text xml:space="preserve" text-anchor="middle" x="686.77" y="-62.5" font-family="Helvetica,sans-Serif" font-size="10.00">math/rect.h</text>
</a>
</g>
</g>
<!-- Node6&#45;&gt;Node7 -->
<g id="edge9_Node000006_Node000007" class="edge">
<title>Node6&#45;&gt;Node7</title>
<g id="a_edge9_Node000006_Node000007"><a xlink:title=" ">
<path fill="none" stroke="#63b8ff" d="M516.49,-169.47C538.91,-161.6 573.8,-148.15 601.77,-132 626.2,-117.89 651.56,-97.64 668.15,-83.51"/>
<polygon fill="#63b8ff" stroke="#63b8ff" points="669.99,-86.55 675.25,-77.35 665.4,-81.25 669.99,-86.55"/>
</a>
</g>
</g>
<!-- Node8 -->
<g id="Node000008" class="node">
<title>Node8</title>
<g id="a_Node000008"><a xlink:href="geometry_8h.html" target="_top" xlink:title=" ">
<polygon fill="white" stroke="#666666" points="574.14,-132 485.39,-132 485.39,-112 574.14,-112 574.14,-132"/>
<text xml:space="preserve" text-anchor="middle" x="529.77" y="-118.5" font-family="Helvetica,sans-Serif" font-size="10.00">math/geometry.h</text>
</a>
</g>
</g>
<!-- Node6&#45;&gt;Node8 -->
<g id="edge11_Node000006_Node000008" class="edge">
<title>Node6&#45;&gt;Node8</title>
<g id="a_edge11_Node000006_Node000008"><a xlink:title=" ">
<path fill="none" stroke="#63b8ff" d="M500.04,-167.59C504.79,-160.47 511.47,-150.45 517.29,-141.72"/>
<polygon fill="#63b8ff" stroke="#63b8ff" points="520.09,-143.82 522.73,-133.56 514.27,-139.94 520.09,-143.82"/>
</a>
</g>
</g>
<!-- Node9 -->
<g id="Node000009" class="node">
<title>Node9</title>
<g id="a_Node000009"><a xlink:href="dimension2_8h.html" target="_top" xlink:title=" ">
<polygon fill="white" stroke="#666666" points="635.64,-76 561.89,-76 561.89,-56 635.64,-56 635.64,-76"/>
<text xml:space="preserve" text-anchor="middle" x="598.77" y="-62.5" font-family="Helvetica,sans-Serif" font-size="10.00">dimension2.h</text>
</a>
</g>
</g>
<!-- Node6&#45;&gt;Node9 -->
<g id="edge17_Node000006_Node000009" class="edge">
<title>Node6&#45;&gt;Node9</title>
<g id="a_edge17_Node000006_Node000009"><a xlink:title=" ">
<path fill="none" stroke="#63b8ff" d="M516.59,-171.32C536.96,-165.07 566.06,-153 582.77,-132 592.74,-119.47 596.61,-101.59 598.06,-87.76"/>
<polygon fill="#63b8ff" stroke="#63b8ff" points="601.54,-88.18 598.72,-77.97 594.56,-87.71 601.54,-88.18"/>
</a>
</g>
</g>
<!-- Node10 -->
<g id="Node000010" class="node">
<title>Node10</title>
<g id="a_Node000010"><a xlink:href="widget_8h.html" target="_top" xlink:title=" ">
<polygon fill="white" stroke="#666666" points="383.89,-132 299.64,-132 299.64,-112 383.89,-112 383.89,-132"/>
<text xml:space="preserve" text-anchor="middle" x="341.77" y="-118.5" font-family="Helvetica,sans-Serif" font-size="10.00">widget/widget.h</text>
</a>
</g>
</g>
<!-- Node6&#45;&gt;Node10 -->
<g id="edge18_Node000006_Node000010" class="edge">
<title>Node6&#45;&gt;Node10</title>
<g id="a_edge18_Node000006_Node000010"><a xlink:title=" ">
<path fill="none" stroke="#63b8ff" d="M470.68,-168.8C446.41,-160.18 407.86,-146.48 379.22,-136.31"/>
<polygon fill="#63b8ff" stroke="#63b8ff" points="380.42,-133.02 369.83,-132.97 378.08,-139.62 380.42,-133.02"/>
</a>
</g>
</g>
<!-- Node8&#45;&gt;Node4 -->
<g id="edge12_Node000008_Node000004" class="edge">
<title>Node8&#45;&gt;Node4</title>
<g id="a_edge12_Node000008_Node000004"><a xlink:title=" ">
<path fill="none" stroke="#63b8ff" d="M522.24,-111.84C511.5,-98.94 490.95,-74.89 471.77,-56 461.71,-46.1 449.85,-35.74 440,-27.47"/>
<polygon fill="#63b8ff" stroke="#63b8ff" points="442.4,-24.9 432.46,-21.22 437.93,-30.29 442.4,-24.9"/>
</a>
</g>
</g>
<!-- Node8&#45;&gt;Node5 -->
<g id="edge13_Node000008_Node000005" class="edge">
<title>Node8&#45;&gt;Node5</title>
<g id="a_edge13_Node000008_Node000005"><a xlink:title=" ">
<path fill="none" stroke="#63b8ff" d="M530.6,-111.74C532.32,-97.84 537.51,-71.55 552.77,-56 570.93,-37.49 597.43,-26.51 620.9,-20.04"/>
<polygon fill="#63b8ff" stroke="#63b8ff" points="621.48,-23.5 630.32,-17.66 619.77,-16.71 621.48,-23.5"/>
</a>
</g>
</g>
<!-- Node8&#45;&gt;Node7 -->
<g id="edge16_Node000008_Node000007" class="edge">
<title>Node8&#45;&gt;Node7</title>
<g id="a_edge16_Node000008_Node000007"><a xlink:title=" ">
<path fill="none" stroke="#63b8ff" d="M557.11,-111.59C582.4,-102.9 620.22,-89.89 648.5,-80.16"/>
<polygon fill="#63b8ff" stroke="#63b8ff" points="649.46,-83.53 657.78,-76.97 647.18,-76.91 649.46,-83.53"/>
</a>
</g>
</g>
<!-- Node8&#45;&gt;Node9 -->
<g id="edge14_Node000008_Node000009" class="edge">
<title>Node8&#45;&gt;Node9</title>
<g id="a_edge14_Node000008_Node000009"><a xlink:title=" ">
<path fill="none" stroke="#63b8ff" d="M541.79,-111.59C551.78,-103.77 566.23,-92.46 578.08,-83.19"/>
<polygon fill="#63b8ff" stroke="#63b8ff" points="579.98,-86.15 585.69,-77.23 575.66,-80.64 579.98,-86.15"/>
</a>
</g>
</g>
<!-- Node9&#45;&gt;Node5 -->
<g id="edge15_Node000009_Node000005" class="edge">
<title>Node9&#45;&gt;Node5</title>
<g id="a_edge15_Node000009_Node000005"><a xlink:title=" ">
<path fill="none" stroke="#63b8ff" d="M611.66,-55.59C622.48,-47.7 638.18,-36.24 650.95,-26.92"/>
<polygon fill="#63b8ff" stroke="#63b8ff" points="652.79,-29.91 658.8,-21.19 648.66,-24.26 652.79,-29.91"/>
</a>
</g>
</g>
<!-- Node10&#45;&gt;Node2 -->
<g id="edge21_Node000010_Node000002" class="edge">
<title>Node10&#45;&gt;Node2</title>
<g id="a_edge21_Node000010_Node000002"><a xlink:title=" ">
<path fill="none" stroke="#63b8ff" d="M332.25,-111.94C317.5,-98.3 287.79,-72.35 258.77,-56 232.02,-40.93 199.24,-28.96 174.86,-21.17"/>
<polygon fill="#63b8ff" stroke="#63b8ff" points="176,-17.86 165.41,-18.23 173.92,-24.54 176,-17.86"/>
</a>
</g>
</g>
<!-- Node10&#45;&gt;Node3 -->
<g id="edge20_Node000010_Node000003" class="edge">
<title>Node10&#45;&gt;Node3</title>
<g id="a_edge20_Node000010_Node000003"><a xlink:title=" ">
<path fill="none" stroke="#63b8ff" d="M321.91,-111.59C304.28,-103.24 278.26,-90.92 258.04,-81.34"/>
<polygon fill="#63b8ff" stroke="#63b8ff" points="259.68,-78.25 249.15,-77.13 256.69,-84.57 259.68,-78.25"/>
</a>
</g>
</g>
<!-- Node11 -->
<g id="Node000011" class="node">
<title>Node11</title>
<g id="a_Node000011"><a xlink:title=" ">
<polygon fill="#e0e0e0" stroke="#999999" points="391.89,-76 343.64,-76 343.64,-56 391.89,-56 391.89,-76"/>
<text xml:space="preserve" text-anchor="middle" x="367.77" y="-62.5" font-family="Helvetica,sans-Serif" font-size="10.00">string.h</text>
</a>
</g>
</g>
<!-- Node10&#45;&gt;Node11 -->
<g id="edge19_Node000010_Node000011" class="edge">
<title>Node10&#45;&gt;Node11</title>
<g id="a_edge19_Node000010_Node000011"><a xlink:title=" ">
<path fill="none" stroke="#63b8ff" d="M346.3,-111.59C349.61,-104.7 354.24,-95.1 358.34,-86.57"/>
<polygon fill="#63b8ff" stroke="#63b8ff" points="361.45,-88.19 362.63,-77.66 355.14,-85.15 361.45,-88.19"/>
</a>
</g>
</g>
<!-- Node12&#45;&gt;Node2 -->
<g id="edge23_Node000012_Node000002" class="edge">
<title>Node12&#45;&gt;Node2</title>
<g id="a_edge23_Node000012_Node000002"><a xlink:title=" ">
<path fill="none" stroke="#63b8ff" d="M69.94,-167.51C68.52,-146.16 67.48,-93.26 87.77,-56 94.08,-44.4 104.65,-34.42 114.62,-26.83"/>
<polygon fill="#63b8ff" stroke="#63b8ff" points="116.46,-29.81 122.6,-21.18 112.41,-24.1 116.46,-29.81"/>
</a>
</g>
</g>
<!-- Node13&#45;&gt;Node2 -->
<g id="edge25_Node000013_Node000002" class="edge">
<title>Node13&#45;&gt;Node2</title>
<g id="a_edge25_Node000013_Node000002"><a xlink:title=" ">
<path fill="none" stroke="#63b8ff" d="M208.43,-167.52C183.88,-152.11 138.96,-118.95 125.77,-76 121.2,-61.13 125.32,-43.91 130.25,-30.93"/>
<polygon fill="#63b8ff" stroke="#63b8ff" points="133.44,-32.35 134.18,-21.78 127.01,-29.58 133.44,-32.35"/>
</a>
</g>
</g>
<!-- Node13&#45;&gt;Node4 -->
<g id="edge26_Node000013_Node000004" class="edge">
<title>Node13&#45;&gt;Node4</title>
<g id="a_edge26_Node000013_Node000004"><a xlink:title=" ">
<path fill="none" stroke="#63b8ff" d="M265.63,-177.39C303.85,-175.45 359.86,-166.33 392.77,-132 418.75,-104.9 421.86,-58.54 421.2,-31.76"/>
<polygon fill="#63b8ff" stroke="#63b8ff" points="424.7,-31.69 420.73,-21.87 417.71,-32.02 424.7,-31.69"/>
</a>
</g>
</g>
<!-- Node14 -->
<g id="Node000014" class="node">
<title>Node14</title>
<g id="a_Node000014"><a xlink:href="command_8h.html" target="_top" xlink:title=" ">
<polygon fill="white" stroke="#666666" points="273.27,-132 206.27,-132 206.27,-112 273.27,-112 273.27,-132"/>
<text xml:space="preserve" text-anchor="middle" x="239.77" y="-118.5" font-family="Helvetica,sans-Serif" font-size="10.00">command.h</text>
</a>
</g>
</g>
<!-- Node13&#45;&gt;Node14 -->
<g id="edge27_Node000013_Node000014" class="edge">
<title>Node13&#45;&gt;Node14</title>
<g id="a_edge27_Node000013_Node000014"><a xlink:title=" ">
<path fill="none" stroke="#63b8ff" d="M227.38,-167.59C229.25,-160.86 231.84,-151.53 234.17,-143.15"/>
<polygon fill="#63b8ff" stroke="#63b8ff" points="237.48,-144.33 236.78,-133.76 230.73,-142.46 237.48,-144.33"/>
</a>
</g>
</g>
<!-- Node14&#45;&gt;Node2 -->
<g id="edge28_Node000014_Node000002" class="edge">
<title>Node14&#45;&gt;Node2</title>
<g id="a_edge28_Node000014_Node000002"><a xlink:title=" ">
<path fill="none" stroke="#63b8ff" d="M230.76,-111.8C221.97,-102.78 208.3,-88.59 196.77,-76 182.41,-60.32 166.5,-42.1 155.14,-28.94"/>
<polygon fill="#63b8ff" stroke="#63b8ff" points="157.92,-26.81 148.75,-21.51 152.62,-31.38 157.92,-26.81"/>
</a>
</g>
</g>
<!-- Node14&#45;&gt;Node3 -->
<g id="edge30_Node000014_Node000003" class="edge">
<title>Node14&#45;&gt;Node3</title>
<g id="a_edge30_Node000014_Node000003"><a xlink:title=" ">
<path fill="none" stroke="#63b8ff" d="M237.68,-111.59C236.2,-104.93 234.16,-95.75 232.31,-87.44"/>
<polygon fill="#63b8ff" stroke="#63b8ff" points="235.75,-86.78 230.16,-77.78 228.91,-88.3 235.75,-86.78"/>
</a>
</g>
</g>
<!-- Node14&#45;&gt;Node4 -->
<g id="edge29_Node000014_Node000004" class="edge">
<title>Node14&#45;&gt;Node4</title>
<g id="a_edge29_Node000014_Node000004"><a xlink:title=" ">
<path fill="none" stroke="#63b8ff" d="M252.37,-111.7C270.29,-98.63 304.32,-74.39 334.77,-56 352.82,-45.09 373.76,-33.99 390.33,-25.54"/>
<polygon fill="#63b8ff" stroke="#63b8ff" points="391.82,-28.72 399.17,-21.09 388.66,-22.47 391.82,-28.72"/>
</a>
</g>
</g>
</g>
</svg>
