<?xml version="1.0" encoding="UTF-8" standalone="no"?>
<!DOCTYPE svg PUBLIC "-//W3C//DTD SVG 1.1//EN"
 "http://www.w3.org/Graphics/SVG/1.1/DTD/svg11.dtd">
<!-- Generated by graphviz version 14.1.5 (20260411.2331)
 -->
<!-- Title: C:/Users/lucca/Documents/Lucca/Projects/C/yuime/include/yuime/math/dimension2.h Pages: 1 -->
<svg width="581pt" height="452pt"
 viewBox="0.00 0.00 581.00 452.00" xmlns="http://www.w3.org/2000/svg" xmlns:xlink="http://www.w3.org/1999/xlink">
<g id="graph0" class="graph" transform="scale(1 1) rotate(0) translate(4 448)">
<title>C:/Users/lucca/Documents/Lucca/Projects/C/yuime/include/yuime/math/dimension2.h</title>
<!-- Node1 -->
<g id="Node000001" class="node">
<title>Node1</title>
<g id="a_Node000001"><a xlink:title=" ">
<polygon fill="#999999" stroke="#666666" points="367.25,-444 202.75,-444 202.75,-400 367.25,-400 367.25,-444"/>
<text xml:space="preserve" text-anchor="start" x="210.75" y="-430.5" font-family="Helvetica,sans-Serif" font-size="10.00">C:/Users/lucca/Documents</text>
<text xml:space="preserve" text-anchor="start" x="210.75" y="-418.5" font-family="Helvetica,sans-Serif" font-size="10.00">/Lucca/Projects/C/yuime</text>
<text xml:space="preserve" text-anchor="middle" x="285" y="-406.5" font-family="Helvetica,sans-Serif" font-size="10.00">/include/yuime/math/dimension2.h</text>
</a>
</g>
</g>
<!-- Node2 -->
<g id="Node000002" class="node">
<title>Node2</title>
<g id="a_Node000002"><a xlink:href="geometry_8h.html" target="_top" xlink:title=" ">
<polygon fill="white" stroke="#666666" points="310.38,-364 155.62,-364 155.62,-320 310.38,-320 310.38,-364"/>
<text xml:space="preserve" text-anchor="start" x="163.62" y="-350.5" font-family="Helvetica,sans-Serif" font-size="10.00">C:/Users/lucca/Documents</text>
<text xml:space="preserve" text-anchor="start" x="163.62" y="-338.5" font-family="Helvetica,sans-Serif" font-size="10.00">/Lucca/Projects/C/yuime</text>
<text xml:space="preserve" text-anchor="middle" x="233" y="-326.5" font-family="Helvetica,sans-Serif" font-size="10.00">/include/yuime/math/geometry.h</text>
</a>
</g>
</g>
<!-- Node1&#45;&gt;Node2 -->
<g id="edge1_Node000001_Node000002" class="edge">
<title>Node1&#45;&gt;Node2</title>
<g id="a_edge1_Node000001_Node000002"><a xlink:title=" ">
<path fill="none" stroke="#63b8ff" d="M264.48,-390.22C258.69,-381.54 252.52,-372.28 247.19,-364.29"/>
<polygon fill="#63b8ff" stroke="#63b8ff" points="261.49,-392.05 269.95,-398.43 267.32,-388.16 261.49,-392.05"/>
</a>
</g>
</g>
<!-- Node3 -->
<g id="Node000003" class="node">
<title>Node3</title>
<g id="a_Node000003"><a xlink:href="node_8h.html" target="_top" xlink:title=" ">
<polygon fill="white" stroke="#666666" points="353.62,-284 218.38,-284 218.38,-240 353.62,-240 353.62,-284"/>
<text xml:space="preserve" text-anchor="start" x="226.38" y="-270.5" font-family="Helvetica,sans-Serif" font-size="10.00">C:/Users/lucca/Documents</text>
<text xml:space="preserve" text-anchor="start" x="226.38" y="-258.5" font-family="Helvetica,sans-Serif" font-size="10.00">/Lucca/Projects/C/yuime</text>
<text xml:space="preserve" text-anchor="middle" x="286" y="-246.5" font-family="Helvetica,sans-Serif" font-size="10.00">/include/yuime/node.h</text>
</a>
</g>
</g>
<!-- Node1&#45;&gt;Node3 -->
<g id="edge16_Node000001_Node000003" class="edge">
<title>Node1&#45;&gt;Node3</title>
<g id="a_edge16_Node000001_Node000003"><a xlink:title=" ">
<path fill="none" stroke="#63b8ff" d="M307.61,-389.87C312.3,-381.82 316.55,-372.9 319,-364 324.2,-345.15 324.07,-338.89 319,-320 315.59,-307.3 308.58,-294.51 301.9,-284.27"/>
<polygon fill="#63b8ff" stroke="#63b8ff" points="304.71,-387.92 302.36,-398.25 310.64,-391.64 304.71,-387.92"/>
</a>
</g>
</g>
<!-- Node6 -->
<g id="Node000006" class="node">
<title>Node6</title>
<g id="a_Node000006"><a xlink:href="yuime_8h.html" target="_top" xlink:title=" ">
<polygon fill="white" stroke="#666666" points="249.62,-44 114.38,-44 114.38,0 249.62,0 249.62,-44"/>
<text xml:space="preserve" text-anchor="start" x="122.38" y="-30.5" font-family="Helvetica,sans-Serif" font-size="10.00">C:/Users/lucca/Documents</text>
<text xml:space="preserve" text-anchor="start" x="122.38" y="-18.5" font-family="Helvetica,sans-Serif" font-size="10.00">/Lucca/Projects/C/yuime</text>
<text xml:space="preserve" text-anchor="middle" x="182" y="-6.5" font-family="Helvetica,sans-Serif" font-size="10.00">/include/yuime/yuime.h</text>
</a>
</g>
</g>
<!-- Node1&#45;&gt;Node6 -->
<g id="edge18_Node000001_Node000006" class="edge">
<title>Node1&#45;&gt;Node6</title>
<g id="a_edge18_Node000001_Node000006"><a xlink:title=" ">
<path fill="none" stroke="#63b8ff" d="M191.28,-408.48C108.22,-391.5 0,-352.25 0,-263 0,-263 0,-263 0,-181 0,-131.67 10.59,-114.34 46,-80 64.74,-61.82 90.14,-49.08 113.92,-40.33"/>
<polygon fill="#63b8ff" stroke="#63b8ff" points="190.6,-411.91 201.08,-410.4 191.94,-405.04 190.6,-411.91"/>
</a>
</g>
</g>
<!-- Node8 -->
<g id="Node000008" class="node">
<title>Node8</title>
<g id="a_Node000008"><a xlink:href="panel_8h.html" target="_top" xlink:title=" ">
<polygon fill="white" stroke="#666666" points="572.5,-124 427.5,-124 427.5,-80 572.5,-80 572.5,-124"/>
<text xml:space="preserve" text-anchor="start" x="435.5" y="-110.5" font-family="Helvetica,sans-Serif" font-size="10.00">C:/Users/lucca/Documents</text>
<text xml:space="preserve" text-anchor="start" x="435.5" y="-98.5" font-family="Helvetica,sans-Serif" font-size="10.00">/Lucca/Projects/C/yuime</text>
<text xml:space="preserve" text-anchor="middle" x="500" y="-86.5" font-family="Helvetica,sans-Serif" font-size="10.00">/include/yuime/widget/panel.h</text>
</a>
</g>
</g>
<!-- Node1&#45;&gt;Node8 -->
<g id="edge17_Node000001_Node000008" class="edge">
<title>Node1&#45;&gt;Node8</title>
<g id="a_edge17_Node000001_Node000008"><a xlink:title=" ">
<path fill="none" stroke="#63b8ff" d="M315.97,-391.94C356.05,-352.76 425.63,-279.22 467,-204 481.13,-178.3 490.44,-145.56 495.46,-124.44"/>
<polygon fill="#63b8ff" stroke="#63b8ff" points="313.72,-389.24 308.97,-398.71 318.59,-394.27 313.72,-389.24"/>
</a>
</g>
</g>
<!-- Node2&#45;&gt;Node3 -->
<g id="edge2_Node000002_Node000003" class="edge">
<title>Node2&#45;&gt;Node3</title>
<g id="a_edge2_Node000002_Node000003"><a xlink:title=" ">
<path fill="none" stroke="#63b8ff" d="M253.91,-310.22C259.82,-301.54 266.1,-292.28 271.54,-284.29"/>
<polygon fill="#63b8ff" stroke="#63b8ff" points="251.06,-308.2 248.33,-318.43 256.85,-312.13 251.06,-308.2"/>
</a>
</g>
</g>
<!-- Node2&#45;&gt;Node6 -->
<g id="edge15_Node000002_Node000006" class="edge">
<title>Node2&#45;&gt;Node6</title>
<g id="a_edge15_Node000002_Node000006"><a xlink:title=" ">
<path fill="none" stroke="#63b8ff" d="M198.39,-312.35C155.62,-274.45 85.05,-203.13 57,-124 50.47,-105.57 46.42,-96.45 57,-80 69.97,-59.84 92.02,-46.72 114.02,-38.23"/>
<polygon fill="#63b8ff" stroke="#63b8ff" points="195.84,-314.77 205.68,-318.71 200.44,-309.49 195.84,-314.77"/>
</a>
</g>
</g>
<!-- Node2&#45;&gt;Node8 -->
<g id="edge14_Node000002_Node000008" class="edge">
<title>Node2&#45;&gt;Node8</title>
<g id="a_edge14_Node000002_Node000008"><a xlink:title=" ">
<path fill="none" stroke="#63b8ff" d="M309.62,-315.11C328.15,-306.84 347.16,-296.5 363,-284 421.47,-237.86 468.28,-161.19 488.78,-124.22"/>
<polygon fill="#63b8ff" stroke="#63b8ff" points="308.3,-311.87 300.49,-319.03 311.06,-318.3 308.3,-311.87"/>
</a>
</g>
</g>
<!-- Node4 -->
<g id="Node000004" class="node">
<title>Node4</title>
<g id="a_Node000004"><a xlink:href="context_8h.html" target="_top" xlink:title=" ">
<polygon fill="white" stroke="#666666" points="305.62,-204 170.38,-204 170.38,-160 305.62,-160 305.62,-204"/>
<text xml:space="preserve" text-anchor="start" x="178.38" y="-190.5" font-family="Helvetica,sans-Serif" font-size="10.00">C:/Users/lucca/Documents</text>
<text xml:space="preserve" text-anchor="start" x="178.38" y="-178.5" font-family="Helvetica,sans-Serif" font-size="10.00">/Lucca/Projects/C/yuime</text>
<text xml:space="preserve" text-anchor="middle" x="238" y="-166.5" font-family="Helvetica,sans-Serif" font-size="10.00">/include/yuime/context.h</text>
</a>
</g>
</g>
<!-- Node3&#45;&gt;Node4 -->
<g id="edge3_Node000003_Node000004" class="edge">
<title>Node3&#45;&gt;Node4</title>
<g id="a_edge3_Node000003_Node000004"><a xlink:title=" ">
<path fill="none" stroke="#63b8ff" d="M266.89,-229.94C261.59,-221.34 255.97,-212.2 251.1,-204.29"/>
<polygon fill="#63b8ff" stroke="#63b8ff" points="263.87,-231.71 272.09,-238.4 269.83,-228.05 263.87,-231.71"/>
</a>
</g>
</g>
<!-- Node5 -->
<g id="Node000005" class="node">
<title>Node5</title>
<g id="a_Node000005"><a xlink:href="events_8h.html" target="_top" xlink:title=" ">
<polygon fill="white" stroke="#666666" points="201.62,-124 66.38,-124 66.38,-80 201.62,-80 201.62,-124"/>
<text xml:space="preserve" text-anchor="start" x="74.38" y="-110.5" font-family="Helvetica,sans-Serif" font-size="10.00">C:/Users/lucca/Documents</text>
<text xml:space="preserve" text-anchor="start" x="74.38" y="-98.5" font-family="Helvetica,sans-Serif" font-size="10.00">/Lucca/Projects/C/yuime</text>
<text xml:space="preserve" text-anchor="middle" x="134" y="-86.5" font-family="Helvetica,sans-Serif" font-size="10.00">/include/yuime/events.h</text>
</a>
</g>
</g>
<!-- Node3&#45;&gt;Node5 -->
<g id="edge11_Node000003_Node000005" class="edge">
<title>Node3&#45;&gt;Node5</title>
<g id="a_edge11_Node000003_Node000005"><a xlink:title=" ">
<path fill="none" stroke="#63b8ff" d="M207.63,-237.95C190.26,-229.67 173.36,-218.61 161,-204 141.89,-181.41 136.17,-146.64 134.54,-124.36"/>
<polygon fill="#63b8ff" stroke="#63b8ff" points="205.94,-241.03 216.5,-241.91 208.79,-234.64 205.94,-241.03"/>
</a>
</g>
</g>
<!-- Node7 -->
<g id="Node000007" class="node">
<title>Node7</title>
<g id="a_Node000007"><a xlink:href="widget_2events_8h.html" target="_top" xlink:title=" ">
<polygon fill="white" stroke="#666666" points="409.5,-124 258.5,-124 258.5,-80 409.5,-80 409.5,-124"/>
<text xml:space="preserve" text-anchor="start" x="266.5" y="-110.5" font-family="Helvetica,sans-Serif" font-size="10.00">C:/Users/lucca/Documents</text>
<text xml:space="preserve" text-anchor="start" x="266.5" y="-98.5" font-family="Helvetica,sans-Serif" font-size="10.00">/Lucca/Projects/C/yuime</text>
<text xml:space="preserve" text-anchor="middle" x="334" y="-86.5" font-family="Helvetica,sans-Serif" font-size="10.00">/include/yuime/widget/events.h</text>
</a>
</g>
</g>
<!-- Node3&#45;&gt;Node7 -->
<g id="edge12_Node000003_Node000007" class="edge">
<title>Node3&#45;&gt;Node7</title>
<g id="a_edge12_Node000003_Node000007"><a xlink:title=" ">
<path fill="none" stroke="#63b8ff" d="M304.01,-229.55C308.1,-221.42 312.09,-212.55 315,-204 324.09,-177.31 329.2,-145.1 331.77,-124.34"/>
<polygon fill="#63b8ff" stroke="#63b8ff" points="300.93,-227.89 299.37,-238.37 307.12,-231.15 300.93,-227.89"/>
</a>
</g>
</g>
<!-- Node3&#45;&gt;Node8 -->
<g id="edge13_Node000003_Node000008" class="edge">
<title>Node3&#45;&gt;Node8</title>
<g id="a_edge13_Node000003_Node000008"><a xlink:title=" ">
<path fill="none" stroke="#63b8ff" d="M323.95,-232.98C365.98,-201.95 432.83,-152.6 470.91,-124.48"/>
<polygon fill="#63b8ff" stroke="#63b8ff" points="322.04,-230.04 316.08,-238.79 326.2,-235.67 322.04,-230.04"/>
</a>
</g>
</g>
<!-- Node4&#45;&gt;Node5 -->
<g id="edge4_Node000004_Node000005" class="edge">
<title>Node4&#45;&gt;Node5</title>
<g id="a_edge4_Node000004_Node000005"><a xlink:title=" ">
<path fill="none" stroke="#63b8ff" d="M200.67,-153C188.05,-143.54 174.19,-133.14 162.38,-124.29"/>
<polygon fill="#63b8ff" stroke="#63b8ff" points="198.27,-155.58 208.37,-158.78 202.47,-149.98 198.27,-155.58"/>
</a>
</g>
</g>
<!-- Node4&#45;&gt;Node6 -->
<g id="edge10_Node000004_Node000006" class="edge">
<title>Node4&#45;&gt;Node6</title>
<g id="a_edge10_Node000004_Node000006"><a xlink:title=" ">
<path fill="none" stroke="#63b8ff" d="M231.17,-148.65C226.49,-128.56 219.58,-102.39 211,-80 206.35,-67.87 199.89,-54.92 194.25,-44.44"/>
<polygon fill="#63b8ff" stroke="#63b8ff" points="227.72,-149.24 233.34,-158.23 234.55,-147.7 227.72,-149.24"/>
</a>
</g>
</g>
<!-- Node4&#45;&gt;Node7 -->
<g id="edge6_Node000004_Node000007" class="edge">
<title>Node4&#45;&gt;Node7</title>
<g id="a_edge6_Node000004_Node000007"><a xlink:title=" ">
<path fill="none" stroke="#63b8ff" d="M273.14,-152.45C284.6,-143.14 297.11,-132.97 307.8,-124.29"/>
<polygon fill="#63b8ff" stroke="#63b8ff" points="270.96,-149.71 265.41,-158.73 275.38,-155.14 270.96,-149.71"/>
</a>
</g>
</g>
<!-- Node4&#45;&gt;Node8 -->
<g id="edge8_Node000004_Node000008" class="edge">
<title>Node4&#45;&gt;Node8</title>
<g id="a_edge8_Node000004_Node000008"><a xlink:title=" ">
<path fill="none" stroke="#63b8ff" d="M316.57,-157.61C351.91,-147.09 393.35,-134.75 427.89,-124.47"/>
<polygon fill="#63b8ff" stroke="#63b8ff" points="315.85,-154.17 307.26,-160.38 317.85,-160.88 315.85,-154.17"/>
</a>
</g>
</g>
<!-- Node5&#45;&gt;Node6 -->
<g id="edge5_Node000005_Node000006" class="edge">
<title>Node5&#45;&gt;Node6</title>
<g id="a_edge5_Node000005_Node000006"><a xlink:title=" ">
<path fill="none" stroke="#63b8ff" d="M153.11,-69.94C158.41,-61.34 164.03,-52.2 168.9,-44.29"/>
<polygon fill="#63b8ff" stroke="#63b8ff" points="150.17,-68.05 147.91,-78.4 156.13,-71.71 150.17,-68.05"/>
</a>
</g>
</g>
<!-- Node7&#45;&gt;Node6 -->
<g id="edge7_Node000007_Node000006" class="edge">
<title>Node7&#45;&gt;Node6</title>
<g id="a_edge7_Node000007_Node000006"><a xlink:title=" ">
<path fill="none" stroke="#63b8ff" d="M282.42,-74.53C263.3,-64.72 241.88,-53.73 223.75,-44.42"/>
<polygon fill="#63b8ff" stroke="#63b8ff" points="280.62,-77.54 291.12,-79 283.82,-71.32 280.62,-77.54"/>
</a>
</g>
</g>
<!-- Node8&#45;&gt;Node6 -->
<g id="edge9_Node000008_Node000006" class="edge">
<title>Node8&#45;&gt;Node6</title>
<g id="a_edge9_Node000008_Node000006"><a xlink:title=" ">
<path fill="none" stroke="#63b8ff" d="M416.12,-79.3C354.86,-64.05 294.75,-49.64 250.01,-39.02"/>
<polygon fill="#63b8ff" stroke="#63b8ff" points="415.14,-82.66 425.69,-81.68 416.83,-75.87 415.14,-82.66"/>
</a>
</g>
</g>
</g>
</svg>
