<?xml version="1.0" encoding="UTF-8" standalone="no"?>
<!DOCTYPE svg PUBLIC "-//W3C//DTD SVG 1.1//EN"
 "http://www.w3.org/Graphics/SVG/1.1/DTD/svg11.dtd">
<!-- Generated by graphviz version 14.1.5 (20260411.2331)
 -->
<!-- Title: C:/Users/lucca/Documents/Lucca/Projects/C/yuime/include/yuime/events.h Pages: 1 -->
<svg width="901pt" height="332pt"
 viewBox="0.00 0.00 901.00 332.00" xmlns="http://www.w3.org/2000/svg" xmlns:xlink="http://www.w3.org/1999/xlink">
<g id="graph0" class="graph" transform="scale(1 1) rotate(0) translate(4 328)">
<title>C:/Users/lucca/Documents/Lucca/Projects/C/yuime/include/yuime/events.h</title>
<!-- Node1 -->
<g id="Node000001" class="node">
<title>Node1</title>
<g id="a_Node000001"><a xlink:title=" ">
<polygon fill="#999999" stroke="#666666" points="451.62,-324 316.38,-324 316.38,-280 451.62,-280 451.62,-324"/>
<text xml:space="preserve" text-anchor="start" x="324.38" y="-310.5" font-family="Helvetica,sans-Serif" font-size="10.00">C:/Users/lucca/Documents</text>
<text xml:space="preserve" text-anchor="start" x="324.38" y="-298.5" font-family="Helvetica,sans-Serif" font-size="10.00">/Lucca/Projects/C/yuime</text>
<text xml:space="preserve" text-anchor="middle" x="384" y="-286.5" font-family="Helvetica,sans-Serif" font-size="10.00">/include/yuime/events.h</text>
</a>
</g>
</g>
<!-- Node2 -->
<g id="Node000002" class="node">
<title>Node2</title>
<g id="a_Node000002"><a xlink:href="_a_p_i_8h.html" target="_top" xlink:title=" ">
<polygon fill="white" stroke="#666666" points="443.38,-20 402.62,-20 402.62,0 443.38,0 443.38,-20"/>
<text xml:space="preserve" text-anchor="middle" x="423" y="-6.5" font-family="Helvetica,sans-Serif" font-size="10.00">API.h</text>
</a>
</g>
</g>
<!-- Node1&#45;&gt;Node2 -->
<g id="edge1_Node000001_Node000002" class="edge">
<title>Node1&#45;&gt;Node2</title>
<g id="a_edge1_Node000001_Node000002"><a xlink:title=" ">
<path fill="none" stroke="#63b8ff" d="M389.68,-279.58C395.59,-255.35 404,-214.63 404,-179 404,-179 404,-179 404,-121 404,-89.26 411.78,-53.11 417.38,-31.19"/>
<polygon fill="#63b8ff" stroke="#63b8ff" points="420.69,-32.35 419.89,-21.79 413.93,-30.54 420.69,-32.35"/>
</a>
</g>
</g>
<!-- Node3 -->
<g id="Node000003" class="node">
<title>Node3</title>
<g id="a_Node000003"><a xlink:href="vector2_8h.html" target="_top" xlink:title=" ">
<polygon fill="white" stroke="#666666" points="143.62,-20 62.38,-20 62.38,0 143.62,0 143.62,-20"/>
<text xml:space="preserve" text-anchor="middle" x="103" y="-6.5" font-family="Helvetica,sans-Serif" font-size="10.00">math/vector2.h</text>
</a>
</g>
</g>
<!-- Node1&#45;&gt;Node3 -->
<g id="edge2_Node000001_Node000003" class="edge">
<title>Node1&#45;&gt;Node3</title>
<g id="a_edge2_Node000001_Node000003"><a xlink:title=" ">
<path fill="none" stroke="#63b8ff" d="M316.23,-293.56C205.99,-279.54 0,-244.58 0,-179 0,-179 0,-179 0,-121 0,-77.28 43.89,-43.77 74.37,-25.76"/>
<polygon fill="#63b8ff" stroke="#63b8ff" points="75.81,-28.97 82.79,-21.01 72.36,-22.88 75.81,-28.97"/>
</a>
</g>
</g>
<!-- Node4 -->
<g id="Node000004" class="node">
<title>Node4</title>
<g id="a_Node000004"><a xlink:href="node_8h.html" target="_top" xlink:title=" ">
<polygon fill="white" stroke="#666666" points="375.62,-188 330.38,-188 330.38,-168 375.62,-168 375.62,-188"/>
<text xml:space="preserve" text-anchor="middle" x="353" y="-174.5" font-family="Helvetica,sans-Serif" font-size="10.00">node.h</text>
</a>
</g>
</g>
<!-- Node1&#45;&gt;Node4 -->
<g id="edge3_Node000001_Node000004" class="edge">
<title>Node1&#45;&gt;Node4</title>
<g id="a_edge3_Node000001_Node000004"><a xlink:title=" ">
<path fill="none" stroke="#63b8ff" d="M378.6,-279.75C372.86,-257.16 363.85,-221.69 358.19,-199.42"/>
<polygon fill="#63b8ff" stroke="#63b8ff" points="361.59,-198.6 355.74,-189.77 354.81,-200.32 361.59,-198.6"/>
</a>
</g>
</g>
<!-- Node12 -->
<g id="Node000012" class="node">
<title>Node12</title>
<g id="a_Node000012"><a xlink:href="context_8h.html" target="_top" xlink:title=" ">
<polygon fill="white" stroke="#666666" points="667.25,-244 610.75,-244 610.75,-224 667.25,-224 667.25,-244"/>
<text xml:space="preserve" text-anchor="middle" x="639" y="-230.5" font-family="Helvetica,sans-Serif" font-size="10.00">context.h</text>
</a>
</g>
</g>
<!-- Node1&#45;&gt;Node12 -->
<g id="edge21_Node000001_Node000012" class="edge">
<title>Node1&#45;&gt;Node12</title>
<g id="a_edge21_Node000001_Node000012"><a xlink:title=" ">
<path fill="none" stroke="#63b8ff" d="M452,-283.4C499.13,-271.2 560.25,-255.38 599.55,-245.21"/>
<polygon fill="#63b8ff" stroke="#63b8ff" points="600.25,-248.64 609.05,-242.75 598.5,-241.87 600.25,-248.64"/>
</a>
</g>
</g>
<!-- Node4&#45;&gt;Node2 -->
<g id="edge5_Node000004_Node000002" class="edge">
<title>Node4&#45;&gt;Node2</title>
<g id="a_edge5_Node000004_Node000002"><a xlink:title=" ">
<path fill="none" stroke="#63b8ff" d="M354.71,-167.8C358.8,-147.04 370.31,-95.27 390,-56 394.7,-46.62 401.33,-37.13 407.41,-29.29"/>
<polygon fill="#63b8ff" stroke="#63b8ff" points="410.1,-31.53 413.69,-21.56 404.67,-27.12 410.1,-31.53"/>
</a>
</g>
</g>
<!-- Node4&#45;&gt;Node3 -->
<g id="edge7_Node000004_Node000003" class="edge">
<title>Node4&#45;&gt;Node3</title>
<g id="a_edge7_Node000004_Node000003"><a xlink:title=" ">
<path fill="none" stroke="#63b8ff" d="M330.09,-176.01C287.98,-173.42 196.28,-164.25 127,-132 90.88,-115.19 74.26,-111.91 57,-76 48.39,-58.08 63.96,-39.79 79.27,-27.19"/>
<polygon fill="#63b8ff" stroke="#63b8ff" points="81.04,-30.25 86.86,-21.4 76.79,-24.68 81.04,-30.25"/>
</a>
</g>
</g>
<!-- Node5 -->
<g id="Node000005" class="node">
<title>Node5</title>
<g id="a_Node000005"><a xlink:title=" ">
<polygon fill="#e0e0e0" stroke="#999999" points="756.12,-20 707.88,-20 707.88,0 756.12,0 756.12,-20"/>
<text xml:space="preserve" text-anchor="middle" x="732" y="-6.5" font-family="Helvetica,sans-Serif" font-size="10.00">stdint.h</text>
</a>
</g>
</g>
<!-- Node4&#45;&gt;Node5 -->
<g id="edge4_Node000004_Node000005" class="edge">
<title>Node4&#45;&gt;Node5</title>
<g id="a_edge4_Node000004_Node000005"><a xlink:title=" ">
<path fill="none" stroke="#63b8ff" d="M375.93,-176.75C442.48,-175.61 633.97,-169.08 682,-132 713.69,-107.54 725.44,-59.47 729.69,-31.85"/>
<polygon fill="#63b8ff" stroke="#63b8ff" points="733.16,-32.31 730.99,-21.94 726.22,-31.4 733.16,-32.31"/>
</a>
</g>
</g>
<!-- Node6 -->
<g id="Node000006" class="node">
<title>Node6</title>
<g id="a_Node000006"><a xlink:href="rect_8h.html" target="_top" xlink:title=" ">
<polygon fill="white" stroke="#666666" points="299.75,-76 234.25,-76 234.25,-56 299.75,-56 299.75,-76"/>
<text xml:space="preserve" text-anchor="middle" x="267" y="-62.5" font-family="Helvetica,sans-Serif" font-size="10.00">math/rect.h</text>
</a>
</g>
</g>
<!-- Node4&#45;&gt;Node6 -->
<g id="edge6_Node000004_Node000006" class="edge">
<title>Node4&#45;&gt;Node6</title>
<g id="a_edge6_Node000004_Node000006"><a xlink:title=" ">
<path fill="none" stroke="#63b8ff" d="M344.38,-167.55C336.31,-158.59 324.02,-144.64 314,-132 301.99,-116.84 289.18,-99 279.97,-85.85"/>
<polygon fill="#63b8ff" stroke="#63b8ff" points="282.88,-83.91 274.3,-77.69 277.13,-87.9 282.88,-83.91"/>
</a>
</g>
</g>
<!-- Node7 -->
<g id="Node000007" class="node">
<title>Node7</title>
<g id="a_Node000007"><a xlink:href="geometry_8h.html" target="_top" xlink:title=" ">
<polygon fill="white" stroke="#666666" points="250.38,-132 161.62,-132 161.62,-112 250.38,-112 250.38,-132"/>
<text xml:space="preserve" text-anchor="middle" x="206" y="-118.5" font-family="Helvetica,sans-Serif" font-size="10.00">math/geometry.h</text>
</a>
</g>
</g>
<!-- Node4&#45;&gt;Node7 -->
<g id="edge8_Node000004_Node000007" class="edge">
<title>Node4&#45;&gt;Node7</title>
<g id="a_edge8_Node000004_Node000007"><a xlink:title=" ">
<path fill="none" stroke="#63b8ff" d="M330.03,-168.56C306.61,-159.96 269.92,-146.48 242.51,-136.41"/>
<polygon fill="#63b8ff" stroke="#63b8ff" points="243.79,-133.15 233.19,-132.99 241.37,-139.72 243.79,-133.15"/>
</a>
</g>
</g>
<!-- Node8 -->
<g id="Node000008" class="node">
<title>Node8</title>
<g id="a_Node000008"><a xlink:href="dimension2_8h.html" target="_top" xlink:title=" ">
<polygon fill="white" stroke="#666666" points="139.88,-76 66.12,-76 66.12,-56 139.88,-56 139.88,-76"/>
<text xml:space="preserve" text-anchor="middle" x="103" y="-62.5" font-family="Helvetica,sans-Serif" font-size="10.00">dimension2.h</text>
</a>
</g>
</g>
<!-- Node4&#45;&gt;Node8 -->
<g id="edge14_Node000004_Node000008" class="edge">
<title>Node4&#45;&gt;Node8</title>
<g id="a_edge14_Node000004_Node000008"><a xlink:title=" ">
<path fill="none" stroke="#63b8ff" d="M330.1,-176.78C290.82,-175.4 209.4,-168.01 153,-132 135.23,-120.66 121.29,-100.69 112.69,-85.87"/>
<polygon fill="#63b8ff" stroke="#63b8ff" points="115.99,-84.61 108.13,-77.52 109.85,-87.97 115.99,-84.61"/>
</a>
</g>
</g>
<!-- Node9 -->
<g id="Node000009" class="node">
<title>Node9</title>
<g id="a_Node000009"><a xlink:href="widget_8h.html" target="_top" xlink:title=" ">
<polygon fill="white" stroke="#666666" points="571.12,-132 486.88,-132 486.88,-112 571.12,-112 571.12,-132"/>
<text xml:space="preserve" text-anchor="middle" x="529" y="-118.5" font-family="Helvetica,sans-Serif" font-size="10.00">widget/widget.h</text>
</a>
</g>
</g>
<!-- Node4&#45;&gt;Node9 -->
<g id="edge15_Node000004_Node000009" class="edge">
<title>Node4&#45;&gt;Node9</title>
<g id="a_edge15_Node000004_Node000009"><a xlink:title=" ">
<path fill="none" stroke="#63b8ff" d="M376.01,-169.94C404.26,-161.27 452.7,-146.41 487.51,-135.73"/>
<polygon fill="#63b8ff" stroke="#63b8ff" points="488.31,-139.14 496.85,-132.87 486.26,-132.45 488.31,-139.14"/>
</a>
</g>
</g>
<!-- Node7&#45;&gt;Node2 -->
<g id="edge9_Node000007_Node000002" class="edge">
<title>Node7&#45;&gt;Node2</title>
<g id="a_edge9_Node000007_Node000002"><a xlink:title=" ">
<path fill="none" stroke="#63b8ff" d="M205.94,-111.52C206.39,-97.33 209.42,-70.66 225,-56 248.72,-33.68 341.34,-20.14 391.05,-14.33"/>
<polygon fill="#63b8ff" stroke="#63b8ff" points="391.36,-17.82 400.9,-13.22 390.57,-10.86 391.36,-17.82"/>
</a>
</g>
</g>
<!-- Node7&#45;&gt;Node3 -->
<g id="edge10_Node000007_Node000003" class="edge">
<title>Node7&#45;&gt;Node3</title>
<g id="a_edge10_Node000007_Node000003"><a xlink:title=" ">
<path fill="none" stroke="#63b8ff" d="M198.1,-111.54C187.29,-98.71 167.16,-75.18 149,-56 140.11,-46.61 129.85,-36.51 121.28,-28.26"/>
<polygon fill="#63b8ff" stroke="#63b8ff" points="123.83,-25.86 114.18,-21.49 119,-30.92 123.83,-25.86"/>
</a>
</g>
</g>
<!-- Node7&#45;&gt;Node6 -->
<g id="edge13_Node000007_Node000006" class="edge">
<title>Node7&#45;&gt;Node6</title>
<g id="a_edge13_Node000007_Node000006"><a xlink:title=" ">
<path fill="none" stroke="#63b8ff" d="M216.63,-111.59C225.28,-103.93 237.73,-92.91 248.08,-83.75"/>
<polygon fill="#63b8ff" stroke="#63b8ff" points="250.2,-86.55 255.36,-77.3 245.56,-81.31 250.2,-86.55"/>
</a>
</g>
</g>
<!-- Node7&#45;&gt;Node8 -->
<g id="edge11_Node000007_Node000008" class="edge">
<title>Node7&#45;&gt;Node8</title>
<g id="a_edge11_Node000007_Node000008"><a xlink:title=" ">
<path fill="none" stroke="#63b8ff" d="M188.06,-111.59C172.35,-103.36 149.27,-91.26 131.11,-81.74"/>
<polygon fill="#63b8ff" stroke="#63b8ff" points="132.9,-78.73 122.42,-77.18 129.65,-84.93 132.9,-78.73"/>
</a>
</g>
</g>
<!-- Node8&#45;&gt;Node3 -->
<g id="edge12_Node000008_Node000003" class="edge">
<title>Node8&#45;&gt;Node3</title>
<g id="a_edge12_Node000008_Node000003"><a xlink:title=" ">
<path fill="none" stroke="#63b8ff" d="M103,-55.59C103,-49.01 103,-39.96 103,-31.73"/>
<polygon fill="#63b8ff" stroke="#63b8ff" points="106.5,-31.81 103,-21.81 99.5,-31.81 106.5,-31.81"/>
</a>
</g>
</g>
<!-- Node9&#45;&gt;Node5 -->
<g id="edge20_Node000009_Node000005" class="edge">
<title>Node9&#45;&gt;Node5</title>
<g id="a_edge20_Node000009_Node000005"><a xlink:title=" ">
<path fill="none" stroke="#63b8ff" d="M537.24,-111.78C550.06,-97.92 576.12,-71.68 603,-56 632.58,-38.74 669.82,-26.64 696.68,-19.36"/>
<polygon fill="#63b8ff" stroke="#63b8ff" points="697.24,-22.83 706.04,-16.92 695.48,-16.06 697.24,-22.83"/>
</a>
</g>
</g>
<!-- Node10 -->
<g id="Node000010" class="node">
<title>Node10</title>
<g id="a_Node000010"><a xlink:title=" ">
<polygon fill="#e0e0e0" stroke="#999999" points="518.12,-76 469.88,-76 469.88,-56 518.12,-56 518.12,-76"/>
<text xml:space="preserve" text-anchor="middle" x="494" y="-62.5" font-family="Helvetica,sans-Serif" font-size="10.00">string.h</text>
</a>
</g>
</g>
<!-- Node9&#45;&gt;Node10 -->
<g id="edge16_Node000009_Node000010" class="edge">
<title>Node9&#45;&gt;Node10</title>
<g id="a_edge16_Node000009_Node000010"><a xlink:title=" ">
<path fill="none" stroke="#63b8ff" d="M522.9,-111.59C518.29,-104.47 511.79,-94.45 506.13,-85.72"/>
<polygon fill="#63b8ff" stroke="#63b8ff" points="509.23,-84.06 500.85,-77.57 503.35,-87.86 509.23,-84.06"/>
</a>
</g>
</g>
<!-- Node11 -->
<g id="Node000011" class="node">
<title>Node11</title>
<g id="a_Node000011"><a xlink:href="alloc_8h.html" target="_top" xlink:title=" ">
<polygon fill="white" stroke="#666666" points="665.75,-76 612.25,-76 612.25,-56 665.75,-56 665.75,-76"/>
<text xml:space="preserve" text-anchor="middle" x="639" y="-62.5" font-family="Helvetica,sans-Serif" font-size="10.00">../alloc.h</text>
</a>
</g>
</g>
<!-- Node9&#45;&gt;Node11 -->
<g id="edge17_Node000009_Node000011" class="edge">
<title>Node9&#45;&gt;Node11</title>
<g id="a_edge17_Node000009_Node000011"><a xlink:title=" ">
<path fill="none" stroke="#63b8ff" d="M548.16,-111.59C565.09,-103.28 590.05,-91.03 609.52,-81.47"/>
<polygon fill="#63b8ff" stroke="#63b8ff" points="610.9,-84.7 618.33,-77.15 607.81,-78.41 610.9,-84.7"/>
</a>
</g>
</g>
<!-- Node11&#45;&gt;Node2 -->
<g id="edge19_Node000011_Node000002" class="edge">
<title>Node11&#45;&gt;Node2</title>
<g id="a_edge19_Node000011_Node000002"><a xlink:title=" ">
<path fill="none" stroke="#63b8ff" d="M612.08,-58.27C572.18,-48.29 497.48,-29.62 454.89,-18.97"/>
<polygon fill="#63b8ff" stroke="#63b8ff" points="455.8,-15.59 445.25,-16.56 454.11,-22.38 455.8,-15.59"/>
</a>
</g>
</g>
<!-- Node11&#45;&gt;Node5 -->
<g id="edge18_Node000011_Node000005" class="edge">
<title>Node11&#45;&gt;Node5</title>
<g id="a_edge18_Node000011_Node000005"><a xlink:title=" ">
<path fill="none" stroke="#63b8ff" d="M655.2,-55.59C669.25,-47.44 689.83,-35.48 706.16,-26"/>
<polygon fill="#63b8ff" stroke="#63b8ff" points="707.47,-29.29 714.37,-21.24 703.96,-23.23 707.47,-29.29"/>
</a>
</g>
</g>
<!-- Node12&#45;&gt;Node3 -->
<g id="edge24_Node000012_Node000003" class="edge">
<title>Node12&#45;&gt;Node3</title>
<g id="a_edge24_Node000012_Node000003"><a xlink:title=" ">
<path fill="none" stroke="#63b8ff" d="M621.98,-223.51C559.16,-188.55 342.31,-68.3 309,-56 258.2,-37.24 197.32,-25.14 154.97,-18.26"/>
<polygon fill="#63b8ff" stroke="#63b8ff" points="155.73,-14.84 145.31,-16.73 154.64,-21.75 155.73,-14.84"/>
</a>
</g>
</g>
<!-- Node12&#45;&gt;Node4 -->
<g id="edge25_Node000012_Node000004" class="edge">
<title>Node12&#45;&gt;Node4</title>
<g id="a_edge25_Node000012_Node000004"><a xlink:title=" ">
<path fill="none" stroke="#63b8ff" d="M610.27,-227.58C557.24,-217.56 444.21,-196.22 387.28,-185.47"/>
<polygon fill="#63b8ff" stroke="#63b8ff" points="387.99,-182.04 377.51,-183.63 386.69,-188.92 387.99,-182.04"/>
</a>
</g>
</g>
<!-- Node12&#45;&gt;Node5 -->
<g id="edge22_Node000012_Node000005" class="edge">
<title>Node12&#45;&gt;Node5</title>
<g id="a_edge22_Node000012_Node000005"><a xlink:title=" ">
<path fill="none" stroke="#63b8ff" d="M667.67,-232.05C725.59,-229.47 853.28,-220.17 880,-188 930.13,-127.64 816.9,-56.03 760.95,-25.72"/>
<polygon fill="#63b8ff" stroke="#63b8ff" points="762.72,-22.69 752.24,-21.09 759.44,-28.87 762.72,-22.69"/>
</a>
</g>
</g>
<!-- Node12&#45;&gt;Node11 -->
<g id="edge23_Node000012_Node000011" class="edge">
<title>Node12&#45;&gt;Node11</title>
<g id="a_edge23_Node000012_Node000011"><a xlink:title=" ">
<path fill="none" stroke="#63b8ff" d="M655.41,-223.52C667.19,-215.68 682.16,-203.36 689,-188 695.88,-172.54 690.99,-130.92 682,-112 676.89,-101.25 668.22,-91.42 659.99,-83.71"/>
<polygon fill="#63b8ff" stroke="#63b8ff" points="662.41,-81.17 652.57,-77.22 657.8,-86.44 662.41,-81.17"/>
</a>
</g>
</g>
<!-- Node13 -->
<g id="Node000013" class="node">
<title>Node13</title>
<g id="a_Node000013"><a xlink:href="resize__region_8h.html" target="_top" xlink:title=" ">
<polygon fill="white" stroke="#666666" points="871,-188 789,-188 789,-168 871,-168 871,-188"/>
<text xml:space="preserve" text-anchor="middle" x="830" y="-174.5" font-family="Helvetica,sans-Serif" font-size="10.00">resize_region.h</text>
</a>
</g>
</g>
<!-- Node12&#45;&gt;Node13 -->
<g id="edge26_Node000012_Node000013" class="edge">
<title>Node12&#45;&gt;Node13</title>
<g id="a_edge26_Node000012_Node000013"><a xlink:title=" ">
<path fill="none" stroke="#63b8ff" d="M667.59,-224.92C698.91,-216.06 749.5,-201.76 785.9,-191.47"/>
<polygon fill="#63b8ff" stroke="#63b8ff" points="786.58,-194.91 795.25,-188.82 784.67,-188.18 786.58,-194.91"/>
</a>
</g>
</g>
<!-- Node14 -->
<g id="Node000014" class="node">
<title>Node14</title>
<g id="a_Node000014"><a xlink:href="render_8h.html" target="_top" xlink:title=" ">
<polygon fill="white" stroke="#666666" points="679.62,-188 598.38,-188 598.38,-168 679.62,-168 679.62,-188"/>
<text xml:space="preserve" text-anchor="middle" x="639" y="-174.5" font-family="Helvetica,sans-Serif" font-size="10.00">render/render.h</text>
</a>
</g>
</g>
<!-- Node12&#45;&gt;Node14 -->
<g id="edge28_Node000012_Node000014" class="edge">
<title>Node12&#45;&gt;Node14</title>
<g id="a_edge28_Node000012_Node000014"><a xlink:title=" ">
<path fill="none" stroke="#63b8ff" d="M639,-223.59C639,-217.01 639,-207.96 639,-199.73"/>
<polygon fill="#63b8ff" stroke="#63b8ff" points="642.5,-199.81 639,-189.81 635.5,-199.81 642.5,-199.81"/>
</a>
</g>
</g>
<!-- Node13&#45;&gt;Node5 -->
<g id="edge27_Node000013_Node000005" class="edge">
<title>Node13&#45;&gt;Node5</title>
<g id="a_edge27_Node000013_Node000005"><a xlink:title=" ">
<path fill="none" stroke="#63b8ff" d="M824.97,-167.79C813.81,-147.44 785.96,-97.14 761,-56 755.7,-47.27 749.61,-37.75 744.38,-29.72"/>
<polygon fill="#63b8ff" stroke="#63b8ff" points="747.39,-27.92 738.98,-21.48 741.54,-31.76 747.39,-27.92"/>
</a>
</g>
</g>
<!-- Node14&#45;&gt;Node2 -->
<g id="edge30_Node000014_Node000002" class="edge">
<title>Node14&#45;&gt;Node2</title>
<g id="a_edge30_Node000014_Node000002"><a xlink:title=" ">
<path fill="none" stroke="#63b8ff" d="M598.16,-175.04C562.64,-171.32 511.72,-160.89 478,-132 447.29,-105.69 432.85,-58.7 426.8,-31.67"/>
<polygon fill="#63b8ff" stroke="#63b8ff" points="430.25,-31.08 424.82,-21.98 423.39,-32.47 430.25,-31.08"/>
</a>
</g>
</g>
<!-- Node14&#45;&gt;Node5 -->
<g id="edge29_Node000014_Node000005" class="edge">
<title>Node14&#45;&gt;Node5</title>
<g id="a_edge29_Node000014_Node000005"><a xlink:title=" ">
<path fill="none" stroke="#63b8ff" d="M673.22,-167.66C692.45,-160.75 715.44,-149.46 730,-132 752.1,-105.49 751.19,-90.13 746,-56 744.74,-47.72 742.25,-38.86 739.71,-31.22"/>
<polygon fill="#63b8ff" stroke="#63b8ff" points="743.04,-30.12 736.37,-21.88 736.45,-32.48 743.04,-30.12"/>
</a>
</g>
</g>
<!-- Node15 -->
<g id="Node000015" class="node">
<title>Node15</title>
<g id="a_Node000015"><a xlink:href="command_8h.html" target="_top" xlink:title=" ">
<polygon fill="white" stroke="#666666" points="672.5,-132 605.5,-132 605.5,-112 672.5,-112 672.5,-132"/>
<text xml:space="preserve" text-anchor="middle" x="639" y="-118.5" font-family="Helvetica,sans-Serif" font-size="10.00">command.h</text>
</a>
</g>
</g>
<!-- Node14&#45;&gt;Node15 -->
<g id="edge31_Node000014_Node000015" class="edge">
<title>Node14&#45;&gt;Node15</title>
<g id="a_edge31_Node000014_Node000015"><a xlink:title=" ">
<path fill="none" stroke="#63b8ff" d="M639,-167.59C639,-161.01 639,-151.96 639,-143.73"/>
<polygon fill="#63b8ff" stroke="#63b8ff" points="642.5,-143.81 639,-133.81 635.5,-143.81 642.5,-143.81"/>
</a>
</g>
</g>
<!-- Node15&#45;&gt;Node2 -->
<g id="edge33_Node000015_Node000002" class="edge">
<title>Node15&#45;&gt;Node2</title>
<g id="a_edge33_Node000015_Node000002"><a xlink:title=" ">
<path fill="none" stroke="#63b8ff" d="M624.09,-111.59C602.92,-98.41 562.73,-74.02 527,-56 503.03,-43.91 475.06,-31.92 454.17,-23.36"/>
<polygon fill="#63b8ff" stroke="#63b8ff" points="455.64,-20.18 445.06,-19.67 453.01,-26.67 455.64,-20.18"/>
</a>
</g>
</g>
<!-- Node15&#45;&gt;Node5 -->
<g id="edge32_Node000015_Node000005" class="edge">
<title>Node15&#45;&gt;Node5</title>
<g id="a_edge32_Node000015_Node000005"><a xlink:title=" ">
<path fill="none" stroke="#63b8ff" d="M646.93,-111.62C662.37,-93.36 696.72,-52.73 716.72,-29.07"/>
<polygon fill="#63b8ff" stroke="#63b8ff" points="719.33,-31.41 723.11,-21.51 713.98,-26.89 719.33,-31.41"/>
</a>
</g>
</g>
<!-- Node15&#45;&gt;Node11 -->
<g id="edge34_Node000015_Node000011" class="edge">
<title>Node15&#45;&gt;Node11</title>
<g id="a_edge34_Node000015_Node000011"><a xlink:title=" ">
<path fill="none" stroke="#63b8ff" d="M639,-111.59C639,-105.01 639,-95.96 639,-87.73"/>
<polygon fill="#63b8ff" stroke="#63b8ff" points="642.5,-87.81 639,-77.81 635.5,-87.81 642.5,-87.81"/>
</a>
</g>
</g>
</g>
</svg>
