<?xml version="1.0" encoding="UTF-8" standalone="no"?>
<!DOCTYPE svg PUBLIC "-//W3C//DTD SVG 1.1//EN"
 "http://www.w3.org/Graphics/SVG/1.1/DTD/svg11.dtd">
<!-- Generated by graphviz version 14.1.5 (20260411.2331)
 -->
<!-- Title: C:/Users/lucca/Documents/Lucca/Projects/C/yuime/include/yuime/math/geometry.h Pages: 1 -->
<svg width="246pt" height="164pt"
 viewBox="0.00 0.00 246.00 164.00" xmlns="http://www.w3.org/2000/svg" xmlns:xlink="http://www.w3.org/1999/xlink">
<g id="graph0" class="graph" transform="scale(1 1) rotate(0) translate(4 160)">
<title>C:/Users/lucca/Documents/Lucca/Projects/C/yuime/include/yuime/math/geometry.h</title>
<!-- Node1 -->
<g id="Node000001" class="node">
<title>Node1</title>
<g id="a_Node000001"><a xlink:title=" ">
<polygon fill="#999999" stroke="#666666" points="187.25,-156 32.5,-156 32.5,-112 187.25,-112 187.25,-156"/>
<text xml:space="preserve" text-anchor="start" x="40.5" y="-142.5" font-family="Helvetica,sans-Serif" font-size="10.00">C:/Users/lucca/Documents</text>
<text xml:space="preserve" text-anchor="start" x="40.5" y="-130.5" font-family="Helvetica,sans-Serif" font-size="10.00">/Lucca/Projects/C/yuime</text>
<text xml:space="preserve" text-anchor="middle" x="109.88" y="-118.5" font-family="Helvetica,sans-Serif" font-size="10.00">/include/yuime/math/geometry.h</text>
</a>
</g>
</g>
<!-- Node2 -->
<g id="Node000002" class="node">
<title>Node2</title>
<g id="a_Node000002"><a xlink:href="_a_p_i_8h.html" target="_top" xlink:title=" ">
<polygon fill="white" stroke="#666666" points="49.75,-76 0,-76 0,-56 49.75,-56 49.75,-76"/>
<text xml:space="preserve" text-anchor="middle" x="24.88" y="-62.5" font-family="Helvetica,sans-Serif" font-size="10.00">../API.h</text>
</a>
</g>
</g>
<!-- Node1&#45;&gt;Node2 -->
<g id="edge1_Node000001_Node000002" class="edge">
<title>Node1&#45;&gt;Node2</title>
<g id="a_edge1_Node000001_Node000002"><a xlink:title=" ">
<path fill="none" stroke="#63b8ff" d="M82.51,-111.75C70.65,-102.54 56.98,-91.93 45.93,-83.35"/>
<polygon fill="#63b8ff" stroke="#63b8ff" points="48.25,-80.72 38.2,-77.35 43.95,-86.24 48.25,-80.72"/>
</a>
</g>
</g>
<!-- Node3 -->
<g id="Node000003" class="node">
<title>Node3</title>
<g id="a_Node000003"><a xlink:href="vector2_8h.html" target="_top" xlink:title=" ">
<polygon fill="white" stroke="#666666" points="138.12,-20 81.62,-20 81.62,0 138.12,0 138.12,-20"/>
<text xml:space="preserve" text-anchor="middle" x="109.88" y="-6.5" font-family="Helvetica,sans-Serif" font-size="10.00">vector2.h</text>
</a>
</g>
</g>
<!-- Node1&#45;&gt;Node3 -->
<g id="edge2_Node000001_Node000003" class="edge">
<title>Node1&#45;&gt;Node3</title>
<g id="a_edge2_Node000001_Node000003"><a xlink:title=" ">
<path fill="none" stroke="#63b8ff" d="M102.74,-111.8C98.41,-96.36 94.2,-74.93 96.88,-56 98.04,-47.76 100.35,-38.91 102.71,-31.26"/>
<polygon fill="#63b8ff" stroke="#63b8ff" points="105.98,-32.52 105.81,-21.92 99.34,-30.31 105.98,-32.52"/>
</a>
</g>
</g>
<!-- Node4 -->
<g id="Node000004" class="node">
<title>Node4</title>
<g id="a_Node000004"><a xlink:href="dimension2_8h.html" target="_top" xlink:title=" ">
<polygon fill="white" stroke="#666666" points="179.75,-76 106,-76 106,-56 179.75,-56 179.75,-76"/>
<text xml:space="preserve" text-anchor="middle" x="142.88" y="-62.5" font-family="Helvetica,sans-Serif" font-size="10.00">dimension2.h</text>
</a>
</g>
</g>
<!-- Node1&#45;&gt;Node4 -->
<g id="edge3_Node000001_Node000004" class="edge">
<title>Node1&#45;&gt;Node4</title>
<g id="a_edge3_Node000001_Node000004"><a xlink:title=" ">
<path fill="none" stroke="#63b8ff" d="M120.5,-111.75C124.54,-103.66 129.13,-94.48 133.1,-86.55"/>
<polygon fill="#63b8ff" stroke="#63b8ff" points="136.15,-88.28 137.49,-77.77 129.89,-85.15 136.15,-88.28"/>
</a>
</g>
</g>
<!-- Node5 -->
<g id="Node000005" class="node">
<title>Node5</title>
<g id="a_Node000005"><a xlink:href="rect_8h.html" target="_top" xlink:title=" ">
<polygon fill="white" stroke="#666666" points="238.25,-76 197.5,-76 197.5,-56 238.25,-56 238.25,-76"/>
<text xml:space="preserve" text-anchor="middle" x="217.88" y="-62.5" font-family="Helvetica,sans-Serif" font-size="10.00">rect.h</text>
</a>
</g>
</g>
<!-- Node1&#45;&gt;Node5 -->
<g id="edge5_Node000001_Node000005" class="edge">
<title>Node1&#45;&gt;Node5</title>
<g id="a_edge5_Node000001_Node000005"><a xlink:title=" ">
<path fill="none" stroke="#63b8ff" d="M144.94,-111.57C160.6,-102 178.7,-90.94 192.94,-82.24"/>
<polygon fill="#63b8ff" stroke="#63b8ff" points="194.55,-85.36 201.26,-77.15 190.9,-79.38 194.55,-85.36"/>
</a>
</g>
</g>
<!-- Node4&#45;&gt;Node3 -->
<g id="edge4_Node000004_Node000003" class="edge">
<title>Node4&#45;&gt;Node3</title>
<g id="a_edge4_Node000004_Node000003"><a xlink:title=" ">
<path fill="none" stroke="#63b8ff" d="M137.13,-55.59C132.82,-48.55 126.78,-38.67 121.49,-30"/>
<polygon fill="#63b8ff" stroke="#63b8ff" points="124.55,-28.3 116.35,-21.59 118.57,-31.95 124.55,-28.3"/>
</a>
</g>
</g>
</g>
</svg>
