<?xml version="1.0" encoding="UTF-8" standalone="no"?>
<!DOCTYPE svg PUBLIC "-//W3C//DTD SVG 1.1//EN"
 "http://www.w3.org/Graphics/SVG/1.1/DTD/svg11.dtd">
<!-- Generated by graphviz version 14.1.5 (20260411.2331)
 -->
<!-- Title: C:/Users/lucca/Documents/Lucca/Projects/C/yuime/include/yuime/node.h Pages: 1 -->
<svg width="482pt" height="220pt"
 viewBox="0.00 0.00 482.00 220.00" xmlns="http://www.w3.org/2000/svg" xmlns:xlink="http://www.w3.org/1999/xlink">
<g id="graph0" class="graph" transform="scale(1 1) rotate(0) translate(4 216)">
<title>C:/Users/lucca/Documents/Lucca/Projects/C/yuime/include/yuime/node.h</title>
<!-- Node1 -->
<g id="Node000001" class="node">
<title>Node1</title>
<g id="a_Node000001"><a xlink:title=" ">
<polygon fill="#999999" stroke="#666666" points="322.75,-212 187.5,-212 187.5,-168 322.75,-168 322.75,-212"/>
<text xml:space="preserve" text-anchor="start" x="195.5" y="-198.5" font-family="Helvetica,sans-Serif" font-size="10.00">C:/Users/lucca/Documents</text>
<text xml:space="preserve" text-anchor="start" x="195.5" y="-186.5" font-family="Helvetica,sans-Serif" font-size="10.00">/Lucca/Projects/C/yuime</text>
<text xml:space="preserve" text-anchor="middle" x="255.12" y="-174.5" font-family="Helvetica,sans-Serif" font-size="10.00">/include/yuime/node.h</text>
</a>
</g>
</g>
<!-- Node2 -->
<g id="Node000002" class="node">
<title>Node2</title>
<g id="a_Node000002"><a xlink:title=" ">
<polygon fill="#e0e0e0" stroke="#999999" points="48.25,-20 0,-20 0,0 48.25,0 48.25,-20"/>
<text xml:space="preserve" text-anchor="middle" x="24.12" y="-6.5" font-family="Helvetica,sans-Serif" font-size="10.00">stdint.h</text>
</a>
</g>
</g>
<!-- Node1&#45;&gt;Node2 -->
<g id="edge1_Node000001_Node000002" class="edge">
<title>Node1&#45;&gt;Node2</title>
<g id="a_edge1_Node000001_Node000002"><a xlink:title=" ">
<path fill="none" stroke="#63b8ff" d="M187.16,-184.92C143.87,-179.02 89.17,-164.98 52.12,-132 23.76,-106.75 21.17,-58.98 22.32,-31.62"/>
<polygon fill="#63b8ff" stroke="#63b8ff" points="25.8,-32.05 22.96,-21.84 18.81,-31.59 25.8,-32.05"/>
</a>
</g>
</g>
<!-- Node3 -->
<g id="Node000003" class="node">
<title>Node3</title>
<g id="a_Node000003"><a xlink:href="_a_p_i_8h.html" target="_top" xlink:title=" ">
<polygon fill="white" stroke="#666666" points="220.5,-20 179.75,-20 179.75,0 220.5,0 220.5,-20"/>
<text xml:space="preserve" text-anchor="middle" x="200.12" y="-6.5" font-family="Helvetica,sans-Serif" font-size="10.00">API.h</text>
</a>
</g>
</g>
<!-- Node1&#45;&gt;Node3 -->
<g id="edge2_Node000001_Node000003" class="edge">
<title>Node1&#45;&gt;Node3</title>
<g id="a_edge2_Node000001_Node000003"><a xlink:title=" ">
<path fill="none" stroke="#63b8ff" d="M248.2,-167.8C240.84,-145.13 228.93,-108.1 219.12,-76 214.54,-61 209.58,-43.99 205.87,-31.13"/>
<polygon fill="#63b8ff" stroke="#63b8ff" points="209.3,-30.38 203.18,-21.73 202.57,-32.31 209.3,-30.38"/>
</a>
</g>
</g>
<!-- Node4 -->
<g id="Node000004" class="node">
<title>Node4</title>
<g id="a_Node000004"><a xlink:href="rect_8h.html" target="_top" xlink:title=" ">
<polygon fill="white" stroke="#666666" points="293.88,-76 228.38,-76 228.38,-56 293.88,-56 293.88,-76"/>
<text xml:space="preserve" text-anchor="middle" x="261.12" y="-62.5" font-family="Helvetica,sans-Serif" font-size="10.00">math/rect.h</text>
</a>
</g>
</g>
<!-- Node1&#45;&gt;Node4 -->
<g id="edge3_Node000001_Node000004" class="edge">
<title>Node1&#45;&gt;Node4</title>
<g id="a_edge3_Node000001_Node000004"><a xlink:title=" ">
<path fill="none" stroke="#63b8ff" d="M256.17,-167.75C257.28,-145.26 259.01,-110.02 260.11,-87.73"/>
<polygon fill="#63b8ff" stroke="#63b8ff" points="263.6,-87.97 260.59,-77.81 256.61,-87.63 263.6,-87.97"/>
</a>
</g>
</g>
<!-- Node5 -->
<g id="Node000005" class="node">
<title>Node5</title>
<g id="a_Node000005"><a xlink:href="vector2_8h.html" target="_top" xlink:title=" ">
<polygon fill="white" stroke="#666666" points="465.75,-20 384.5,-20 384.5,0 465.75,0 465.75,-20"/>
<text xml:space="preserve" text-anchor="middle" x="425.12" y="-6.5" font-family="Helvetica,sans-Serif" font-size="10.00">math/vector2.h</text>
</a>
</g>
</g>
<!-- Node1&#45;&gt;Node5 -->
<g id="edge4_Node000001_Node000005" class="edge">
<title>Node1&#45;&gt;Node5</title>
<g id="a_edge4_Node000001_Node000005"><a xlink:title=" ">
<path fill="none" stroke="#63b8ff" d="M323.21,-176.02C375.92,-161.76 444.3,-132.84 471.12,-76 479.61,-58.02 464.05,-39.74 448.78,-27.16"/>
<polygon fill="#63b8ff" stroke="#63b8ff" points="451.28,-24.66 441.21,-21.38 447.04,-30.23 451.28,-24.66"/>
</a>
</g>
</g>
<!-- Node6 -->
<g id="Node000006" class="node">
<title>Node6</title>
<g id="a_Node000006"><a xlink:href="geometry_8h.html" target="_top" xlink:title=" ">
<polygon fill="white" stroke="#666666" points="371.5,-132 282.75,-132 282.75,-112 371.5,-112 371.5,-132"/>
<text xml:space="preserve" text-anchor="middle" x="327.12" y="-118.5" font-family="Helvetica,sans-Serif" font-size="10.00">math/geometry.h</text>
</a>
</g>
</g>
<!-- Node1&#45;&gt;Node6 -->
<g id="edge5_Node000001_Node000006" class="edge">
<title>Node1&#45;&gt;Node6</title>
<g id="a_edge5_Node000001_Node000006"><a xlink:title=" ">
<path fill="none" stroke="#63b8ff" d="M278.3,-167.75C288.05,-158.82 299.23,-148.57 308.43,-140.13"/>
<polygon fill="#63b8ff" stroke="#63b8ff" points="310.73,-142.78 315.73,-133.44 306,-137.62 310.73,-142.78"/>
</a>
</g>
</g>
<!-- Node7 -->
<g id="Node000007" class="node">
<title>Node7</title>
<g id="a_Node000007"><a xlink:href="dimension2_8h.html" target="_top" xlink:title=" ">
<polygon fill="white" stroke="#666666" points="462,-76 388.25,-76 388.25,-56 462,-56 462,-76"/>
<text xml:space="preserve" text-anchor="middle" x="425.12" y="-62.5" font-family="Helvetica,sans-Serif" font-size="10.00">dimension2.h</text>
</a>
</g>
</g>
<!-- Node1&#45;&gt;Node7 -->
<g id="edge11_Node000001_Node000007" class="edge">
<title>Node1&#45;&gt;Node7</title>
<g id="a_edge11_Node000001_Node000007"><a xlink:title=" ">
<path fill="none" stroke="#63b8ff" d="M319.35,-167.53C340.13,-158.62 362.38,-146.84 380.12,-132 395.24,-119.35 407.56,-100.44 415.46,-86.27"/>
<polygon fill="#63b8ff" stroke="#63b8ff" points="418.53,-87.95 420.11,-77.47 412.35,-84.68 418.53,-87.95"/>
</a>
</g>
</g>
<!-- Node8 -->
<g id="Node000008" class="node">
<title>Node8</title>
<g id="a_Node000008"><a xlink:href="widget_8h.html" target="_top" xlink:title=" ">
<polygon fill="white" stroke="#666666" points="145.25,-132 61,-132 61,-112 145.25,-112 145.25,-132"/>
<text xml:space="preserve" text-anchor="middle" x="103.12" y="-118.5" font-family="Helvetica,sans-Serif" font-size="10.00">widget/widget.h</text>
</a>
</g>
</g>
<!-- Node1&#45;&gt;Node8 -->
<g id="edge12_Node000001_Node000008" class="edge">
<title>Node1&#45;&gt;Node8</title>
<g id="a_edge12_Node000001_Node000008"><a xlink:title=" ">
<path fill="none" stroke="#63b8ff" d="M205.77,-167.57C182.56,-157.49 155.54,-145.76 135.05,-136.86"/>
<polygon fill="#63b8ff" stroke="#63b8ff" points="136.65,-133.74 126.08,-132.97 133.86,-140.16 136.65,-133.74"/>
</a>
</g>
</g>
<!-- Node6&#45;&gt;Node3 -->
<g id="edge6_Node000006_Node000003" class="edge">
<title>Node6&#45;&gt;Node3</title>
<g id="a_edge6_Node000006_Node000003"><a xlink:title=" ">
<path fill="none" stroke="#63b8ff" d="M326.03,-111.84C323.94,-98.06 318.15,-71.92 303.12,-56 284.08,-35.81 254.41,-24.17 231.8,-17.8"/>
<polygon fill="#63b8ff" stroke="#63b8ff" points="232.73,-14.43 222.17,-15.32 230.98,-21.21 232.73,-14.43"/>
</a>
</g>
</g>
<!-- Node6&#45;&gt;Node4 -->
<g id="edge10_Node000006_Node000004" class="edge">
<title>Node6&#45;&gt;Node4</title>
<g id="a_edge10_Node000006_Node000004"><a xlink:title=" ">
<path fill="none" stroke="#63b8ff" d="M315.63,-111.59C306.16,-103.85 292.52,-92.69 281.25,-83.47"/>
<polygon fill="#63b8ff" stroke="#63b8ff" points="283.62,-80.88 273.66,-77.26 279.18,-86.3 283.62,-80.88"/>
</a>
</g>
</g>
<!-- Node6&#45;&gt;Node5 -->
<g id="edge7_Node000006_Node000005" class="edge">
<title>Node6&#45;&gt;Node5</title>
<g id="a_edge7_Node000006_Node000005"><a xlink:title=" ">
<path fill="none" stroke="#63b8ff" d="M333.86,-111.89C343.47,-99.05 361.86,-75.07 379.12,-56 387.8,-46.41 398.04,-36.29 406.65,-28.08"/>
<polygon fill="#63b8ff" stroke="#63b8ff" points="408.92,-30.76 413.8,-21.36 404.12,-25.66 408.92,-30.76"/>
</a>
</g>
</g>
<!-- Node6&#45;&gt;Node7 -->
<g id="edge8_Node000006_Node000007" class="edge">
<title>Node6&#45;&gt;Node7</title>
<g id="a_edge8_Node000006_Node000007"><a xlink:title=" ">
<path fill="none" stroke="#63b8ff" d="M344.2,-111.59C359,-103.44 380.69,-91.48 397.89,-82"/>
<polygon fill="#63b8ff" stroke="#63b8ff" points="399.53,-85.1 406.6,-77.21 396.15,-78.97 399.53,-85.1"/>
</a>
</g>
</g>
<!-- Node7&#45;&gt;Node5 -->
<g id="edge9_Node000007_Node000005" class="edge">
<title>Node7&#45;&gt;Node5</title>
<g id="a_edge9_Node000007_Node000005"><a xlink:title=" ">
<path fill="none" stroke="#63b8ff" d="M425.12,-55.59C425.12,-49.01 425.12,-39.96 425.12,-31.73"/>
<polygon fill="#63b8ff" stroke="#63b8ff" points="428.63,-31.81 425.13,-21.81 421.63,-31.81 428.63,-31.81"/>
</a>
</g>
</g>
<!-- Node8&#45;&gt;Node2 -->
<g id="edge17_Node000008_Node000002" class="edge">
<title>Node8&#45;&gt;Node2</title>
<g id="a_edge17_Node000008_Node000002"><a xlink:title=" ">
<path fill="none" stroke="#63b8ff" d="M84.85,-111.55C71.45,-103.72 53.8,-91.41 43.12,-76 33.9,-62.68 29.1,-44.87 26.64,-31.25"/>
<polygon fill="#63b8ff" stroke="#63b8ff" points="30.14,-31.05 25.19,-21.68 23.22,-32.09 30.14,-31.05"/>
</a>
</g>
</g>
<!-- Node9 -->
<g id="Node000009" class="node">
<title>Node9</title>
<g id="a_Node000009"><a xlink:title=" ">
<polygon fill="#e0e0e0" stroke="#999999" points="100.25,-76 52,-76 52,-56 100.25,-56 100.25,-76"/>
<text xml:space="preserve" text-anchor="middle" x="76.12" y="-62.5" font-family="Helvetica,sans-Serif" font-size="10.00">string.h</text>
</a>
</g>
</g>
<!-- Node8&#45;&gt;Node9 -->
<g id="edge13_Node000008_Node000009" class="edge">
<title>Node8&#45;&gt;Node9</title>
<g id="a_edge13_Node000008_Node000009"><a xlink:title=" ">
<path fill="none" stroke="#63b8ff" d="M98.42,-111.59C94.98,-104.7 90.18,-95.1 85.91,-86.57"/>
<polygon fill="#63b8ff" stroke="#63b8ff" points="89.05,-85.03 81.45,-77.65 82.79,-88.16 89.05,-85.03"/>
</a>
</g>
</g>
<!-- Node10 -->
<g id="Node000010" class="node">
<title>Node10</title>
<g id="a_Node000010"><a xlink:href="alloc_8h.html" target="_top" xlink:title=" ">
<polygon fill="white" stroke="#666666" points="171.88,-76 118.38,-76 118.38,-56 171.88,-56 171.88,-76"/>
<text xml:space="preserve" text-anchor="middle" x="145.12" y="-62.5" font-family="Helvetica,sans-Serif" font-size="10.00">../alloc.h</text>
</a>
</g>
</g>
<!-- Node8&#45;&gt;Node10 -->
<g id="edge14_Node000008_Node000010" class="edge">
<title>Node8&#45;&gt;Node10</title>
<g id="a_edge14_Node000008_Node000010"><a xlink:title=" ">
<path fill="none" stroke="#63b8ff" d="M110.44,-111.59C116.1,-104.32 124.11,-94.02 131.01,-85.15"/>
<polygon fill="#63b8ff" stroke="#63b8ff" points="133.59,-87.54 136.96,-77.49 128.06,-83.24 133.59,-87.54"/>
</a>
</g>
</g>
<!-- Node10&#45;&gt;Node2 -->
<g id="edge15_Node000010_Node000002" class="edge">
<title>Node10&#45;&gt;Node2</title>
<g id="a_edge15_Node000010_Node000002"><a xlink:title=" ">
<path fill="none" stroke="#63b8ff" d="M124.05,-55.59C105.17,-47.17 77.21,-34.69 55.66,-25.07"/>
<polygon fill="#63b8ff" stroke="#63b8ff" points="57.31,-21.98 46.75,-21.1 54.45,-28.37 57.31,-21.98"/>
</a>
</g>
</g>
<!-- Node10&#45;&gt;Node3 -->
<g id="edge16_Node000010_Node000003" class="edge">
<title>Node10&#45;&gt;Node3</title>
<g id="a_edge16_Node000010_Node000003"><a xlink:title=" ">
<path fill="none" stroke="#63b8ff" d="M154.71,-55.59C162.36,-48.08 173.28,-37.35 182.5,-28.3"/>
<polygon fill="#63b8ff" stroke="#63b8ff" points="184.89,-30.86 189.57,-21.36 179.99,-25.87 184.89,-30.86"/>
</a>
</g>
</g>
</g>
</svg>
