<?xml version="1.0" encoding="UTF-8" standalone="no"?>
<!DOCTYPE svg PUBLIC "-//W3C//DTD SVG 1.1//EN"
 "http://www.w3.org/Graphics/SVG/1.1/DTD/svg11.dtd">
<!-- Generated by graphviz version 14.1.5 (20260411.2331)
 -->
<!-- Title: C:/Users/lucca/Documents/Lucca/Projects/C/yuime/include/yuime/widget/panel.h Pages: 1 -->
<svg width="986pt" height="332pt"
 viewBox="0.00 0.00 986.00 332.00" xmlns="http://www.w3.org/2000/svg" xmlns:xlink="http://www.w3.org/1999/xlink">
<g id="graph0" class="graph" transform="scale(1 1) rotate(0) translate(4 328)">
<title>C:/Users/lucca/Documents/Lucca/Projects/C/yuime/include/yuime/widget/panel.h</title>
<!-- Node1 -->
<g id="Node000001" class="node">
<title>Node1</title>
<g id="a_Node000001"><a xlink:title=" ">
<polygon fill="#999999" stroke="#666666" points="513.75,-324 368.75,-324 368.75,-280 513.75,-280 513.75,-324"/>
<text xml:space="preserve" text-anchor="start" x="376.75" y="-310.5" font-family="Helvetica,sans-Serif" font-size="10.00">C:/Users/lucca/Documents</text>
<text xml:space="preserve" text-anchor="start" x="376.75" y="-298.5" font-family="Helvetica,sans-Serif" font-size="10.00">/Lucca/Projects/C/yuime</text>
<text xml:space="preserve" text-anchor="middle" x="441.25" y="-286.5" font-family="Helvetica,sans-Serif" font-size="10.00">/include/yuime/widget/panel.h</text>
</a>
</g>
</g>
<!-- Node2 -->
<g id="Node000002" class="node">
<title>Node2</title>
<g id="a_Node000002"><a xlink:href="_a_p_i_8h.html" target="_top" xlink:title=" ">
<polygon fill="white" stroke="#666666" points="524.12,-20 474.38,-20 474.38,0 524.12,0 524.12,-20"/>
<text xml:space="preserve" text-anchor="middle" x="499.25" y="-6.5" font-family="Helvetica,sans-Serif" font-size="10.00">../API.h</text>
</a>
</g>
</g>
<!-- Node1&#45;&gt;Node2 -->
<g id="edge1_Node000001_Node000002" class="edge">
<title>Node1&#45;&gt;Node2</title>
<g id="a_edge1_Node000001_Node000002"><a xlink:title=" ">
<path fill="none" stroke="#63b8ff" d="M408.28,-279.59C379.49,-258.01 342.25,-221.82 342.25,-179 342.25,-179 342.25,-179 342.25,-121 342.25,-62.4 416.52,-32.37 462.9,-19.33"/>
<polygon fill="#63b8ff" stroke="#63b8ff" points="463.8,-22.72 472.56,-16.77 462,-15.95 463.8,-22.72"/>
</a>
</g>
</g>
<!-- Node3 -->
<g id="Node000003" class="node">
<title>Node3</title>
<g id="a_Node000003"><a xlink:href="alloc_8h.html" target="_top" xlink:title=" ">
<polygon fill="white" stroke="#666666" points="644,-76 590.5,-76 590.5,-56 644,-56 644,-76"/>
<text xml:space="preserve" text-anchor="middle" x="617.25" y="-62.5" font-family="Helvetica,sans-Serif" font-size="10.00">../alloc.h</text>
</a>
</g>
</g>
<!-- Node1&#45;&gt;Node3 -->
<g id="edge2_Node000001_Node000003" class="edge">
<title>Node1&#45;&gt;Node3</title>
<g id="a_edge2_Node000001_Node000003"><a xlink:title=" ">
<path fill="none" stroke="#63b8ff" d="M457.18,-279.82C491.33,-234.41 571.12,-128.33 603.37,-85.46"/>
<polygon fill="#63b8ff" stroke="#63b8ff" points="606.03,-87.74 609.25,-77.64 600.44,-83.53 606.03,-87.74"/>
</a>
</g>
</g>
<!-- Node5 -->
<g id="Node000005" class="node">
<title>Node5</title>
<g id="a_Node000005"><a xlink:href="rect_8h.html" target="_top" xlink:title=" ">
<polygon fill="white" stroke="#666666" points="74.5,-76 0,-76 0,-56 74.5,-56 74.5,-76"/>
<text xml:space="preserve" text-anchor="middle" x="37.25" y="-62.5" font-family="Helvetica,sans-Serif" font-size="10.00">../math/rect.h</text>
</a>
</g>
</g>
<!-- Node1&#45;&gt;Node5 -->
<g id="edge5_Node000001_Node000005" class="edge">
<title>Node1&#45;&gt;Node5</title>
<g id="a_edge5_Node000001_Node000005"><a xlink:title=" ">
<path fill="none" stroke="#63b8ff" d="M368.51,-293.99C317.03,-286.77 247.59,-272.38 192.25,-244 125.28,-209.66 109.43,-192.93 65.25,-132 55.32,-118.31 47.97,-100.54 43.3,-87.05"/>
<polygon fill="#63b8ff" stroke="#63b8ff" points="46.76,-86.37 40.35,-77.93 40.1,-88.53 46.76,-86.37"/>
</a>
</g>
</g>
<!-- Node6 -->
<g id="Node000006" class="node">
<title>Node6</title>
<g id="a_Node000006"><a xlink:href="dimension2_8h.html" target="_top" xlink:title=" ">
<polygon fill="white" stroke="#666666" points="276,-76 168.5,-76 168.5,-56 276,-56 276,-76"/>
<text xml:space="preserve" text-anchor="middle" x="222.25" y="-62.5" font-family="Helvetica,sans-Serif" font-size="10.00">../math/dimension2.h</text>
</a>
</g>
</g>
<!-- Node1&#45;&gt;Node6 -->
<g id="edge6_Node000001_Node000006" class="edge">
<title>Node1&#45;&gt;Node6</title>
<g id="a_edge6_Node000001_Node000006"><a xlink:title=" ">
<path fill="none" stroke="#63b8ff" d="M383.56,-279.56C364.48,-270.58 344.1,-258.74 328.25,-244 278.29,-197.54 244,-122.23 229.71,-86.72"/>
<polygon fill="#63b8ff" stroke="#63b8ff" points="233.09,-85.76 226.19,-77.72 226.57,-88.3 233.09,-85.76"/>
</a>
</g>
</g>
<!-- Node8 -->
<g id="Node000008" class="node">
<title>Node8</title>
<g id="a_Node000008"><a xlink:href="geometry_8h.html" target="_top" xlink:title=" ">
<polygon fill="white" stroke="#666666" points="200.12,-132 102.38,-132 102.38,-112 200.12,-112 200.12,-132"/>
<text xml:space="preserve" text-anchor="middle" x="151.25" y="-118.5" font-family="Helvetica,sans-Serif" font-size="10.00">../math/geometry.h</text>
</a>
</g>
</g>
<!-- Node1&#45;&gt;Node8 -->
<g id="edge8_Node000001_Node000008" class="edge">
<title>Node1&#45;&gt;Node8</title>
<g id="a_edge8_Node000001_Node000008"><a xlink:title=" ">
<path fill="none" stroke="#63b8ff" d="M368.29,-297.89C320.1,-292.45 258.02,-278.56 214.25,-244 181.37,-218.03 163.85,-170.17 156.16,-143.08"/>
<polygon fill="#63b8ff" stroke="#63b8ff" points="159.62,-142.48 153.68,-133.71 152.85,-144.27 159.62,-142.48"/>
</a>
</g>
</g>
<!-- Node9 -->
<g id="Node000009" class="node">
<title>Node9</title>
<g id="a_Node000009"><a xlink:href="color_8h.html" target="_top" xlink:title=" ">
<polygon fill="white" stroke="#666666" points="978.38,-188 900.12,-188 900.12,-168 978.38,-168 978.38,-188"/>
<text xml:space="preserve" text-anchor="middle" x="939.25" y="-174.5" font-family="Helvetica,sans-Serif" font-size="10.00">../style/color.h</text>
</a>
</g>
</g>
<!-- Node1&#45;&gt;Node9 -->
<g id="edge13_Node000001_Node000009" class="edge">
<title>Node1&#45;&gt;Node9</title>
<g id="a_edge13_Node000001_Node000009"><a xlink:title=" ">
<path fill="none" stroke="#63b8ff" d="M514.05,-283.43C560.47,-272.2 621.91,-257.3 676.25,-244 750.94,-225.71 837.51,-204.27 890.31,-191.16"/>
<polygon fill="#63b8ff" stroke="#63b8ff" points="891.04,-194.59 899.9,-188.78 889.35,-187.79 891.04,-194.59"/>
</a>
</g>
</g>
<!-- Node10 -->
<g id="Node000010" class="node">
<title>Node10</title>
<g id="a_Node000010"><a xlink:href="border_8h.html" target="_top" xlink:title=" ">
<polygon fill="white" stroke="#666666" points="937.38,-244 853.12,-244 853.12,-224 937.38,-224 937.38,-244"/>
<text xml:space="preserve" text-anchor="middle" x="895.25" y="-230.5" font-family="Helvetica,sans-Serif" font-size="10.00">../style/border.h</text>
</a>
</g>
</g>
<!-- Node1&#45;&gt;Node10 -->
<g id="edge15_Node000001_Node000010" class="edge">
<title>Node1&#45;&gt;Node10</title>
<g id="a_edge15_Node000001_Node000010"><a xlink:title=" ">
<path fill="none" stroke="#63b8ff" d="M514.19,-290.4C605.76,-277.08 760.65,-254.57 841.89,-242.76"/>
<polygon fill="#63b8ff" stroke="#63b8ff" points="841.96,-246.28 851.35,-241.38 840.95,-239.36 841.96,-246.28"/>
</a>
</g>
</g>
<!-- Node11 -->
<g id="Node000011" class="node">
<title>Node11</title>
<g id="a_Node000011"><a xlink:href="node_8h.html" target="_top" xlink:title=" ">
<polygon fill="white" stroke="#666666" points="424.38,-188 370.12,-188 370.12,-168 424.38,-168 424.38,-188"/>
<text xml:space="preserve" text-anchor="middle" x="397.25" y="-174.5" font-family="Helvetica,sans-Serif" font-size="10.00">../node.h</text>
</a>
</g>
</g>
<!-- Node1&#45;&gt;Node11 -->
<g id="edge17_Node000001_Node000011" class="edge">
<title>Node1&#45;&gt;Node11</title>
<g id="a_edge17_Node000001_Node000011"><a xlink:title=" ">
<path fill="none" stroke="#63b8ff" d="M433.59,-279.75C425.4,-257.05 412.53,-221.36 404.5,-199.11"/>
<polygon fill="#63b8ff" stroke="#63b8ff" points="407.8,-197.94 401.12,-189.73 401.22,-200.32 407.8,-197.94"/>
</a>
</g>
</g>
<!-- Node12 -->
<g id="Node000012" class="node">
<title>Node12</title>
<g id="a_Node000012"><a xlink:href="widget_8h.html" target="_top" xlink:title=" ">
<polygon fill="white" stroke="#666666" points="530.38,-132 446.12,-132 446.12,-112 530.38,-112 530.38,-132"/>
<text xml:space="preserve" text-anchor="middle" x="488.25" y="-118.5" font-family="Helvetica,sans-Serif" font-size="10.00">widget/widget.h</text>
</a>
</g>
</g>
<!-- Node1&#45;&gt;Node12 -->
<g id="edge42_Node000001_Node000012" class="edge">
<title>Node1&#45;&gt;Node12</title>
<g id="a_edge42_Node000001_Node000012"><a xlink:title=" ">
<path fill="none" stroke="#63b8ff" d="M446.92,-279.53C456.1,-244.78 474.07,-176.7 482.98,-142.95"/>
<polygon fill="#63b8ff" stroke="#63b8ff" points="486.27,-144.22 485.44,-133.66 479.5,-142.43 486.27,-144.22"/>
</a>
</g>
</g>
<!-- Node14 -->
<g id="Node000014" class="node">
<title>Node14</title>
<g id="a_Node000014"><a xlink:href="context_8h.html" target="_top" xlink:title=" ">
<polygon fill="white" stroke="#666666" points="667,-244 601.5,-244 601.5,-224 667,-224 667,-244"/>
<text xml:space="preserve" text-anchor="middle" x="634.25" y="-230.5" font-family="Helvetica,sans-Serif" font-size="10.00">../context.h</text>
</a>
</g>
</g>
<!-- Node1&#45;&gt;Node14 -->
<g id="edge28_Node000001_Node000014" class="edge">
<title>Node1&#45;&gt;Node14</title>
<g id="a_edge28_Node000001_Node000014"><a xlink:title=" ">
<path fill="none" stroke="#63b8ff" d="M503.91,-279.57C534.25,-269.2 569.7,-257.08 595.96,-248.09"/>
<polygon fill="#63b8ff" stroke="#63b8ff" points="596.85,-251.49 605.18,-244.94 594.58,-244.87 596.85,-251.49"/>
</a>
</g>
</g>
<!-- Node3&#45;&gt;Node2 -->
<g id="edge4_Node000003_Node000002" class="edge">
<title>Node3&#45;&gt;Node2</title>
<g id="a_edge4_Node000003_Node000002"><a xlink:title=" ">
<path fill="none" stroke="#63b8ff" d="M596.7,-55.59C578.37,-47.21 551.26,-34.8 530.29,-25.21"/>
<polygon fill="#63b8ff" stroke="#63b8ff" points="531.89,-22.09 521.34,-21.11 528.98,-28.45 531.89,-22.09"/>
</a>
</g>
</g>
<!-- Node4 -->
<g id="Node000004" class="node">
<title>Node4</title>
<g id="a_Node000004"><a xlink:title=" ">
<polygon fill="#e0e0e0" stroke="#999999" points="799.38,-20 751.12,-20 751.12,0 799.38,0 799.38,-20"/>
<text xml:space="preserve" text-anchor="middle" x="775.25" y="-6.5" font-family="Helvetica,sans-Serif" font-size="10.00">stdint.h</text>
</a>
</g>
</g>
<!-- Node3&#45;&gt;Node4 -->
<g id="edge3_Node000003_Node000004" class="edge">
<title>Node3&#45;&gt;Node4</title>
<g id="a_edge3_Node000003_Node000004"><a xlink:title=" ">
<path fill="none" stroke="#63b8ff" d="M644.41,-55.72C670.82,-46.69 711.06,-32.94 739.93,-23.07"/>
<polygon fill="#63b8ff" stroke="#63b8ff" points="741.01,-26.4 749.34,-19.85 738.75,-19.78 741.01,-26.4"/>
</a>
</g>
</g>
<!-- Node7 -->
<g id="Node000007" class="node">
<title>Node7</title>
<g id="a_Node000007"><a xlink:href="vector2_8h.html" target="_top" xlink:title=" ">
<polygon fill="white" stroke="#666666" points="291.5,-20 235,-20 235,0 291.5,0 291.5,-20"/>
<text xml:space="preserve" text-anchor="middle" x="263.25" y="-6.5" font-family="Helvetica,sans-Serif" font-size="10.00">vector2.h</text>
</a>
</g>
</g>
<!-- Node6&#45;&gt;Node7 -->
<g id="edge7_Node000006_Node000007" class="edge">
<title>Node6&#45;&gt;Node7</title>
<g id="a_edge7_Node000006_Node000007"><a xlink:title=" ">
<path fill="none" stroke="#63b8ff" d="M229.39,-55.59C234.86,-48.39 242.57,-38.23 249.26,-29.43"/>
<polygon fill="#63b8ff" stroke="#63b8ff" points="252.02,-31.58 255.27,-21.5 246.44,-27.35 252.02,-31.58"/>
</a>
</g>
</g>
<!-- Node8&#45;&gt;Node2 -->
<g id="edge9_Node000008_Node000002" class="edge">
<title>Node8&#45;&gt;Node2</title>
<g id="a_edge9_Node000008_Node000002"><a xlink:title=" ">
<path fill="none" stroke="#63b8ff" d="M149.22,-111.53C146.79,-97.35 144.68,-70.7 159.25,-56 180.37,-34.68 379.05,-19.04 462.56,-13.35"/>
<polygon fill="#63b8ff" stroke="#63b8ff" points="462.76,-16.84 472.5,-12.68 462.29,-9.86 462.76,-16.84"/>
</a>
</g>
</g>
<!-- Node8&#45;&gt;Node5 -->
<g id="edge12_Node000008_Node000005" class="edge">
<title>Node8&#45;&gt;Node5</title>
<g id="a_edge12_Node000008_Node000005"><a xlink:title=" ">
<path fill="none" stroke="#63b8ff" d="M131.39,-111.59C113.76,-103.24 87.74,-90.92 67.52,-81.34"/>
<polygon fill="#63b8ff" stroke="#63b8ff" points="69.17,-78.25 58.63,-77.13 66.17,-84.57 69.17,-78.25"/>
</a>
</g>
</g>
<!-- Node8&#45;&gt;Node6 -->
<g id="edge11_Node000008_Node000006" class="edge">
<title>Node8&#45;&gt;Node6</title>
<g id="a_edge11_Node000008_Node000006"><a xlink:title=" ">
<path fill="none" stroke="#63b8ff" d="M163.62,-111.59C173.9,-103.77 188.77,-92.46 200.96,-83.19"/>
<polygon fill="#63b8ff" stroke="#63b8ff" points="202.98,-86.05 208.82,-77.21 198.74,-80.48 202.98,-86.05"/>
</a>
</g>
</g>
<!-- Node8&#45;&gt;Node7 -->
<g id="edge10_Node000008_Node000007" class="edge">
<title>Node8&#45;&gt;Node7</title>
<g id="a_edge10_Node000008_Node000007"><a xlink:title=" ">
<path fill="none" stroke="#63b8ff" d="M142.57,-111.88C131.03,-98.6 113.49,-73.63 126.25,-56 148.22,-25.66 191.31,-15.41 223.32,-12.14"/>
<polygon fill="#63b8ff" stroke="#63b8ff" points="223.37,-15.64 233.05,-11.34 222.8,-8.67 223.37,-15.64"/>
</a>
</g>
</g>
<!-- Node9&#45;&gt;Node4 -->
<g id="edge14_Node000009_Node000004" class="edge">
<title>Node9&#45;&gt;Node4</title>
<g id="a_edge14_Node000009_Node000004"><a xlink:title=" ">
<path fill="none" stroke="#63b8ff" d="M945.01,-167.64C952.3,-154.51 962.79,-130.2 953.25,-112 924.77,-57.69 853.8,-30.71 810.56,-18.89"/>
<polygon fill="#63b8ff" stroke="#63b8ff" points="811.71,-15.57 801.15,-16.45 809.96,-22.34 811.71,-15.57"/>
</a>
</g>
</g>
<!-- Node10&#45;&gt;Node9 -->
<g id="edge16_Node000010_Node000009" class="edge">
<title>Node10&#45;&gt;Node9</title>
<g id="a_edge16_Node000010_Node000009"><a xlink:title=" ">
<path fill="none" stroke="#63b8ff" d="M902.91,-223.59C908.84,-216.32 917.24,-206.02 924.46,-197.15"/>
<polygon fill="#63b8ff" stroke="#63b8ff" points="927.11,-199.43 930.72,-189.47 921.69,-195.01 927.11,-199.43"/>
</a>
</g>
</g>
<!-- Node11&#45;&gt;Node2 -->
<g id="edge19_Node000011_Node000002" class="edge">
<title>Node11&#45;&gt;Node2</title>
<g id="a_edge19_Node000011_Node000002"><a xlink:title=" ">
<path fill="none" stroke="#63b8ff" d="M394.81,-167.5C389.78,-145.66 380.61,-91.07 404.25,-56 417.59,-36.21 442.09,-24.89 462.87,-18.56"/>
<polygon fill="#63b8ff" stroke="#63b8ff" points="463.76,-21.95 472.48,-15.93 461.91,-15.2 463.76,-21.95"/>
</a>
</g>
</g>
<!-- Node11&#45;&gt;Node4 -->
<g id="edge18_Node000011_Node000004" class="edge">
<title>Node11&#45;&gt;Node4</title>
<g id="a_edge18_Node000011_Node000004"><a xlink:title=" ">
<path fill="none" stroke="#63b8ff" d="M399.16,-167.75C404.65,-142.05 421.25,-70.7 439.25,-56 484.57,-18.98 662.23,-12.32 739.28,-11.19"/>
<polygon fill="#63b8ff" stroke="#63b8ff" points="739.28,-14.69 749.23,-11.07 739.19,-7.69 739.28,-14.69"/>
</a>
</g>
</g>
<!-- Node11&#45;&gt;Node5 -->
<g id="edge20_Node000011_Node000005" class="edge">
<title>Node11&#45;&gt;Node5</title>
<g id="a_edge20_Node000011_Node000005"><a xlink:title=" ">
<path fill="none" stroke="#63b8ff" d="M369.66,-175.37C304.05,-171.11 140.69,-158.12 93.25,-132 73.74,-121.26 57.92,-100.9 48.13,-85.81"/>
<polygon fill="#63b8ff" stroke="#63b8ff" points="51.36,-84.37 43.14,-77.69 45.39,-88.04 51.36,-84.37"/>
</a>
</g>
</g>
<!-- Node11&#45;&gt;Node6 -->
<g id="edge23_Node000011_Node000006" class="edge">
<title>Node11&#45;&gt;Node6</title>
<g id="a_edge23_Node000011_Node000006"><a xlink:title=" ">
<path fill="none" stroke="#63b8ff" d="M369.96,-168.62C347.49,-161.01 315.36,-148.47 290.25,-132 269.86,-118.63 250.13,-98.75 237.22,-84.49"/>
<polygon fill="#63b8ff" stroke="#63b8ff" points="240.02,-82.38 230.78,-77.2 234.77,-87.02 240.02,-82.38"/>
</a>
</g>
</g>
<!-- Node11&#45;&gt;Node7 -->
<g id="edge21_Node000011_Node000007" class="edge">
<title>Node11&#45;&gt;Node7</title>
<g id="a_edge21_Node000011_Node000007"><a xlink:title=" ">
<path fill="none" stroke="#63b8ff" d="M389.66,-167.6C368.1,-140.89 306.22,-64.23 277.82,-29.05"/>
<polygon fill="#63b8ff" stroke="#63b8ff" points="280.71,-27.06 271.71,-21.48 275.26,-31.45 280.71,-27.06"/>
</a>
</g>
</g>
<!-- Node11&#45;&gt;Node8 -->
<g id="edge22_Node000011_Node000008" class="edge">
<title>Node11&#45;&gt;Node8</title>
<g id="a_edge22_Node000011_Node000008"><a xlink:title=" ">
<path fill="none" stroke="#63b8ff" d="M369.98,-171.01C330.44,-162.33 256.35,-146.07 205.45,-134.9"/>
<polygon fill="#63b8ff" stroke="#63b8ff" points="206.32,-131.5 195.8,-132.78 204.82,-138.34 206.32,-131.5"/>
</a>
</g>
</g>
<!-- Node11&#45;&gt;Node12 -->
<g id="edge24_Node000011_Node000012" class="edge">
<title>Node11&#45;&gt;Node12</title>
<g id="a_edge24_Node000011_Node000012"><a xlink:title=" ">
<path fill="none" stroke="#63b8ff" d="M413.1,-167.59C426.72,-159.51 446.61,-147.71 462.51,-138.27"/>
<polygon fill="#63b8ff" stroke="#63b8ff" points="464.16,-141.37 470.97,-133.25 460.59,-135.35 464.16,-141.37"/>
</a>
</g>
</g>
<!-- Node12&#45;&gt;Node3 -->
<g id="edge26_Node000012_Node000003" class="edge">
<title>Node12&#45;&gt;Node3</title>
<g id="a_edge26_Node000012_Node000003"><a xlink:title=" ">
<path fill="none" stroke="#63b8ff" d="M510.72,-111.59C531.04,-103.09 561.2,-90.46 584.26,-80.81"/>
<polygon fill="#63b8ff" stroke="#63b8ff" points="585.34,-84.15 593.21,-77.06 582.63,-77.7 585.34,-84.15"/>
</a>
</g>
</g>
<!-- Node12&#45;&gt;Node4 -->
<g id="edge27_Node000012_Node000004" class="edge">
<title>Node12&#45;&gt;Node4</title>
<g id="a_edge27_Node000012_Node000004"><a xlink:title=" ">
<path fill="none" stroke="#63b8ff" d="M498.86,-111.5C515.31,-97.28 548.5,-70.58 581.25,-56 633.6,-32.69 699.49,-20.7 739.43,-15.14"/>
<polygon fill="#63b8ff" stroke="#63b8ff" points="739.76,-18.63 749.21,-13.85 738.84,-11.69 739.76,-18.63"/>
</a>
</g>
</g>
<!-- Node13 -->
<g id="Node000013" class="node">
<title>Node13</title>
<g id="a_Node000013"><a xlink:title=" ">
<polygon fill="#e0e0e0" stroke="#999999" points="496.38,-76 448.12,-76 448.12,-56 496.38,-56 496.38,-76"/>
<text xml:space="preserve" text-anchor="middle" x="472.25" y="-62.5" font-family="Helvetica,sans-Serif" font-size="10.00">string.h</text>
</a>
</g>
</g>
<!-- Node12&#45;&gt;Node13 -->
<g id="edge25_Node000012_Node000013" class="edge">
<title>Node12&#45;&gt;Node13</title>
<g id="a_edge25_Node000012_Node000013"><a xlink:title=" ">
<path fill="none" stroke="#63b8ff" d="M485.46,-111.59C483.47,-104.86 480.7,-95.53 478.22,-87.15"/>
<polygon fill="#63b8ff" stroke="#63b8ff" points="481.63,-86.34 475.44,-77.75 474.92,-88.33 481.63,-86.34"/>
</a>
</g>
</g>
<!-- Node14&#45;&gt;Node3 -->
<g id="edge30_Node000014_Node000003" class="edge">
<title>Node14&#45;&gt;Node3</title>
<g id="a_edge30_Node000014_Node000003"><a xlink:title=" ">
<path fill="none" stroke="#63b8ff" d="M633.29,-223.6C630.61,-197.46 623.03,-123.48 619.33,-87.36"/>
<polygon fill="#63b8ff" stroke="#63b8ff" points="622.86,-87.39 618.36,-77.8 615.89,-88.11 622.86,-87.39"/>
</a>
</g>
</g>
<!-- Node14&#45;&gt;Node4 -->
<g id="edge29_Node000014_Node000004" class="edge">
<title>Node14&#45;&gt;Node4</title>
<g id="a_edge29_Node000014_Node000004"><a xlink:title=" ">
<path fill="none" stroke="#63b8ff" d="M667.26,-225.25C702.12,-216.51 754.1,-201.73 769.25,-188 813.9,-147.53 815.37,-114.34 800.25,-56 797.88,-46.84 793.19,-37.56 788.51,-29.83"/>
<polygon fill="#63b8ff" stroke="#63b8ff" points="791.58,-28.12 783.18,-21.66 785.72,-31.95 791.58,-28.12"/>
</a>
</g>
</g>
<!-- Node14&#45;&gt;Node7 -->
<g id="edge31_Node000014_Node000007" class="edge">
<title>Node14&#45;&gt;Node7</title>
<g id="a_edge31_Node000014_Node000007"><a xlink:title=" ">
<path fill="none" stroke="#63b8ff" d="M630.53,-223.77C617.98,-193.92 574.09,-99.39 505.25,-56 472.21,-35.17 362.95,-21.14 303.18,-14.82"/>
<polygon fill="#63b8ff" stroke="#63b8ff" points="303.73,-11.36 293.42,-13.82 303.01,-18.33 303.73,-11.36"/>
</a>
</g>
</g>
<!-- Node14&#45;&gt;Node11 -->
<g id="edge32_Node000014_Node000011" class="edge">
<title>Node14&#45;&gt;Node11</title>
<g id="a_edge32_Node000014_Node000011"><a xlink:title=" ">
<path fill="none" stroke="#63b8ff" d="M601.05,-225.43C557.59,-215.53 481.59,-198.22 435.69,-187.76"/>
<polygon fill="#63b8ff" stroke="#63b8ff" points="436.71,-184.4 426.18,-185.59 435.15,-191.23 436.71,-184.4"/>
</a>
</g>
</g>
<!-- Node15 -->
<g id="Node000015" class="node">
<title>Node15</title>
<g id="a_Node000015"><a xlink:href="resize__region_8h.html" target="_top" xlink:title=" ">
<polygon fill="white" stroke="#666666" points="944.25,-132 862.25,-132 862.25,-112 944.25,-112 944.25,-132"/>
<text xml:space="preserve" text-anchor="middle" x="903.25" y="-118.5" font-family="Helvetica,sans-Serif" font-size="10.00">resize_region.h</text>
</a>
</g>
</g>
<!-- Node14&#45;&gt;Node15 -->
<g id="edge33_Node000014_Node000015" class="edge">
<title>Node14&#45;&gt;Node15</title>
<g id="a_edge33_Node000014_Node000015"><a xlink:title=" ">
<path fill="none" stroke="#63b8ff" d="M667.45,-232.58C711.69,-230.62 791.03,-222.14 848.25,-188 867.05,-176.79 882.5,-156.8 892.19,-141.94"/>
<polygon fill="#63b8ff" stroke="#63b8ff" points="895.12,-143.86 897.39,-133.51 889.16,-140.18 895.12,-143.86"/>
</a>
</g>
</g>
<!-- Node16 -->
<g id="Node000016" class="node">
<title>Node16</title>
<g id="a_Node000016"><a xlink:href="render_8h.html" target="_top" xlink:title=" ">
<polygon fill="white" stroke="#666666" points="759.88,-188 678.62,-188 678.62,-168 759.88,-168 759.88,-188"/>
<text xml:space="preserve" text-anchor="middle" x="719.25" y="-174.5" font-family="Helvetica,sans-Serif" font-size="10.00">render/render.h</text>
</a>
</g>
</g>
<!-- Node14&#45;&gt;Node16 -->
<g id="edge35_Node000014_Node000016" class="edge">
<title>Node14&#45;&gt;Node16</title>
<g id="a_edge35_Node000014_Node000016"><a xlink:title=" ">
<path fill="none" stroke="#63b8ff" d="M649.06,-223.59C661.65,-215.59 680,-203.93 694.78,-194.54"/>
<polygon fill="#63b8ff" stroke="#63b8ff" points="696.49,-197.61 703.05,-189.29 692.73,-191.7 696.49,-197.61"/>
</a>
</g>
</g>
<!-- Node15&#45;&gt;Node4 -->
<g id="edge34_Node000015_Node000004" class="edge">
<title>Node15&#45;&gt;Node4</title>
<g id="a_edge34_Node000015_Node000004"><a xlink:title=" ">
<path fill="none" stroke="#63b8ff" d="M896.92,-111.8C887.42,-98.44 868.42,-73.35 848.25,-56 834.72,-44.36 817.85,-33.75 803.74,-25.76"/>
<polygon fill="#63b8ff" stroke="#63b8ff" points="805.81,-22.91 795.36,-21.16 802.44,-29.04 805.81,-22.91"/>
</a>
</g>
</g>
<!-- Node16&#45;&gt;Node2 -->
<g id="edge37_Node000016_Node000002" class="edge">
<title>Node16&#45;&gt;Node2</title>
<g id="a_edge37_Node000016_Node000002"><a xlink:title=" ">
<path fill="none" stroke="#63b8ff" d="M713.48,-167.8C707.89,-158.77 699.24,-144.58 692.25,-132 673.81,-98.82 682.52,-80.18 653.25,-56 619.63,-28.23 569.55,-17.59 535.7,-13.52"/>
<polygon fill="#63b8ff" stroke="#63b8ff" points="536.28,-10.06 525.96,-12.5 535.54,-17.03 536.28,-10.06"/>
</a>
</g>
</g>
<!-- Node16&#45;&gt;Node4 -->
<g id="edge36_Node000016_Node000004" class="edge">
<title>Node16&#45;&gt;Node4</title>
<g id="a_edge36_Node000016_Node000004"><a xlink:title=" ">
<path fill="none" stroke="#63b8ff" d="M739.35,-167.52C752.79,-159.98 769.4,-148.02 777.25,-132 793.06,-99.72 786.85,-56.54 780.98,-31.45"/>
<polygon fill="#63b8ff" stroke="#63b8ff" points="784.4,-30.7 778.53,-21.89 777.62,-32.44 784.4,-30.7"/>
</a>
</g>
</g>
<!-- Node17 -->
<g id="Node000017" class="node">
<title>Node17</title>
<g id="a_Node000017"><a xlink:href="command_8h.html" target="_top" xlink:title=" ">
<polygon fill="white" stroke="#666666" points="767.75,-132 700.75,-132 700.75,-112 767.75,-112 767.75,-132"/>
<text xml:space="preserve" text-anchor="middle" x="734.25" y="-118.5" font-family="Helvetica,sans-Serif" font-size="10.00">command.h</text>
</a>
</g>
</g>
<!-- Node16&#45;&gt;Node17 -->
<g id="edge38_Node000016_Node000017" class="edge">
<title>Node16&#45;&gt;Node17</title>
<g id="a_edge38_Node000016_Node000017"><a xlink:title=" ">
<path fill="none" stroke="#63b8ff" d="M721.86,-167.59C723.73,-160.86 726.32,-151.53 728.65,-143.15"/>
<polygon fill="#63b8ff" stroke="#63b8ff" points="731.96,-144.33 731.26,-133.76 725.21,-142.46 731.96,-144.33"/>
</a>
</g>
</g>
<!-- Node17&#45;&gt;Node2 -->
<g id="edge40_Node000017_Node000002" class="edge">
<title>Node17&#45;&gt;Node2</title>
<g id="a_edge40_Node000017_Node000002"><a xlink:title=" ">
<path fill="none" stroke="#63b8ff" d="M730.1,-111.85C723.15,-97.6 707.76,-70.26 686.25,-56 640.25,-25.5 575.69,-15.63 535.72,-12.46"/>
<polygon fill="#63b8ff" stroke="#63b8ff" points="536.12,-8.98 525.91,-11.79 535.64,-15.96 536.12,-8.98"/>
</a>
</g>
</g>
<!-- Node17&#45;&gt;Node3 -->
<g id="edge41_Node000017_Node000003" class="edge">
<title>Node17&#45;&gt;Node3</title>
<g id="a_edge41_Node000017_Node000003"><a xlink:title=" ">
<path fill="none" stroke="#63b8ff" d="M713.87,-111.59C695.69,-103.21 668.82,-90.8 648.03,-81.21"/>
<polygon fill="#63b8ff" stroke="#63b8ff" points="649.71,-78.13 639.16,-77.11 646.78,-84.48 649.71,-78.13"/>
</a>
</g>
</g>
<!-- Node17&#45;&gt;Node4 -->
<g id="edge39_Node000017_Node000004" class="edge">
<title>Node17&#45;&gt;Node4</title>
<g id="a_edge39_Node000017_Node000004"><a xlink:title=" ">
<path fill="none" stroke="#63b8ff" d="M737.75,-111.62C744.37,-93.84 758.89,-54.88 767.8,-31"/>
<polygon fill="#63b8ff" stroke="#63b8ff" points="771.02,-32.37 771.23,-21.77 764.46,-29.92 771.02,-32.37"/>
</a>
</g>
</g>
</g>
</svg>
