<?xml version="1.0" encoding="UTF-8" standalone="no"?>
<!DOCTYPE svg PUBLIC "-//W3C//DTD SVG 1.1//EN"
 "http://www.w3.org/Graphics/SVG/1.1/DTD/svg11.dtd">
<!-- Generated by graphviz version 14.1.5 (20260411.2331)
 -->
<!-- Title: C:/Users/lucca/Documents/Lucca/Projects/C/yuime/include/yuime/math/rect.h Pages: 1 -->
<svg width="762pt" height="452pt"
 viewBox="0.00 0.00 762.00 452.00" xmlns="http://www.w3.org/2000/svg" xmlns:xlink="http://www.w3.org/1999/xlink">
<g id="graph0" class="graph" transform="scale(1 1) rotate(0) translate(4 448)">
<title>C:/Users/lucca/Documents/Lucca/Projects/C/yuime/include/yuime/math/rect.h</title>
<!-- Node1 -->
<g id="Node000001" class="node">
<title>Node1</title>
<g id="a_Node000001"><a xlink:title=" ">
<polygon fill="#999999" stroke="#666666" points="480.9,-444 345.65,-444 345.65,-400 480.9,-400 480.9,-444"/>
<text xml:space="preserve" text-anchor="start" x="353.65" y="-430.5" font-family="Helvetica,sans-Serif" font-size="10.00">C:/Users/lucca/Documents</text>
<text xml:space="preserve" text-anchor="start" x="353.65" y="-418.5" font-family="Helvetica,sans-Serif" font-size="10.00">/Lucca/Projects/C/yuime</text>
<text xml:space="preserve" text-anchor="middle" x="413.28" y="-406.5" font-family="Helvetica,sans-Serif" font-size="10.00">/include/yuime/math/rect.h</text>
</a>
</g>
</g>
<!-- Node2 -->
<g id="Node000002" class="node">
<title>Node2</title>
<g id="a_Node000002"><a xlink:href="geometry_8h.html" target="_top" xlink:title=" ">
<polygon fill="white" stroke="#666666" points="595.65,-364 440.9,-364 440.9,-320 595.65,-320 595.65,-364"/>
<text xml:space="preserve" text-anchor="start" x="448.9" y="-350.5" font-family="Helvetica,sans-Serif" font-size="10.00">C:/Users/lucca/Documents</text>
<text xml:space="preserve" text-anchor="start" x="448.9" y="-338.5" font-family="Helvetica,sans-Serif" font-size="10.00">/Lucca/Projects/C/yuime</text>
<text xml:space="preserve" text-anchor="middle" x="518.28" y="-326.5" font-family="Helvetica,sans-Serif" font-size="10.00">/include/yuime/math/geometry.h</text>
</a>
</g>
</g>
<!-- Node1&#45;&gt;Node2 -->
<g id="edge1_Node000001_Node000002" class="edge">
<title>Node1&#45;&gt;Node2</title>
<g id="a_edge1_Node000001_Node000002"><a xlink:title=" ">
<path fill="none" stroke="#63b8ff" d="M450.97,-393C463.7,-383.54 477.7,-373.14 489.62,-364.29"/>
<polygon fill="#63b8ff" stroke="#63b8ff" points="449.13,-390.01 443.18,-398.78 453.3,-395.63 449.13,-390.01"/>
</a>
</g>
</g>
<!-- Node3 -->
<g id="Node000003" class="node">
<title>Node3</title>
<g id="a_Node000003"><a xlink:href="node_8h.html" target="_top" xlink:title=" ">
<polygon fill="white" stroke="#666666" points="384.9,-284 249.65,-284 249.65,-240 384.9,-240 384.9,-284"/>
<text xml:space="preserve" text-anchor="start" x="257.65" y="-270.5" font-family="Helvetica,sans-Serif" font-size="10.00">C:/Users/lucca/Documents</text>
<text xml:space="preserve" text-anchor="start" x="257.65" y="-258.5" font-family="Helvetica,sans-Serif" font-size="10.00">/Lucca/Projects/C/yuime</text>
<text xml:space="preserve" text-anchor="middle" x="317.28" y="-246.5" font-family="Helvetica,sans-Serif" font-size="10.00">/include/yuime/node.h</text>
</a>
</g>
</g>
<!-- Node1&#45;&gt;Node3 -->
<g id="edge16_Node000001_Node000003" class="edge">
<title>Node1&#45;&gt;Node3</title>
<g id="a_edge16_Node000001_Node000003"><a xlink:title=" ">
<path fill="none" stroke="#63b8ff" d="M394.56,-390.2C375.65,-359.06 346.91,-311.77 330.33,-284.48"/>
<polygon fill="#63b8ff" stroke="#63b8ff" points="391.36,-391.67 399.55,-398.4 397.34,-388.03 391.36,-391.67"/>
</a>
</g>
</g>
<!-- Node6 -->
<g id="Node000006" class="node">
<title>Node6</title>
<g id="a_Node000006"><a xlink:href="yuime_8h.html" target="_top" xlink:title=" ">
<polygon fill="white" stroke="#666666" points="374.9,-44 239.65,-44 239.65,0 374.9,0 374.9,-44"/>
<text xml:space="preserve" text-anchor="start" x="247.65" y="-30.5" font-family="Helvetica,sans-Serif" font-size="10.00">C:/Users/lucca/Documents</text>
<text xml:space="preserve" text-anchor="start" x="247.65" y="-18.5" font-family="Helvetica,sans-Serif" font-size="10.00">/Lucca/Projects/C/yuime</text>
<text xml:space="preserve" text-anchor="middle" x="307.28" y="-6.5" font-family="Helvetica,sans-Serif" font-size="10.00">/include/yuime/yuime.h</text>
</a>
</g>
</g>
<!-- Node1&#45;&gt;Node6 -->
<g id="edge20_Node000001_Node000006" class="edge">
<title>Node1&#45;&gt;Node6</title>
<g id="a_edge20_Node000001_Node000006"><a xlink:title=" ">
<path fill="none" stroke="#63b8ff" d="M334.35,-407.21C215.23,-384.13 3.28,-333.2 3.28,-263 3.28,-263 3.28,-263 3.28,-181 3.28,-135.32 -9.83,-112.48 22.28,-80 51.99,-49.95 164.83,-34.82 239.3,-27.95"/>
<polygon fill="#63b8ff" stroke="#63b8ff" points="333.61,-410.64 344.09,-409.08 334.92,-403.76 333.61,-410.64"/>
</a>
</g>
</g>
<!-- Node8 -->
<g id="Node000008" class="node">
<title>Node8</title>
<g id="a_Node000008"><a xlink:href="panel_8h.html" target="_top" xlink:title=" ">
<polygon fill="white" stroke="#666666" points="537.78,-124 392.78,-124 392.78,-80 537.78,-80 537.78,-124"/>
<text xml:space="preserve" text-anchor="start" x="400.78" y="-110.5" font-family="Helvetica,sans-Serif" font-size="10.00">C:/Users/lucca/Documents</text>
<text xml:space="preserve" text-anchor="start" x="400.78" y="-98.5" font-family="Helvetica,sans-Serif" font-size="10.00">/Lucca/Projects/C/yuime</text>
<text xml:space="preserve" text-anchor="middle" x="465.28" y="-86.5" font-family="Helvetica,sans-Serif" font-size="10.00">/include/yuime/widget/panel.h</text>
</a>
</g>
</g>
<!-- Node1&#45;&gt;Node8 -->
<g id="edge19_Node000001_Node000008" class="edge">
<title>Node1&#45;&gt;Node8</title>
<g id="a_edge19_Node000001_Node000008"><a xlink:title=" ">
<path fill="none" stroke="#63b8ff" d="M418.6,-388.45C429.25,-323.35 452.9,-178.7 461.8,-124.27"/>
<polygon fill="#63b8ff" stroke="#63b8ff" points="415.17,-387.71 417.02,-398.15 422.08,-388.84 415.17,-387.71"/>
</a>
</g>
</g>
<!-- Node9 -->
<g id="Node000009" class="node">
<title>Node9</title>
<g id="a_Node000009"><a xlink:href="rectangle_8h.html" target="_top" xlink:title=" ">
<polygon fill="white" stroke="#666666" points="754.28,-284 594.28,-284 594.28,-240 754.28,-240 754.28,-284"/>
<text xml:space="preserve" text-anchor="start" x="602.28" y="-270.5" font-family="Helvetica,sans-Serif" font-size="10.00">C:/Users/lucca/Documents</text>
<text xml:space="preserve" text-anchor="start" x="602.28" y="-258.5" font-family="Helvetica,sans-Serif" font-size="10.00">/Lucca/Projects/C/yuime</text>
<text xml:space="preserve" text-anchor="middle" x="674.28" y="-246.5" font-family="Helvetica,sans-Serif" font-size="10.00">/include/yuime/render/rectangle.h</text>
</a>
</g>
</g>
<!-- Node1&#45;&gt;Node9 -->
<g id="edge17_Node000001_Node000009" class="edge">
<title>Node1&#45;&gt;Node9</title>
<g id="a_edge17_Node000001_Node000009"><a xlink:title=" ">
<path fill="none" stroke="#63b8ff" d="M492.16,-409.84C528.86,-401.69 571.53,-387.75 604.28,-364 632.78,-343.34 653.62,-307.35 664.83,-284.38"/>
<polygon fill="#63b8ff" stroke="#63b8ff" points="491.53,-406.39 482.46,-411.87 492.96,-413.24 491.53,-406.39"/>
</a>
</g>
</g>
<!-- Node2&#45;&gt;Node3 -->
<g id="edge2_Node000002_Node000003" class="edge">
<title>Node2&#45;&gt;Node3</title>
<g id="a_edge2_Node000002_Node000003"><a xlink:title=" ">
<path fill="none" stroke="#63b8ff" d="M452.58,-315.51C426.63,-305.44 397.15,-294 372.35,-284.37"/>
<polygon fill="#63b8ff" stroke="#63b8ff" points="451.09,-318.68 461.68,-319.04 453.62,-312.15 451.09,-318.68"/>
</a>
</g>
</g>
<!-- Node2&#45;&gt;Node6 -->
<g id="edge15_Node000002_Node000006" class="edge">
<title>Node2&#45;&gt;Node6</title>
<g id="a_edge15_Node000002_Node000006"><a xlink:title=" ">
<path fill="none" stroke="#63b8ff" d="M534.75,-309.41C560.05,-255.99 600.3,-147.09 547.28,-80 526.13,-53.25 438.42,-37.72 375.15,-29.81"/>
<polygon fill="#63b8ff" stroke="#63b8ff" points="531.67,-307.75 530.43,-318.27 537.96,-310.81 531.67,-307.75"/>
</a>
</g>
</g>
<!-- Node2&#45;&gt;Node8 -->
<g id="edge14_Node000002_Node000008" class="edge">
<title>Node2&#45;&gt;Node8</title>
<g id="a_edge14_Node000002_Node000008"><a xlink:title=" ">
<path fill="none" stroke="#63b8ff" d="M511.13,-308.9C500.14,-259.56 479.39,-166.36 470.05,-124.42"/>
<polygon fill="#63b8ff" stroke="#63b8ff" points="507.66,-309.4 513.25,-318.4 514.49,-307.88 507.66,-309.4"/>
</a>
</g>
</g>
<!-- Node4 -->
<g id="Node000004" class="node">
<title>Node4</title>
<g id="a_Node000004"><a xlink:href="context_8h.html" target="_top" xlink:title=" ">
<polygon fill="white" stroke="#666666" points="288.9,-204 153.65,-204 153.65,-160 288.9,-160 288.9,-204"/>
<text xml:space="preserve" text-anchor="start" x="161.65" y="-190.5" font-family="Helvetica,sans-Serif" font-size="10.00">C:/Users/lucca/Documents</text>
<text xml:space="preserve" text-anchor="start" x="161.65" y="-178.5" font-family="Helvetica,sans-Serif" font-size="10.00">/Lucca/Projects/C/yuime</text>
<text xml:space="preserve" text-anchor="middle" x="221.28" y="-166.5" font-family="Helvetica,sans-Serif" font-size="10.00">/include/yuime/context.h</text>
</a>
</g>
</g>
<!-- Node3&#45;&gt;Node4 -->
<g id="edge3_Node000003_Node000004" class="edge">
<title>Node3&#45;&gt;Node4</title>
<g id="a_edge3_Node000003_Node000004"><a xlink:title=" ">
<path fill="none" stroke="#63b8ff" d="M282.14,-232.45C270.68,-223.14 258.16,-212.97 247.48,-204.29"/>
<polygon fill="#63b8ff" stroke="#63b8ff" points="279.9,-235.14 289.87,-238.73 284.32,-229.71 279.9,-235.14"/>
</a>
</g>
</g>
<!-- Node5 -->
<g id="Node000005" class="node">
<title>Node5</title>
<g id="a_Node000005"><a xlink:href="events_8h.html" target="_top" xlink:title=" ">
<polygon fill="white" stroke="#666666" points="374.9,-124 239.65,-124 239.65,-80 374.9,-80 374.9,-124"/>
<text xml:space="preserve" text-anchor="start" x="247.65" y="-110.5" font-family="Helvetica,sans-Serif" font-size="10.00">C:/Users/lucca/Documents</text>
<text xml:space="preserve" text-anchor="start" x="247.65" y="-98.5" font-family="Helvetica,sans-Serif" font-size="10.00">/Lucca/Projects/C/yuime</text>
<text xml:space="preserve" text-anchor="middle" x="307.28" y="-86.5" font-family="Helvetica,sans-Serif" font-size="10.00">/include/yuime/events.h</text>
</a>
</g>
</g>
<!-- Node3&#45;&gt;Node5 -->
<g id="edge11_Node000003_Node000005" class="edge">
<title>Node3&#45;&gt;Node5</title>
<g id="a_edge11_Node000003_Node000005"><a xlink:title=" ">
<path fill="none" stroke="#63b8ff" d="M315.23,-228.57C313.25,-197.43 310.33,-151.3 308.64,-124.48"/>
<polygon fill="#63b8ff" stroke="#63b8ff" points="311.71,-228.42 315.83,-238.18 318.7,-227.98 311.71,-228.42"/>
</a>
</g>
</g>
<!-- Node7 -->
<g id="Node000007" class="node">
<title>Node7</title>
<g id="a_Node000007"><a xlink:href="widget_2events_8h.html" target="_top" xlink:title=" ">
<polygon fill="white" stroke="#666666" points="182.78,-124 31.78,-124 31.78,-80 182.78,-80 182.78,-124"/>
<text xml:space="preserve" text-anchor="start" x="39.78" y="-110.5" font-family="Helvetica,sans-Serif" font-size="10.00">C:/Users/lucca/Documents</text>
<text xml:space="preserve" text-anchor="start" x="39.78" y="-98.5" font-family="Helvetica,sans-Serif" font-size="10.00">/Lucca/Projects/C/yuime</text>
<text xml:space="preserve" text-anchor="middle" x="107.28" y="-86.5" font-family="Helvetica,sans-Serif" font-size="10.00">/include/yuime/widget/events.h</text>
</a>
</g>
</g>
<!-- Node3&#45;&gt;Node7 -->
<g id="edge12_Node000003_Node000007" class="edge">
<title>Node3&#45;&gt;Node7</title>
<g id="a_edge12_Node000003_Node000007"><a xlink:title=" ">
<path fill="none" stroke="#63b8ff" d="M238.28,-250.44C205.64,-242.47 169.6,-228.5 144.28,-204 122.14,-182.57 113.17,-146.81 109.59,-124.09"/>
<polygon fill="#63b8ff" stroke="#63b8ff" points="237.2,-253.78 247.72,-252.58 238.75,-246.95 237.2,-253.78"/>
</a>
</g>
</g>
<!-- Node3&#45;&gt;Node8 -->
<g id="edge13_Node000003_Node000008" class="edge">
<title>Node3&#45;&gt;Node8</title>
<g id="a_edge13_Node000003_Node000008"><a xlink:title=" ">
<path fill="none" stroke="#63b8ff" d="M339.69,-230.61C355.48,-209.93 377.59,-182.35 399.28,-160 411.4,-147.5 425.95,-134.73 438.3,-124.45"/>
<polygon fill="#63b8ff" stroke="#63b8ff" points="337.06,-228.29 333.82,-238.38 342.64,-232.52 337.06,-228.29"/>
</a>
</g>
</g>
<!-- Node4&#45;&gt;Node5 -->
<g id="edge4_Node000004_Node000005" class="edge">
<title>Node4&#45;&gt;Node5</title>
<g id="a_edge4_Node000004_Node000005"><a xlink:title=" ">
<path fill="none" stroke="#63b8ff" d="M253.06,-152.17C263.25,-142.94 274.33,-132.88 283.81,-124.29"/>
<polygon fill="#63b8ff" stroke="#63b8ff" points="250.95,-149.36 245.9,-158.67 255.66,-154.54 250.95,-149.36"/>
</a>
</g>
</g>
<!-- Node4&#45;&gt;Node6 -->
<g id="edge10_Node000004_Node000006" class="edge">
<title>Node4&#45;&gt;Node6</title>
<g id="a_edge10_Node000004_Node000006"><a xlink:title=" ">
<path fill="none" stroke="#63b8ff" d="M217.61,-148.34C216.8,-127.52 218.69,-100.66 230.28,-80 238.5,-65.35 252.22,-53.39 265.82,-44.27"/>
<polygon fill="#63b8ff" stroke="#63b8ff" points="214.12,-148.54 218.25,-158.3 221.1,-148.09 214.12,-148.54"/>
</a>
</g>
</g>
<!-- Node4&#45;&gt;Node7 -->
<g id="edge6_Node000004_Node000007" class="edge">
<title>Node4&#45;&gt;Node7</title>
<g id="a_edge6_Node000004_Node000007"><a xlink:title=" ">
<path fill="none" stroke="#63b8ff" d="M180.76,-153.28C166.83,-143.74 151.46,-133.23 138.39,-124.29"/>
<polygon fill="#63b8ff" stroke="#63b8ff" points="178.65,-156.07 188.88,-158.83 182.6,-150.3 178.65,-156.07"/>
</a>
</g>
</g>
<!-- Node4&#45;&gt;Node8 -->
<g id="edge8_Node000004_Node000008" class="edge">
<title>Node4&#45;&gt;Node8</title>
<g id="a_edge8_Node000004_Node000008"><a xlink:title=" ">
<path fill="none" stroke="#63b8ff" d="M298.93,-156.18C330.93,-145.95 367.65,-134.21 398.43,-124.37"/>
<polygon fill="#63b8ff" stroke="#63b8ff" points="298.18,-152.74 289.72,-159.12 300.31,-159.41 298.18,-152.74"/>
</a>
</g>
</g>
<!-- Node5&#45;&gt;Node6 -->
<g id="edge5_Node000005_Node000006" class="edge">
<title>Node5&#45;&gt;Node6</title>
<g id="a_edge5_Node000005_Node000006"><a xlink:title=" ">
<path fill="none" stroke="#63b8ff" d="M307.28,-68.25C307.28,-60.15 307.28,-51.68 307.28,-44.29"/>
<polygon fill="#63b8ff" stroke="#63b8ff" points="303.78,-68.17 307.28,-78.17 310.78,-68.17 303.78,-68.17"/>
</a>
</g>
</g>
<!-- Node7&#45;&gt;Node6 -->
<g id="edge7_Node000007_Node000006" class="edge">
<title>Node7&#45;&gt;Node6</title>
<g id="a_edge7_Node000007_Node000006"><a xlink:title=" ">
<path fill="none" stroke="#63b8ff" d="M172.64,-75.51C198.47,-65.44 227.8,-54 252.49,-44.37"/>
<polygon fill="#63b8ff" stroke="#63b8ff" points="171.65,-72.14 163.6,-79.03 174.19,-78.66 171.65,-72.14"/>
</a>
</g>
</g>
<!-- Node8&#45;&gt;Node6 -->
<g id="edge9_Node000008_Node000006" class="edge">
<title>Node8&#45;&gt;Node6</title>
<g id="a_edge9_Node000008_Node000006"><a xlink:title=" ">
<path fill="none" stroke="#63b8ff" d="M411.93,-74.66C391.99,-64.82 369.61,-53.77 350.67,-44.42"/>
<polygon fill="#63b8ff" stroke="#63b8ff" points="410.23,-77.73 420.75,-79.02 413.33,-71.45 410.23,-77.73"/>
</a>
</g>
</g>
<!-- Node9&#45;&gt;Node6 -->
<g id="edge18_Node000009_Node000006" class="edge">
<title>Node9&#45;&gt;Node6</title>
<g id="a_edge18_Node000009_Node000006"><a xlink:title=" ">
<path fill="none" stroke="#63b8ff" d="M666.59,-228.47C655.08,-187.27 629.3,-117.18 580.28,-80 548.59,-55.97 445.19,-39.31 375.13,-30.46"/>
<polygon fill="#63b8ff" stroke="#63b8ff" points="663.18,-229.29 669.13,-238.06 669.95,-227.49 663.18,-229.29"/>
</a>
</g>
</g>
</g>
</svg>
