<?xml version="1.0" encoding="UTF-8" standalone="no"?>
<!DOCTYPE svg PUBLIC "-//W3C//DTD SVG 1.1//EN"
 "http://www.w3.org/Graphics/SVG/1.1/DTD/svg11.dtd">
<!-- Generated by graphviz version 14.1.5 (20260411.2331)
 -->
<!-- Title: C:/Users/lucca/Documents/Lucca/Projects/C/yuime/include/yuime/render/rectangle.h Pages: 1 -->
<svg width="222pt" height="220pt"
 viewBox="0.00 0.00 222.00 220.00" xmlns="http://www.w3.org/2000/svg" xmlns:xlink="http://www.w3.org/1999/xlink">
<g id="graph0" class="graph" transform="scale(1 1) rotate(0) translate(4 216)">
<title>C:/Users/lucca/Documents/Lucca/Projects/C/yuime/include/yuime/render/rectangle.h</title>
<!-- Node1 -->
<g id="Node000001" class="node">
<title>Node1</title>
<g id="a_Node000001"><a xlink:title=" ">
<polygon fill="#999999" stroke="#666666" points="182.25,-212 22.25,-212 22.25,-168 182.25,-168 182.25,-212"/>
<text xml:space="preserve" text-anchor="start" x="30.25" y="-198.5" font-family="Helvetica,sans-Serif" font-size="10.00">C:/Users/lucca/Documents</text>
<text xml:space="preserve" text-anchor="start" x="30.25" y="-186.5" font-family="Helvetica,sans-Serif" font-size="10.00">/Lucca/Projects/C/yuime</text>
<text xml:space="preserve" text-anchor="middle" x="102.25" y="-174.5" font-family="Helvetica,sans-Serif" font-size="10.00">/include/yuime/render/rectangle.h</text>
</a>
</g>
</g>
<!-- Node2 -->
<g id="Node000002" class="node">
<title>Node2</title>
<g id="a_Node000002"><a xlink:href="rect_8h.html" target="_top" xlink:title=" ">
<polygon fill="white" stroke="#666666" points="74.5,-132 0,-132 0,-112 74.5,-112 74.5,-132"/>
<text xml:space="preserve" text-anchor="middle" x="37.25" y="-118.5" font-family="Helvetica,sans-Serif" font-size="10.00">../math/rect.h</text>
</a>
</g>
</g>
<!-- Node1&#45;&gt;Node2 -->
<g id="edge1_Node000001_Node000002" class="edge">
<title>Node1&#45;&gt;Node2</title>
<g id="a_edge1_Node000001_Node000002"><a xlink:title=" ">
<path fill="none" stroke="#63b8ff" d="M81.33,-167.75C72.62,-158.92 62.64,-148.78 54.38,-140.4"/>
<polygon fill="#63b8ff" stroke="#63b8ff" points="57.1,-138.17 47.59,-133.5 52.11,-143.08 57.1,-138.17"/>
</a>
</g>
</g>
<!-- Node3 -->
<g id="Node000003" class="node">
<title>Node3</title>
<g id="a_Node000003"><a xlink:href="color_8h.html" target="_top" xlink:title=" ">
<polygon fill="white" stroke="#666666" points="176.38,-76 98.12,-76 98.12,-56 176.38,-56 176.38,-76"/>
<text xml:space="preserve" text-anchor="middle" x="137.25" y="-62.5" font-family="Helvetica,sans-Serif" font-size="10.00">../style/color.h</text>
</a>
</g>
</g>
<!-- Node1&#45;&gt;Node3 -->
<g id="edge2_Node000001_Node000003" class="edge">
<title>Node1&#45;&gt;Node3</title>
<g id="a_edge2_Node000001_Node000003"><a xlink:title=" ">
<path fill="none" stroke="#63b8ff" d="M106.93,-167.6C110.47,-152.06 115.67,-130.59 121.25,-112 123.75,-103.67 126.89,-94.61 129.72,-86.81"/>
<polygon fill="#63b8ff" stroke="#63b8ff" points="132.93,-88.23 133.14,-77.64 126.37,-85.79 132.93,-88.23"/>
</a>
</g>
</g>
<!-- Node5 -->
<g id="Node000005" class="node">
<title>Node5</title>
<g id="a_Node000005"><a xlink:href="border_8h.html" target="_top" xlink:title=" ">
<polygon fill="white" stroke="#666666" points="214.38,-132 130.12,-132 130.12,-112 214.38,-112 214.38,-132"/>
<text xml:space="preserve" text-anchor="middle" x="172.25" y="-118.5" font-family="Helvetica,sans-Serif" font-size="10.00">../style/border.h</text>
</a>
</g>
</g>
<!-- Node1&#45;&gt;Node5 -->
<g id="edge4_Node000001_Node000005" class="edge">
<title>Node1&#45;&gt;Node5</title>
<g id="a_edge4_Node000001_Node000005"><a xlink:title=" ">
<path fill="none" stroke="#63b8ff" d="M124.78,-167.75C134.26,-158.82 145.13,-148.57 154.08,-140.13"/>
<polygon fill="#63b8ff" stroke="#63b8ff" points="156.28,-142.86 161.16,-133.46 151.48,-137.77 156.28,-142.86"/>
</a>
</g>
</g>
<!-- Node4 -->
<g id="Node000004" class="node">
<title>Node4</title>
<g id="a_Node000004"><a xlink:title=" ">
<polygon fill="#e0e0e0" stroke="#999999" points="161.38,-20 113.12,-20 113.12,0 161.38,0 161.38,-20"/>
<text xml:space="preserve" text-anchor="middle" x="137.25" y="-6.5" font-family="Helvetica,sans-Serif" font-size="10.00">stdint.h</text>
</a>
</g>
</g>
<!-- Node3&#45;&gt;Node4 -->
<g id="edge3_Node000003_Node000004" class="edge">
<title>Node3&#45;&gt;Node4</title>
<g id="a_edge3_Node000003_Node000004"><a xlink:title=" ">
<path fill="none" stroke="#63b8ff" d="M137.25,-55.59C137.25,-49.01 137.25,-39.96 137.25,-31.73"/>
<polygon fill="#63b8ff" stroke="#63b8ff" points="140.75,-31.81 137.25,-21.81 133.75,-31.81 140.75,-31.81"/>
</a>
</g>
</g>
<!-- Node5&#45;&gt;Node3 -->
<g id="edge5_Node000005_Node000003" class="edge">
<title>Node5&#45;&gt;Node3</title>
<g id="a_edge5_Node000005_Node000003"><a xlink:title=" ">
<path fill="none" stroke="#63b8ff" d="M166.15,-111.59C161.54,-104.47 155.04,-94.45 149.38,-85.72"/>
<polygon fill="#63b8ff" stroke="#63b8ff" points="152.48,-84.06 144.1,-77.57 146.6,-87.86 152.48,-84.06"/>
</a>
</g>
</g>
</g>
</svg>
