<?xml version="1.0" encoding="UTF-8" standalone="no"?>
<!DOCTYPE svg PUBLIC "-//W3C//DTD SVG 1.1//EN"
 "http://www.w3.org/Graphics/SVG/1.1/DTD/svg11.dtd">
<!-- Generated by graphviz version 14.1.5 (20260411.2331)
 -->
<!-- Title: C:/Users/lucca/Documents/Lucca/Projects/C/yuime/include/yuime/render/render.h Pages: 1 -->
<svg width="167pt" height="220pt"
 viewBox="0.00 0.00 167.00 220.00" xmlns="http://www.w3.org/2000/svg" xmlns:xlink="http://www.w3.org/1999/xlink">
<g id="graph0" class="graph" transform="scale(1 1) rotate(0) translate(4 216)">
<title>C:/Users/lucca/Documents/Lucca/Projects/C/yuime/include/yuime/render/render.h</title>
<!-- Node1 -->
<g id="Node000001" class="node">
<title>Node1</title>
<g id="a_Node000001"><a xlink:title=" ">
<polygon fill="#999999" stroke="#666666" points="153.5,-212 6.25,-212 6.25,-168 153.5,-168 153.5,-212"/>
<text xml:space="preserve" text-anchor="start" x="14.25" y="-198.5" font-family="Helvetica,sans-Serif" font-size="10.00">C:/Users/lucca/Documents</text>
<text xml:space="preserve" text-anchor="start" x="14.25" y="-186.5" font-family="Helvetica,sans-Serif" font-size="10.00">/Lucca/Projects/C/yuime</text>
<text xml:space="preserve" text-anchor="middle" x="79.88" y="-174.5" font-family="Helvetica,sans-Serif" font-size="10.00">/include/yuime/render/render.h</text>
</a>
</g>
</g>
<!-- Node2 -->
<g id="Node000002" class="node">
<title>Node2</title>
<g id="a_Node000002"><a xlink:title=" ">
<polygon fill="#e0e0e0" stroke="#999999" points="159,-20 110.75,-20 110.75,0 159,0 159,-20"/>
<text xml:space="preserve" text-anchor="middle" x="134.88" y="-6.5" font-family="Helvetica,sans-Serif" font-size="10.00">stdint.h</text>
</a>
</g>
</g>
<!-- Node1&#45;&gt;Node2 -->
<g id="edge1_Node000001_Node000002" class="edge">
<title>Node1&#45;&gt;Node2</title>
<g id="a_edge1_Node000001_Node000002"><a xlink:title=" ">
<path fill="none" stroke="#63b8ff" d="M99.57,-167.75C107.95,-157.62 117.11,-144.9 122.88,-132 137.54,-99.17 138,-56.47 136.67,-31.56"/>
<polygon fill="#63b8ff" stroke="#63b8ff" points="140.18,-31.54 135.98,-21.81 133.2,-32.03 140.18,-31.54"/>
</a>
</g>
</g>
<!-- Node3 -->
<g id="Node000003" class="node">
<title>Node3</title>
<g id="a_Node000003"><a xlink:href="_a_p_i_8h.html" target="_top" xlink:title=" ">
<polygon fill="white" stroke="#666666" points="49.75,-20 0,-20 0,0 49.75,0 49.75,-20"/>
<text xml:space="preserve" text-anchor="middle" x="24.88" y="-6.5" font-family="Helvetica,sans-Serif" font-size="10.00">../API.h</text>
</a>
</g>
</g>
<!-- Node1&#45;&gt;Node3 -->
<g id="edge2_Node000001_Node000003" class="edge">
<title>Node1&#45;&gt;Node3</title>
<g id="a_edge2_Node000001_Node000003"><a xlink:title=" ">
<path fill="none" stroke="#63b8ff" d="M59.91,-167.63C51.68,-157.57 42.91,-144.94 37.88,-132 24.89,-98.63 23.4,-56.42 23.88,-31.69"/>
<polygon fill="#63b8ff" stroke="#63b8ff" points="27.36,-32.12 24.2,-22.01 20.37,-31.89 27.36,-32.12"/>
</a>
</g>
</g>
<!-- Node4 -->
<g id="Node000004" class="node">
<title>Node4</title>
<g id="a_Node000004"><a xlink:href="command_8h.html" target="_top" xlink:title=" ">
<polygon fill="white" stroke="#666666" points="113.38,-132 46.38,-132 46.38,-112 113.38,-112 113.38,-132"/>
<text xml:space="preserve" text-anchor="middle" x="79.88" y="-118.5" font-family="Helvetica,sans-Serif" font-size="10.00">command.h</text>
</a>
</g>
</g>
<!-- Node1&#45;&gt;Node4 -->
<g id="edge3_Node000001_Node000004" class="edge">
<title>Node1&#45;&gt;Node4</title>
<g id="a_edge3_Node000001_Node000004"><a xlink:title=" ">
<path fill="none" stroke="#63b8ff" d="M79.88,-167.75C79.88,-160.13 79.88,-151.53 79.88,-143.93"/>
<polygon fill="#63b8ff" stroke="#63b8ff" points="83.38,-143.93 79.88,-133.93 76.38,-143.93 83.38,-143.93"/>
</a>
</g>
</g>
<!-- Node4&#45;&gt;Node2 -->
<g id="edge4_Node000004_Node000002" class="edge">
<title>Node4&#45;&gt;Node2</title>
<g id="a_edge4_Node000004_Node000002"><a xlink:title=" ">
<path fill="none" stroke="#63b8ff" d="M89.08,-111.77C97.18,-103.18 108.77,-89.67 115.88,-76 123.19,-61.93 128.07,-44.64 131.05,-31.43"/>
<polygon fill="#63b8ff" stroke="#63b8ff" points="134.46,-32.24 133.04,-21.74 127.6,-30.83 134.46,-32.24"/>
</a>
</g>
</g>
<!-- Node4&#45;&gt;Node3 -->
<g id="edge5_Node000004_Node000003" class="edge">
<title>Node4&#45;&gt;Node3</title>
<g id="a_edge5_Node000004_Node000003"><a xlink:title=" ">
<path fill="none" stroke="#63b8ff" d="M70.67,-111.77C62.57,-103.18 50.98,-89.67 43.88,-76 36.56,-61.93 31.68,-44.64 28.7,-31.43"/>
<polygon fill="#63b8ff" stroke="#63b8ff" points="32.15,-30.83 26.71,-21.74 25.29,-32.24 32.15,-30.83"/>
</a>
</g>
</g>
<!-- Node5 -->
<g id="Node000005" class="node">
<title>Node5</title>
<g id="a_Node000005"><a xlink:href="alloc_8h.html" target="_top" xlink:title=" ">
<polygon fill="white" stroke="#666666" points="106.62,-76 53.12,-76 53.12,-56 106.62,-56 106.62,-76"/>
<text xml:space="preserve" text-anchor="middle" x="79.88" y="-62.5" font-family="Helvetica,sans-Serif" font-size="10.00">../alloc.h</text>
</a>
</g>
</g>
<!-- Node4&#45;&gt;Node5 -->
<g id="edge6_Node000004_Node000005" class="edge">
<title>Node4&#45;&gt;Node5</title>
<g id="a_edge6_Node000004_Node000005"><a xlink:title=" ">
<path fill="none" stroke="#63b8ff" d="M79.88,-111.59C79.88,-105.01 79.88,-95.96 79.88,-87.73"/>
<polygon fill="#63b8ff" stroke="#63b8ff" points="83.38,-87.81 79.88,-77.81 76.38,-87.81 83.38,-87.81"/>
</a>
</g>
</g>
<!-- Node5&#45;&gt;Node2 -->
<g id="edge7_Node000005_Node000002" class="edge">
<title>Node5&#45;&gt;Node2</title>
<g id="a_edge7_Node000005_Node000002"><a xlink:title=" ">
<path fill="none" stroke="#63b8ff" d="M89.46,-55.59C97.11,-48.08 108.03,-37.35 117.25,-28.3"/>
<polygon fill="#63b8ff" stroke="#63b8ff" points="119.64,-30.86 124.32,-21.36 114.74,-25.87 119.64,-30.86"/>
</a>
</g>
</g>
<!-- Node5&#45;&gt;Node3 -->
<g id="edge8_Node000005_Node000003" class="edge">
<title>Node5&#45;&gt;Node3</title>
<g id="a_edge8_Node000005_Node000003"><a xlink:title=" ">
<path fill="none" stroke="#63b8ff" d="M70.29,-55.59C62.64,-48.08 51.72,-37.35 42.5,-28.3"/>
<polygon fill="#63b8ff" stroke="#63b8ff" points="45.01,-25.87 35.43,-21.36 40.11,-30.86 45.01,-25.87"/>
</a>
</g>
</g>
</g>
</svg>
