<?xml version="1.0" encoding="UTF-8" standalone="no"?>
<!DOCTYPE svg PUBLIC "-//W3C//DTD SVG 1.1//EN"
 "http://www.w3.org/Graphics/SVG/1.1/DTD/svg11.dtd">
<!-- Generated by graphviz version 14.1.5 (20260411.2331)
 -->
<!-- Title: C:/Users/lucca/Documents/Lucca/Projects/C/yuime/include/yuime/resize_region.h Pages: 1 -->
<svg width="536pt" height="292pt"
 viewBox="0.00 0.00 536.00 292.00" xmlns="http://www.w3.org/2000/svg" xmlns:xlink="http://www.w3.org/1999/xlink">
<g id="graph0" class="graph" transform="scale(1 1) rotate(0) translate(4 288)">
<title>C:/Users/lucca/Documents/Lucca/Projects/C/yuime/include/yuime/resize_region.h</title>
<!-- Node1 -->
<g id="Node000001" class="node">
<title>Node1</title>
<g id="a_Node000001"><a xlink:title=" ">
<polygon fill="#999999" stroke="#666666" points="474.62,-284 326.62,-284 326.62,-240 474.62,-240 474.62,-284"/>
<text xml:space="preserve" text-anchor="start" x="334.62" y="-270.5" font-family="Helvetica,sans-Serif" font-size="10.00">C:/Users/lucca/Documents</text>
<text xml:space="preserve" text-anchor="start" x="334.62" y="-258.5" font-family="Helvetica,sans-Serif" font-size="10.00">/Lucca/Projects/C/yuime</text>
<text xml:space="preserve" text-anchor="middle" x="400.62" y="-246.5" font-family="Helvetica,sans-Serif" font-size="10.00">/include/yuime/resize_region.h</text>
</a>
</g>
</g>
<!-- Node2 -->
<g id="Node000002" class="node">
<title>Node2</title>
<g id="a_Node000002"><a xlink:href="context_8h.html" target="_top" xlink:title=" ">
<polygon fill="white" stroke="#666666" points="335.25,-204 200,-204 200,-160 335.25,-160 335.25,-204"/>
<text xml:space="preserve" text-anchor="start" x="208" y="-190.5" font-family="Helvetica,sans-Serif" font-size="10.00">C:/Users/lucca/Documents</text>
<text xml:space="preserve" text-anchor="start" x="208" y="-178.5" font-family="Helvetica,sans-Serif" font-size="10.00">/Lucca/Projects/C/yuime</text>
<text xml:space="preserve" text-anchor="middle" x="267.62" y="-166.5" font-family="Helvetica,sans-Serif" font-size="10.00">/include/yuime/context.h</text>
</a>
</g>
</g>
<!-- Node1&#45;&gt;Node2 -->
<g id="edge1_Node000001_Node000002" class="edge">
<title>Node1&#45;&gt;Node2</title>
<g id="a_edge1_Node000001_Node000002"><a xlink:title=" ">
<path fill="none" stroke="#63b8ff" d="M354.75,-234.1C338.13,-224.35 319.61,-213.49 303.92,-204.29"/>
<polygon fill="#63b8ff" stroke="#63b8ff" points="352.58,-236.88 362.98,-238.92 356.12,-230.84 352.58,-236.88"/>
</a>
</g>
</g>
<!-- Node4 -->
<g id="Node000004" class="node">
<title>Node4</title>
<g id="a_Node000004"><a xlink:href="yuime_8h.html" target="_top" xlink:title=" ">
<polygon fill="white" stroke="#666666" points="335.25,-44 200,-44 200,0 335.25,0 335.25,-44"/>
<text xml:space="preserve" text-anchor="start" x="208" y="-30.5" font-family="Helvetica,sans-Serif" font-size="10.00">C:/Users/lucca/Documents</text>
<text xml:space="preserve" text-anchor="start" x="208" y="-18.5" font-family="Helvetica,sans-Serif" font-size="10.00">/Lucca/Projects/C/yuime</text>
<text xml:space="preserve" text-anchor="middle" x="267.62" y="-6.5" font-family="Helvetica,sans-Serif" font-size="10.00">/include/yuime/yuime.h</text>
</a>
</g>
</g>
<!-- Node1&#45;&gt;Node4 -->
<g id="edge9_Node000001_Node000004" class="edge">
<title>Node1&#45;&gt;Node4</title>
<g id="a_edge9_Node000001_Node000004"><a xlink:title=" ">
<path fill="none" stroke="#63b8ff" d="M440.66,-232.95C488.14,-196.28 556.04,-130.76 515.62,-80 493.47,-52.18 401.09,-36.81 335.58,-29.23"/>
<polygon fill="#63b8ff" stroke="#63b8ff" points="438.85,-229.94 432.98,-238.76 443.07,-235.52 438.85,-229.94"/>
</a>
</g>
</g>
<!-- Node3 -->
<g id="Node000003" class="node">
<title>Node3</title>
<g id="a_Node000003"><a xlink:href="events_8h.html" target="_top" xlink:title=" ">
<polygon fill="white" stroke="#666666" points="135.25,-124 0,-124 0,-80 135.25,-80 135.25,-124"/>
<text xml:space="preserve" text-anchor="start" x="8" y="-110.5" font-family="Helvetica,sans-Serif" font-size="10.00">C:/Users/lucca/Documents</text>
<text xml:space="preserve" text-anchor="start" x="8" y="-98.5" font-family="Helvetica,sans-Serif" font-size="10.00">/Lucca/Projects/C/yuime</text>
<text xml:space="preserve" text-anchor="middle" x="67.62" y="-86.5" font-family="Helvetica,sans-Serif" font-size="10.00">/include/yuime/events.h</text>
</a>
</g>
</g>
<!-- Node2&#45;&gt;Node3 -->
<g id="edge2_Node000002_Node000003" class="edge">
<title>Node2&#45;&gt;Node3</title>
<g id="a_edge2_Node000002_Node000003"><a xlink:title=" ">
<path fill="none" stroke="#63b8ff" d="M202.26,-155.51C176.44,-145.44 147.1,-134 122.42,-124.37"/>
<polygon fill="#63b8ff" stroke="#63b8ff" points="200.71,-158.66 211.3,-159.03 203.25,-152.14 200.71,-158.66"/>
</a>
</g>
</g>
<!-- Node2&#45;&gt;Node4 -->
<g id="edge8_Node000002_Node000004" class="edge">
<title>Node2&#45;&gt;Node4</title>
<g id="a_edge8_Node000002_Node000004"><a xlink:title=" ">
<path fill="none" stroke="#63b8ff" d="M209.64,-153.44C198.79,-145.52 188.9,-135.76 182.62,-124 173.42,-106.75 173.42,-97.25 182.62,-80 190.65,-64.95 204.61,-53.17 218.93,-44.33"/>
<polygon fill="#63b8ff" stroke="#63b8ff" points="207.42,-156.16 217.67,-158.83 211.32,-150.35 207.42,-156.16"/>
</a>
</g>
</g>
<!-- Node5 -->
<g id="Node000005" class="node">
<title>Node5</title>
<g id="a_Node000005"><a xlink:href="widget_2events_8h.html" target="_top" xlink:title=" ">
<polygon fill="white" stroke="#666666" points="343.12,-124 192.12,-124 192.12,-80 343.12,-80 343.12,-124"/>
<text xml:space="preserve" text-anchor="start" x="200.12" y="-110.5" font-family="Helvetica,sans-Serif" font-size="10.00">C:/Users/lucca/Documents</text>
<text xml:space="preserve" text-anchor="start" x="200.12" y="-98.5" font-family="Helvetica,sans-Serif" font-size="10.00">/Lucca/Projects/C/yuime</text>
<text xml:space="preserve" text-anchor="middle" x="267.62" y="-86.5" font-family="Helvetica,sans-Serif" font-size="10.00">/include/yuime/widget/events.h</text>
</a>
</g>
</g>
<!-- Node2&#45;&gt;Node5 -->
<g id="edge4_Node000002_Node000005" class="edge">
<title>Node2&#45;&gt;Node5</title>
<g id="a_edge4_Node000002_Node000005"><a xlink:title=" ">
<path fill="none" stroke="#63b8ff" d="M267.62,-148.25C267.62,-140.15 267.62,-131.68 267.62,-124.29"/>
<polygon fill="#63b8ff" stroke="#63b8ff" points="264.13,-148.17 267.63,-158.17 271.13,-148.17 264.13,-148.17"/>
</a>
</g>
</g>
<!-- Node6 -->
<g id="Node000006" class="node">
<title>Node6</title>
<g id="a_Node000006"><a xlink:href="panel_8h.html" target="_top" xlink:title=" ">
<polygon fill="white" stroke="#666666" points="506.12,-124 361.12,-124 361.12,-80 506.12,-80 506.12,-124"/>
<text xml:space="preserve" text-anchor="start" x="369.12" y="-110.5" font-family="Helvetica,sans-Serif" font-size="10.00">C:/Users/lucca/Documents</text>
<text xml:space="preserve" text-anchor="start" x="369.12" y="-98.5" font-family="Helvetica,sans-Serif" font-size="10.00">/Lucca/Projects/C/yuime</text>
<text xml:space="preserve" text-anchor="middle" x="433.62" y="-86.5" font-family="Helvetica,sans-Serif" font-size="10.00">/include/yuime/widget/panel.h</text>
</a>
</g>
</g>
<!-- Node2&#45;&gt;Node6 -->
<g id="edge6_Node000002_Node000006" class="edge">
<title>Node2&#45;&gt;Node6</title>
<g id="a_edge6_Node000002_Node000006"><a xlink:title=" ">
<path fill="none" stroke="#63b8ff" d="M323.38,-154.8C344.41,-144.92 368.05,-133.81 388.03,-124.42"/>
<polygon fill="#63b8ff" stroke="#63b8ff" points="321.92,-151.62 314.36,-159.04 324.89,-157.96 321.92,-151.62"/>
</a>
</g>
</g>
<!-- Node3&#45;&gt;Node4 -->
<g id="edge3_Node000003_Node000004" class="edge">
<title>Node3&#45;&gt;Node4</title>
<g id="a_edge3_Node000003_Node000004"><a xlink:title=" ">
<path fill="none" stroke="#63b8ff" d="M132.99,-75.51C158.81,-65.44 188.15,-54 212.83,-44.37"/>
<polygon fill="#63b8ff" stroke="#63b8ff" points="132,-72.14 123.95,-79.03 134.54,-78.66 132,-72.14"/>
</a>
</g>
</g>
<!-- Node5&#45;&gt;Node4 -->
<g id="edge5_Node000005_Node000004" class="edge">
<title>Node5&#45;&gt;Node4</title>
<g id="a_edge5_Node000005_Node000004"><a xlink:title=" ">
<path fill="none" stroke="#63b8ff" d="M267.62,-68.25C267.62,-60.15 267.62,-51.68 267.62,-44.29"/>
<polygon fill="#63b8ff" stroke="#63b8ff" points="264.13,-68.17 267.63,-78.17 271.13,-68.17 264.13,-68.17"/>
</a>
</g>
</g>
<!-- Node6&#45;&gt;Node4 -->
<g id="edge7_Node000006_Node000004" class="edge">
<title>Node6&#45;&gt;Node4</title>
<g id="a_edge7_Node000006_Node000004"><a xlink:title=" ">
<path fill="none" stroke="#63b8ff" d="M377.87,-74.8C356.84,-64.92 333.2,-53.81 313.22,-44.42"/>
<polygon fill="#63b8ff" stroke="#63b8ff" points="376.36,-77.96 386.89,-79.04 379.33,-71.62 376.36,-77.96"/>
</a>
</g>
</g>
</g>
</svg>
