<?xml version="1.0" encoding="UTF-8" standalone="no"?>
<!DOCTYPE svg PUBLIC "-//W3C//DTD SVG 1.1//EN"
 "http://www.w3.org/Graphics/SVG/1.1/DTD/svg11.dtd">
<!-- Generated by graphviz version 14.1.5 (20260411.2331)
 -->
<!-- Title: C:/Users/lucca/Documents/Lucca/Projects/C/yuime/include/yuime/math/vector2.h Pages: 1 -->
<svg width="620pt" height="532pt"
 viewBox="0.00 0.00 620.00 532.00" xmlns="http://www.w3.org/2000/svg" xmlns:xlink="http://www.w3.org/1999/xlink">
<g id="graph0" class="graph" transform="scale(1 1) rotate(0) translate(4 528)">
<title>C:/Users/lucca/Documents/Lucca/Projects/C/yuime/include/yuime/math/vector2.h</title>
<!-- Node1 -->
<g id="Node000001" class="node">
<title>Node1</title>
<g id="a_Node000001"><a xlink:title=" ">
<polygon fill="#999999" stroke="#666666" points="430.62,-524 283.38,-524 283.38,-480 430.62,-480 430.62,-524"/>
<text xml:space="preserve" text-anchor="start" x="291.38" y="-510.5" font-family="Helvetica,sans-Serif" font-size="10.00">C:/Users/lucca/Documents</text>
<text xml:space="preserve" text-anchor="start" x="291.38" y="-498.5" font-family="Helvetica,sans-Serif" font-size="10.00">/Lucca/Projects/C/yuime</text>
<text xml:space="preserve" text-anchor="middle" x="357" y="-486.5" font-family="Helvetica,sans-Serif" font-size="10.00">/include/yuime/math/vector2.h</text>
</a>
</g>
</g>
<!-- Node2 -->
<g id="Node000002" class="node">
<title>Node2</title>
<g id="a_Node000002"><a xlink:href="context_8h.html" target="_top" xlink:title=" ">
<polygon fill="white" stroke="#666666" points="440.62,-204 305.38,-204 305.38,-160 440.62,-160 440.62,-204"/>
<text xml:space="preserve" text-anchor="start" x="313.38" y="-190.5" font-family="Helvetica,sans-Serif" font-size="10.00">C:/Users/lucca/Documents</text>
<text xml:space="preserve" text-anchor="start" x="313.38" y="-178.5" font-family="Helvetica,sans-Serif" font-size="10.00">/Lucca/Projects/C/yuime</text>
<text xml:space="preserve" text-anchor="middle" x="373" y="-166.5" font-family="Helvetica,sans-Serif" font-size="10.00">/include/yuime/context.h</text>
</a>
</g>
</g>
<!-- Node1&#45;&gt;Node2 -->
<g id="edge1_Node000001_Node000002" class="edge">
<title>Node1&#45;&gt;Node2</title>
<g id="a_edge1_Node000001_Node000002"><a xlink:title=" ">
<path fill="none" stroke="#63b8ff" d="M360.34,-468.52C364.52,-426.13 371.43,-349.61 374,-284 374.76,-264.46 374.17,-259.55 374,-240 373.9,-228.22 373.67,-215.08 373.46,-204.38"/>
<polygon fill="#63b8ff" stroke="#63b8ff" points="356.88,-467.97 359.37,-478.27 363.84,-468.67 356.88,-467.97"/>
</a>
</g>
</g>
<!-- Node3 -->
<g id="Node000003" class="node">
<title>Node3</title>
<g id="a_Node000003"><a xlink:href="events_8h.html" target="_top" xlink:title=" ">
<polygon fill="white" stroke="#666666" points="611.62,-124 476.38,-124 476.38,-80 611.62,-80 611.62,-124"/>
<text xml:space="preserve" text-anchor="start" x="484.38" y="-110.5" font-family="Helvetica,sans-Serif" font-size="10.00">C:/Users/lucca/Documents</text>
<text xml:space="preserve" text-anchor="start" x="484.38" y="-98.5" font-family="Helvetica,sans-Serif" font-size="10.00">/Lucca/Projects/C/yuime</text>
<text xml:space="preserve" text-anchor="middle" x="544" y="-86.5" font-family="Helvetica,sans-Serif" font-size="10.00">/include/yuime/events.h</text>
</a>
</g>
</g>
<!-- Node1&#45;&gt;Node3 -->
<g id="edge9_Node000001_Node000003" class="edge">
<title>Node1&#45;&gt;Node3</title>
<g id="a_edge9_Node000001_Node000003"><a xlink:title=" ">
<path fill="none" stroke="#63b8ff" d="M435.92,-474.99C453.33,-466.87 470.79,-456.63 485,-444 524.02,-409.3 545,-395.21 545,-343 545,-343 545,-343 545,-261 545,-212.17 544.52,-154.86 544.22,-124.47"/>
<polygon fill="#63b8ff" stroke="#63b8ff" points="434.8,-471.65 427.09,-478.91 437.65,-478.05 434.8,-471.65"/>
</a>
</g>
</g>
<!-- Node4 -->
<g id="Node000004" class="node">
<title>Node4</title>
<g id="a_Node000004"><a xlink:href="yuime_8h.html" target="_top" xlink:title=" ">
<polygon fill="white" stroke="#666666" points="245.62,-44 110.38,-44 110.38,0 245.62,0 245.62,-44"/>
<text xml:space="preserve" text-anchor="start" x="118.38" y="-30.5" font-family="Helvetica,sans-Serif" font-size="10.00">C:/Users/lucca/Documents</text>
<text xml:space="preserve" text-anchor="start" x="118.38" y="-18.5" font-family="Helvetica,sans-Serif" font-size="10.00">/Lucca/Projects/C/yuime</text>
<text xml:space="preserve" text-anchor="middle" x="178" y="-6.5" font-family="Helvetica,sans-Serif" font-size="10.00">/include/yuime/yuime.h</text>
</a>
</g>
</g>
<!-- Node1&#45;&gt;Node4 -->
<g id="edge25_Node000001_Node000004" class="edge">
<title>Node1&#45;&gt;Node4</title>
<g id="a_edge25_Node000001_Node000004"><a xlink:title=" ">
<path fill="none" stroke="#63b8ff" d="M271.74,-499.13C166.13,-491.77 0,-461.37 0,-343 0,-343 0,-343 0,-181 0,-132.04 9.23,-114.47 44,-80 62.13,-62.02 86.82,-49.36 110.06,-40.61"/>
<polygon fill="#63b8ff" stroke="#63b8ff" points="271.32,-502.61 281.52,-499.76 271.76,-495.63 271.32,-502.61"/>
</a>
</g>
</g>
<!-- Node5 -->
<g id="Node000005" class="node">
<title>Node5</title>
<g id="a_Node000005"><a xlink:href="widget_2events_8h.html" target="_top" xlink:title=" ">
<polygon fill="white" stroke="#666666" points="419.5,-124 268.5,-124 268.5,-80 419.5,-80 419.5,-124"/>
<text xml:space="preserve" text-anchor="start" x="276.5" y="-110.5" font-family="Helvetica,sans-Serif" font-size="10.00">C:/Users/lucca/Documents</text>
<text xml:space="preserve" text-anchor="start" x="276.5" y="-98.5" font-family="Helvetica,sans-Serif" font-size="10.00">/Lucca/Projects/C/yuime</text>
<text xml:space="preserve" text-anchor="middle" x="344" y="-86.5" font-family="Helvetica,sans-Serif" font-size="10.00">/include/yuime/widget/events.h</text>
</a>
</g>
</g>
<!-- Node1&#45;&gt;Node5 -->
<g id="edge24_Node000001_Node000005" class="edge">
<title>Node1&#45;&gt;Node5</title>
<g id="a_edge24_Node000001_Node000005"><a xlink:title=" ">
<path fill="none" stroke="#63b8ff" d="M408.8,-473.89C452.16,-447.06 507,-401.55 507,-343 507,-343 507,-343 507,-261 507,-209.46 486.82,-196.07 450,-160 435.08,-145.38 415.64,-133.48 397.49,-124.41"/>
<polygon fill="#63b8ff" stroke="#63b8ff" points="407.26,-470.74 400.48,-478.88 410.86,-476.74 407.26,-470.74"/>
</a>
</g>
</g>
<!-- Node7 -->
<g id="Node000007" class="node">
<title>Node7</title>
<g id="a_Node000007"><a xlink:href="dimension2_8h.html" target="_top" xlink:title=" ">
<polygon fill="white" stroke="#666666" points="329.25,-444 164.75,-444 164.75,-400 329.25,-400 329.25,-444"/>
<text xml:space="preserve" text-anchor="start" x="172.75" y="-430.5" font-family="Helvetica,sans-Serif" font-size="10.00">C:/Users/lucca/Documents</text>
<text xml:space="preserve" text-anchor="start" x="172.75" y="-418.5" font-family="Helvetica,sans-Serif" font-size="10.00">/Lucca/Projects/C/yuime</text>
<text xml:space="preserve" text-anchor="middle" x="247" y="-406.5" font-family="Helvetica,sans-Serif" font-size="10.00">/include/yuime/math/dimension2.h</text>
</a>
</g>
</g>
<!-- Node1&#45;&gt;Node7 -->
<g id="edge10_Node000001_Node000007" class="edge">
<title>Node1&#45;&gt;Node7</title>
<g id="a_edge10_Node000001_Node000007"><a xlink:title=" ">
<path fill="none" stroke="#63b8ff" d="M317.9,-473.28C304.46,-463.74 289.63,-453.23 277.02,-444.29"/>
<polygon fill="#63b8ff" stroke="#63b8ff" points="315.53,-475.88 325.71,-478.81 319.57,-470.17 315.53,-475.88"/>
</a>
</g>
</g>
<!-- Node8 -->
<g id="Node000008" class="node">
<title>Node8</title>
<g id="a_Node000008"><a xlink:href="geometry_8h.html" target="_top" xlink:title=" ">
<polygon fill="white" stroke="#666666" points="220.38,-364 65.62,-364 65.62,-320 220.38,-320 220.38,-364"/>
<text xml:space="preserve" text-anchor="start" x="73.62" y="-350.5" font-family="Helvetica,sans-Serif" font-size="10.00">C:/Users/lucca/Documents</text>
<text xml:space="preserve" text-anchor="start" x="73.62" y="-338.5" font-family="Helvetica,sans-Serif" font-size="10.00">/Lucca/Projects/C/yuime</text>
<text xml:space="preserve" text-anchor="middle" x="143" y="-326.5" font-family="Helvetica,sans-Serif" font-size="10.00">/include/yuime/math/geometry.h</text>
</a>
</g>
</g>
<!-- Node1&#45;&gt;Node8 -->
<g id="edge22_Node000001_Node000008" class="edge">
<title>Node1&#45;&gt;Node8</title>
<g id="a_edge22_Node000001_Node000008"><a xlink:title=" ">
<path fill="none" stroke="#63b8ff" d="M271.93,-486.54C224.37,-476.67 171.6,-462.1 156,-444 137.07,-422.04 137.06,-386.76 139.5,-364.25"/>
<polygon fill="#63b8ff" stroke="#63b8ff" points="270.94,-489.91 281.44,-488.46 272.33,-483.05 270.94,-489.91"/>
</a>
</g>
</g>
<!-- Node9 -->
<g id="Node000009" class="node">
<title>Node9</title>
<g id="a_Node000009"><a xlink:href="node_8h.html" target="_top" xlink:title=" ">
<polygon fill="white" stroke="#666666" points="364.62,-284 229.38,-284 229.38,-240 364.62,-240 364.62,-284"/>
<text xml:space="preserve" text-anchor="start" x="237.38" y="-270.5" font-family="Helvetica,sans-Serif" font-size="10.00">C:/Users/lucca/Documents</text>
<text xml:space="preserve" text-anchor="start" x="237.38" y="-258.5" font-family="Helvetica,sans-Serif" font-size="10.00">/Lucca/Projects/C/yuime</text>
<text xml:space="preserve" text-anchor="middle" x="297" y="-246.5" font-family="Helvetica,sans-Serif" font-size="10.00">/include/yuime/node.h</text>
</a>
</g>
</g>
<!-- Node1&#45;&gt;Node9 -->
<g id="edge23_Node000001_Node000009" class="edge">
<title>Node1&#45;&gt;Node9</title>
<g id="a_edge23_Node000001_Node000009"><a xlink:title=" ">
<path fill="none" stroke="#63b8ff" d="M351.75,-468.35C348.34,-448.48 343.5,-422.65 338,-400 327.92,-358.5 312.88,-310.92 304.09,-284.17"/>
<polygon fill="#63b8ff" stroke="#63b8ff" points="348.28,-468.81 353.39,-478.09 355.18,-467.65 348.28,-468.81"/>
</a>
</g>
</g>
<!-- Node2&#45;&gt;Node3 -->
<g id="edge2_Node000002_Node000003" class="edge">
<title>Node2&#45;&gt;Node3</title>
<g id="a_edge2_Node000002_Node000003"><a xlink:title=" ">
<path fill="none" stroke="#63b8ff" d="M430.14,-154.93C451.87,-145.02 476.35,-133.86 497.03,-124.42"/>
<polygon fill="#63b8ff" stroke="#63b8ff" points="428.75,-151.72 421.1,-159.06 431.65,-158.09 428.75,-151.72"/>
</a>
</g>
</g>
<!-- Node2&#45;&gt;Node4 -->
<g id="edge8_Node000002_Node000004" class="edge">
<title>Node2&#45;&gt;Node4</title>
<g id="a_edge8_Node000002_Node000004"><a xlink:title=" ">
<path fill="none" stroke="#63b8ff" d="M410.22,-151.61C417.86,-143.55 424.83,-134.2 429,-124 436.4,-105.9 441.2,-95.28 429,-80 406.45,-51.76 312.19,-36.45 245.85,-29"/>
<polygon fill="#63b8ff" stroke="#63b8ff" points="407.92,-148.97 403.2,-158.46 412.8,-153.98 407.92,-148.97"/>
</a>
</g>
</g>
<!-- Node2&#45;&gt;Node5 -->
<g id="edge4_Node000002_Node000005" class="edge">
<title>Node2&#45;&gt;Node5</title>
<g id="a_edge4_Node000002_Node000005"><a xlink:title=" ">
<path fill="none" stroke="#63b8ff" d="M361.14,-149.1C358.03,-140.74 354.76,-131.94 351.91,-124.29"/>
<polygon fill="#63b8ff" stroke="#63b8ff" points="357.78,-150.11 364.55,-158.27 364.34,-147.67 357.78,-150.11"/>
</a>
</g>
</g>
<!-- Node6 -->
<g id="Node000006" class="node">
<title>Node6</title>
<g id="a_Node000006"><a xlink:href="panel_8h.html" target="_top" xlink:title=" ">
<polygon fill="white" stroke="#666666" points="250.5,-124 105.5,-124 105.5,-80 250.5,-80 250.5,-124"/>
<text xml:space="preserve" text-anchor="start" x="113.5" y="-110.5" font-family="Helvetica,sans-Serif" font-size="10.00">C:/Users/lucca/Documents</text>
<text xml:space="preserve" text-anchor="start" x="113.5" y="-98.5" font-family="Helvetica,sans-Serif" font-size="10.00">/Lucca/Projects/C/yuime</text>
<text xml:space="preserve" text-anchor="middle" x="178" y="-86.5" font-family="Helvetica,sans-Serif" font-size="10.00">/include/yuime/widget/panel.h</text>
</a>
</g>
</g>
<!-- Node2&#45;&gt;Node6 -->
<g id="edge6_Node000002_Node000006" class="edge">
<title>Node2&#45;&gt;Node6</title>
<g id="a_edge6_Node000002_Node000006"><a xlink:title=" ">
<path fill="none" stroke="#63b8ff" d="M308.93,-155.37C283.84,-145.33 255.38,-133.95 231.42,-124.37"/>
<polygon fill="#63b8ff" stroke="#63b8ff" points="307.47,-158.56 318.05,-159.02 310.07,-152.06 307.47,-158.56"/>
</a>
</g>
</g>
<!-- Node3&#45;&gt;Node4 -->
<g id="edge3_Node000003_Node000004" class="edge">
<title>Node3&#45;&gt;Node4</title>
<g id="a_edge3_Node000003_Node000004"><a xlink:title=" ">
<path fill="none" stroke="#63b8ff" d="M465.03,-80.7C464.01,-80.46 463,-80.23 462,-80 388.46,-63.22 303.59,-46.53 245.93,-35.59"/>
<polygon fill="#63b8ff" stroke="#63b8ff" points="464.04,-84.06 474.58,-82.96 465.66,-77.25 464.04,-84.06"/>
</a>
</g>
</g>
<!-- Node5&#45;&gt;Node4 -->
<g id="edge5_Node000005_Node000004" class="edge">
<title>Node5&#45;&gt;Node4</title>
<g id="a_edge5_Node000005_Node000004"><a xlink:title=" ">
<path fill="none" stroke="#63b8ff" d="M288.24,-74.8C267.22,-64.92 243.58,-53.81 223.59,-44.42"/>
<polygon fill="#63b8ff" stroke="#63b8ff" points="286.73,-77.96 297.27,-79.04 289.71,-71.62 286.73,-77.96"/>
</a>
</g>
</g>
<!-- Node6&#45;&gt;Node4 -->
<g id="edge7_Node000006_Node000004" class="edge">
<title>Node6&#45;&gt;Node4</title>
<g id="a_edge7_Node000006_Node000004"><a xlink:title=" ">
<path fill="none" stroke="#63b8ff" d="M178,-68.25C178,-60.15 178,-51.68 178,-44.29"/>
<polygon fill="#63b8ff" stroke="#63b8ff" points="174.5,-68.17 178,-78.17 181.5,-68.17 174.5,-68.17"/>
</a>
</g>
</g>
<!-- Node7&#45;&gt;Node4 -->
<g id="edge21_Node000007_Node000004" class="edge">
<title>Node7&#45;&gt;Node4</title>
<g id="a_edge21_Node000007_Node000004"><a xlink:title=" ">
<path fill="none" stroke="#63b8ff" d="M153.36,-413.28C118.52,-405.7 81.53,-391.26 57,-364 26.45,-330.04 38,-308.68 38,-263 38,-263 38,-263 38,-181 38,-132.55 47.16,-116.52 79,-80 91.84,-65.27 109.45,-53.44 126.27,-44.46"/>
<polygon fill="#63b8ff" stroke="#63b8ff" points="152.61,-416.7 163.1,-415.21 153.97,-409.83 152.61,-416.7"/>
</a>
</g>
</g>
<!-- Node7&#45;&gt;Node6 -->
<g id="edge20_Node000007_Node000006" class="edge">
<title>Node7&#45;&gt;Node6</title>
<g id="a_edge20_Node000007_Node000006"><a xlink:title=" ">
<path fill="none" stroke="#63b8ff" d="M241.78,-388.43C238.45,-368.58 233.87,-342.75 229,-320 225.55,-303.87 223.86,-300.03 220,-284 206.13,-226.45 190.57,-158.41 182.86,-124.48"/>
<polygon fill="#63b8ff" stroke="#63b8ff" points="238.3,-388.85 243.38,-398.14 245.21,-387.71 238.3,-388.85"/>
</a>
</g>
</g>
<!-- Node7&#45;&gt;Node8 -->
<g id="edge11_Node000007_Node000008" class="edge">
<title>Node7&#45;&gt;Node8</title>
<g id="a_edge11_Node000007_Node000008"><a xlink:title=" ">
<path fill="none" stroke="#63b8ff" d="M209.67,-393C197.05,-383.54 183.19,-373.14 171.38,-364.29"/>
<polygon fill="#63b8ff" stroke="#63b8ff" points="207.27,-395.58 217.37,-398.78 211.47,-389.98 207.27,-395.58"/>
</a>
</g>
</g>
<!-- Node7&#45;&gt;Node9 -->
<g id="edge19_Node000007_Node000009" class="edge">
<title>Node7&#45;&gt;Node9</title>
<g id="a_edge19_Node000007_Node000009"><a xlink:title=" ">
<path fill="none" stroke="#63b8ff" d="M257.13,-388.98C266.99,-357.84 281.68,-311.41 290.2,-284.48"/>
<polygon fill="#63b8ff" stroke="#63b8ff" points="253.88,-387.66 254.2,-398.25 260.55,-389.77 253.88,-387.66"/>
</a>
</g>
</g>
<!-- Node8&#45;&gt;Node4 -->
<g id="edge18_Node000008_Node000004" class="edge">
<title>Node8&#45;&gt;Node4</title>
<g id="a_edge18_Node000008_Node000004"><a xlink:title=" ">
<path fill="none" stroke="#63b8ff" d="M125.19,-309.59C98.8,-258.53 56.47,-155.61 96,-80 103.79,-65.1 117.45,-53.3 131.41,-44.4"/>
<polygon fill="#63b8ff" stroke="#63b8ff" points="122.05,-311.14 129.83,-318.33 128.23,-307.86 122.05,-311.14"/>
</a>
</g>
</g>
<!-- Node8&#45;&gt;Node6 -->
<g id="edge17_Node000008_Node000006" class="edge">
<title>Node8&#45;&gt;Node6</title>
<g id="a_edge17_Node000008_Node000006"><a xlink:title=" ">
<path fill="none" stroke="#63b8ff" d="M147.77,-308.59C155.03,-259.16 168.69,-166.28 174.85,-124.42"/>
<polygon fill="#63b8ff" stroke="#63b8ff" points="144.32,-307.98 146.33,-318.38 151.24,-309 144.32,-307.98"/>
</a>
</g>
</g>
<!-- Node8&#45;&gt;Node9 -->
<g id="edge12_Node000008_Node000009" class="edge">
<title>Node8&#45;&gt;Node9</title>
<g id="a_edge12_Node000008_Node000009"><a xlink:title=" ">
<path fill="none" stroke="#63b8ff" d="M195.26,-314.53C214.63,-304.72 236.33,-293.73 254.7,-284.42"/>
<polygon fill="#63b8ff" stroke="#63b8ff" points="193.77,-311.36 186.43,-319 196.93,-317.61 193.77,-311.36"/>
</a>
</g>
</g>
<!-- Node9&#45;&gt;Node2 -->
<g id="edge13_Node000009_Node000002" class="edge">
<title>Node9&#45;&gt;Node2</title>
<g id="a_edge13_Node000009_Node000002"><a xlink:title=" ">
<path fill="none" stroke="#63b8ff" d="M325.63,-231.62C334.48,-222.53 344.05,-212.71 352.26,-204.29"/>
<polygon fill="#63b8ff" stroke="#63b8ff" points="323.3,-229 318.82,-238.6 328.31,-233.88 323.3,-229"/>
</a>
</g>
</g>
<!-- Node9&#45;&gt;Node3 -->
<g id="edge14_Node000009_Node000003" class="edge">
<title>Node9&#45;&gt;Node3</title>
<g id="a_edge14_Node000009_Node000003"><a xlink:title=" ">
<path fill="none" stroke="#63b8ff" d="M375.56,-239.58C400.55,-230.76 427.52,-219.02 450,-204 482.67,-182.18 512.06,-146.86 528.96,-124.3"/>
<polygon fill="#63b8ff" stroke="#63b8ff" points="374.76,-236.15 366.43,-242.69 377.02,-242.78 374.76,-236.15"/>
</a>
</g>
</g>
<!-- Node9&#45;&gt;Node5 -->
<g id="edge15_Node000009_Node000005" class="edge">
<title>Node9&#45;&gt;Node5</title>
<g id="a_edge15_Node000009_Node000005"><a xlink:title=" ">
<path fill="none" stroke="#63b8ff" d="M290.99,-228.59C288.59,-208.28 288.01,-181.89 296,-160 300.88,-146.63 310.43,-134.23 319.73,-124.43"/>
<polygon fill="#63b8ff" stroke="#63b8ff" points="287.49,-228.86 292.35,-238.27 294.42,-227.88 287.49,-228.86"/>
</a>
</g>
</g>
<!-- Node9&#45;&gt;Node6 -->
<g id="edge16_Node000009_Node000006" class="edge">
<title>Node9&#45;&gt;Node6</title>
<g id="a_edge16_Node000009_Node000006"><a xlink:title=" ">
<path fill="none" stroke="#63b8ff" d="M274.1,-230.6C250.66,-199.47 214.82,-151.89 194.17,-124.48"/>
<polygon fill="#63b8ff" stroke="#63b8ff" points="271.23,-232.6 280.04,-238.48 276.82,-228.39 271.23,-232.6"/>
</a>
</g>
</g>
</g>
</svg>
