<?xml version="1.0" encoding="UTF-8" standalone="no"?>
<!DOCTYPE svg PUBLIC "-//W3C//DTD SVG 1.1//EN"
 "http://www.w3.org/Graphics/SVG/1.1/DTD/svg11.dtd">
<!-- Generated by graphviz version 14.1.5 (20260411.2331)
 -->
<!-- Title: C:/Users/lucca/Documents/Lucca/Projects/C/yuime/include/yuime/widget/widget.h Pages: 1 -->
<svg width="531pt" height="372pt"
 viewBox="0.00 0.00 531.00 372.00" xmlns="http://www.w3.org/2000/svg" xmlns:xlink="http://www.w3.org/1999/xlink">
<g id="graph0" class="graph" transform="scale(1 1) rotate(0) translate(4 368)">
<title>C:/Users/lucca/Documents/Lucca/Projects/C/yuime/include/yuime/widget/widget.h</title>
<!-- Node1 -->
<g id="Node000001" class="node">
<title>Node1</title>
<g id="a_Node000001"><a xlink:title=" ">
<polygon fill="#999999" stroke="#666666" points="343.96,-364 193.71,-364 193.71,-320 343.96,-320 343.96,-364"/>
<text xml:space="preserve" text-anchor="start" x="201.71" y="-350.5" font-family="Helvetica,sans-Serif" font-size="10.00">C:/Users/lucca/Documents</text>
<text xml:space="preserve" text-anchor="start" x="201.71" y="-338.5" font-family="Helvetica,sans-Serif" font-size="10.00">/Lucca/Projects/C/yuime</text>
<text xml:space="preserve" text-anchor="middle" x="268.83" y="-326.5" font-family="Helvetica,sans-Serif" font-size="10.00">/include/yuime/widget/widget.h</text>
</a>
</g>
</g>
<!-- Node2 -->
<g id="Node000002" class="node">
<title>Node2</title>
<g id="a_Node000002"><a xlink:href="node_8h.html" target="_top" xlink:title=" ">
<polygon fill="white" stroke="#666666" points="336.46,-284 201.21,-284 201.21,-240 336.46,-240 336.46,-284"/>
<text xml:space="preserve" text-anchor="start" x="209.21" y="-270.5" font-family="Helvetica,sans-Serif" font-size="10.00">C:/Users/lucca/Documents</text>
<text xml:space="preserve" text-anchor="start" x="209.21" y="-258.5" font-family="Helvetica,sans-Serif" font-size="10.00">/Lucca/Projects/C/yuime</text>
<text xml:space="preserve" text-anchor="middle" x="268.83" y="-246.5" font-family="Helvetica,sans-Serif" font-size="10.00">/include/yuime/node.h</text>
</a>
</g>
</g>
<!-- Node1&#45;&gt;Node2 -->
<g id="edge1_Node000001_Node000002" class="edge">
<title>Node1&#45;&gt;Node2</title>
<g id="a_edge1_Node000001_Node000002"><a xlink:title=" ">
<path fill="none" stroke="#63b8ff" d="M268.83,-308.25C268.83,-300.15 268.83,-291.68 268.83,-284.29"/>
<polygon fill="#63b8ff" stroke="#63b8ff" points="265.33,-308.17 268.83,-318.17 272.33,-308.17 265.33,-308.17"/>
</a>
</g>
</g>
<!-- Node5 -->
<g id="Node000005" class="node">
<title>Node5</title>
<g id="a_Node000005"><a xlink:href="yuime_8h.html" target="_top" xlink:title=" ">
<polygon fill="white" stroke="#666666" points="313.46,-44 178.21,-44 178.21,0 313.46,0 313.46,-44"/>
<text xml:space="preserve" text-anchor="start" x="186.21" y="-30.5" font-family="Helvetica,sans-Serif" font-size="10.00">C:/Users/lucca/Documents</text>
<text xml:space="preserve" text-anchor="start" x="186.21" y="-18.5" font-family="Helvetica,sans-Serif" font-size="10.00">/Lucca/Projects/C/yuime</text>
<text xml:space="preserve" text-anchor="middle" x="245.83" y="-6.5" font-family="Helvetica,sans-Serif" font-size="10.00">/include/yuime/yuime.h</text>
</a>
</g>
</g>
<!-- Node1&#45;&gt;Node5 -->
<g id="edge14_Node000001_Node000005" class="edge">
<title>Node1&#45;&gt;Node5</title>
<g id="a_edge14_Node000001_Node000005"><a xlink:title=" ">
<path fill="none" stroke="#63b8ff" d="M213.42,-314.37C149.88,-280.32 49.17,-214.73 7.83,-124 -0.28,-106.2 -4.28,-95.35 7.83,-80 28.72,-53.52 115.22,-37.96 177.93,-29.96"/>
<polygon fill="#63b8ff" stroke="#63b8ff" points="211.46,-317.29 221.94,-318.86 214.73,-311.1 211.46,-317.29"/>
</a>
</g>
</g>
<!-- Node7 -->
<g id="Node000007" class="node">
<title>Node7</title>
<g id="a_Node000007"><a xlink:href="panel_8h.html" target="_top" xlink:title=" ">
<polygon fill="white" stroke="#666666" points="523.33,-124 378.33,-124 378.33,-80 523.33,-80 523.33,-124"/>
<text xml:space="preserve" text-anchor="start" x="386.33" y="-110.5" font-family="Helvetica,sans-Serif" font-size="10.00">C:/Users/lucca/Documents</text>
<text xml:space="preserve" text-anchor="start" x="386.33" y="-98.5" font-family="Helvetica,sans-Serif" font-size="10.00">/Lucca/Projects/C/yuime</text>
<text xml:space="preserve" text-anchor="middle" x="450.83" y="-86.5" font-family="Helvetica,sans-Serif" font-size="10.00">/include/yuime/widget/panel.h</text>
</a>
</g>
</g>
<!-- Node1&#45;&gt;Node7 -->
<g id="edge13_Node000001_Node000007" class="edge">
<title>Node1&#45;&gt;Node7</title>
<g id="a_edge13_Node000001_Node000007"><a xlink:title=" ">
<path fill="none" stroke="#63b8ff" d="M313.78,-313.45C349.4,-289.15 397.43,-250.43 423.83,-204 438.19,-178.75 445.14,-145.61 448.34,-124.31"/>
<polygon fill="#63b8ff" stroke="#63b8ff" points="312.18,-310.3 305.81,-318.77 316.07,-316.12 312.18,-310.3"/>
</a>
</g>
</g>
<!-- Node3 -->
<g id="Node000003" class="node">
<title>Node3</title>
<g id="a_Node000003"><a xlink:href="context_8h.html" target="_top" xlink:title=" ">
<polygon fill="white" stroke="#666666" points="384.46,-204 249.21,-204 249.21,-160 384.46,-160 384.46,-204"/>
<text xml:space="preserve" text-anchor="start" x="257.21" y="-190.5" font-family="Helvetica,sans-Serif" font-size="10.00">C:/Users/lucca/Documents</text>
<text xml:space="preserve" text-anchor="start" x="257.21" y="-178.5" font-family="Helvetica,sans-Serif" font-size="10.00">/Lucca/Projects/C/yuime</text>
<text xml:space="preserve" text-anchor="middle" x="316.83" y="-166.5" font-family="Helvetica,sans-Serif" font-size="10.00">/include/yuime/context.h</text>
</a>
</g>
</g>
<!-- Node2&#45;&gt;Node3 -->
<g id="edge2_Node000002_Node000003" class="edge">
<title>Node2&#45;&gt;Node3</title>
<g id="a_edge2_Node000002_Node000003"><a xlink:title=" ">
<path fill="none" stroke="#63b8ff" d="M287.95,-229.94C293.24,-221.34 298.87,-212.2 303.73,-204.29"/>
<polygon fill="#63b8ff" stroke="#63b8ff" points="285,-228.05 282.74,-238.4 290.96,-231.71 285,-228.05"/>
</a>
</g>
</g>
<!-- Node4 -->
<g id="Node000004" class="node">
<title>Node4</title>
<g id="a_Node000004"><a xlink:href="events_8h.html" target="_top" xlink:title=" ">
<polygon fill="white" stroke="#666666" points="152.46,-124 17.21,-124 17.21,-80 152.46,-80 152.46,-124"/>
<text xml:space="preserve" text-anchor="start" x="25.21" y="-110.5" font-family="Helvetica,sans-Serif" font-size="10.00">C:/Users/lucca/Documents</text>
<text xml:space="preserve" text-anchor="start" x="25.21" y="-98.5" font-family="Helvetica,sans-Serif" font-size="10.00">/Lucca/Projects/C/yuime</text>
<text xml:space="preserve" text-anchor="middle" x="84.83" y="-86.5" font-family="Helvetica,sans-Serif" font-size="10.00">/include/yuime/events.h</text>
</a>
</g>
</g>
<!-- Node2&#45;&gt;Node4 -->
<g id="edge10_Node000002_Node000004" class="edge">
<title>Node2&#45;&gt;Node4</title>
<g id="a_edge10_Node000002_Node000004"><a xlink:title=" ">
<path fill="none" stroke="#63b8ff" d="M235.29,-232.2C199.1,-201.12 142.31,-152.36 109.84,-124.48"/>
<polygon fill="#63b8ff" stroke="#63b8ff" points="233,-234.85 242.87,-238.71 237.56,-229.54 233,-234.85"/>
</a>
</g>
</g>
<!-- Node6 -->
<g id="Node000006" class="node">
<title>Node6</title>
<g id="a_Node000006"><a xlink:href="widget_2events_8h.html" target="_top" xlink:title=" ">
<polygon fill="white" stroke="#666666" points="321.33,-124 170.33,-124 170.33,-80 321.33,-80 321.33,-124"/>
<text xml:space="preserve" text-anchor="start" x="178.33" y="-110.5" font-family="Helvetica,sans-Serif" font-size="10.00">C:/Users/lucca/Documents</text>
<text xml:space="preserve" text-anchor="start" x="178.33" y="-98.5" font-family="Helvetica,sans-Serif" font-size="10.00">/Lucca/Projects/C/yuime</text>
<text xml:space="preserve" text-anchor="middle" x="245.83" y="-86.5" font-family="Helvetica,sans-Serif" font-size="10.00">/include/yuime/widget/events.h</text>
</a>
</g>
</g>
<!-- Node2&#45;&gt;Node6 -->
<g id="edge11_Node000002_Node000006" class="edge">
<title>Node2&#45;&gt;Node6</title>
<g id="a_edge11_Node000002_Node000006"><a xlink:title=" ">
<path fill="none" stroke="#63b8ff" d="M249.59,-229.67C245.57,-221.59 241.92,-212.71 239.83,-204 233.36,-177.01 237.16,-144.86 241.02,-124.21"/>
<polygon fill="#63b8ff" stroke="#63b8ff" points="246.47,-231.25 254.28,-238.41 252.64,-227.94 246.47,-231.25"/>
</a>
</g>
</g>
<!-- Node2&#45;&gt;Node7 -->
<g id="edge12_Node000002_Node000007" class="edge">
<title>Node2&#45;&gt;Node7</title>
<g id="a_edge12_Node000002_Node000007"><a xlink:title=" ">
<path fill="none" stroke="#63b8ff" d="M345.83,-235.07C362.91,-226.93 380.02,-216.67 393.83,-204 418.16,-181.68 434.71,-146.5 443.47,-124.11"/>
<polygon fill="#63b8ff" stroke="#63b8ff" points="344.84,-231.68 337.18,-239 347.73,-238.05 344.84,-231.68"/>
</a>
</g>
</g>
<!-- Node3&#45;&gt;Node4 -->
<g id="edge3_Node000003_Node000004" class="edge">
<title>Node3&#45;&gt;Node4</title>
<g id="a_edge3_Node000003_Node000004"><a xlink:title=" ">
<path fill="none" stroke="#63b8ff" d="M242.6,-156.04C212.27,-145.84 177.53,-134.17 148.39,-124.37"/>
<polygon fill="#63b8ff" stroke="#63b8ff" points="241.1,-159.23 251.7,-159.1 243.33,-152.6 241.1,-159.23"/>
</a>
</g>
</g>
<!-- Node3&#45;&gt;Node5 -->
<g id="edge9_Node000003_Node000005" class="edge">
<title>Node3&#45;&gt;Node5</title>
<g id="a_edge9_Node000003_Node000005"><a xlink:title=" ">
<path fill="none" stroke="#63b8ff" d="M330.8,-148.77C337.57,-128.02 342.08,-101.09 330.83,-80 322.8,-64.95 308.84,-53.17 294.53,-44.33"/>
<polygon fill="#63b8ff" stroke="#63b8ff" points="327.51,-147.57 327.4,-158.16 334.09,-149.95 327.51,-147.57"/>
</a>
</g>
</g>
<!-- Node3&#45;&gt;Node6 -->
<g id="edge5_Node000003_Node000006" class="edge">
<title>Node3&#45;&gt;Node6</title>
<g id="a_edge5_Node000003_Node000006"><a xlink:title=" ">
<path fill="none" stroke="#63b8ff" d="M289.83,-151.34C281.64,-142.33 272.8,-132.63 265.21,-124.29"/>
<polygon fill="#63b8ff" stroke="#63b8ff" points="287.09,-153.53 296.41,-158.57 292.27,-148.82 287.09,-153.53"/>
</a>
</g>
</g>
<!-- Node3&#45;&gt;Node7 -->
<g id="edge7_Node000003_Node000007" class="edge">
<title>Node3&#45;&gt;Node7</title>
<g id="a_edge7_Node000003_Node000007"><a xlink:title=" ">
<path fill="none" stroke="#63b8ff" d="M363.05,-154.1C379.79,-144.35 398.46,-133.49 414.26,-124.29"/>
<polygon fill="#63b8ff" stroke="#63b8ff" points="361.64,-150.87 354.76,-158.92 365.16,-156.92 361.64,-150.87"/>
</a>
</g>
</g>
<!-- Node4&#45;&gt;Node5 -->
<g id="edge4_Node000004_Node000005" class="edge">
<title>Node4&#45;&gt;Node5</title>
<g id="a_edge4_Node000004_Node000005"><a xlink:title=" ">
<path fill="none" stroke="#63b8ff" d="M138.91,-74.8C159.3,-64.92 182.23,-53.81 201.61,-44.42"/>
<polygon fill="#63b8ff" stroke="#63b8ff" points="137.66,-71.52 130.19,-79.03 140.71,-77.82 137.66,-71.52"/>
</a>
</g>
</g>
<!-- Node6&#45;&gt;Node5 -->
<g id="edge6_Node000006_Node000005" class="edge">
<title>Node6&#45;&gt;Node5</title>
<g id="a_edge6_Node000006_Node000005"><a xlink:title=" ">
<path fill="none" stroke="#63b8ff" d="M245.83,-68.25C245.83,-60.15 245.83,-51.68 245.83,-44.29"/>
<polygon fill="#63b8ff" stroke="#63b8ff" points="242.33,-68.17 245.83,-78.17 249.33,-68.17 242.33,-68.17"/>
</a>
</g>
</g>
<!-- Node7&#45;&gt;Node5 -->
<g id="edge8_Node000007_Node000005" class="edge">
<title>Node7&#45;&gt;Node5</title>
<g id="a_edge8_Node000007_Node000005"><a xlink:title=" ">
<path fill="none" stroke="#63b8ff" d="M383.83,-75.51C357.36,-65.44 327.29,-54 302,-44.37"/>
<polygon fill="#63b8ff" stroke="#63b8ff" points="382.54,-78.76 393.13,-79.04 385.03,-72.22 382.54,-78.76"/>
</a>
</g>
</g>
</g>
</svg>
