<?xml version="1.0" encoding="UTF-8" standalone="no"?>
<!DOCTYPE svg PUBLIC "-//W3C//DTD SVG 1.1//EN"
 "http://www.w3.org/Graphics/SVG/1.1/DTD/svg11.dtd">
<!-- Generated by graphviz version 14.1.5 (20260411.2331)
 -->
<!-- Title: C:/Users/lucca/Documents/Lucca/Projects/C/yuime/include/yuime/widget/widget.h Pages: 1 -->
<svg width="168pt" height="164pt"
 viewBox="0.00 0.00 168.00 164.00" xmlns="http://www.w3.org/2000/svg" xmlns:xlink="http://www.w3.org/1999/xlink">
<g id="graph0" class="graph" transform="scale(1 1) rotate(0) translate(4 160)">
<title>C:/Users/lucca/Documents/Lucca/Projects/C/yuime/include/yuime/widget/widget.h</title>
<!-- Node1 -->
<g id="Node000001" class="node">
<title>Node1</title>
<g id="a_Node000001"><a xlink:title=" ">
<polygon fill="#999999" stroke="#666666" points="151.25,-156 1,-156 1,-112 151.25,-112 151.25,-156"/>
<text xml:space="preserve" text-anchor="start" x="9" y="-142.5" font-family="Helvetica,sans-Serif" font-size="10.00">C:/Users/lucca/Documents</text>
<text xml:space="preserve" text-anchor="start" x="9" y="-130.5" font-family="Helvetica,sans-Serif" font-size="10.00">/Lucca/Projects/C/yuime</text>
<text xml:space="preserve" text-anchor="middle" x="76.12" y="-118.5" font-family="Helvetica,sans-Serif" font-size="10.00">/include/yuime/widget/widget.h</text>
</a>
</g>
</g>
<!-- Node2 -->
<g id="Node000002" class="node">
<title>Node2</title>
<g id="a_Node000002"><a xlink:title=" ">
<polygon fill="#e0e0e0" stroke="#999999" points="48.25,-76 0,-76 0,-56 48.25,-56 48.25,-76"/>
<text xml:space="preserve" text-anchor="middle" x="24.12" y="-62.5" font-family="Helvetica,sans-Serif" font-size="10.00">string.h</text>
</a>
</g>
</g>
<!-- Node1&#45;&gt;Node2 -->
<g id="edge1_Node000001_Node000002" class="edge">
<title>Node1&#45;&gt;Node2</title>
<g id="a_edge1_Node000001_Node000002"><a xlink:title=" ">
<path fill="none" stroke="#63b8ff" d="M59.39,-111.75C52.64,-103.2 44.94,-93.42 38.46,-85.2"/>
<polygon fill="#63b8ff" stroke="#63b8ff" points="41.42,-83.3 32.48,-77.61 35.92,-87.63 41.42,-83.3"/>
</a>
</g>
</g>
<!-- Node3 -->
<g id="Node000003" class="node">
<title>Node3</title>
<g id="a_Node000003"><a xlink:href="alloc_8h.html" target="_top" xlink:title=" ">
<polygon fill="white" stroke="#666666" points="157.88,-76 104.38,-76 104.38,-56 157.88,-56 157.88,-76"/>
<text xml:space="preserve" text-anchor="middle" x="131.12" y="-62.5" font-family="Helvetica,sans-Serif" font-size="10.00">../alloc.h</text>
</a>
</g>
</g>
<!-- Node1&#45;&gt;Node3 -->
<g id="edge2_Node000001_Node000003" class="edge">
<title>Node1&#45;&gt;Node3</title>
<g id="a_edge2_Node000001_Node000003"><a xlink:title=" ">
<path fill="none" stroke="#63b8ff" d="M93.83,-111.75C100.96,-103.2 109.11,-93.42 115.96,-85.2"/>
<polygon fill="#63b8ff" stroke="#63b8ff" points="118.59,-87.5 122.31,-77.58 113.22,-83.02 118.59,-87.5"/>
</a>
</g>
</g>
<!-- Node4 -->
<g id="Node000004" class="node">
<title>Node4</title>
<g id="a_Node000004"><a xlink:title=" ">
<polygon fill="#e0e0e0" stroke="#999999" points="100.25,-20 52,-20 52,0 100.25,0 100.25,-20"/>
<text xml:space="preserve" text-anchor="middle" x="76.12" y="-6.5" font-family="Helvetica,sans-Serif" font-size="10.00">stdint.h</text>
</a>
</g>
</g>
<!-- Node1&#45;&gt;Node4 -->
<g id="edge5_Node000001_Node000004" class="edge">
<title>Node1&#45;&gt;Node4</title>
<g id="a_edge5_Node000001_Node000004"><a xlink:title=" ">
<path fill="none" stroke="#63b8ff" d="M76.12,-111.75C76.12,-89.26 76.12,-54.02 76.12,-31.73"/>
<polygon fill="#63b8ff" stroke="#63b8ff" points="79.63,-31.81 76.13,-21.81 72.63,-31.81 79.63,-31.81"/>
</a>
</g>
</g>
<!-- Node3&#45;&gt;Node4 -->
<g id="edge3_Node000003_Node000004" class="edge">
<title>Node3&#45;&gt;Node4</title>
<g id="a_edge3_Node000003_Node000004"><a xlink:title=" ">
<path fill="none" stroke="#63b8ff" d="M121.54,-55.59C113.89,-48.08 102.97,-37.35 93.75,-28.3"/>
<polygon fill="#63b8ff" stroke="#63b8ff" points="96.26,-25.87 86.68,-21.36 91.36,-30.86 96.26,-25.87"/>
</a>
</g>
</g>
<!-- Node5 -->
<g id="Node000005" class="node">
<title>Node5</title>
<g id="a_Node000005"><a xlink:href="_a_p_i_8h.html" target="_top" xlink:title=" ">
<polygon fill="white" stroke="#666666" points="159.5,-20 118.75,-20 118.75,0 159.5,0 159.5,-20"/>
<text xml:space="preserve" text-anchor="middle" x="139.12" y="-6.5" font-family="Helvetica,sans-Serif" font-size="10.00">API.h</text>
</a>
</g>
</g>
<!-- Node3&#45;&gt;Node5 -->
<g id="edge4_Node000003_Node000005" class="edge">
<title>Node3&#45;&gt;Node5</title>
<g id="a_edge4_Node000003_Node000005"><a xlink:title=" ">
<path fill="none" stroke="#63b8ff" d="M132.52,-55.59C133.51,-48.93 134.87,-39.75 136.1,-31.44"/>
<polygon fill="#63b8ff" stroke="#63b8ff" points="139.52,-32.2 137.53,-21.8 132.6,-31.17 139.52,-32.2"/>
</a>
</g>
</g>
</g>
</svg>
