<?xml version="1.0" encoding="UTF-8" standalone="no"?>
<!DOCTYPE svg PUBLIC "-//W3C//DTD SVG 1.1//EN"
 "http://www.w3.org/Graphics/SVG/1.1/DTD/svg11.dtd">
<!-- Generated by graphviz version 14.1.5 (20260411.2331)
 -->
<!-- Title: C:/Users/lucca/Documents/Lucca/Projects/C/yuime/include/yuime/widget/events.h Pages: 1 -->
<svg width="901pt" height="332pt"
 viewBox="0.00 0.00 901.00 332.00" xmlns="http://www.w3.org/2000/svg" xmlns:xlink="http://www.w3.org/1999/xlink">
<g id="graph0" class="graph" transform="scale(1 1) rotate(0) translate(4 328)">
<title>C:/Users/lucca/Documents/Lucca/Projects/C/yuime/include/yuime/widget/events.h</title>
<!-- Node1 -->
<g id="Node000001" class="node">
<title>Node1</title>
<g id="a_Node000001"><a xlink:title=" ">
<polygon fill="#999999" stroke="#666666" points="459.5,-324 308.5,-324 308.5,-280 459.5,-280 459.5,-324"/>
<text xml:space="preserve" text-anchor="start" x="316.5" y="-310.5" font-family="Helvetica,sans-Serif" font-size="10.00">C:/Users/lucca/Documents</text>
<text xml:space="preserve" text-anchor="start" x="316.5" y="-298.5" font-family="Helvetica,sans-Serif" font-size="10.00">/Lucca/Projects/C/yuime</text>
<text xml:space="preserve" text-anchor="middle" x="384" y="-286.5" font-family="Helvetica,sans-Serif" font-size="10.00">/include/yuime/widget/events.h</text>
</a>
</g>
</g>
<!-- Node2 -->
<g id="Node000002" class="node">
<title>Node2</title>
<g id="a_Node000002"><a xlink:href="_a_p_i_8h.html" target="_top" xlink:title=" ">
<polygon fill="white" stroke="#666666" points="447.88,-20 398.12,-20 398.12,0 447.88,0 447.88,-20"/>
<text xml:space="preserve" text-anchor="middle" x="423" y="-6.5" font-family="Helvetica,sans-Serif" font-size="10.00">../API.h</text>
</a>
</g>
</g>
<!-- Node1&#45;&gt;Node2 -->
<g id="edge1_Node000001_Node000002" class="edge">
<title>Node1&#45;&gt;Node2</title>
<g id="a_edge1_Node000001_Node000002"><a xlink:title=" ">
<path fill="none" stroke="#63b8ff" d="M389.68,-279.58C395.59,-255.35 404,-214.63 404,-179 404,-179 404,-179 404,-121 404,-89.26 411.78,-53.11 417.38,-31.19"/>
<polygon fill="#63b8ff" stroke="#63b8ff" points="420.69,-32.35 419.89,-21.79 413.93,-30.54 420.69,-32.35"/>
</a>
</g>
</g>
<!-- Node3 -->
<g id="Node000003" class="node">
<title>Node3</title>
<g id="a_Node000003"><a xlink:href="vector2_8h.html" target="_top" xlink:title=" ">
<polygon fill="white" stroke="#666666" points="148.12,-20 57.88,-20 57.88,0 148.12,0 148.12,-20"/>
<text xml:space="preserve" text-anchor="middle" x="103" y="-6.5" font-family="Helvetica,sans-Serif" font-size="10.00">../math/vector2.h</text>
</a>
</g>
</g>
<!-- Node1&#45;&gt;Node3 -->
<g id="edge2_Node000001_Node000003" class="edge">
<title>Node1&#45;&gt;Node3</title>
<g id="a_edge2_Node000001_Node000003"><a xlink:title=" ">
<path fill="none" stroke="#63b8ff" d="M308.13,-292.51C196.22,-277.84 0,-243 0,-179 0,-179 0,-179 0,-121 0,-77.28 43.89,-43.77 74.37,-25.76"/>
<polygon fill="#63b8ff" stroke="#63b8ff" points="75.81,-28.97 82.79,-21.01 72.36,-22.88 75.81,-28.97"/>
</a>
</g>
</g>
<!-- Node4 -->
<g id="Node000004" class="node">
<title>Node4</title>
<g id="a_Node000004"><a xlink:href="node_8h.html" target="_top" xlink:title=" ">
<polygon fill="white" stroke="#666666" points="376.25,-188 301.75,-188 301.75,-168 376.25,-168 376.25,-188"/>
<text xml:space="preserve" text-anchor="middle" x="339" y="-174.5" font-family="Helvetica,sans-Serif" font-size="10.00">yuime/node.h</text>
</a>
</g>
</g>
<!-- Node1&#45;&gt;Node4 -->
<g id="edge3_Node000001_Node000004" class="edge">
<title>Node1&#45;&gt;Node4</title>
<g id="a_edge3_Node000001_Node000004"><a xlink:title=" ">
<path fill="none" stroke="#63b8ff" d="M376.16,-279.75C367.75,-256.95 354.5,-221.03 346.3,-198.8"/>
<polygon fill="#63b8ff" stroke="#63b8ff" points="349.7,-197.89 342.95,-189.72 343.13,-200.31 349.7,-197.89"/>
</a>
</g>
</g>
<!-- Node12 -->
<g id="Node000012" class="node">
<title>Node12</title>
<g id="a_Node000012"><a xlink:href="context_8h.html" target="_top" xlink:title=" ">
<polygon fill="white" stroke="#666666" points="681.88,-244 596.12,-244 596.12,-224 681.88,-224 681.88,-244"/>
<text xml:space="preserve" text-anchor="middle" x="639" y="-230.5" font-family="Helvetica,sans-Serif" font-size="10.00">yuime/context.h</text>
</a>
</g>
</g>
<!-- Node1&#45;&gt;Node12 -->
<g id="edge21_Node000001_Node000012" class="edge">
<title>Node1&#45;&gt;Node12</title>
<g id="a_edge21_Node000001_Node000012"><a xlink:title=" ">
<path fill="none" stroke="#63b8ff" d="M459.82,-281.38C502.53,-270.32 554.55,-256.86 591.51,-247.29"/>
<polygon fill="#63b8ff" stroke="#63b8ff" points="592.2,-250.73 601.01,-244.83 590.45,-243.95 592.2,-250.73"/>
</a>
</g>
</g>
<!-- Node4&#45;&gt;Node2 -->
<g id="edge5_Node000004_Node000002" class="edge">
<title>Node4&#45;&gt;Node2</title>
<g id="a_edge5_Node000004_Node000002"><a xlink:title=" ">
<path fill="none" stroke="#63b8ff" d="M342.13,-167.54C349.22,-146.69 367.62,-95.46 390,-56 395.24,-46.76 402.05,-37.17 408.12,-29.24"/>
<polygon fill="#63b8ff" stroke="#63b8ff" points="410.85,-31.42 414.3,-21.4 405.36,-27.09 410.85,-31.42"/>
</a>
</g>
</g>
<!-- Node4&#45;&gt;Node3 -->
<g id="edge7_Node000004_Node000003" class="edge">
<title>Node4&#45;&gt;Node3</title>
<g id="a_edge7_Node000004_Node000003"><a xlink:title=" ">
<path fill="none" stroke="#63b8ff" d="M301.54,-174.18C258.03,-169.77 184.96,-158.74 128,-132 91.62,-114.92 74.53,-112.16 57,-76 48.33,-58.11 63.91,-39.82 79.23,-27.21"/>
<polygon fill="#63b8ff" stroke="#63b8ff" points="81.01,-30.26 86.84,-21.41 76.76,-24.69 81.01,-30.26"/>
</a>
</g>
</g>
<!-- Node5 -->
<g id="Node000005" class="node">
<title>Node5</title>
<g id="a_Node000005"><a xlink:title=" ">
<polygon fill="#e0e0e0" stroke="#999999" points="756.12,-20 707.88,-20 707.88,0 756.12,0 756.12,-20"/>
<text xml:space="preserve" text-anchor="middle" x="732" y="-6.5" font-family="Helvetica,sans-Serif" font-size="10.00">stdint.h</text>
</a>
</g>
</g>
<!-- Node4&#45;&gt;Node5 -->
<g id="edge4_Node000004_Node000005" class="edge">
<title>Node4&#45;&gt;Node5</title>
<g id="a_edge4_Node000004_Node000005"><a xlink:title=" ">
<path fill="none" stroke="#63b8ff" d="M376.58,-176.69C455.44,-175.32 634.84,-168.21 682,-132 713.9,-107.52 725.59,-59.09 729.76,-31.5"/>
<polygon fill="#63b8ff" stroke="#63b8ff" points="733.19,-32.32 731.01,-21.96 726.25,-31.42 733.19,-32.32"/>
</a>
</g>
</g>
<!-- Node6 -->
<g id="Node000006" class="node">
<title>Node6</title>
<g id="a_Node000006"><a xlink:href="rect_8h.html" target="_top" xlink:title=" ">
<polygon fill="white" stroke="#666666" points="299.75,-76 234.25,-76 234.25,-56 299.75,-56 299.75,-76"/>
<text xml:space="preserve" text-anchor="middle" x="267" y="-62.5" font-family="Helvetica,sans-Serif" font-size="10.00">math/rect.h</text>
</a>
</g>
</g>
<!-- Node4&#45;&gt;Node6 -->
<g id="edge6_Node000004_Node000006" class="edge">
<title>Node4&#45;&gt;Node6</title>
<g id="a_edge6_Node000004_Node000006"><a xlink:title=" ">
<path fill="none" stroke="#63b8ff" d="M332.86,-167.62C321.01,-149.52 294.79,-109.45 279.24,-85.7"/>
<polygon fill="#63b8ff" stroke="#63b8ff" points="282.36,-84.07 273.95,-77.62 276.5,-87.91 282.36,-84.07"/>
</a>
</g>
</g>
<!-- Node7 -->
<g id="Node000007" class="node">
<title>Node7</title>
<g id="a_Node000007"><a xlink:href="geometry_8h.html" target="_top" xlink:title=" ">
<polygon fill="white" stroke="#666666" points="250.38,-132 161.62,-132 161.62,-112 250.38,-112 250.38,-132"/>
<text xml:space="preserve" text-anchor="middle" x="206" y="-118.5" font-family="Helvetica,sans-Serif" font-size="10.00">math/geometry.h</text>
</a>
</g>
</g>
<!-- Node4&#45;&gt;Node7 -->
<g id="edge8_Node000004_Node000007" class="edge">
<title>Node4&#45;&gt;Node7</title>
<g id="a_edge8_Node000004_Node000007"><a xlink:title=" ">
<path fill="none" stroke="#63b8ff" d="M315.83,-167.59C294.79,-159.05 263.5,-146.35 239.7,-136.68"/>
<polygon fill="#63b8ff" stroke="#63b8ff" points="241.33,-133.57 230.75,-133.05 238.7,-140.05 241.33,-133.57"/>
</a>
</g>
</g>
<!-- Node8 -->
<g id="Node000008" class="node">
<title>Node8</title>
<g id="a_Node000008"><a xlink:href="dimension2_8h.html" target="_top" xlink:title=" ">
<polygon fill="white" stroke="#666666" points="139.88,-76 66.12,-76 66.12,-56 139.88,-56 139.88,-76"/>
<text xml:space="preserve" text-anchor="middle" x="103" y="-62.5" font-family="Helvetica,sans-Serif" font-size="10.00">dimension2.h</text>
</a>
</g>
</g>
<!-- Node4&#45;&gt;Node8 -->
<g id="edge14_Node000004_Node000008" class="edge">
<title>Node4&#45;&gt;Node8</title>
<g id="a_edge14_Node000004_Node000008"><a xlink:title=" ">
<path fill="none" stroke="#63b8ff" d="M301.54,-175.21C261.79,-171.74 198.55,-161.6 153,-132 135.32,-120.51 121.37,-100.57 112.74,-85.8"/>
<polygon fill="#63b8ff" stroke="#63b8ff" points="116.05,-84.54 108.16,-77.47 109.92,-87.92 116.05,-84.54"/>
</a>
</g>
</g>
<!-- Node9 -->
<g id="Node000009" class="node">
<title>Node9</title>
<g id="a_Node000009"><a xlink:href="widget_8h.html" target="_top" xlink:title=" ">
<polygon fill="white" stroke="#666666" points="571.12,-132 486.88,-132 486.88,-112 571.12,-112 571.12,-132"/>
<text xml:space="preserve" text-anchor="middle" x="529" y="-118.5" font-family="Helvetica,sans-Serif" font-size="10.00">widget/widget.h</text>
</a>
</g>
</g>
<!-- Node4&#45;&gt;Node9 -->
<g id="edge15_Node000004_Node000009" class="edge">
<title>Node4&#45;&gt;Node9</title>
<g id="a_edge15_Node000004_Node000009"><a xlink:title=" ">
<path fill="none" stroke="#63b8ff" d="M372.1,-167.59C403.37,-158.71 450.5,-145.31 484.95,-135.52"/>
<polygon fill="#63b8ff" stroke="#63b8ff" points="485.53,-138.99 494.19,-132.89 483.61,-132.26 485.53,-138.99"/>
</a>
</g>
</g>
<!-- Node7&#45;&gt;Node2 -->
<g id="edge9_Node000007_Node000002" class="edge">
<title>Node7&#45;&gt;Node2</title>
<g id="a_edge9_Node000007_Node000002"><a xlink:title=" ">
<path fill="none" stroke="#63b8ff" d="M205.94,-111.52C206.39,-97.33 209.42,-70.66 225,-56 248,-34.36 335.76,-20.97 386.39,-14.88"/>
<polygon fill="#63b8ff" stroke="#63b8ff" points="386.77,-18.36 396.3,-13.73 385.96,-11.41 386.77,-18.36"/>
</a>
</g>
</g>
<!-- Node7&#45;&gt;Node3 -->
<g id="edge10_Node000007_Node000003" class="edge">
<title>Node7&#45;&gt;Node3</title>
<g id="a_edge10_Node000007_Node000003"><a xlink:title=" ">
<path fill="none" stroke="#63b8ff" d="M198.1,-111.54C187.29,-98.71 167.16,-75.18 149,-56 140.11,-46.61 129.85,-36.51 121.28,-28.26"/>
<polygon fill="#63b8ff" stroke="#63b8ff" points="123.83,-25.86 114.18,-21.49 119,-30.92 123.83,-25.86"/>
</a>
</g>
</g>
<!-- Node7&#45;&gt;Node6 -->
<g id="edge13_Node000007_Node000006" class="edge">
<title>Node7&#45;&gt;Node6</title>
<g id="a_edge13_Node000007_Node000006"><a xlink:title=" ">
<path fill="none" stroke="#63b8ff" d="M216.63,-111.59C225.28,-103.93 237.73,-92.91 248.08,-83.75"/>
<polygon fill="#63b8ff" stroke="#63b8ff" points="250.2,-86.55 255.36,-77.3 245.56,-81.31 250.2,-86.55"/>
</a>
</g>
</g>
<!-- Node7&#45;&gt;Node8 -->
<g id="edge11_Node000007_Node000008" class="edge">
<title>Node7&#45;&gt;Node8</title>
<g id="a_edge11_Node000007_Node000008"><a xlink:title=" ">
<path fill="none" stroke="#63b8ff" d="M188.06,-111.59C172.35,-103.36 149.27,-91.26 131.11,-81.74"/>
<polygon fill="#63b8ff" stroke="#63b8ff" points="132.9,-78.73 122.42,-77.18 129.65,-84.93 132.9,-78.73"/>
</a>
</g>
</g>
<!-- Node8&#45;&gt;Node3 -->
<g id="edge12_Node000008_Node000003" class="edge">
<title>Node8&#45;&gt;Node3</title>
<g id="a_edge12_Node000008_Node000003"><a xlink:title=" ">
<path fill="none" stroke="#63b8ff" d="M103,-55.59C103,-49.01 103,-39.96 103,-31.73"/>
<polygon fill="#63b8ff" stroke="#63b8ff" points="106.5,-31.81 103,-21.81 99.5,-31.81 106.5,-31.81"/>
</a>
</g>
</g>
<!-- Node9&#45;&gt;Node5 -->
<g id="edge20_Node000009_Node000005" class="edge">
<title>Node9&#45;&gt;Node5</title>
<g id="a_edge20_Node000009_Node000005"><a xlink:title=" ">
<path fill="none" stroke="#63b8ff" d="M537.24,-111.78C550.06,-97.92 576.12,-71.68 603,-56 632.58,-38.74 669.82,-26.64 696.68,-19.36"/>
<polygon fill="#63b8ff" stroke="#63b8ff" points="697.24,-22.83 706.04,-16.92 695.48,-16.06 697.24,-22.83"/>
</a>
</g>
</g>
<!-- Node10 -->
<g id="Node000010" class="node">
<title>Node10</title>
<g id="a_Node000010"><a xlink:title=" ">
<polygon fill="#e0e0e0" stroke="#999999" points="518.12,-76 469.88,-76 469.88,-56 518.12,-56 518.12,-76"/>
<text xml:space="preserve" text-anchor="middle" x="494" y="-62.5" font-family="Helvetica,sans-Serif" font-size="10.00">string.h</text>
</a>
</g>
</g>
<!-- Node9&#45;&gt;Node10 -->
<g id="edge16_Node000009_Node000010" class="edge">
<title>Node9&#45;&gt;Node10</title>
<g id="a_edge16_Node000009_Node000010"><a xlink:title=" ">
<path fill="none" stroke="#63b8ff" d="M522.9,-111.59C518.29,-104.47 511.79,-94.45 506.13,-85.72"/>
<polygon fill="#63b8ff" stroke="#63b8ff" points="509.23,-84.06 500.85,-77.57 503.35,-87.86 509.23,-84.06"/>
</a>
</g>
</g>
<!-- Node11 -->
<g id="Node000011" class="node">
<title>Node11</title>
<g id="a_Node000011"><a xlink:href="alloc_8h.html" target="_top" xlink:title=" ">
<polygon fill="white" stroke="#666666" points="665.75,-76 612.25,-76 612.25,-56 665.75,-56 665.75,-76"/>
<text xml:space="preserve" text-anchor="middle" x="639" y="-62.5" font-family="Helvetica,sans-Serif" font-size="10.00">../alloc.h</text>
</a>
</g>
</g>
<!-- Node9&#45;&gt;Node11 -->
<g id="edge17_Node000009_Node000011" class="edge">
<title>Node9&#45;&gt;Node11</title>
<g id="a_edge17_Node000009_Node000011"><a xlink:title=" ">
<path fill="none" stroke="#63b8ff" d="M548.16,-111.59C565.09,-103.28 590.05,-91.03 609.52,-81.47"/>
<polygon fill="#63b8ff" stroke="#63b8ff" points="610.9,-84.7 618.33,-77.15 607.81,-78.41 610.9,-84.7"/>
</a>
</g>
</g>
<!-- Node11&#45;&gt;Node2 -->
<g id="edge19_Node000011_Node000002" class="edge">
<title>Node11&#45;&gt;Node2</title>
<g id="a_edge19_Node000011_Node000002"><a xlink:title=" ">
<path fill="none" stroke="#63b8ff" d="M612.08,-58.27C573.54,-48.64 502.55,-30.89 459.37,-20.09"/>
<polygon fill="#63b8ff" stroke="#63b8ff" points="460.26,-16.71 449.71,-17.68 458.56,-23.5 460.26,-16.71"/>
</a>
</g>
</g>
<!-- Node11&#45;&gt;Node5 -->
<g id="edge18_Node000011_Node000005" class="edge">
<title>Node11&#45;&gt;Node5</title>
<g id="a_edge18_Node000011_Node000005"><a xlink:title=" ">
<path fill="none" stroke="#63b8ff" d="M655.2,-55.59C669.25,-47.44 689.83,-35.48 706.16,-26"/>
<polygon fill="#63b8ff" stroke="#63b8ff" points="707.47,-29.29 714.37,-21.24 703.96,-23.23 707.47,-29.29"/>
</a>
</g>
</g>
<!-- Node12&#45;&gt;Node3 -->
<g id="edge24_Node000012_Node000003" class="edge">
<title>Node12&#45;&gt;Node3</title>
<g id="a_edge24_Node000012_Node000003"><a xlink:title=" ">
<path fill="none" stroke="#63b8ff" d="M621.98,-223.51C559.16,-188.55 342.31,-68.3 309,-56 259.93,-37.88 201.45,-25.97 159.36,-18.98"/>
<polygon fill="#63b8ff" stroke="#63b8ff" points="160.14,-15.56 149.71,-17.42 159.03,-22.47 160.14,-15.56"/>
</a>
</g>
</g>
<!-- Node12&#45;&gt;Node4 -->
<g id="edge25_Node000012_Node000004" class="edge">
<title>Node12&#45;&gt;Node4</title>
<g id="a_edge25_Node000012_Node000004"><a xlink:title=" ">
<path fill="none" stroke="#63b8ff" d="M595.7,-225.21C540.48,-215.27 445.26,-198.13 387.61,-187.75"/>
<polygon fill="#63b8ff" stroke="#63b8ff" points="388.55,-184.36 378.09,-186.04 387.31,-191.25 388.55,-184.36"/>
</a>
</g>
</g>
<!-- Node12&#45;&gt;Node5 -->
<g id="edge22_Node000012_Node000005" class="edge">
<title>Node12&#45;&gt;Node5</title>
<g id="a_edge22_Node000012_Node000005"><a xlink:title=" ">
<path fill="none" stroke="#63b8ff" d="M682.34,-231.32C744.8,-227.89 855.35,-217.67 880,-188 930.13,-127.64 816.9,-56.03 760.95,-25.72"/>
<polygon fill="#63b8ff" stroke="#63b8ff" points="762.72,-22.69 752.24,-21.09 759.44,-28.87 762.72,-22.69"/>
</a>
</g>
</g>
<!-- Node12&#45;&gt;Node11 -->
<g id="edge23_Node000012_Node000011" class="edge">
<title>Node12&#45;&gt;Node11</title>
<g id="a_edge23_Node000012_Node000011"><a xlink:title=" ">
<path fill="none" stroke="#63b8ff" d="M655.41,-223.52C667.19,-215.68 682.16,-203.36 689,-188 695.88,-172.54 690.99,-130.92 682,-112 676.89,-101.25 668.22,-91.42 659.99,-83.71"/>
<polygon fill="#63b8ff" stroke="#63b8ff" points="662.41,-81.17 652.57,-77.22 657.8,-86.44 662.41,-81.17"/>
</a>
</g>
</g>
<!-- Node13 -->
<g id="Node000013" class="node">
<title>Node13</title>
<g id="a_Node000013"><a xlink:href="resize__region_8h.html" target="_top" xlink:title=" ">
<polygon fill="white" stroke="#666666" points="871,-188 789,-188 789,-168 871,-168 871,-188"/>
<text xml:space="preserve" text-anchor="middle" x="830" y="-174.5" font-family="Helvetica,sans-Serif" font-size="10.00">resize_region.h</text>
</a>
</g>
</g>
<!-- Node12&#45;&gt;Node13 -->
<g id="edge26_Node000012_Node000013" class="edge">
<title>Node12&#45;&gt;Node13</title>
<g id="a_edge26_Node000012_Node000013"><a xlink:title=" ">
<path fill="none" stroke="#63b8ff" d="M672.27,-223.59C703.71,-214.71 751.09,-201.31 785.71,-191.52"/>
<polygon fill="#63b8ff" stroke="#63b8ff" points="786.34,-194.98 795.01,-188.89 784.44,-188.24 786.34,-194.98"/>
</a>
</g>
</g>
<!-- Node14 -->
<g id="Node000014" class="node">
<title>Node14</title>
<g id="a_Node000014"><a xlink:href="render_8h.html" target="_top" xlink:title=" ">
<polygon fill="white" stroke="#666666" points="679.62,-188 598.38,-188 598.38,-168 679.62,-168 679.62,-188"/>
<text xml:space="preserve" text-anchor="middle" x="639" y="-174.5" font-family="Helvetica,sans-Serif" font-size="10.00">render/render.h</text>
</a>
</g>
</g>
<!-- Node12&#45;&gt;Node14 -->
<g id="edge28_Node000012_Node000014" class="edge">
<title>Node12&#45;&gt;Node14</title>
<g id="a_edge28_Node000012_Node000014"><a xlink:title=" ">
<path fill="none" stroke="#63b8ff" d="M639,-223.59C639,-217.01 639,-207.96 639,-199.73"/>
<polygon fill="#63b8ff" stroke="#63b8ff" points="642.5,-199.81 639,-189.81 635.5,-199.81 642.5,-199.81"/>
</a>
</g>
</g>
<!-- Node13&#45;&gt;Node5 -->
<g id="edge27_Node000013_Node000005" class="edge">
<title>Node13&#45;&gt;Node5</title>
<g id="a_edge27_Node000013_Node000005"><a xlink:title=" ">
<path fill="none" stroke="#63b8ff" d="M824.97,-167.79C813.81,-147.44 785.96,-97.14 761,-56 755.7,-47.27 749.61,-37.75 744.38,-29.72"/>
<polygon fill="#63b8ff" stroke="#63b8ff" points="747.39,-27.92 738.98,-21.48 741.54,-31.76 747.39,-27.92"/>
</a>
</g>
</g>
<!-- Node14&#45;&gt;Node2 -->
<g id="edge30_Node000014_Node000002" class="edge">
<title>Node14&#45;&gt;Node2</title>
<g id="a_edge30_Node000014_Node000002"><a xlink:title=" ">
<path fill="none" stroke="#63b8ff" d="M598.16,-175.04C562.64,-171.32 511.72,-160.89 478,-132 447.29,-105.69 432.85,-58.7 426.8,-31.67"/>
<polygon fill="#63b8ff" stroke="#63b8ff" points="430.25,-31.08 424.82,-21.98 423.39,-32.47 430.25,-31.08"/>
</a>
</g>
</g>
<!-- Node14&#45;&gt;Node5 -->
<g id="edge29_Node000014_Node000005" class="edge">
<title>Node14&#45;&gt;Node5</title>
<g id="a_edge29_Node000014_Node000005"><a xlink:title=" ">
<path fill="none" stroke="#63b8ff" d="M673.22,-167.66C692.45,-160.75 715.44,-149.46 730,-132 752.1,-105.49 751.19,-90.13 746,-56 744.74,-47.72 742.25,-38.86 739.71,-31.22"/>
<polygon fill="#63b8ff" stroke="#63b8ff" points="743.04,-30.12 736.37,-21.88 736.45,-32.48 743.04,-30.12"/>
</a>
</g>
</g>
<!-- Node15 -->
<g id="Node000015" class="node">
<title>Node15</title>
<g id="a_Node000015"><a xlink:href="command_8h.html" target="_top" xlink:title=" ">
<polygon fill="white" stroke="#666666" points="672.5,-132 605.5,-132 605.5,-112 672.5,-112 672.5,-132"/>
<text xml:space="preserve" text-anchor="middle" x="639" y="-118.5" font-family="Helvetica,sans-Serif" font-size="10.00">command.h</text>
</a>
</g>
</g>
<!-- Node14&#45;&gt;Node15 -->
<g id="edge31_Node000014_Node000015" class="edge">
<title>Node14&#45;&gt;Node15</title>
<g id="a_edge31_Node000014_Node000015"><a xlink:title=" ">
<path fill="none" stroke="#63b8ff" d="M639,-167.59C639,-161.01 639,-151.96 639,-143.73"/>
<polygon fill="#63b8ff" stroke="#63b8ff" points="642.5,-143.81 639,-133.81 635.5,-143.81 642.5,-143.81"/>
</a>
</g>
</g>
<!-- Node15&#45;&gt;Node2 -->
<g id="edge33_Node000015_Node000002" class="edge">
<title>Node15&#45;&gt;Node2</title>
<g id="a_edge33_Node000015_Node000002"><a xlink:title=" ">
<path fill="none" stroke="#63b8ff" d="M624.09,-111.59C602.92,-98.41 562.73,-74.02 527,-56 504.22,-44.51 477.83,-33.11 457.33,-24.66"/>
<polygon fill="#63b8ff" stroke="#63b8ff" points="458.89,-21.52 448.31,-20.98 456.25,-28 458.89,-21.52"/>
</a>
</g>
</g>
<!-- Node15&#45;&gt;Node5 -->
<g id="edge32_Node000015_Node000005" class="edge">
<title>Node15&#45;&gt;Node5</title>
<g id="a_edge32_Node000015_Node000005"><a xlink:title=" ">
<path fill="none" stroke="#63b8ff" d="M646.93,-111.62C662.37,-93.36 696.72,-52.73 716.72,-29.07"/>
<polygon fill="#63b8ff" stroke="#63b8ff" points="719.33,-31.41 723.11,-21.51 713.98,-26.89 719.33,-31.41"/>
</a>
</g>
</g>
<!-- Node15&#45;&gt;Node11 -->
<g id="edge34_Node000015_Node000011" class="edge">
<title>Node15&#45;&gt;Node11</title>
<g id="a_edge34_Node000015_Node000011"><a xlink:title=" ">
<path fill="none" stroke="#63b8ff" d="M639,-111.59C639,-105.01 639,-95.96 639,-87.73"/>
<polygon fill="#63b8ff" stroke="#63b8ff" points="642.5,-87.81 639,-77.81 635.5,-87.81 642.5,-87.81"/>
</a>
</g>
</g>
</g>
</svg>
