<?xml version="1.0" encoding="UTF-8" standalone="no"?>
<!DOCTYPE svg PUBLIC "-//W3C//DTD SVG 1.1//EN"
 "http://www.w3.org/Graphics/SVG/1.1/DTD/svg11.dtd">
<!-- Generated by graphviz version 14.1.5 (20260411.2331)
 -->
<!-- Title: C:/Users/lucca/Documents/Lucca/Projects/C/yuime/include/yuime/yuime.h Pages: 1 -->
<svg width="1378pt" height="388pt"
 viewBox="0.00 0.00 1378.00 388.00" xmlns="http://www.w3.org/2000/svg" xmlns:xlink="http://www.w3.org/1999/xlink">
<g id="graph0" class="graph" transform="scale(1 1) rotate(0) translate(4 384)">
<title>C:/Users/lucca/Documents/Lucca/Projects/C/yuime/include/yuime/yuime.h</title>
<!-- Node1 -->
<g id="Node000001" class="node">
<title>Node1</title>
<g id="a_Node000001"><a xlink:title=" ">
<polygon fill="#999999" stroke="#666666" points="851.62,-380 716.38,-380 716.38,-336 851.62,-336 851.62,-380"/>
<text xml:space="preserve" text-anchor="start" x="724.38" y="-366.5" font-family="Helvetica,sans-Serif" font-size="10.00">C:/Users/lucca/Documents</text>
<text xml:space="preserve" text-anchor="start" x="724.38" y="-354.5" font-family="Helvetica,sans-Serif" font-size="10.00">/Lucca/Projects/C/yuime</text>
<text xml:space="preserve" text-anchor="middle" x="784" y="-342.5" font-family="Helvetica,sans-Serif" font-size="10.00">/include/yuime/yuime.h</text>
</a>
</g>
</g>
<!-- Node2 -->
<g id="Node000002" class="node">
<title>Node2</title>
<g id="a_Node000002"><a xlink:href="_a_p_i_8h.html" target="_top" xlink:title=" ">
<polygon fill="white" stroke="#666666" points="516.38,-20 475.62,-20 475.62,0 516.38,0 516.38,-20"/>
<text xml:space="preserve" text-anchor="middle" x="496" y="-6.5" font-family="Helvetica,sans-Serif" font-size="10.00">API.h</text>
</a>
</g>
</g>
<!-- Node1&#45;&gt;Node2 -->
<g id="edge1_Node000001_Node000002" class="edge">
<title>Node1&#45;&gt;Node2</title>
<g id="a_edge1_Node000001_Node000002"><a xlink:title=" ">
<path fill="none" stroke="#63b8ff" d="M716.02,-354.67C560.02,-348.8 186.13,-331.59 139,-300 115.72,-284.39 119.01,-270.54 110,-244 91,-188.04 84.82,-154.39 126,-112 164.78,-72.08 185.14,-73.41 238,-56 316.99,-29.98 414.82,-18.17 464.24,-13.55"/>
<polygon fill="#63b8ff" stroke="#63b8ff" points="464.28,-17.06 473.93,-12.68 463.66,-10.09 464.28,-17.06"/>
</a>
</g>
</g>
<!-- Node3 -->
<g id="Node000003" class="node">
<title>Node3</title>
<g id="a_Node000003"><a xlink:href="alloc_8h.html" target="_top" xlink:title=" ">
<polygon fill="white" stroke="#666666" points="1012.25,-76 967.75,-76 967.75,-56 1012.25,-56 1012.25,-76"/>
<text xml:space="preserve" text-anchor="middle" x="990" y="-62.5" font-family="Helvetica,sans-Serif" font-size="10.00">alloc.h</text>
</a>
</g>
</g>
<!-- Node1&#45;&gt;Node3 -->
<g id="edge2_Node000001_Node000003" class="edge">
<title>Node1&#45;&gt;Node3</title>
<g id="a_edge2_Node000001_Node000003"><a xlink:title=" ">
<path fill="none" stroke="#63b8ff" d="M851.93,-348.28C899.46,-340.3 963.41,-325.68 1015,-300 1110.66,-252.38 1148.18,-231.56 1187,-132 1190.23,-123.72 1192.54,-118.95 1187,-112 1166.95,-86.86 1074.61,-74.65 1023.79,-69.74"/>
<polygon fill="#63b8ff" stroke="#63b8ff" points="1024.21,-66.27 1013.93,-68.84 1023.57,-73.24 1024.21,-66.27"/>
</a>
</g>
</g>
<!-- Node5 -->
<g id="Node000005" class="node">
<title>Node5</title>
<g id="a_Node000005"><a xlink:href="vector2_8h.html" target="_top" xlink:title=" ">
<polygon fill="white" stroke="#666666" points="192.62,-20 111.38,-20 111.38,0 192.62,0 192.62,-20"/>
<text xml:space="preserve" text-anchor="middle" x="152" y="-6.5" font-family="Helvetica,sans-Serif" font-size="10.00">math/vector2.h</text>
</a>
</g>
</g>
<!-- Node1&#45;&gt;Node5 -->
<g id="edge5_Node000001_Node000005" class="edge">
<title>Node1&#45;&gt;Node5</title>
<g id="a_edge5_Node000001_Node000005"><a xlink:title=" ">
<path fill="none" stroke="#63b8ff" d="M715.97,-354.8C569.3,-349.47 227.6,-333.75 117,-300 60.1,-282.64 0,-294.49 0,-235 0,-235 0,-235 0,-121 0,-69.05 58.99,-39.14 103.48,-23.96"/>
<polygon fill="#63b8ff" stroke="#63b8ff" points="104.55,-27.29 112.99,-20.89 102.4,-20.63 104.55,-27.29"/>
</a>
</g>
</g>
<!-- Node6 -->
<g id="Node000006" class="node">
<title>Node6</title>
<g id="a_Node000006"><a xlink:href="rect_8h.html" target="_top" xlink:title=" ">
<polygon fill="white" stroke="#666666" points="594.75,-76 529.25,-76 529.25,-56 594.75,-56 594.75,-76"/>
<text xml:space="preserve" text-anchor="middle" x="562" y="-62.5" font-family="Helvetica,sans-Serif" font-size="10.00">math/rect.h</text>
</a>
</g>
</g>
<!-- Node1&#45;&gt;Node6 -->
<g id="edge6_Node000001_Node000006" class="edge">
<title>Node1&#45;&gt;Node6</title>
<g id="a_edge6_Node000001_Node000006"><a xlink:title=" ">
<path fill="none" stroke="#63b8ff" d="M731.31,-335.69C692.08,-317.16 640.28,-286.56 610,-244 575.31,-195.25 565.69,-122.69 563.02,-87.55"/>
<polygon fill="#63b8ff" stroke="#63b8ff" points="566.53,-87.68 562.41,-77.92 559.55,-88.12 566.53,-87.68"/>
</a>
</g>
</g>
<!-- Node7 -->
<g id="Node000007" class="node">
<title>Node7</title>
<g id="a_Node000007"><a xlink:href="dimension2_8h.html" target="_top" xlink:title=" ">
<polygon fill="white" stroke="#666666" points="392.25,-76 293.75,-76 293.75,-56 392.25,-56 392.25,-76"/>
<text xml:space="preserve" text-anchor="middle" x="343" y="-62.5" font-family="Helvetica,sans-Serif" font-size="10.00">math/dimension2.h</text>
</a>
</g>
</g>
<!-- Node1&#45;&gt;Node7 -->
<g id="edge7_Node000001_Node000007" class="edge">
<title>Node1&#45;&gt;Node7</title>
<g id="a_edge7_Node000001_Node000007"><a xlink:title=" ">
<path fill="none" stroke="#63b8ff" d="M716.28,-357.87C611.82,-357.46 406.05,-349.61 240,-300 179.62,-281.96 114,-298.01 114,-235 114,-235 114,-235 114,-177 114,-102.37 214.05,-78.34 281.89,-70.62"/>
<polygon fill="#63b8ff" stroke="#63b8ff" points="282.22,-74.11 291.8,-69.6 281.5,-67.14 282.22,-74.11"/>
</a>
</g>
</g>
<!-- Node8 -->
<g id="Node000008" class="node">
<title>Node8</title>
<g id="a_Node000008"><a xlink:href="geometry_8h.html" target="_top" xlink:title=" ">
<polygon fill="white" stroke="#666666" points="420.38,-132 331.62,-132 331.62,-112 420.38,-112 420.38,-132"/>
<text xml:space="preserve" text-anchor="middle" x="376" y="-118.5" font-family="Helvetica,sans-Serif" font-size="10.00">math/geometry.h</text>
</a>
</g>
</g>
<!-- Node1&#45;&gt;Node8 -->
<g id="edge9_Node000001_Node000008" class="edge">
<title>Node1&#45;&gt;Node8</title>
<g id="a_edge9_Node000001_Node000008"><a xlink:title=" ">
<path fill="none" stroke="#63b8ff" d="M715.95,-354.64C580.02,-349.24 285.28,-333.72 255,-300 206.24,-245.7 303.13,-170.76 351.18,-138.64"/>
<polygon fill="#63b8ff" stroke="#63b8ff" points="352.91,-141.69 359.36,-133.29 349.07,-135.84 352.91,-141.69"/>
</a>
</g>
</g>
<!-- Node9 -->
<g id="Node000009" class="node">
<title>Node9</title>
<g id="a_Node000009"><a xlink:href="color_8h.html" target="_top" xlink:title=" ">
<polygon fill="white" stroke="#666666" points="1277.62,-188 1208.38,-188 1208.38,-168 1277.62,-168 1277.62,-188"/>
<text xml:space="preserve" text-anchor="middle" x="1243" y="-174.5" font-family="Helvetica,sans-Serif" font-size="10.00">style/color.h</text>
</a>
</g>
</g>
<!-- Node1&#45;&gt;Node9 -->
<g id="edge14_Node000001_Node000009" class="edge">
<title>Node1&#45;&gt;Node9</title>
<g id="a_edge14_Node000001_Node000009"><a xlink:title=" ">
<path fill="none" stroke="#63b8ff" d="M851.83,-352.03C935.32,-344.75 1071.08,-328.85 1112,-300 1143.72,-277.64 1126.98,-250.86 1155,-224 1169.02,-210.56 1187.85,-200.2 1204.49,-192.84"/>
<polygon fill="#63b8ff" stroke="#63b8ff" points="1205.77,-196.1 1213.64,-189.01 1203.07,-189.64 1205.77,-196.1"/>
</a>
</g>
</g>
<!-- Node10 -->
<g id="Node000010" class="node">
<title>Node10</title>
<g id="a_Node000010"><a xlink:href="border_8h.html" target="_top" xlink:title=" ">
<polygon fill="white" stroke="#666666" points="1239.62,-244 1164.38,-244 1164.38,-224 1239.62,-224 1239.62,-244"/>
<text xml:space="preserve" text-anchor="middle" x="1202" y="-230.5" font-family="Helvetica,sans-Serif" font-size="10.00">style/border.h</text>
</a>
</g>
</g>
<!-- Node1&#45;&gt;Node10 -->
<g id="edge16_Node000001_Node000010" class="edge">
<title>Node1&#45;&gt;Node10</title>
<g id="a_edge16_Node000001_Node000010"><a xlink:title=" ">
<path fill="none" stroke="#63b8ff" d="M851.82,-352.31C943.32,-345 1100.55,-328.66 1150,-300 1168.51,-289.27 1183.01,-269.21 1191.94,-254.2"/>
<polygon fill="#63b8ff" stroke="#63b8ff" points="1194.87,-256.13 1196.69,-245.69 1188.76,-252.71 1194.87,-256.13"/>
</a>
</g>
</g>
<!-- Node11 -->
<g id="Node000011" class="node">
<title>Node11</title>
<g id="a_Node000011"><a xlink:href="widget_2events_8h.html" target="_top" xlink:title=" ">
<polygon fill="white" stroke="#666666" points="420.5,-300 335.5,-300 335.5,-280 420.5,-280 420.5,-300"/>
<text xml:space="preserve" text-anchor="middle" x="378" y="-286.5" font-family="Helvetica,sans-Serif" font-size="10.00">widget/events.h</text>
</a>
</g>
</g>
<!-- Node1&#45;&gt;Node11 -->
<g id="edge18_Node000001_Node000011" class="edge">
<title>Node1&#45;&gt;Node11</title>
<g id="a_edge18_Node000001_Node000011"><a xlink:title=" ">
<path fill="none" stroke="#63b8ff" d="M716.04,-345.95C636.23,-332.98 505.43,-311.72 432.14,-299.8"/>
<polygon fill="#63b8ff" stroke="#63b8ff" points="432.81,-296.36 422.38,-298.21 431.69,-303.27 432.81,-296.36"/>
</a>
</g>
</g>
<!-- Node13 -->
<g id="Node000013" class="node">
<title>Node13</title>
<g id="a_Node000013"><a xlink:href="widget_8h.html" target="_top" xlink:title=" ">
<polygon fill="white" stroke="#666666" points="1178.12,-132 1093.88,-132 1093.88,-112 1178.12,-112 1178.12,-132"/>
<text xml:space="preserve" text-anchor="middle" x="1136" y="-118.5" font-family="Helvetica,sans-Serif" font-size="10.00">widget/widget.h</text>
</a>
</g>
</g>
<!-- Node1&#45;&gt;Node13 -->
<g id="edge46_Node000001_Node000013" class="edge">
<title>Node1&#45;&gt;Node13</title>
<g id="a_edge46_Node000001_Node000013"><a xlink:title=" ">
<path fill="none" stroke="#63b8ff" d="M851.76,-345.59C891.93,-336.94 942.86,-322.59 984,-300 1049.68,-263.94 1066.93,-249.31 1110,-188 1119.52,-174.45 1126.27,-156.9 1130.51,-143.46"/>
<polygon fill="#63b8ff" stroke="#63b8ff" points="1133.84,-144.53 1133.27,-133.95 1127.12,-142.57 1133.84,-144.53"/>
</a>
</g>
</g>
<!-- Node15 -->
<g id="Node000015" class="node">
<title>Node15</title>
<g id="a_Node000015"><a xlink:href="context_8h.html" target="_top" xlink:title=" ">
<polygon fill="white" stroke="#666666" points="716.88,-244 631.12,-244 631.12,-224 716.88,-224 716.88,-244"/>
<text xml:space="preserve" text-anchor="middle" x="674" y="-230.5" font-family="Helvetica,sans-Serif" font-size="10.00">yuime/context.h</text>
</a>
</g>
</g>
<!-- Node1&#45;&gt;Node15 -->
<g id="edge64_Node000001_Node000015" class="edge">
<title>Node1&#45;&gt;Node15</title>
<g id="a_edge64_Node000001_Node000015"><a xlink:title=" ">
<path fill="none" stroke="#63b8ff" d="M739.77,-335.67C724.49,-326.48 708.37,-314.49 697,-300 686.81,-287.02 680.93,-269.18 677.67,-255.47"/>
<polygon fill="#63b8ff" stroke="#63b8ff" points="681.12,-254.87 675.67,-245.79 674.26,-256.29 681.12,-254.87"/>
</a>
</g>
</g>
<!-- Node16 -->
<g id="Node000016" class="node">
<title>Node16</title>
<g id="a_Node000016"><a xlink:href="resize__region_8h.html" target="_top" xlink:title=" ">
<polygon fill="white" stroke="#666666" points="1076,-188 994,-188 994,-168 1076,-168 1076,-188"/>
<text xml:space="preserve" text-anchor="middle" x="1035" y="-174.5" font-family="Helvetica,sans-Serif" font-size="10.00">resize_region.h</text>
</a>
</g>
</g>
<!-- Node1&#45;&gt;Node16 -->
<g id="edge65_Node000001_Node000016" class="edge">
<title>Node1&#45;&gt;Node16</title>
<g id="a_edge65_Node000001_Node000016"><a xlink:title=" ">
<path fill="none" stroke="#63b8ff" d="M851.97,-346.56C887.06,-338.47 928.9,-324.36 960,-300 994.4,-273.05 1017.06,-225.6 1027.79,-198.83"/>
<polygon fill="#63b8ff" stroke="#63b8ff" points="1030.92,-200.44 1031.22,-189.85 1024.38,-197.94 1030.92,-200.44"/>
</a>
</g>
</g>
<!-- Node17 -->
<g id="Node000017" class="node">
<title>Node17</title>
<g id="a_Node000017"><a xlink:href="render_8h.html" target="_top" xlink:title=" ">
<polygon fill="white" stroke="#666666" points="861.62,-188 780.38,-188 780.38,-168 861.62,-168 861.62,-188"/>
<text xml:space="preserve" text-anchor="middle" x="821" y="-174.5" font-family="Helvetica,sans-Serif" font-size="10.00">render/render.h</text>
</a>
</g>
</g>
<!-- Node1&#45;&gt;Node17 -->
<g id="edge58_Node000001_Node000017" class="edge">
<title>Node1&#45;&gt;Node17</title>
<g id="a_edge58_Node000001_Node000017"><a xlink:title=" ">
<path fill="none" stroke="#63b8ff" d="M788.46,-335.53C795.66,-300.93 809.71,-233.29 816.76,-199.39"/>
<polygon fill="#63b8ff" stroke="#63b8ff" points="820.17,-200.18 818.78,-189.67 813.32,-198.75 820.17,-200.18"/>
</a>
</g>
</g>
<!-- Node18 -->
<g id="Node000018" class="node">
<title>Node18</title>
<g id="a_Node000018"><a xlink:href="command_8h.html" target="_top" xlink:title=" ">
<polygon fill="white" stroke="#666666" points="961.5,-132 894.5,-132 894.5,-112 961.5,-112 961.5,-132"/>
<text xml:space="preserve" text-anchor="middle" x="928" y="-118.5" font-family="Helvetica,sans-Serif" font-size="10.00">command.h</text>
</a>
</g>
</g>
<!-- Node1&#45;&gt;Node18 -->
<g id="edge59_Node000001_Node000018" class="edge">
<title>Node1&#45;&gt;Node18</title>
<g id="a_edge59_Node000001_Node000018"><a xlink:title=" ">
<path fill="none" stroke="#63b8ff" d="M797.03,-335.82C824.86,-290.6 889.71,-185.22 916.3,-142.01"/>
<polygon fill="#63b8ff" stroke="#63b8ff" points="919.14,-144.07 921.4,-133.72 913.18,-140.4 919.14,-144.07"/>
</a>
</g>
</g>
<!-- Node19 -->
<g id="Node000019" class="node">
<title>Node19</title>
<g id="a_Node000019"><a xlink:href="panel_8h.html" target="_top" xlink:title=" ">
<polygon fill="white" stroke="#666666" points="784.5,-300 705.5,-300 705.5,-280 784.5,-280 784.5,-300"/>
<text xml:space="preserve" text-anchor="middle" x="745" y="-286.5" font-family="Helvetica,sans-Serif" font-size="10.00">widget/panel.h</text>
</a>
</g>
</g>
<!-- Node1&#45;&gt;Node19 -->
<g id="edge47_Node000001_Node000019" class="edge">
<title>Node1&#45;&gt;Node19</title>
<g id="a_edge47_Node000001_Node000019"><a xlink:title=" ">
<path fill="none" stroke="#63b8ff" d="M771.45,-335.75C766.61,-327.57 761.11,-318.27 756.39,-310.28"/>
<polygon fill="#63b8ff" stroke="#63b8ff" points="759.44,-308.55 751.34,-301.72 753.41,-312.11 759.44,-308.55"/>
</a>
</g>
</g>
<!-- Node20 -->
<g id="Node000020" class="node">
<title>Node20</title>
<g id="a_Node000020"><a xlink:href="rectangle_8h.html" target="_top" xlink:title=" ">
<polygon fill="white" stroke="#666666" points="1296,-300 1202,-300 1202,-280 1296,-280 1296,-300"/>
<text xml:space="preserve" text-anchor="middle" x="1249" y="-286.5" font-family="Helvetica,sans-Serif" font-size="10.00">render/rectangle.h</text>
</a>
</g>
</g>
<!-- Node1&#45;&gt;Node20 -->
<g id="edge60_Node000001_Node000020" class="edge">
<title>Node1&#45;&gt;Node20</title>
<g id="a_edge60_Node000001_Node000020"><a xlink:title=" ">
<path fill="none" stroke="#63b8ff" d="M851.93,-347.55C932.22,-336.35 1069.87,-317.05 1188,-300 1188.83,-299.88 1189.68,-299.76 1190.52,-299.64"/>
<polygon fill="#63b8ff" stroke="#63b8ff" points="1190.83,-303.13 1200.22,-298.22 1189.82,-296.2 1190.83,-303.13"/>
</a>
</g>
</g>
<!-- Node21 -->
<g id="Node000021" class="node">
<title>Node21</title>
<g id="a_Node000021"><a xlink:href="events_8h.html" target="_top" xlink:title=" ">
<polygon fill="white" stroke="#666666" points="317.75,-300 264.25,-300 264.25,-280 317.75,-280 317.75,-300"/>
<text xml:space="preserve" text-anchor="middle" x="291" y="-286.5" font-family="Helvetica,sans-Serif" font-size="10.00">events.h</text>
</a>
</g>
</g>
<!-- Node1&#45;&gt;Node21 -->
<g id="edge66_Node000001_Node000021" class="edge">
<title>Node1&#45;&gt;Node21</title>
<g id="a_edge66_Node000001_Node000021"><a xlink:title=" ">
<path fill="none" stroke="#63b8ff" d="M716.06,-351.28C628.55,-343.31 471.59,-326.96 329.16,-300.42"/>
<polygon fill="#63b8ff" stroke="#63b8ff" points="330.02,-297.02 319.54,-298.6 328.72,-303.9 330.02,-297.02"/>
</a>
</g>
</g>
<!-- Node22 -->
<g id="Node000022" class="node">
<title>Node22</title>
<g id="a_Node000022"><a xlink:href="macros_8h.html" target="_top" xlink:title=" ">
<polygon fill="white" stroke="#666666" points="1370.25,-300 1313.75,-300 1313.75,-280 1370.25,-280 1370.25,-300"/>
<text xml:space="preserve" text-anchor="middle" x="1342" y="-286.5" font-family="Helvetica,sans-Serif" font-size="10.00">macros.h</text>
</a>
</g>
</g>
<!-- Node1&#45;&gt;Node22 -->
<g id="edge71_Node000001_Node000022" class="edge">
<title>Node1&#45;&gt;Node22</title>
<g id="a_edge71_Node000001_Node000022"><a xlink:title=" ">
<path fill="none" stroke="#63b8ff" d="M851.84,-352.4C949.5,-345.15 1135.47,-329.03 1302.43,-300.26"/>
<polygon fill="#63b8ff" stroke="#63b8ff" points="1302.65,-303.77 1311.9,-298.61 1301.45,-296.88 1302.65,-303.77"/>
</a>
</g>
</g>
<!-- Node3&#45;&gt;Node2 -->
<g id="edge4_Node000003_Node000002" class="edge">
<title>Node3&#45;&gt;Node2</title>
<g id="a_edge4_Node000003_Node000002"><a xlink:title=" ">
<path fill="none" stroke="#63b8ff" d="M967.49,-62.54C888.1,-53.86 620.95,-24.66 528.11,-14.51"/>
<polygon fill="#63b8ff" stroke="#63b8ff" points="528.52,-11.03 518.2,-13.43 527.76,-17.99 528.52,-11.03"/>
</a>
</g>
</g>
<!-- Node4 -->
<g id="Node000004" class="node">
<title>Node4</title>
<g id="a_Node000004"><a xlink:title=" ">
<polygon fill="#e0e0e0" stroke="#999999" points="986.12,-20 937.88,-20 937.88,0 986.12,0 986.12,-20"/>
<text xml:space="preserve" text-anchor="middle" x="962" y="-6.5" font-family="Helvetica,sans-Serif" font-size="10.00">stdint.h</text>
</a>
</g>
</g>
<!-- Node3&#45;&gt;Node4 -->
<g id="edge3_Node000003_Node000004" class="edge">
<title>Node3&#45;&gt;Node4</title>
<g id="a_edge3_Node000003_Node000004"><a xlink:title=" ">
<path fill="none" stroke="#63b8ff" d="M985.12,-55.59C981.51,-48.63 976.46,-38.89 972,-30.29"/>
<polygon fill="#63b8ff" stroke="#63b8ff" points="975.23,-28.91 967.52,-21.64 969.01,-32.13 975.23,-28.91"/>
</a>
</g>
</g>
<!-- Node7&#45;&gt;Node5 -->
<g id="edge8_Node000007_Node000005" class="edge">
<title>Node7&#45;&gt;Node5</title>
<g id="a_edge8_Node000007_Node000005"><a xlink:title=" ">
<path fill="none" stroke="#63b8ff" d="M309.73,-55.59C278.29,-46.71 230.91,-33.31 196.29,-23.52"/>
<polygon fill="#63b8ff" stroke="#63b8ff" points="197.56,-20.24 186.99,-20.89 195.66,-26.98 197.56,-20.24"/>
</a>
</g>
</g>
<!-- Node8&#45;&gt;Node2 -->
<g id="edge10_Node000008_Node000002" class="edge">
<title>Node8&#45;&gt;Node2</title>
<g id="a_edge10_Node000008_Node000002"><a xlink:title=" ">
<path fill="none" stroke="#63b8ff" d="M389.35,-111.53C401.4,-102.77 419.43,-89.15 434,-76 450.74,-60.88 468.35,-42.1 480.51,-28.62"/>
<polygon fill="#63b8ff" stroke="#63b8ff" points="482.93,-31.17 486.97,-21.37 477.7,-26.51 482.93,-31.17"/>
</a>
</g>
</g>
<!-- Node8&#45;&gt;Node5 -->
<g id="edge11_Node000008_Node000005" class="edge">
<title>Node8&#45;&gt;Node5</title>
<g id="a_edge11_Node000008_Node000005"><a xlink:title=" ">
<path fill="none" stroke="#63b8ff" d="M384.99,-111.63C396.93,-98.05 414.95,-72.7 401,-56 376.46,-26.62 269.92,-16.39 204.41,-12.85"/>
<polygon fill="#63b8ff" stroke="#63b8ff" points="204.76,-9.36 194.59,-12.36 204.41,-16.35 204.76,-9.36"/>
</a>
</g>
</g>
<!-- Node8&#45;&gt;Node6 -->
<g id="edge13_Node000008_Node000006" class="edge">
<title>Node8&#45;&gt;Node6</title>
<g id="a_edge13_Node000008_Node000006"><a xlink:title=" ">
<path fill="none" stroke="#63b8ff" d="M408.4,-111.59C438.88,-102.74 484.76,-89.43 518.43,-79.65"/>
<polygon fill="#63b8ff" stroke="#63b8ff" points="519.27,-83.05 527.89,-76.9 517.32,-76.33 519.27,-83.05"/>
</a>
</g>
</g>
<!-- Node8&#45;&gt;Node7 -->
<g id="edge12_Node000008_Node000007" class="edge">
<title>Node8&#45;&gt;Node7</title>
<g id="a_edge12_Node000008_Node000007"><a xlink:title=" ">
<path fill="none" stroke="#63b8ff" d="M370.25,-111.59C365.95,-104.55 359.91,-94.67 354.61,-86"/>
<polygon fill="#63b8ff" stroke="#63b8ff" points="357.67,-84.3 349.47,-77.59 351.7,-87.95 357.67,-84.3"/>
</a>
</g>
</g>
<!-- Node9&#45;&gt;Node4 -->
<g id="edge15_Node000009_Node000004" class="edge">
<title>Node9&#45;&gt;Node4</title>
<g id="a_edge15_Node000009_Node000004"><a xlink:title=" ">
<path fill="none" stroke="#63b8ff" d="M1241.96,-167.82C1238.8,-144.67 1227.09,-83.8 1189,-56 1158.93,-34.05 1053.44,-20.3 997.48,-14.38"/>
<polygon fill="#63b8ff" stroke="#63b8ff" points="998.15,-10.93 987.84,-13.39 997.43,-17.89 998.15,-10.93"/>
</a>
</g>
</g>
<!-- Node10&#45;&gt;Node9 -->
<g id="edge17_Node000010_Node000009" class="edge">
<title>Node10&#45;&gt;Node9</title>
<g id="a_edge17_Node000010_Node000009"><a xlink:title=" ">
<path fill="none" stroke="#63b8ff" d="M1209.14,-223.59C1214.61,-216.39 1222.32,-206.23 1229.01,-197.43"/>
<polygon fill="#63b8ff" stroke="#63b8ff" points="1231.77,-199.58 1235.02,-189.5 1226.19,-195.35 1231.77,-199.58"/>
</a>
</g>
</g>
<!-- Node11&#45;&gt;Node2 -->
<g id="edge19_Node000011_Node000002" class="edge">
<title>Node11&#45;&gt;Node2</title>
<g id="a_edge19_Node000011_Node000002"><a xlink:title=" ">
<path fill="none" stroke="#63b8ff" d="M356.14,-279.56C323.55,-263.84 266,-229.01 266,-179 266,-179 266,-179 266,-121 266,-90.9 262.94,-76.48 285,-56 310.66,-32.18 411.36,-19.15 463.82,-13.86"/>
<polygon fill="#63b8ff" stroke="#63b8ff" points="464.02,-17.35 473.64,-12.91 463.35,-10.39 464.02,-17.35"/>
</a>
</g>
</g>
<!-- Node11&#45;&gt;Node5 -->
<g id="edge20_Node000011_Node000005" class="edge">
<title>Node11&#45;&gt;Node5</title>
<g id="a_edge20_Node000011_Node000005"><a xlink:title=" ">
<path fill="none" stroke="#63b8ff" d="M345.31,-279.63C324.93,-272.49 299.21,-260.95 281,-244 213.57,-181.21 172.95,-75 158.26,-31.01"/>
<polygon fill="#63b8ff" stroke="#63b8ff" points="161.69,-30.21 155.27,-21.78 155.03,-32.37 161.69,-30.21"/>
</a>
</g>
</g>
<!-- Node12 -->
<g id="Node000012" class="node">
<title>Node12</title>
<g id="a_Node000012"><a xlink:href="node_8h.html" target="_top" xlink:title=" ">
<polygon fill="white" stroke="#666666" points="497.25,-188 422.75,-188 422.75,-168 497.25,-168 497.25,-188"/>
<text xml:space="preserve" text-anchor="middle" x="460" y="-174.5" font-family="Helvetica,sans-Serif" font-size="10.00">yuime/node.h</text>
</a>
</g>
</g>
<!-- Node11&#45;&gt;Node12 -->
<g id="edge21_Node000011_Node000012" class="edge">
<title>Node11&#45;&gt;Node12</title>
<g id="a_edge21_Node000011_Node000012"><a xlink:title=" ">
<path fill="none" stroke="#63b8ff" d="M384.99,-279.62C398.55,-261.44 428.62,-221.09 446.3,-197.38"/>
<polygon fill="#63b8ff" stroke="#63b8ff" points="448.95,-199.68 452.12,-189.57 443.34,-195.49 448.95,-199.68"/>
</a>
</g>
</g>
<!-- Node11&#45;&gt;Node15 -->
<g id="edge32_Node000011_Node000015" class="edge">
<title>Node11&#45;&gt;Node15</title>
<g id="a_edge32_Node000011_Node000015"><a xlink:title=" ">
<path fill="none" stroke="#63b8ff" d="M420.72,-281.21C473.26,-271.62 562.48,-255.34 619.79,-244.89"/>
<polygon fill="#63b8ff" stroke="#63b8ff" points="620.11,-248.39 629.32,-243.15 618.85,-241.5 620.11,-248.39"/>
</a>
</g>
</g>
<!-- Node12&#45;&gt;Node2 -->
<g id="edge23_Node000012_Node000002" class="edge">
<title>Node12&#45;&gt;Node2</title>
<g id="a_edge23_Node000012_Node000002"><a xlink:title=" ">
<path fill="none" stroke="#63b8ff" d="M462.04,-167.6C467.71,-141.46 483.75,-67.48 491.59,-31.36"/>
<polygon fill="#63b8ff" stroke="#63b8ff" points="494.96,-32.29 493.66,-21.78 488.12,-30.81 494.96,-32.29"/>
</a>
</g>
</g>
<!-- Node12&#45;&gt;Node4 -->
<g id="edge22_Node000012_Node000004" class="edge">
<title>Node12&#45;&gt;Node4</title>
<g id="a_edge22_Node000012_Node000004"><a xlink:title=" ">
<path fill="none" stroke="#63b8ff" d="M481.88,-167.5C532.75,-145.66 663.25,-91.07 776,-56 827.75,-39.9 889.07,-26.05 926.75,-18.12"/>
<polygon fill="#63b8ff" stroke="#63b8ff" points="927.09,-21.62 936.17,-16.16 925.67,-14.77 927.09,-21.62"/>
</a>
</g>
</g>
<!-- Node12&#45;&gt;Node5 -->
<g id="edge25_Node000012_Node000005" class="edge">
<title>Node12&#45;&gt;Node5</title>
<g id="a_edge25_Node000012_Node000005"><a xlink:title=" ">
<path fill="none" stroke="#63b8ff" d="M422.35,-169.15C392.03,-161.97 348.88,-149.73 314,-132 256.68,-102.86 198.45,-53.47 169.95,-27.73"/>
<polygon fill="#63b8ff" stroke="#63b8ff" points="172.64,-25.45 162.9,-21.28 167.92,-30.61 172.64,-25.45"/>
</a>
</g>
</g>
<!-- Node12&#45;&gt;Node6 -->
<g id="edge24_Node000012_Node000006" class="edge">
<title>Node12&#45;&gt;Node6</title>
<g id="a_edge24_Node000012_Node000006"><a xlink:title=" ">
<path fill="none" stroke="#63b8ff" d="M468.7,-167.62C485.71,-149.27 523.64,-108.37 545.54,-84.75"/>
<polygon fill="#63b8ff" stroke="#63b8ff" points="548.06,-87.18 552.3,-77.46 542.93,-82.42 548.06,-87.18"/>
</a>
</g>
</g>
<!-- Node12&#45;&gt;Node7 -->
<g id="edge27_Node000012_Node000007" class="edge">
<title>Node12&#45;&gt;Node7</title>
<g id="a_edge27_Node000012_Node000007"><a xlink:title=" ">
<path fill="none" stroke="#63b8ff" d="M422.54,-176.1C390.3,-173.1 345.54,-163.13 323,-132 313.07,-118.28 320.54,-99.53 329.04,-85.69"/>
<polygon fill="#63b8ff" stroke="#63b8ff" points="331.89,-87.72 334.61,-77.49 326.1,-83.79 331.89,-87.72"/>
</a>
</g>
</g>
<!-- Node12&#45;&gt;Node8 -->
<g id="edge26_Node000012_Node000008" class="edge">
<title>Node12&#45;&gt;Node8</title>
<g id="a_edge26_Node000012_Node000008"><a xlink:title=" ">
<path fill="none" stroke="#63b8ff" d="M445.37,-167.59C432.92,-159.59 414.78,-147.93 400.18,-138.54"/>
<polygon fill="#63b8ff" stroke="#63b8ff" points="402.32,-135.76 392.02,-133.3 398.54,-141.65 402.32,-135.76"/>
</a>
</g>
</g>
<!-- Node12&#45;&gt;Node13 -->
<g id="edge28_Node000012_Node000013" class="edge">
<title>Node12&#45;&gt;Node13</title>
<g id="a_edge28_Node000012_Node000013"><a xlink:title=" ">
<path fill="none" stroke="#63b8ff" d="M497.31,-174.02C610.42,-164.98 949.87,-137.87 1082.28,-127.29"/>
<polygon fill="#63b8ff" stroke="#63b8ff" points="1082.49,-130.79 1092.18,-126.5 1081.93,-123.81 1082.49,-130.79"/>
</a>
</g>
</g>
<!-- Node13&#45;&gt;Node3 -->
<g id="edge30_Node000013_Node000003" class="edge">
<title>Node13&#45;&gt;Node3</title>
<g id="a_edge30_Node000013_Node000003"><a xlink:title=" ">
<path fill="none" stroke="#63b8ff" d="M1110.57,-111.59C1086.41,-102.66 1049.93,-89.17 1023.43,-79.36"/>
<polygon fill="#63b8ff" stroke="#63b8ff" points="1024.76,-76.12 1014.16,-75.94 1022.33,-82.69 1024.76,-76.12"/>
</a>
</g>
</g>
<!-- Node13&#45;&gt;Node4 -->
<g id="edge31_Node000013_Node000004" class="edge">
<title>Node13&#45;&gt;Node4</title>
<g id="a_edge31_Node000013_Node000004"><a xlink:title=" ">
<path fill="none" stroke="#63b8ff" d="M1130.23,-111.75C1121.13,-97.86 1102.19,-71.57 1080,-56 1054.9,-38.38 1022.01,-26.59 997.33,-19.51"/>
<polygon fill="#63b8ff" stroke="#63b8ff" points="998.31,-16.15 987.75,-16.89 996.47,-22.9 998.31,-16.15"/>
</a>
</g>
</g>
<!-- Node14 -->
<g id="Node000014" class="node">
<title>Node14</title>
<g id="a_Node000014"><a xlink:title=" ">
<polygon fill="#e0e0e0" stroke="#999999" points="1180.12,-76 1131.88,-76 1131.88,-56 1180.12,-56 1180.12,-76"/>
<text xml:space="preserve" text-anchor="middle" x="1156" y="-62.5" font-family="Helvetica,sans-Serif" font-size="10.00">string.h</text>
</a>
</g>
</g>
<!-- Node13&#45;&gt;Node14 -->
<g id="edge29_Node000013_Node000014" class="edge">
<title>Node13&#45;&gt;Node14</title>
<g id="a_edge29_Node000013_Node000014"><a xlink:title=" ">
<path fill="none" stroke="#63b8ff" d="M1139.48,-111.59C1142.01,-104.78 1145.51,-95.32 1148.64,-86.86"/>
<polygon fill="#63b8ff" stroke="#63b8ff" points="1151.84,-88.31 1152.03,-77.72 1145.28,-85.88 1151.84,-88.31"/>
</a>
</g>
</g>
<!-- Node15&#45;&gt;Node3 -->
<g id="edge34_Node000015_Node000003" class="edge">
<title>Node15&#45;&gt;Node3</title>
<g id="a_edge34_Node000015_Node000003"><a xlink:title=" ">
<path fill="none" stroke="#63b8ff" d="M717.32,-226.77C757.95,-220.07 819.93,-207.66 871,-188 918.54,-169.7 939.27,-171.85 971,-132 981.09,-119.32 985.82,-101.46 988.04,-87.66"/>
<polygon fill="#63b8ff" stroke="#63b8ff" points="991.49,-88.27 989.27,-77.91 984.55,-87.4 991.49,-88.27"/>
</a>
</g>
</g>
<!-- Node15&#45;&gt;Node4 -->
<g id="edge33_Node000015_Node000004" class="edge">
<title>Node15&#45;&gt;Node4</title>
<g id="a_edge33_Node000015_Node000004"><a xlink:title=" ">
<path fill="none" stroke="#63b8ff" d="M686.01,-223.74C730.2,-189.68 884.13,-71.03 940.82,-27.32"/>
<polygon fill="#63b8ff" stroke="#63b8ff" points="942.96,-30.1 948.74,-21.22 938.68,-24.55 942.96,-30.1"/>
</a>
</g>
</g>
<!-- Node15&#45;&gt;Node5 -->
<g id="edge35_Node000015_Node000005" class="edge">
<title>Node15&#45;&gt;Node5</title>
<g id="a_edge35_Node000015_Node000005"><a xlink:title=" ">
<path fill="none" stroke="#63b8ff" d="M673.52,-223.71C671.43,-193.67 660.44,-98.61 604,-56 572.66,-32.34 316.41,-18.25 204.25,-13.17"/>
<polygon fill="#63b8ff" stroke="#63b8ff" points="204.56,-9.68 194.41,-12.73 204.25,-16.67 204.56,-9.68"/>
</a>
</g>
</g>
<!-- Node15&#45;&gt;Node12 -->
<g id="edge36_Node000015_Node000012" class="edge">
<title>Node15&#45;&gt;Node12</title>
<g id="a_edge36_Node000015_Node000012"><a xlink:title=" ">
<path fill="none" stroke="#63b8ff" d="M636.72,-223.59C601.19,-214.63 547.49,-201.08 508.61,-191.27"/>
<polygon fill="#63b8ff" stroke="#63b8ff" points="509.59,-187.9 499.03,-188.85 507.87,-194.69 509.59,-187.9"/>
</a>
</g>
</g>
<!-- Node15&#45;&gt;Node16 -->
<g id="edge37_Node000015_Node000016" class="edge">
<title>Node15&#45;&gt;Node16</title>
<g id="a_edge37_Node000015_Node000016"><a xlink:title=" ">
<path fill="none" stroke="#63b8ff" d="M717.19,-226.54C783.72,-216.59 911.07,-197.54 982.71,-186.82"/>
<polygon fill="#63b8ff" stroke="#63b8ff" points="982.84,-190.34 992.22,-185.4 981.81,-183.42 982.84,-190.34"/>
</a>
</g>
</g>
<!-- Node15&#45;&gt;Node17 -->
<g id="edge39_Node000015_Node000017" class="edge">
<title>Node15&#45;&gt;Node17</title>
<g id="a_edge39_Node000015_Node000017"><a xlink:title=" ">
<path fill="none" stroke="#63b8ff" d="M699.61,-223.59C723.07,-214.97 758.07,-202.12 784.47,-192.42"/>
<polygon fill="#63b8ff" stroke="#63b8ff" points="785.59,-195.73 793.77,-189 783.18,-189.16 785.59,-195.73"/>
</a>
</g>
</g>
<!-- Node16&#45;&gt;Node4 -->
<g id="edge38_Node000016_Node000004" class="edge">
<title>Node16&#45;&gt;Node4</title>
<g id="a_edge38_Node000016_Node000004"><a xlink:title=" ">
<path fill="none" stroke="#63b8ff" d="M1036.87,-167.74C1038.6,-158.68 1041.04,-144.46 1042,-132 1044.7,-97.06 1041.9,-84.13 1021,-56 1012.32,-44.32 999.82,-34.19 988.56,-26.51"/>
<polygon fill="#63b8ff" stroke="#63b8ff" points="990.68,-23.72 980.38,-21.24 986.89,-29.6 990.68,-23.72"/>
</a>
</g>
</g>
<!-- Node17&#45;&gt;Node2 -->
<g id="edge41_Node000017_Node000002" class="edge">
<title>Node17&#45;&gt;Node2</title>
<g id="a_edge41_Node000017_Node000002"><a xlink:title=" ">
<path fill="none" stroke="#63b8ff" d="M816.74,-167.57C805.73,-144.38 773.98,-84.41 728,-56 664.91,-17.01 575.24,-10.65 527.99,-10.27"/>
<polygon fill="#63b8ff" stroke="#63b8ff" points="528.16,-6.77 518.17,-10.29 528.18,-13.77 528.16,-6.77"/>
</a>
</g>
</g>
<!-- Node17&#45;&gt;Node4 -->
<g id="edge40_Node000017_Node000004" class="edge">
<title>Node17&#45;&gt;Node4</title>
<g id="a_edge40_Node000017_Node000004"><a xlink:title=" ">
<path fill="none" stroke="#63b8ff" d="M828.98,-167.6C851.67,-140.89 916.79,-64.23 946.67,-29.05"/>
<polygon fill="#63b8ff" stroke="#63b8ff" points="949.32,-31.34 953.12,-21.45 943.98,-26.81 949.32,-31.34"/>
</a>
</g>
</g>
<!-- Node17&#45;&gt;Node18 -->
<g id="edge42_Node000017_Node000018" class="edge">
<title>Node17&#45;&gt;Node18</title>
<g id="a_edge42_Node000017_Node000018"><a xlink:title=" ">
<path fill="none" stroke="#63b8ff" d="M839.64,-167.59C856.03,-159.32 880.16,-147.14 899.06,-137.6"/>
<polygon fill="#63b8ff" stroke="#63b8ff" points="900.51,-140.79 907.87,-133.16 897.36,-134.54 900.51,-140.79"/>
</a>
</g>
</g>
<!-- Node18&#45;&gt;Node2 -->
<g id="edge44_Node000018_Node000002" class="edge">
<title>Node18&#45;&gt;Node2</title>
<g id="a_edge44_Node000018_Node000002"><a xlink:title=" ">
<path fill="none" stroke="#63b8ff" d="M908.53,-111.58C878.58,-97.46 819.11,-70.89 766,-56 681.7,-32.36 578.9,-19.44 527.89,-14.05"/>
<polygon fill="#63b8ff" stroke="#63b8ff" points="528.46,-10.6 518.16,-13.06 527.75,-17.56 528.46,-10.6"/>
</a>
</g>
</g>
<!-- Node18&#45;&gt;Node3 -->
<g id="edge45_Node000018_Node000003" class="edge">
<title>Node18&#45;&gt;Node3</title>
<g id="a_edge45_Node000018_Node000003"><a xlink:title=" ">
<path fill="none" stroke="#63b8ff" d="M938.8,-111.59C947.6,-103.93 960.25,-92.91 970.77,-83.75"/>
<polygon fill="#63b8ff" stroke="#63b8ff" points="972.94,-86.5 978.18,-77.29 968.34,-81.22 972.94,-86.5"/>
</a>
</g>
</g>
<!-- Node18&#45;&gt;Node4 -->
<g id="edge43_Node000018_Node000004" class="edge">
<title>Node18&#45;&gt;Node4</title>
<g id="a_edge43_Node000018_Node000004"><a xlink:title=" ">
<path fill="none" stroke="#63b8ff" d="M930.9,-111.62C936.37,-93.92 948.33,-55.24 955.72,-31.32"/>
<polygon fill="#63b8ff" stroke="#63b8ff" points="959.05,-32.39 958.66,-21.8 952.36,-30.32 959.05,-32.39"/>
</a>
</g>
</g>
<!-- Node19&#45;&gt;Node2 -->
<g id="edge48_Node000019_Node000002" class="edge">
<title>Node19&#45;&gt;Node2</title>
<g id="a_edge48_Node000019_Node000002"><a xlink:title=" ">
<path fill="none" stroke="#63b8ff" d="M743.29,-279.6C736.3,-244.03 706.45,-116.6 628,-56 598.36,-33.1 556.35,-21.45 527.73,-15.81"/>
<polygon fill="#63b8ff" stroke="#63b8ff" points="528.69,-12.42 518.22,-14.08 527.44,-19.31 528.69,-12.42"/>
</a>
</g>
</g>
<!-- Node19&#45;&gt;Node3 -->
<g id="edge49_Node000019_Node000003" class="edge">
<title>Node19&#45;&gt;Node3</title>
<g id="a_edge49_Node000019_Node000003"><a xlink:title=" ">
<path fill="none" stroke="#63b8ff" d="M764.71,-279.64C818.61,-253.56 966.1,-178.93 990,-132 996.98,-118.3 996.53,-100.76 994.58,-87.36"/>
<polygon fill="#63b8ff" stroke="#63b8ff" points="998.09,-87.12 992.82,-77.93 991.21,-88.4 998.09,-87.12"/>
</a>
</g>
</g>
<!-- Node19&#45;&gt;Node6 -->
<g id="edge50_Node000019_Node000006" class="edge">
<title>Node19&#45;&gt;Node6</title>
<g id="a_edge50_Node000019_Node000006"><a xlink:title=" ">
<path fill="none" stroke="#63b8ff" d="M705.24,-283.56C678.45,-277.94 644.08,-266.61 622,-244 616.29,-238.15 582.39,-131.83 568.22,-86.84"/>
<polygon fill="#63b8ff" stroke="#63b8ff" points="571.65,-86.07 565.31,-77.58 564.97,-88.17 571.65,-86.07"/>
</a>
</g>
</g>
<!-- Node19&#45;&gt;Node7 -->
<g id="edge51_Node000019_Node000007" class="edge">
<title>Node19&#45;&gt;Node7</title>
<g id="a_edge51_Node000019_Node000007"><a xlink:title=" ">
<path fill="none" stroke="#63b8ff" d="M706.19,-279.51C678.5,-271.92 640.85,-259.92 610,-244 559.13,-217.75 552.26,-201.72 506,-168 471.81,-143.07 464.95,-134.31 429,-112 411.03,-100.85 390.01,-89.81 373.25,-81.46"/>
<polygon fill="#63b8ff" stroke="#63b8ff" points="374.8,-78.33 364.28,-77.06 371.71,-84.61 374.8,-78.33"/>
</a>
</g>
</g>
<!-- Node19&#45;&gt;Node8 -->
<g id="edge52_Node000019_Node000008" class="edge">
<title>Node19&#45;&gt;Node8</title>
<g id="a_edge52_Node000019_Node000008"><a xlink:title=" ">
<path fill="none" stroke="#63b8ff" d="M705.41,-285.45C657.99,-280.28 576.71,-268.49 511,-244 464.36,-226.61 449.3,-223.1 414,-188 400.97,-175.04 390.79,-156.7 384.26,-142.81"/>
<polygon fill="#63b8ff" stroke="#63b8ff" points="387.51,-141.51 380.26,-133.78 381.11,-144.34 387.51,-141.51"/>
</a>
</g>
</g>
<!-- Node19&#45;&gt;Node9 -->
<g id="edge53_Node000019_Node000009" class="edge">
<title>Node19&#45;&gt;Node9</title>
<g id="a_edge53_Node000019_Node000009"><a xlink:title=" ">
<path fill="none" stroke="#63b8ff" d="M784.91,-280.18C876.18,-260.02 1099.71,-210.65 1196.77,-189.21"/>
<polygon fill="#63b8ff" stroke="#63b8ff" points="1197.47,-192.64 1206.48,-187.07 1195.96,-185.81 1197.47,-192.64"/>
</a>
</g>
</g>
<!-- Node19&#45;&gt;Node10 -->
<g id="edge54_Node000019_Node000010" class="edge">
<title>Node19&#45;&gt;Node10</title>
<g id="a_edge54_Node000019_Node000010"><a xlink:title=" ">
<path fill="none" stroke="#63b8ff" d="M784.76,-284.3C868.18,-274.44 1061.31,-251.62 1152.56,-240.84"/>
<polygon fill="#63b8ff" stroke="#63b8ff" points="1152.93,-244.32 1162.45,-239.67 1152.1,-237.37 1152.93,-244.32"/>
</a>
</g>
</g>
<!-- Node19&#45;&gt;Node12 -->
<g id="edge55_Node000019_Node000012" class="edge">
<title>Node19&#45;&gt;Node12</title>
<g id="a_edge55_Node000019_Node000012"><a xlink:title=" ">
<path fill="none" stroke="#63b8ff" d="M705.18,-284.65C664.47,-279.12 600.13,-267.34 549,-244 522.12,-231.73 495.29,-210.62 478.23,-195.79"/>
<polygon fill="#63b8ff" stroke="#63b8ff" points="480.74,-193.34 470.94,-189.3 476.08,-198.57 480.74,-193.34"/>
</a>
</g>
</g>
<!-- Node19&#45;&gt;Node13 -->
<g id="edge57_Node000019_Node000013" class="edge">
<title>Node19&#45;&gt;Node13</title>
<g id="a_edge57_Node000019_Node000013"><a xlink:title=" ">
<path fill="none" stroke="#63b8ff" d="M774.3,-279.55C802.43,-270.47 846.14,-256.34 884,-244 911.13,-235.16 917.61,-232 945,-224 1006.67,-205.98 1031.21,-223.13 1085,-188 1102.78,-176.39 1117.05,-156.46 1125.93,-141.73"/>
<polygon fill="#63b8ff" stroke="#63b8ff" points="1128.75,-143.84 1130.66,-133.42 1122.67,-140.38 1128.75,-143.84"/>
</a>
</g>
</g>
<!-- Node19&#45;&gt;Node15 -->
<g id="edge56_Node000019_Node000015" class="edge">
<title>Node19&#45;&gt;Node15</title>
<g id="a_edge56_Node000019_Node000015"><a xlink:title=" ">
<path fill="none" stroke="#63b8ff" d="M732.63,-279.59C722.35,-271.77 707.48,-260.46 695.29,-251.19"/>
<polygon fill="#63b8ff" stroke="#63b8ff" points="697.51,-248.48 687.43,-245.21 693.27,-254.05 697.51,-248.48"/>
</a>
</g>
</g>
<!-- Node20&#45;&gt;Node6 -->
<g id="edge61_Node000020_Node000006" class="edge">
<title>Node20&#45;&gt;Node6</title>
<g id="a_edge61_Node000020_Node000006"><a xlink:title=" ">
<path fill="none" stroke="#63b8ff" d="M1257.37,-279.5C1276,-257.19 1317.01,-200.83 1287,-168 1256.82,-134.98 930.27,-138.41 886,-132 784.98,-117.38 667.87,-91.68 605.84,-77.37"/>
<polygon fill="#63b8ff" stroke="#63b8ff" points="606.92,-74.03 596.38,-75.18 605.34,-80.85 606.92,-74.03"/>
</a>
</g>
</g>
<!-- Node20&#45;&gt;Node9 -->
<g id="edge62_Node000020_Node000009" class="edge">
<title>Node20&#45;&gt;Node9</title>
<g id="a_edge62_Node000020_Node000009"><a xlink:title=" ">
<path fill="none" stroke="#63b8ff" d="M1249.39,-279.73C1249.82,-267.11 1250.32,-243.82 1249,-224 1248.47,-215.94 1247.4,-207.13 1246.31,-199.45"/>
<polygon fill="#63b8ff" stroke="#63b8ff" points="1249.8,-199.13 1244.83,-189.77 1242.88,-200.18 1249.8,-199.13"/>
</a>
</g>
</g>
<!-- Node20&#45;&gt;Node10 -->
<g id="edge63_Node000020_Node000010" class="edge">
<title>Node20&#45;&gt;Node10</title>
<g id="a_edge63_Node000020_Node000010"><a xlink:title=" ">
<path fill="none" stroke="#63b8ff" d="M1240.81,-279.59C1234.41,-272.24 1225.32,-261.8 1217.55,-252.87"/>
<polygon fill="#63b8ff" stroke="#63b8ff" points="1220.29,-250.69 1211.09,-245.44 1215.01,-255.28 1220.29,-250.69"/>
</a>
</g>
</g>
<!-- Node21&#45;&gt;Node2 -->
<g id="edge67_Node000021_Node000002" class="edge">
<title>Node21&#45;&gt;Node2</title>
<g id="a_edge67_Node000021_Node000002"><a xlink:title=" ">
<path fill="none" stroke="#63b8ff" d="M281.16,-279.74C263.44,-262 228,-221.25 228,-179 228,-179 228,-179 228,-121 228,-19.97 393.02,-9.76 464.08,-10.05"/>
<polygon fill="#63b8ff" stroke="#63b8ff" points="463.86,-13.55 473.9,-10.17 463.95,-6.55 463.86,-13.55"/>
</a>
</g>
</g>
<!-- Node21&#45;&gt;Node5 -->
<g id="edge68_Node000021_Node000005" class="edge">
<title>Node21&#45;&gt;Node5</title>
<g id="a_edge68_Node000021_Node000005"><a xlink:title=" ">
<path fill="none" stroke="#63b8ff" d="M263.78,-288.32C229.95,-286.01 172.46,-277.07 138,-244 76.5,-184.97 64.56,-133.53 100,-56 105.38,-44.23 115.52,-34.36 125.43,-26.9"/>
<polygon fill="#63b8ff" stroke="#63b8ff" points="127.22,-29.91 133.45,-21.35 123.24,-24.16 127.22,-29.91"/>
</a>
</g>
</g>
<!-- Node21&#45;&gt;Node12 -->
<g id="edge69_Node000021_Node000012" class="edge">
<title>Node21&#45;&gt;Node12</title>
<g id="a_edge69_Node000021_Node000012"><a xlink:title=" ">
<path fill="none" stroke="#63b8ff" d="M305.41,-279.62C334.47,-260.71 400.36,-217.82 436.02,-194.61"/>
<polygon fill="#63b8ff" stroke="#63b8ff" points="437.89,-197.57 444.36,-189.18 434.07,-191.7 437.89,-197.57"/>
</a>
</g>
</g>
<!-- Node21&#45;&gt;Node15 -->
<g id="edge70_Node000021_Node000015" class="edge">
<title>Node21&#45;&gt;Node15</title>
<g id="a_edge70_Node000021_Node000015"><a xlink:title=" ">
<path fill="none" stroke="#63b8ff" d="M318.06,-281.69C320.73,-281.07 323.41,-280.5 326,-280 428.92,-260.19 550.68,-246.68 619.48,-239.95"/>
<polygon fill="#63b8ff" stroke="#63b8ff" points="619.75,-243.44 629.36,-239 619.07,-236.48 619.75,-243.44"/>
</a>
</g>
</g>
</g>
</svg>
